<?xml version="1.0" encoding="UTF-8" standalone="no"?>
<!-- Created with Inkscape (http://www.inkscape.org/) -->

<svg
   width="73.046906mm"
   height="101.74289mm"
   viewBox="0 0 73.046906 101.74289"
   version="1.1"
   id="svg1"
   xml:space="preserve"
   xmlns="http://www.w3.org/2000/svg"
   xmlns:svg="http://www.w3.org/2000/svg"><defs
     id="defs1"><clipPath
       clipPathUnits="userSpaceOnUse"
       id="clipPath60"><path
         id="path61"
         style="font-variation-settings:normal;opacity:1;vector-effect:none;fill:#000000;fill-opacity:1;stroke-width:1.9416;stroke-linecap:butt;stroke-linejoin:miter;stroke-miterlimit:4;stroke-dasharray:none;stroke-dashoffset:0;stroke-opacity:1;-inkscape-stroke:none;stop-color:#000000;stop-opacity:1"
         d="m 108.81736,120.35153 v 100.33599 h 71.0458 V 120.35153 Z m 34.15037,23.49675 c 0.48133,-0.006 1.03769,0.0222 1.50947,0.17312 0.32282,-0.0221 0.64745,-0.006 0.97514,0.0455 0.22527,0.0588 0.45756,0.0954 0.67592,0.17622 1.02138,0.37771 1.7649,1.05935 2.28359,2.00608 0.3319,0.6046 0.82734,1.44659 0.83974,2.12752 0.003,0.16368 -0.009,0.32648 -0.03,0.48886 2.44685,0.41095 3.08341,3.26315 -0.29663,5.52111 -0.5968,0.39868 -1.23422,0.73082 -1.8619,1.07693 -0.33962,0.18727 -0.67731,0.37838 -1.01596,0.56741 -0.10983,0.0589 -0.21923,0.11886 -0.32814,0.17932 0.11664,0.12322 0.23941,0.25963 0.35398,0.39067 0.0116,-0.0117 0.023,-0.0237 0.0346,-0.0351 0.0738,-0.0738 0.13246,-0.2691 0.22376,-0.21859 0.005,0.003 0.01,0.006 0.015,0.008 0.072,-0.0725 0.12877,-0.11286 0.185,-0.11576 h 5.3e-4 c 0.12367,-0.006 0.24465,0.16759 0.51935,0.57413 0.33129,0.24556 0.64444,0.51807 0.94567,0.79788 0.0507,0.0471 -0.0821,0.11132 -0.12712,0.16382 -0.0283,0.033 -0.057,0.0656 -0.0858,0.0982 0.001,0.0305 -0.0329,0.0574 -0.076,0.0842 -0.0961,0.10631 -0.19408,0.21114 -0.29145,0.31626 0.0139,0.024 0.0278,0.0485 0.0413,0.0729 0.0816,0.10912 0.1632,0.21819 0.24495,0.32711 0.11824,0.15795 0.23454,0.3169 0.34984,0.47697 0.61244,-1.29656 1.28527,-1.97209 2.14354,0.0228 0.0633,0.1472 0.13457,0.29102 0.19017,0.44132 0.11415,0.3086 0.13809,0.45674 0.20619,0.76172 0.1405,0.80716 0.23434,1.63402 0.0832,2.4479 -0.0788,0.38985 -0.15804,0.82519 -0.32763,1.18598 -0.12533,0.26665 -0.2143,0.56844 -0.42426,0.77514 -0.44087,0.43401 -0.88298,0.9831 -1.4888,1.10846 -0.18047,0.0373 -0.36223,0.0492 -0.54467,0.0444 -0.0862,0.54139 -0.17807,1.08215 -0.27285,1.62213 -0.0504,0.28462 -0.17408,0.99013 -0.23358,1.30173 -0.059,0.30894 -0.16777,0.88421 -0.27388,1.17512 -0.10194,0.2795 -0.16424,0.59173 -0.35864,0.81701 -0.2464,0.2854 -0.53371,0.53052 -0.82682,0.76997 0.35368,0.39929 0.63063,0.87617 0.84491,1.29863 0.1823,0.38675 0.25337,0.5236 0.41806,0.93328 0.31772,0.7904 0.56253,1.60905 0.74776,2.44016 0.0161,0.0829 0.0325,0.16601 0.0486,0.24908 0.0306,0.0765 0.0603,0.15336 0.0863,0.23151 0.0651,0.19602 0.11615,0.39605 0.17415,0.59428 -0.0162,0.25021 -0.0263,0.47582 -0.0346,0.67954 0.0279,0.38244 0.0238,0.76676 -0.0336,1.1529 -0.0816,0.54908 -0.36157,1.36996 -0.75292,1.81901 -0.25833,0.29642 -0.57574,0.53432 -0.87127,0.79428 0.0572,0.65708 0.11312,1.31454 0.15296,1.973 0.0397,0.61553 0.0766,1.2313 0.11524,1.84691 0.3449,-0.16772 0.68981,-0.33499 1.03611,-0.49971 0.24222,-1.42902 1.27029,-2.25367 2.42621,-2.25981 0.55443,-0.003 1.13813,0.18246 1.67897,0.57981 0.0217,-0.006 0.0437,-0.0128 0.0656,-0.0191 0.12991,-0.0378 0.26532,-0.0536 0.39791,-0.0806 v -5.3e-4 c 2.35087,-0.47835 1.8502,0.54971 0.91467,1.85932 0.13094,0.2775 0.24914,0.58143 0.35192,0.9126 0.0434,0.13992 0.0902,0.27867 0.13022,0.41962 0.17815,0.6282 0.28506,1.27402 0.42995,1.90996 0.14931,0.72939 0.28787,1.46057 0.42891,2.19159 0.0676,0.3504 0.23913,1.21926 0.29973,1.56787 0.0404,0.23211 0.0734,0.46544 0.11007,0.69815 0.0688,0.99421 0.26455,1.90646 -0.56999,2.80086 -0.54737,0.58664 -1.36841,0.85627 -2.11615,1.14722 -0.23766,0.0925 -0.51,-0.0162 -0.76481,-0.0264 -0.004,-7.9e-4 -0.0131,-0.003 -0.0155,-0.004 l -5.3e-4,-5.3e-4 v -5.3e-4 h 5.3e-4 5.3e-4 c 0.0363,0 0.0723,0.003 0.10852,0.004 -0.19573,-0.009 -0.245,-0.0209 -0.40101,-0.009 -0.16208,0.0129 -0.32463,0.0267 -0.48369,0.062 -0.51038,0.1331 -0.9949,0.34829 -1.48415,0.54209 -0.65142,0.26779 -1.30246,0.53853 -1.9296,0.85989 -1.12318,0.817 -1.57969,1.30149 -3.73517,0.24857 -1.20039,-0.58633 -1.22053,-1.7571 -1.20613,-2.75849 0.002,-0.16238 0.0542,-0.32154 0.0512,-0.48421 0.10576,-0.91135 0.23654,-1.81965 0.40153,-2.72231 0.0309,-0.1719 0.0616,-0.34373 0.092,-0.51573 -0.53167,-0.45145 -0.88952,-1.10827 -1.35805,-1.63453 -0.10602,-0.41806 -0.23955,-0.83015 -0.31833,-1.25419 -0.0825,-0.44389 -0.16708,-1.68717 -0.19947,-2.15594 -0.0106,-0.15388 -0.0209,-0.30755 -0.031,-0.46147 -0.42825,-0.31035 -0.86014,-0.70786 -1.28312,-1.20096 -0.30786,-0.35888 -0.59502,-0.73551 -0.87385,-1.11724 -0.0205,-0.0274 -0.0408,-0.055 -0.061,-0.0827 -3.7428,-1.00805 -3.33663,-0.96693 -3.37085,-3.3967 0.1074,-0.40756 0.23545,-0.80855 0.37362,-1.20664 0.51697,-1.48957 1.28992,-2.46739 2.1053,-2.98535 0.18075,-0.2809 0.3644,-0.55982 0.55293,-0.83561 0.48781,-0.69068 1.07168,-1.54083 1.8309,-1.9451 0.26167,-0.13932 0.46685,-0.23787 0.64285,-0.30695 0.0546,-0.64138 0.34512,-1.26074 1.06402,-1.82832 -0.0382,-0.0331 -0.0762,-0.065 -0.11524,-0.0951 -0.28526,-0.22004 -0.478,-0.54591 -0.7276,-0.80099 -0.29492,-0.36415 -0.57708,-0.73883 -0.79478,-1.15548 -0.25268,-0.44869 -0.47949,-0.91031 -0.69557,-1.37769 -0.0539,-0.11276 -0.10768,-0.22577 -0.16175,-0.33849 -0.0528,0.0128 -0.10634,0.0251 -0.15968,0.0362 -0.25504,0.0531 -0.51332,0.12509 -0.77359,0.11369 -0.33402,-0.0146 -0.7152,0.008 -0.98392,-0.19069 -0.33659,-0.24915 -0.46124,-0.69972 -0.69143,-1.04955 0.0179,-0.17863 0.0187,-0.3598 0.0537,-0.53588 0.0492,-0.24731 0.21196,-0.60638 0.31368,-0.83406 0.14983,-0.33537 0.30761,-0.66722 0.46974,-0.99684 -0.14882,-0.27364 -0.29904,-0.54669 -0.45011,-0.81855 -2.25161,-4.05207 0.21465,-6.91751 2.87011,-5.23586 -0.0601,-0.2584 -0.0758,-0.51786 -0.0377,-0.78393 -2.24528,-1.95267 -1.88546,-2.22939 -1.17306,-3.95221 0.25758,-0.43743 0.56107,-0.84273 0.88264,-1.23404 -0.30159,-0.24525 -0.57267,-0.53201 -0.82217,-0.82889 -0.39338,-0.46805 -0.58673,-1.27347 -0.72916,-1.865 -0.0289,-0.17022 -0.0627,-0.33954 -0.0863,-0.51056 -0.0694,-0.50178 -0.0853,-1.01124 -0.0599,-1.51671 0.0175,-0.13333 0.0264,-0.26815 0.0527,-0.39997 0.15598,-0.78022 0.54973,-1.46984 1.10174,-2.03812 0.40222,-0.35211 0.49531,-0.47282 0.96066,-0.72967 0.63444,-0.35018 1.33397,-0.52917 2.04846,-0.61857 0.18806,-0.014 0.37573,-0.0404 0.5643,-0.0424 z m -2.61947,8.86251 c -0.007,0.001 -0.0138,0.002 -0.0207,0.003 -0.009,0.001 -0.0268,0.0164 -0.0305,0.0217 l -5.3e-4,5.3e-4 v 5.3e-4 5.3e-4 h 5.3e-4 5.3e-4 5.3e-4 v -5.3e-4 h 5.3e-4 5.3e-4 5.3e-4 c 0.015,-0.008 0.0311,-0.0169 0.0486,-0.0258 z m 9.1183,8.477 c 0.0107,0.0145 0.0214,0.029 0.032,0.0434 0.01,0.0128 0.0351,0.046 0.0388,0.0491 h 5.3e-4 v -5.3e-4 c -7e-5,-1.3e-4 -2.3e-4,-0.001 -5.3e-4,-0.002 l -5.3e-4,-5.3e-4 c -2.1e-4,-2.6e-4 -7.9e-4,-7.9e-4 -0.001,-0.001 -0.0184,-0.0285 -0.0356,-0.0583 -0.0605,-0.0816 -0.003,-0.003 -0.006,-0.005 -0.009,-0.007 z m -10.3973,5.5671 c -0.0292,0.0694 -0.0461,0.10183 -0.0439,0.11266 v 5.3e-4 5.3e-4 l 5.3e-4,5.3e-4 v 5.3e-4 l 5.3e-4,5.3e-4 5.3e-4,5.3e-4 5.3e-4,5.3e-4 h 5.2e-4 l 5.3e-4,5.2e-4 c 0.008,0.001 0.0275,-0.007 0.0589,-0.0186 0.01,-0.001 0.0194,-0.002 0.0289,-0.003 -0.0157,-0.0318 -0.0312,-0.0633 -0.047,-0.0951 z m 6.87659,0.64079 c 0.0292,0.0342 0.0589,0.0683 0.0894,0.10129 0.002,0.003 0.004,0.004 0.005,0.005 l 5.3e-4,5.3e-4 h 5.3e-4 v -5.3e-4 c -0.004,-0.008 -0.0526,-0.0712 -0.076,-0.0899 -0.007,-0.005 -0.0136,-0.0114 -0.0196,-0.0165 z m -8.96896,11.89385 c -0.22998,0.79451 0.56346,0.80053 1.64537,0.59738 -0.83523,-0.28128 -1.37195,-0.41734 -1.64537,-0.59738 z m 15.20734,11.8308 c -0.0175,-7.9e-4 -0.0345,-5.3e-4 -0.0517,5.3e-4 0.0676,0.007 0.14183,0.0148 0.21136,0.0228 -0.0538,-0.0112 -0.10728,-0.0209 -0.15968,-0.0232 z m -3.21996,0.1757 c -0.008,0.06 -0.016,0.11986 -0.0243,0.17984 0.0185,-0.006 0.0368,-0.0114 0.0553,-0.0171 -0.0104,-0.0543 -0.0206,-0.10851 -0.031,-0.16278 z m -0.73226,4.70463 c -0.005,0.0551 -0.01,0.13349 -0.015,0.20618 0.0121,-0.0702 0.0238,-0.14026 0.015,-0.20618 z" /></clipPath><filter
       style="color-interpolation-filters:sRGB"
       id="filter65"
       x="0"
       y="0"
       width="1"
       height="1"><feColorMatrix
         type="hueRotate"
         values="180"
         result="color1"
         id="feColorMatrix64" /><feColorMatrix
         values="-1 0 0 0 1 0 -1 0 0 1 0 0 -1 0 1 -0.21 -0.72 -0.07 2 0 "
         result="fbSourceGraphic"
         id="feColorMatrix65" /><feColorMatrix
         result="fbSourceGraphicAlpha"
         in="fbSourceGraphic"
         values="0 0 0 -1 0 0 0 0 -1 0 0 0 0 -1 0 0 0 0 1 0"
         id="feColorMatrix66" /><feColorMatrix
         id="feColorMatrix67"
         type="hueRotate"
         values="180"
         result="color1"
         in="fbSourceGraphic" /><feColorMatrix
         id="feColorMatrix68"
         values="-1 0 0 0 1 0 -1 0 0 1 0 0 -1 0 1 -0.21 -0.72 -0.07 2 0 "
         result="fbSourceGraphic" /><feColorMatrix
         result="fbSourceGraphicAlpha"
         in="fbSourceGraphic"
         values="0 0 0 -1 0 0 0 0 -1 0 0 0 0 -1 0 0 0 0 1 0"
         id="feColorMatrix69" /><feColorMatrix
         id="feColorMatrix70"
         type="hueRotate"
         values="180"
         result="color1"
         in="fbSourceGraphic" /><feColorMatrix
         id="feColorMatrix71"
         values="-1 0 0 0 1 0 -1 0 0 1 0 0 -1 0 1 -0.21 -0.72 -0.07 2 0 "
         result="color2" /></filter></defs><g
     id="layer1"
     transform="translate(-108.02089,-119.45093)"><path
       id="path1"
       style="fill:#000000;stroke-width:1.9416;filter:url(#filter65)"
       d="m 164.07911,120.35153 c -0.30435,-0.002 -0.5924,0.0684 -0.64803,0.21342 -0.0915,0.23839 -1.03501,0.30987 -1.30586,0.0987 -0.23257,-0.18131 -1.55856,0.95162 -1.55856,1.3317 0,0.25321 -1.23926,1.30948 -1.53634,1.30948 -0.26066,0 -1.50088,1.20454 -3.97082,3.85713 -1.08496,1.16517 -2.27363,2.4201 -2.6417,2.78846 -0.82916,0.82982 -2.12962,2.30437 -2.78071,3.1533 -0.26992,0.35189 -0.97264,1.12589 -1.56166,1.71979 -0.58902,0.59391 -1.19975,1.24095 -1.35702,1.43816 -0.15735,0.19721 -0.43187,0.35863 -0.6103,0.35863 -0.59928,0 -1.44695,1.61035 -0.99477,1.88981 0.0984,0.0608 1.6e-4,0.40844 -0.2465,0.87178 -0.51507,0.96756 -0.51533,1.27188 -5.1e-4,1.6092 0.78791,0.51627 0.98451,0.34492 3.87004,-3.37498 0.31954,-0.41195 0.90865,-1.24853 1.30897,-1.85881 0.40033,-0.61029 0.84173,-1.1458 0.98133,-1.1901 0.13949,-0.0443 0.4015,-0.28224 0.58188,-0.52865 0.42697,-0.58323 1.75616,-1.82214 2.79363,-2.60398 0.45206,-0.34067 0.85914,-0.67349 0.90434,-0.73949 0.11273,-0.16455 4.16605,-2.74882 4.63537,-2.95537 0.208,-0.0915 0.7109,-0.37398 1.11776,-0.62736 0.40686,-0.2534 0.90618,-0.50407 1.1095,-0.55707 0.42663,-0.1111 0.66135,0.11773 0.27336,0.26665 -0.14252,0.0547 -0.22741,0.19189 -0.18861,0.30489 0.0386,0.11296 0.0136,0.40784 -0.0563,0.65526 -0.0765,0.27139 -0.0596,0.4917 0.0429,0.555 0.1046,0.0642 0.1103,0.14504 0.0155,0.20774 -0.1544,0.10221 -0.52906,1.53776 -0.60616,2.32234 -0.0222,0.22614 -0.11779,0.55873 -0.21239,0.73949 -0.40894,0.78246 -1.20785,5.29666 -1.0232,5.78208 0.0908,0.23889 0.0559,0.65122 -0.0977,1.15755 -0.13127,0.43251 -0.23933,1.02253 -0.2403,1.31103 -9.7e-4,0.2885 -0.0759,0.57042 -0.1664,0.62632 -0.0905,0.0559 -0.16433,0.2789 -0.16433,0.49609 0,0.21717 -0.16061,0.54452 -0.35708,0.72761 -0.19647,0.18304 -0.37486,0.50064 -0.39636,0.70538 -0.0714,0.6764 -0.69379,3.48668 -0.87747,3.96203 -0.099,0.25667 -0.16736,0.66374 -0.14986,0.90434 0.0168,0.24058 -0.0933,0.67441 -0.24495,0.96377 -0.15154,0.28935 -0.27543,0.67634 -0.27543,0.86041 0,0.51262 -0.34225,1.84859 -0.60048,2.34508 -0.12704,0.24425 -0.37038,1.16923 -0.54105,2.05517 -0.17061,0.88591 -0.67443,3.42278 -1.11983,5.6379 -1.7374,8.64069 -1.9099,10.54156 -1.00046,11.02826 0.92317,0.49408 1.69763,-1.18804 2.20194,-4.78162 0.31714,-2.25982 0.50765,-2.85917 0.76326,-2.40243 0.22923,0.40962 -0.11792,4.63974 -0.44494,5.4224 -0.15221,0.36432 -0.24494,1.11799 -0.24494,1.99058 0,1.27295 -0.0705,1.59007 -0.75551,3.38067 -0.78107,2.04168 -0.79625,2.45432 -0.0873,2.46032 0.29147,0.002 0.73071,0.83882 0.99994,1.90376 0.0935,0.3699 0.32069,0.80841 0.50436,0.97461 0.3337,0.30195 0.33348,0.30235 -0.16381,0.75655 -0.7771,0.70977 -0.60425,1.18944 0.50436,1.39888 0.30784,0.0582 0.6803,0.21039 0.82786,0.33796 0.33068,0.2859 1.11401,0.12472 1.25109,-0.25735 0.2999,-0.83551 1.34249,-1.75781 2.34404,-2.07429 0.22604,-0.0714 0.64029,-0.30467 0.92087,-0.51831 0.28058,-0.21363 1.02029,-0.54708 1.64383,-0.74104 0.62357,-0.19387 1.31023,-0.52661 1.526,-0.73898 0.39073,-0.38538 0.53653,-0.44276 1.00511,-0.40256 0.13562,0.0116 0.57015,-0.27586 0.96583,-0.63872 0.3957,-0.36285 0.79142,-0.6599 0.87902,-0.6599 0.0876,0 0.35583,-0.0981 0.59583,-0.21808 0.81157,-0.40552 1.42046,-0.7199 1.91564,-0.98909 1.43739,-0.78137 4.30563,-1.91023 3.16312,-1.24488 -0.15886,0.0925 -0.42929,0.44197 -0.60151,0.77618 -0.17224,0.33421 -0.57263,0.89631 -0.88936,1.24954 -0.31671,0.35324 -0.67453,0.83232 -0.7953,1.06401 -0.12069,0.23171 -0.31751,0.5344 -0.4377,0.67283 -0.45876,0.52835 -1.67205,2.18633 -1.67225,2.28513 -1.1e-4,0.0569 -0.19138,0.32511 -0.42478,0.59635 -0.2334,0.27124 -0.79065,1.08486 -1.23868,1.80816 -1.13103,1.826 -2.2672,3.37887 -2.79931,3.82664 -0.24703,0.20785 -0.78839,0.98561 -1.20303,1.72806 -0.73125,1.30927 -1.35728,2.27168 -2.3859,3.66747 -0.27303,0.37051 -0.49661,0.72055 -0.49661,0.77825 0,0.0576 -0.38834,0.61962 -0.863,1.24902 -1.20849,1.60244 -4.39714,6.30147 -4.39714,6.47971 0,0.0408 -0.29899,0.5071 -0.66405,1.03611 -0.82918,1.20153 -0.89663,1.30327 -2.01641,3.04839 -0.81846,1.27554 -0.9895,1.44922 -1.58957,1.61076 -0.62028,0.16701 -0.71049,0.26685 -1.16272,1.28312 -0.26965,0.60601 -0.57625,1.24964 -0.68109,1.43041 -0.10481,0.18084 -0.44824,0.80965 -0.76326,1.39733 -0.31503,0.58769 -0.78288,1.33815 -1.03973,1.6676 -0.25684,0.32947 -0.46716,0.71337 -0.46716,0.85317 0,0.13989 -0.0708,0.29832 -0.15761,0.35192 -0.0868,0.0536 -0.28934,0.52035 -0.4501,1.03715 -0.82506,2.65183 -1.41647,2.8339 -2.24948,0.69298 -0.58424,-1.50163 -0.84807,-1.95267 -1.19476,-2.04277 -0.35388,-0.0921 -0.6397,-1.03297 -0.96738,-3.18224 -0.0591,-0.38739 -0.27538,-0.90533 -0.48059,-1.15083 -0.20518,-0.24551 -0.52481,-0.74215 -0.71004,-1.10381 -0.18525,-0.36164 -0.60969,-0.91654 -0.94309,-1.233 -0.62896,-0.59699 -2.05259,-2.36216 -2.05259,-2.54506 0,-0.0574 -0.29088,-0.4143 -0.64595,-0.79324 -0.3551,-0.37894 -0.87294,-0.98503 -1.15084,-1.34669 -1.07475,-1.39865 -1.51949,-1.98448 -1.74718,-2.30115 -0.13003,-0.18082 -0.72308,-0.99452 -1.31775,-1.80764 -0.59465,-0.81312 -1.34846,-1.92239 -1.67535,-2.46548 -0.32688,-0.54308 -0.86446,-1.35763 -1.19424,-1.80971 -0.32978,-0.45206 -1.21778,-1.74666 -1.97352,-2.87683 -0.75573,-1.13018 -1.45209,-2.13408 -1.54719,-2.23138 -0.0952,-0.0973 -0.39118,-0.52256 -0.65785,-0.94517 -0.26666,-0.42259 -0.5441,-0.76843 -0.6165,-0.76843 -0.0724,0 -0.13177,-0.0777 -0.13177,-0.17259 0,-0.0949 -0.46224,-0.75535 -1.02733,-1.46762 -0.56508,-0.71227 -1.32351,-1.71671 -1.68517,-2.23242 -0.36166,-0.51571 -0.88423,-1.16858 -1.16117,-1.45055 -1.91304,-1.94781 -3.21792,-4.21123 -2.10736,-3.65508 0.26089,0.13065 0.95486,0.32349 1.54254,0.42892 1.67492,0.30041 5.07811,1.39304 6.56549,2.10788 1.88867,0.90772 3.08863,0.55624 3.16673,-0.92708 0.0412,-0.7833 0.10083,-0.93772 0.37776,-0.98082 0.18082,-0.0281 0.49651,-0.13473 0.70176,-0.23667 0.28032,-0.13976 0.42179,-0.14012 0.56741,0.008 0.74118,0.74117 1.77057,-0.0496 1.77457,-1.36323 0.002,-0.78165 0.26907,-1.5118 0.42168,-1.15497 0.49076,1.14707 1.38389,1.68369 1.38389,0.83148 0,-0.2207 -0.0748,-0.44766 -0.16639,-0.50436 -0.58842,-0.36366 -1.80612,-4.18435 -2.72335,-8.54677 -0.20119,-0.95682 -0.73024,-2.6182 -1.04697,-3.28765 -0.13555,-0.28646 -0.54261,-2.05086 -0.78599,-3.406 -0.0441,-0.24573 -0.18322,-0.53219 -0.30903,-0.63665 -0.1258,-0.10438 -0.22841,-0.36839 -0.22841,-0.58705 0,-0.83576 -0.96294,-3.40088 -1.40922,-3.75429 -0.19163,-0.15175 -1.105,-3.58418 -1.63556,-6.14536 -0.12389,-0.59815 -0.44659,-1.85062 -0.71675,-2.78278 -0.27015,-0.93214 -0.61524,-2.37456 -0.76688,-3.20548 -0.15174,-0.83091 -0.3857,-2.10235 -0.51986,-2.82567 -0.1343,-0.7233 -0.25563,-1.47035 -0.26923,-1.65985 -0.0139,-0.18958 -0.10616,-0.44838 -0.20516,-0.57516 -0.099,-0.12687 -0.2613,-0.56362 -0.3607,-0.97048 -0.37597,-1.53942 -0.38383,-1.64383 -0.12041,-1.64383 0.13729,0 0.25012,-0.0744 0.25012,-0.16485 0,-0.0905 -0.1113,-0.16433 -0.24702,-0.16433 -0.34864,0 -0.30783,-0.32783 0.0413,-0.33383 0.27293,-0.005 0.27223,-0.0162 -0.002,-0.22479 -0.26011,-0.19736 -0.2634,-0.24122 -0.0341,-0.4315 0.21496,-0.17839 0.33795,-0.13391 0.78238,0.28319 0.47111,0.44208 1.66784,1.32858 2.39675,1.7756 0.14743,0.0904 0.30517,0.20613 0.35037,0.25683 0.35686,0.40045 2.98265,1.79783 3.37809,1.79783 0.29899,0 0.832,0.24608 1.79989,0.83095 0.84181,0.5087 3.43459,1.79938 3.61477,1.79938 0.0551,0 0.55862,0.30754 1.11931,0.68316 1.24148,0.83171 2.12162,1.04918 2.50992,0.62012 0.22465,-0.24822 0.44208,-0.28067 1.37304,-0.20257 1.44948,0.12151 1.99259,-0.61744 1.03715,-1.41181 -1.02943,-0.85591 -1.49126,-1.1684 -1.72806,-1.1684 -0.13284,0 -0.33387,-0.11078 -0.44648,-0.2465 -0.11258,-0.13553 -0.31239,-0.24649 -0.44442,-0.24649 -0.13193,0 -0.68169,-0.25922 -1.22163,-0.57568 -0.53993,-0.31644 -1.07981,-0.57516 -1.19941,-0.57516 -0.1197,0 -0.3105,-0.112 -0.42427,-0.24908 -0.1137,-0.137 -0.57457,-0.43406 -1.02422,-0.6599 -0.44966,-0.22585 -1.12417,-0.69572 -1.49862,-1.04439 -1.28153,-1.19333 -2.48936,-2.23881 -3.51658,-3.04374 -0.56509,-0.4428 -1.02733,-0.85761 -1.02733,-0.92191 0,-0.17268 -1.63293,-1.22619 -2.54403,-1.64124 -0.89703,-0.40863 -1.97961,-1.21517 -3.54759,-2.64325 -0.59271,-0.53982 -1.25848,-1.105 -1.47949,-1.25625 -0.52728,-0.36075 -0.64196,-0.54231 -0.64596,-1.01544 -0.005,-0.76846 -1.01298,-1.11059 -1.52187,-0.51625 -0.39671,0.46332 -1.04203,0.5899 -1.36426,0.26768 -1.01097,-1.01101 -1.60406,0.91493 -0.84284,2.73679 0.20087,0.48257 0.20286,0.61778 -0.006,1.0113 -0.13316,0.2548 -0.18491,0.57506 -0.11731,0.72864 0.0664,0.15074 0.1056,0.36456 0.0884,0.47542 -0.0177,0.11083 0.0816,0.42197 0.22066,0.69092 0.16768,0.324 0.25269,0.94588 0.25269,1.8433 0,0.74497 0.0721,1.76588 0.1602,2.26859 0.0881,0.50272 0.24423,1.80169 0.34675,2.88665 0.10261,1.08497 0.2526,2.41651 0.3328,2.95899 0.13671,0.92372 0.4506,3.60098 0.5302,4.52065 0.0674,0.77975 0.45719,2.87885 0.68678,3.69849 0.12663,0.45207 0.31111,1.48794 0.41031,2.30167 0.0991,0.81372 0.28783,1.85093 0.41909,2.30476 0.13125,0.45381 0.30483,1.52705 0.38603,2.38539 0.0812,0.85832 0.26024,1.92981 0.3979,2.38073 0.13756,0.45093 0.34789,1.17868 0.46768,1.61747 0.15935,0.58352 0.33941,0.86093 0.67024,1.03198 0.24875,0.12863 0.45534,0.28755 0.45734,0.35295 0.01,0.22518 0.31617,2.42405 0.64285,4.61161 0.29588,1.98132 0.3758,2.24599 0.83302,2.76675 0.2781,0.31673 0.54884,0.79315 0.60204,1.05885 0.11108,0.5553 0.37845,0.80489 0.39015,0.36277 0.004,-0.16356 0.1061,-0.0204 0.22686,0.31781 0.55491,1.55481 1.04063,1.79444 1.5012,0.74104 0.30545,-0.69866 0.30547,-0.69847 0.35347,0.20567 0.0264,0.49728 0.12878,1.64352 0.22738,2.54765 0.40558,3.71456 0.43808,4.10575 0.36018,4.30878 -0.10661,0.27786 -0.40629,0.26928 -0.97823,-0.031 -1.02873,-0.54021 -3.55653,-1.45708 -6.13658,-2.22519 -0.40686,-0.12114 -0.81384,-0.27466 -0.90434,-0.34106 -0.0904,-0.0664 -0.64479,-0.27894 -1.23248,-0.47233 -0.5877,-0.19334 -1.19736,-0.42134 -1.35444,-0.50694 -0.157,-0.0856 -0.41576,-0.15665 -0.57516,-0.15865 -0.56545,-0.005 -2.36593,-0.76409 -2.87734,-1.21285 -0.44517,-0.39062 -0.61366,-0.44145 -1.18494,-0.35605 -0.65633,0.0982 -3.11386,-0.32988 -4.08761,-0.7121 -1.51598,-0.59508 -2.66576,0.78925 -1.23352,1.48518 0.11908,0.0579 0.50175,0.24269 0.8506,0.41083 0.38842,0.18727 0.84898,0.6242 1.18804,1.12758 0.30452,0.45206 0.68054,1.00695 0.83509,1.233 0.15461,0.22602 0.55155,0.81789 0.88212,1.31517 0.33058,0.49728 0.8531,1.16615 1.16117,1.48673 0.30808,0.32056 0.67204,0.72765 0.80873,0.90433 0.13673,0.17673 0.61344,0.79703 1.05989,1.37873 0.44644,0.58172 1.574,1.93555 2.50527,3.00809 0.93126,1.07254 1.69292,2.0047 1.69292,2.0717 0,0.067 0.35136,0.50053 0.78083,0.96325 1.40406,1.51283 2.4488,2.75529 2.66857,3.17397 0.11865,0.22603 0.42927,0.66952 0.6904,0.98599 0.26112,0.31644 0.52751,0.65079 0.59221,0.74259 0.0647,0.0918 0.45292,0.57283 0.863,1.06867 0.41009,0.49583 0.88559,1.1235 1.05626,1.39474 0.17065,0.27124 0.51009,0.6778 0.75448,0.90382 0.24439,0.22605 0.76213,0.85485 1.15032,1.39733 0.38818,0.54249 0.89631,1.21614 1.12964,1.49707 0.61657,0.74245 0.81192,0.9956 1.89291,2.4505 1.60327,2.15791 1.80323,2.43257 2.30115,3.16931 0.26235,0.38816 0.55959,0.75827 0.66094,0.82217 0.21447,0.13514 1.97999,2.31516 2.55695,3.15743 0.21678,0.31644 0.44,0.61213 0.4961,0.65733 0.52939,0.42643 3.11919,4.07607 3.11919,4.3956 0,0.0877 0.18613,0.35989 0.41341,0.60513 0.22729,0.24525 0.70076,0.97729 1.05213,1.62677 1.11694,2.06469 1.84165,3.31022 2.08204,3.57756 0.29856,0.33193 0.29358,0.47015 -0.0289,0.82682 -0.32445,0.3586 -0.37009,1.34247 -0.078,1.69396 v 0.002 c 0.60399,0.72777 3.79305,-1.22653 3.79305,-2.3244 0,-0.11166 0.17955,-0.24824 0.39895,-0.30334 0.37131,-0.0932 1.24488,-1.17446 1.24488,-1.54099 0,-0.71214 0.84633,-1.68482 2.93316,-3.37034 1.16028,-0.93713 4.06695,-4.00332 4.60437,-4.85707 0.14255,-0.22649 0.50237,-0.70249 0.79943,-1.05782 0.29708,-0.35532 0.54002,-0.73224 0.54002,-0.83767 0,-0.10533 0.14262,-0.32035 0.31678,-0.47801 0.38016,-0.34403 1.73113,-2.33587 2.22467,-3.2799 0.63373,-1.21219 1.10146,-1.98527 1.40404,-2.32027 0.256,-0.28344 1.46565,-2.07802 2.71457,-4.02766 0.20272,-0.31644 1.01249,-1.56879 1.79989,-2.7833 1.44177,-2.2239 1.6544,-2.58967 3.09955,-5.33094 1.86067,-3.52947 2.46071,-4.85868 3.22461,-7.14116 0.90597,-2.70695 2.38734,-5.82048 3.30057,-6.93705 0.33277,-0.40686 0.73789,-0.99872 0.90021,-1.31516 0.2758,-0.53806 0.51239,-0.87002 1.4397,-2.02158 0.87335,-1.08456 0.59779,-2.04478 -0.52865,-1.84279 -0.31929,0.0573 -0.65416,0.19532 -0.74466,0.30696 -0.0904,0.11155 -0.42356,0.3069 -0.74,0.43408 -0.31644,0.12715 -0.99441,0.47499 -1.50689,0.77308 -0.51249,0.2981 -1.01006,0.54209 -1.10536,0.54209 -0.0954,0 -0.70522,0.25923 -1.35547,0.57567 -0.65022,0.31644 -1.31376,0.57516 -1.47433,0.57516 -0.16055,0 -0.33345,0.0671 -0.38395,0.14883 -0.0506,0.0818 -0.38523,0.10969 -0.74363,0.0615 -0.56233,-0.0754 -0.83792,0.0201 -2.01331,0.6997 -3.17845,1.8378 -6.87334,3.51664 -8.37623,3.80596 -0.52254,0.1006 -0.65881,-7.17405 -0.21291,-11.37398 0.12479,-1.17536 0.30693,-3.06128 0.40463,-4.19147 0.0975,-1.13016 0.24202,-2.46172 0.32142,-2.959 0.0794,-0.49726 0.23266,-1.97717 0.34003,-3.28817 0.10737,-1.31101 0.29806,-2.81473 0.42427,-3.34191 0.12608,-0.52718 0.22932,-1.26689 0.22944,-1.64383 1.6e-4,-0.57743 0.50667,-2.33522 1.28674,-4.46639 0.26142,-0.71418 1.09068,-4.7501 1.26659,-6.16449 0.0392,-0.31646 0.11874,-0.96253 0.17674,-1.43557 0.0581,-0.47301 0.2075,-0.94438 0.33176,-1.04748 0.12422,-0.10313 0.22583,-0.48744 0.22583,-0.85421 0,-0.58047 0.1003,-1.03665 0.4594,-2.08773 0.0465,-0.13562 0.0663,-0.38731 0.0444,-0.55914 -0.0219,-0.17185 0.0317,-0.46743 0.11886,-0.65732 0.3928,-0.85558 0.51054,-1.28192 0.68936,-2.49804 0.10504,-0.71447 0.25653,-1.66926 0.33693,-2.12132 0.0805,-0.45206 0.25348,-1.45795 0.38396,-2.23552 0.13051,-0.77755 0.39186,-1.73481 0.58136,-2.127 0.52122,-1.07881 0.0604,-1.95167 -0.74311,-1.40715 -0.17016,0.11529 -0.71608,0.4217 -1.21336,0.68058 -0.49726,0.25885 -1.03394,0.57808 -1.19218,0.70952 -0.34713,0.28825 -0.352,0.23284 -0.0589,-0.66973 0.35799,-1.10261 0.46363,-2.10774 0.24908,-2.36626 -0.12127,-0.14661 -0.44186,-0.22167 -0.74621,-0.22376 z m -1.28468,2.62413 c 0.72476,0 -0.72395,2.62034 -1.45624,2.63394 -0.10797,0.002 -0.38118,0.14817 -0.6072,0.32505 -0.22605,0.17678 -0.49218,0.32304 -0.59118,0.32504 -0.099,0.002 -0.31382,0.15151 -0.47749,0.33228 -0.16364,0.18084 -0.41965,0.32866 -0.56896,0.32866 -0.14925,0 -0.52201,0.18532 -0.82837,0.41135 -1.01342,0.74772 -1.17547,0.38972 -0.18035,-0.39843 0.35273,-0.27938 0.99977,-0.84884 1.43816,-1.26555 1.00113,-0.95162 3.11669,-2.69234 3.27163,-2.69234 z m 1.74046,2.13682 c 0.2878,0 0.31513,0.0813 0.23513,0.69866 -0.0498,0.38427 -0.19838,1.51227 -0.33021,2.50682 -0.13176,0.99456 -0.2883,2.21523 -0.3483,2.7125 -0.06,0.49728 -0.20822,1.14483 -0.32918,1.43867 -0.26325,0.63921 -0.48063,0.70878 -0.32918,0.10542 0.0666,-0.26522 0.0159,-0.56765 -0.13281,-0.79478 -0.21276,-0.32465 -0.20493,-0.55468 0.0661,-1.99678 0.16877,-0.89623 0.38945,-2.11033 0.49041,-2.69803 0.34417,-2.00216 0.33415,-1.97248 0.67799,-1.97248 z m -40.46264,3.12332 c 0.0905,0 0.16433,0.0677 0.16433,0.15038 0,0.0827 0.38831,0.42852 0.86299,0.76843 0.94769,0.67867 1.45655,1.22092 1.33326,1.42058 -0.044,0.071 0.03,0.17113 0.16433,0.22273 0.13435,0.0515 0.28453,0.1989 0.33383,0.32763 0.14049,0.36611 -0.37357,0.22142 -1.36736,-0.38448 -0.0386,-0.0235 0.0596,-0.13749 0.21807,-0.25321 0.26532,-0.19392 0.25096,-0.22918 -0.17673,-0.44235 -0.97853,-0.48771 -2.09821,-1.80971 -1.53272,-1.80971 z m 20.25716,16.71939 c -0.21791,-0.01 -0.44207,-0.008 -0.66921,0.006 -0.6057,0.0363 -1.2343,0.1579 -1.834,0.37672 -0.31644,0.11547 -0.83437,0.30082 -1.15083,0.41187 -0.75637,0.26527 -0.89207,1.01859 -0.2713,1.50688 0.48148,0.37869 0.49221,1.21213 0.0357,2.67891 -0.18183,0.58366 -0.30166,1.62448 -0.33796,2.93677 -0.0322,1.16371 -0.13216,2.10929 -0.2341,2.21123 -0.28378,0.28374 -0.20759,0.73064 0.1695,0.99477 0.19984,0.13976 0.46164,0.19304 0.61599,0.12454 1.34188,-0.59646 1.78479,-0.8354 1.97662,-1.0666 0.12281,-0.14789 0.34323,-0.27195 0.49041,-0.27595 0.14715,-0.004 0.78562,-0.33765 1.41852,-0.74207 0.63291,-0.40441 1.35384,-0.81574 1.60248,-0.91364 0.24864,-0.0979 0.45217,-0.24707 0.45217,-0.33177 0,-0.0846 0.24774,-0.29989 0.55036,-0.47852 1.4555,-0.85876 1.36653,-2.47339 -0.1478,-2.68097 -1.11366,-0.15276 -1.88205,-0.13138 -1.88205,0.0522 0,0.3744 -0.70514,0.5519 -0.93638,0.23565 -0.25507,-0.34883 0.0734,-0.69873 1.05988,-1.13017 0.29384,-0.12852 0.53434,-0.30642 0.53434,-0.39532 0,-0.0889 0.15305,-0.21035 0.34003,-0.26975 0.44183,-0.14024 0.9733,-1.01985 0.9741,-1.61179 8.7e-4,-0.94999 -1.23105,-1.57126 -2.75642,-1.63866 z m -19.03398,0.90899 h 5.1e-4 c 7.5e-4,-1e-5 0.002,3e-5 0.003,0 0.0119,-4.2e-4 0.0259,0.004 0.0413,0.0139 0.0922,0.0571 0.20998,0.38274 0.26148,0.72399 0.12401,0.82155 0.54087,2.63342 0.74827,3.25096 0.0911,0.27124 0.27867,1.12182 0.41652,1.89033 0.13784,0.76852 0.4851,2.50713 0.77152,3.86333 1.24924,5.915 1.70015,8.76818 1.53686,9.72344 -0.1104,0.64609 -0.1479,0.70954 -0.1974,0.33538 -0.0899,-0.67993 -0.44604,-0.43967 -0.46354,0.31315 -0.009,0.35302 -0.0277,0.84536 -0.0413,1.094 -0.0764,1.34155 -0.63492,-0.0332 -0.84646,-2.0836 -0.0799,-0.77448 -0.17764,-1.4639 -0.21704,-1.5322 -0.0394,-0.0682 -0.12024,-0.7898 -0.17984,-1.60352 -0.0596,-0.81372 -0.17349,-1.70125 -0.25269,-1.97249 -0.13224,-0.45267 -0.1998,-1.18416 -0.43357,-4.68551 -0.0716,-1.07198 -0.84766,-6.93956 -1.16117,-8.77879 -0.0605,-0.35512 -0.0558,-0.54352 0.0134,-0.55242 z m 18.31361,0.5426 c 0.70915,0.0132 1.37483,0.0769 1.47949,0.1416 0.29984,0.18535 0.24819,1.90634 -0.0568,1.90634 -0.28866,0 -0.31407,-0.22388 -0.0765,-0.66818 0.23477,-0.43778 -0.18107,-0.43063 -0.58084,0.0114 -0.16364,0.18086 -0.41539,0.32937 -0.55966,0.3297 -0.1442,3.4e-4 -0.50445,0.14809 -0.80047,0.32866 v -0.001 c -0.29604,0.18059 -0.55636,0.32814 -0.57826,0.32814 h -5.1e-4 -5.2e-4 -5.2e-4 l -5.1e-4,-5.1e-4 -5.2e-4,-5.2e-4 c -0.0212,-0.0243 -0.0462,-0.29178 -0.0574,-0.61495 -0.0113,-0.33904 -0.0371,-0.69033 -0.0579,-0.78083 -0.20482,-0.89518 -0.0602,-1.00499 1.29088,-0.97979 z m 2.04845,4.60179 c 0.50495,0.001 0.42956,0.23693 -0.1881,0.73329 -0.36226,0.29114 -0.74741,0.74333 -0.85576,1.0051 -0.19284,0.4664 -0.36427,0.5414 -1.09089,0.4837 -0.19704,-0.0156 -0.58158,0.0871 -0.85473,0.22841 -0.89076,0.46067 -1.04459,0.24379 -0.77308,-1.08986 0.15083,-0.74075 0.18326,-0.77588 0.82476,-0.87488 0.36745,-0.0567 1.21636,-0.21168 1.88619,-0.34468 0.47294,-0.0939 0.82209,-0.14164 1.05161,-0.14108 z m -1.00355,5.73247 c -0.0181,-9.4e-4 -0.0361,-4.5e-4 -0.0538,5.1e-4 -0.36043,0.0198 -0.637,0.44506 -1.28777,1.66863 -0.14684,0.27609 -0.41991,0.7196 -0.60669,0.98599 -0.18684,0.26638 -0.58493,1.11353 -0.8847,1.88206 -0.6587,1.68881 -0.51684,1.50953 -1.26348,1.59163 -0.8576,0.0944 -0.97046,0.25325 -0.75448,1.06247 0.15572,0.58351 0.13762,0.75274 -0.12971,1.19114 -1.00692,1.65125 0.50582,2.17716 1.57562,0.54777 0.94686,-1.44214 1.14057,-1.62401 1.90582,-1.78904 1.48672,-0.32048 1.37386,-0.44643 1.46606,1.63556 0.0623,1.40543 0.14189,1.89301 0.32867,2.0097 1.02353,0.6398 1.86874,-1.22182 1.56321,-3.4432 -0.1272,-0.92488 0.2275,-1.63902 0.82062,-1.65262 1.51749,-0.0353 2.54904,-1.14865 1.74149,-1.87947 -0.29529,-0.26732 -0.37699,-0.26527 -1.41283,-0.008 -1.40298,0.35185 -1.26355,0.53481 -1.93942,-2.55281 -0.1562,-0.7135 -0.28861,-0.94589 -0.63303,-1.11053 -0.1698,-0.0811 -0.30896,-0.13352 -0.43563,-0.14004 z m 13.20953,2.89284 h 0.001 c 3.3e-4,1e-5 7.4e-4,1e-5 10e-4,0 l 5.2e-4,5.2e-4 h 5.2e-4 5.1e-4 l 5.2e-4,5.2e-4 h 5.2e-4 5.1e-4 5.2e-4 c 0.0393,0.0275 0.033,0.47723 -0.0165,1.02216 h -5.1e-4 c -0.0967,1.06617 -0.72781,2.46421 -0.73381,1.62522 -0.003,-0.43048 0.61287,-2.61439 0.74518,-2.64842 z m -13.55783,0.32918 h 5.1e-4 c 7.5e-4,-3e-5 0.002,0 0.003,0 0.34782,0 0.3312,1.55815 -0.0196,1.8433 -0.37839,0.30618 -1.14722,0.40301 -1.14722,0.14418 0,-0.21899 1.01893,-1.95679 1.16324,-1.98748 z m 1.788,0.53279 c 0.21041,-0.004 0.3625,0.23548 0.18139,0.58084 -0.2641,0.50363 -0.54847,0.99679 -0.84646,1.48105 -0.0425,0.0693 -0.0851,0.13843 -0.12765,0.20773 -0.32643,0.53176 -0.86333,0.20206 -0.53691,-0.32969 0.0426,-0.0695 0.0854,-0.13927 0.12815,-0.20877 0.28844,-0.4684 0.563,-0.94503 0.81908,-1.43196 0.10891,-0.20709 0.25616,-0.29693 0.3824,-0.2992 z m -2.06861,12.61835 c -0.5296,0 -0.62455,0.31299 -0.22582,0.48524 0.063,-0.0498 0.12626,-0.0987 0.19017,-0.14728 0.0711,-0.054 0.24465,-0.18168 0.39687,-0.28319 -0.1107,-0.035 -0.23184,-0.0548 -0.36122,-0.0548 z m 0.73639,0.25735 c 9.9e-4,0.0591 5.9e-4,0.11802 -0.004,0.1757 0.0373,0.024 0.0744,0.0463 0.11265,0.0641 0.0157,-0.009 0.0318,-0.0185 0.0475,-0.0279 0.015,-0.009 -0.0291,0.02 -0.0434,0.03 h -5.2e-4 l -5.2e-4,-5.2e-4 c -6.8e-4,-2.7e-4 -0.002,-6.6e-4 -0.003,-0.001 l -5.2e-4,-5.2e-4 c -0.0454,0.0269 -0.0906,0.0542 -0.13487,0.0827 -0.0107,0.0447 -0.0252,0.0881 -0.0455,0.13022 -0.0883,0.18382 -0.30232,0.26779 -0.47439,0.38499 0.0583,0.0316 0.0841,0.13897 0.0682,0.37259 0.0648,0.005 0.15399,-0.003 0.27388,-0.0165 0.73461,-0.0839 0.68605,-0.79983 0.20412,-1.19372 z m -2.51147,0.63096 c -0.68991,0.11631 -2.72456,1.7514 -3.61839,3.04116 -0.83866,1.21022 -0.46274,2.91142 0.7581,3.46749 0.0343,-0.0232 0.0733,-0.0451 0.1173,-0.0651 0.3424,-0.15545 0.68482,-0.31006 1.02785,-0.46406 -0.34769,-0.32341 -0.63967,-0.70301 -0.83199,-1.14204 -0.0543,-0.12402 -0.0944,-0.25396 -0.1416,-0.38086 -0.14233,-0.47829 -0.30503,-0.97515 -0.19998,-1.48001 0.0704,-0.3386 0.15938,-0.44058 0.32762,-0.73691 0.0918,-0.11533 0.1772,-0.2358 0.27544,-0.34571 0.19327,-0.21625 0.45532,-0.4483 0.67386,-0.63821 0.29547,-0.25676 0.60053,-0.50235 0.90744,-0.74517 0.22913,-0.17754 0.45428,-0.36614 0.70435,-0.51057 z m -27.73888,0.11421 c 0.0759,0.003 0.17894,0.0733 0.26355,0.18914 0.11561,0.1581 0.3986,0.28783 0.6289,0.28783 0.47029,0 1.44359,0.9929 2.72749,2.78278 0.41966,0.58506 1.18854,1.51751 1.70842,2.07222 0.51989,0.55472 0.94846,1.07641 0.95446,1.15911 0.005,0.0828 0.29915,0.51997 0.65371,0.97203 0.35455,0.45208 1.06503,1.41403 1.57923,2.13734 0.51421,0.7233 1.03633,1.3752 1.15962,1.449 0.29588,0.17692 1.83407,2.49035 1.85157,2.78381 0.0417,0.72078 -1.54031,-0.76308 -3.37292,-3.16414 -0.51755,-0.6781 -1.24509,-1.56935 -1.61644,-1.98025 -0.74077,-0.81961 -1.25348,-1.42015 -1.96061,-2.29546 -0.91442,-1.13188 -1.27851,-1.57301 -1.99471,-2.41743 -0.78844,-0.92963 -2.0624,-2.74865 -2.0624,-2.94504 0,-0.0669 -0.16083,-0.29288 -0.35709,-0.50177 -0.19622,-0.2089 -0.30106,-0.43533 -0.23306,-0.50333 0.0149,-0.0149 0.0338,-0.0234 0.0553,-0.0253 0.005,-4.4e-4 0.01,-6.9e-4 0.015,-5.2e-4 z m 26.6206,1.54823 c -0.0247,0.0211 -0.0493,0.0423 -0.0739,0.0636 -0.19249,0.16672 -0.42979,0.37522 -0.60358,0.56379 -0.0786,0.0853 -0.14778,0.17921 -0.22169,0.26871 -0.11115,0.18116 -0.19057,0.27807 -0.24391,0.48421 -0.0317,0.12253 -0.0382,0.24513 -0.0295,0.36742 0.0137,-0.0635 0.0404,-0.13244 0.0832,-0.20567 0.21564,-0.36901 0.44307,-0.73286 0.70125,-1.07384 0.12763,-0.15758 0.25637,-0.31423 0.38809,-0.46818 z m 5.60896,2.06964 c -0.068,0.0985 -0.1359,0.19676 -0.20412,0.29507 0.13754,0.0243 0.20612,0.12836 0.20205,0.45837 0.0279,-0.0145 0.0539,-0.0271 0.076,-0.0367 0.068,-0.0295 0.1398,-0.0489 0.2098,-0.0734 0.092,-0.0322 0.16941,-0.0483 0.23203,-0.0512 0.0574,-0.003 0.10286,0.006 0.13643,0.0238 -0.001,-0.042 -0.005,-0.0862 -0.0109,-0.13229 -0.0353,-0.30273 -0.26621,-0.46282 -0.6413,-0.48369 z m -0.85059,0.12092 c -0.29315,0.0826 -0.62043,0.20637 -0.97307,0.37104 0.006,0.0291 0.008,0.0603 0.004,0.0925 0.25831,-0.0702 0.51998,-0.12966 0.78083,-0.18811 0.0629,-0.0919 0.12571,-0.18354 0.18862,-0.27543 z m -3.37137,1.01958 c -0.197,0.027 -0.41064,0.0534 -0.63097,0.077 -0.58519,0.0626 -1.04942,0.0733 -1.39165,0.0279 0.1326,0.19739 0.29087,0.3768 0.4656,0.5395 0.0226,-0.007 0.0467,-0.0136 0.0718,-0.0191 0.27616,-0.0607 0.5525,-0.11965 0.82838,-0.1819 0.0199,-0.0749 0.13816,-0.11103 0.20567,-0.16123 0.0907,-0.0675 0.1907,-0.12127 0.2868,-0.18087 0.0547,-0.0339 0.10943,-0.0678 0.16434,-0.10128 z m 0.56275,1.22008 c -0.0506,0.0201 -0.10135,0.0404 -0.15193,0.0605 -0.15417,0.0614 -0.30786,0.12443 -0.46095,0.18862 0.0907,0.035 0.16115,0.0808 0.21239,0.13177 0.18954,-0.0284 0.37481,-0.06 0.5519,-0.0941 -0.0499,-0.046 -0.10034,-0.10346 -0.15244,-0.17467 -0.0247,-0.0337 -0.018,-0.0721 0.001,-0.11213 z m 28.33677,1.33376 c 0.28945,-0.004 -0.38072,1.68981 -1.98696,4.91857 -0.53974,1.08496 -0.97971,2.02292 -0.97771,2.08462 0.004,0.13809 -1.55999,2.72667 -1.86294,3.0825 -0.12057,0.1416 -0.47141,0.69099 -0.77928,1.2206 -0.30786,0.52961 -0.67043,1.12888 -0.80615,1.3317 -0.13562,0.2028 -0.55423,0.84203 -0.93018,1.42059 -0.7459,1.14791 -1.15682,1.74132 -2.01796,2.91352 -0.31052,0.42272 -0.77867,1.17549 -1.04025,1.67276 -0.57987,1.10243 -1.57233,2.73007 -2.6696,4.37906 -0.45207,0.67939 -0.96627,1.47004 -1.14257,1.757 -0.29722,0.48371 -1.47344,2.11115 -2.21847,3.06958 -0.1757,0.22603 -0.50947,0.59613 -0.74207,0.82217 -0.23261,0.22604 -0.65579,0.65133 -0.94,0.94517 -0.9022,0.93278 -1.10637,0.31456 -0.3886,-1.17564 0.2221,-0.46111 0.70074,-1.467 1.0635,-2.23553 1.08357,-2.29543 3.31129,-6.0159 5.05912,-8.44858 0.45782,-0.63723 0.99006,-1.48286 2.2965,-3.64784 0.37731,-0.62529 0.84009,-1.26589 1.02785,-1.42316 0.18783,-0.15735 0.34106,-0.38915 0.34106,-0.51574 0,-0.12653 0.25719,-0.51602 0.57154,-0.86506 0.31436,-0.34904 0.57368,-0.71978 0.57568,-0.82424 0.002,-0.10446 0.24411,-0.48807 0.53795,-0.85214 0.29384,-0.36409 0.83002,-1.14896 1.19166,-1.7446 0.65259,-1.07485 1.15803,-1.79878 2.17041,-3.10782 0.55969,-0.72371 1.45147,-1.95244 2.1053,-2.9006 0.86923,-1.26047 1.38851,-1.87428 1.56217,-1.87689 z m -19.83083,4.52428 c -0.22382,-0.002 -0.49716,0.15814 -0.8046,0.47904 -0.26124,0.27267 -0.74864,0.5696 -1.08365,0.6599 -0.335,0.0902 -0.96779,0.40766 -1.4056,0.7059 -2.38341,1.6237 -3.01481,1.8074 -3.01481,0.87644 0,-0.32615 -0.2217,-0.87374 -0.57567,-1.42317 -0.31647,-0.49116 -0.57516,-0.95591 -0.57516,-1.03301 0,-0.0778 -0.16656,-0.1163 -0.37,-0.0879 -0.35723,0.0507 -0.36862,0.1056 -0.33022,1.61385 0.0756,2.96159 0.12544,3.69966 0.26252,3.91191 0.0755,0.11712 0.13578,1.153 0.13178,2.30167 -0.004,1.56836 0.0546,2.18049 0.23616,2.45824 v 5.2e-4 c 0.81877,1.25264 1.54926,0.2638 1.54926,-2.09703 0,-2.02021 -0.025,-2.0053 1.89032,-1.15342 0.18082,0.0804 0.80963,0.30995 1.39733,0.51005 1.1219,0.38197 3.0233,1.32916 3.46491,1.72599 0.32335,0.29019 0.96382,0.29369 1.34358,0.004 0.34331,-0.26062 0.3826,-1.13191 0.0625,-1.39733 -0.59483,-0.49367 -3.26819,-1.82573 -3.66386,-1.82573 -0.12739,0 -0.5807,-0.17495 -1.00717,-0.38861 -0.42646,-0.21365 -1.16021,-0.47947 -1.63039,-0.59014 -1.25906,-0.29652 -1.40984,-0.58256 -0.51987,-0.98754 1.39418,-0.63442 2.85379,-1.50723 3.3228,-1.98696 0.2612,-0.26715 0.55862,-0.49436 0.66094,-0.50436 0.43373,-0.0442 0.53244,-0.0753 0.88418,-0.27544 0.39717,-0.22606 0.47395,-0.68389 0.19999,-1.19579 -0.1068,-0.19954 -0.25121,-0.29958 -0.4253,-0.30127 z"
       clip-path="url(#clipPath60)"
       transform="matrix(-0.99979821,0.0200883,0.0200883,0.99979821,285.4301,-3.0622827)" /></g></svg>
