<?xml version="1.0" encoding="UTF-8" standalone="no"?>
<!-- Created with Inkscape (http://www.inkscape.org/) -->

<svg
   width="274.48596"
   height="66.472717"
   viewBox="0 0 274.48596 66.472717"
   version="1.1"
   id="svg1"
   xmlns:inkscape="http://www.inkscape.org/namespaces/inkscape"
   xmlns:sodipodi="http://sodipodi.sourceforge.net/DTD/sodipodi-0.dtd"
   xmlns="http://www.w3.org/2000/svg"
   xmlns:svg="http://www.w3.org/2000/svg">
  <sodipodi:namedview
     id="namedview1"
     pagecolor="#505050"
     bordercolor="#eeeeee"
     borderopacity="1"
     inkscape:showpageshadow="0"
     inkscape:pageopacity="0"
     inkscape:pagecheckerboard="0"
     inkscape:deskcolor="#505050"
     inkscape:document-units="px"
     inkscape:zoom="0.38564815"
     inkscape:cx="722.16086"
     inkscape:cy="716.97479"
     inkscape:window-width="1920"
     inkscape:window-height="1051"
     inkscape:window-x="-9"
     inkscape:window-y="-9"
     inkscape:window-maximized="1"
     inkscape:current-layer="layer1">
    <inkscape:page
       x="0"
       y="0"
       width="274.48596"
       height="66.472717"
       id="page2"
       margin="0"
       bleed="0" />
  </sodipodi:namedview>
  <defs
     id="defs1" />
  <g
     inkscape:label="Layer 1"
     inkscape:groupmode="layer"
     id="layer1"
     transform="translate(-779.4347,-337.09973)">
    <path
       d="m 820.25853,337.18221 q 2.30922,-0.16495 2.88653,0 0.49483,0.65978 1.64945,1.40203 1.81439,0 5.03081,0.74225 0.32989,0.49483 0.98967,1.23709 0.32989,-0.0825 0.74225,0 0,0 0,3.54631 h 0.9072 q 0,-0.0825 -0.49483,-0.24742 l 0.24741,-2.14428 h -0.24741 q 0.0825,0 -0.24742,-0.98967 0.49483,0.24742 0.65978,0.32989 0.16494,0 0.57731,0.16495 0,0.98966 0,0.98966 h 0.49483 q 0.32989,0.0825 0.9072,1.07215 0.65978,0.90719 0.98967,1.07214 0.24741,-0.0825 0.74225,0 0.0825,0.41236 0.41236,0.98967 -0.32989,0.32989 -0.65978,0.90719 0,1.23709 0,2.47417 -0.0825,0.57731 -2.3917,1.40203 0,2.3917 0,2.3917 -0.16494,0.24742 -0.32989,0.49484 -0.24742,0.49483 -0.16494,0.90719 0.24741,0.24742 0.49483,0.74226 0.49483,0 1.40203,0.16494 -0.41236,1.23709 -0.9072,2.63912 -0.32989,0 -0.74225,0.24742 0.16495,0.74225 0.24742,2.14428 -0.0825,0.24741 -1.07214,1.40203 -0.9072,1.15461 -1.07214,1.23708 -0.49484,0.16495 -0.98967,0.16495 -1.97934,0 -2.3917,-1.31956 0.0825,-0.49483 0,-1.4845 -1.97934,-0.57731 -2.14428,-0.65978 -0.82473,-0.41236 -0.82473,-1.4845 0,-0.41237 0.0825,-0.9072 0.0825,-0.24742 0.49483,-1.15461 0.49483,-0.98967 0.49483,-1.23709 -1.73192,-2.72159 -3.62878,-5.52565 -0.9072,-0.24742 -1.97934,-1.23709 0,-0.32989 -0.24742,-0.82472 -0.16494,-0.57731 -1.56697,-1.31956 v -0.16494 q -0.57731,-0.16495 -1.81439,0.16494 -0.74226,0.24742 -1.56698,0.49483 -0.57731,-0.0825 -1.64945,0 -0.32989,0.32989 -0.74225,0.74226 -0.82472,0.16494 -2.3917,-1.23709 -0.41236,0.24742 -0.9072,0.49483 -0.90719,1.23709 -0.24741,3.87621 -0.24742,-0.0825 -0.74225,0.24741 l -0.41237,-0.98966 q -0.49483,-0.0825 -0.65978,0.16494 -0.24741,0.49483 -0.5773,0.57731 -0.9072,-0.0825 -2.63912,0 -0.41236,0.16494 -0.90719,0.41236 0.65977,2.22675 0.16494,3.38137 -0.16494,0.41236 -0.98967,0.98967 -0.74225,0.5773 -0.9072,0.90719 -0.0825,0.9072 -0.49483,2.63912 0.41236,0.16494 1.23709,0.49483 0.32989,0.24742 0.74225,0.49484 0.5773,0 1.15461,0 v 0.41236 q -0.0825,0.32989 -0.49483,0.74225 -0.41236,-0.0825 -1.15462,0 0,0.32989 -0.24741,0.98967 -0.16495,0 -0.74226,0 -0.24741,2.14428 -0.24741,2.88653 -0.24742,0.0825 -0.65978,0.41237 0.57731,0.41236 0.41236,0.49483 1.07214,0 3.38137,-0.24742 0,0 0.98967,0 -0.24742,0 1.64945,0.24742 0,-0.24742 0.24741,-0.74225 0.16495,0 0.49484,-0.16495 -0.0825,-0.41236 0,-0.98966 l 1.15461,-0.24742 q 0,-0.49484 0.24742,-1.64945 0.32989,-0.16494 0.74225,-0.49483 -0.16495,-0.49484 0.24742,-1.40203 0.49483,-0.24742 1.40203,-0.74226 0.16494,-0.74225 0.82472,-1.89686 0.65978,-1.15461 2.3917,-1.15461 1.73192,0 3.95868,1.15461 0.16494,0.16494 0.24741,0.65978 -0.24741,0.16494 -0.49483,0.24742 0,2.0618 0.49483,2.39169 0.49484,0 1.40203,0.24742 0.24742,0.32989 0.74226,0.74225 0.16494,-0.49483 0.74225,-1.4845 0.65978,0.41236 1.89686,0.98967 0,0 0,0.98967 -1.07214,0 -3.13395,0 0.0825,0.5773 0,1.64945 -0.24742,0.0825 -0.74225,0.24741 0.41236,0 0.16494,1.40203 -0.16494,1.73192 -0.16494,1.89687 0.24742,0.16494 0.49483,0.24742 0.16495,0.41236 0.49484,0.98966 0.32989,0.0825 1.23708,0.24742 -0.16494,0.57731 -0.49483,2.14428 -0.16495,0.57731 -0.49483,1.15462 -0.65978,0 -1.89687,0.24741 -0.16494,0.32989 -0.74225,0.74226 0.24742,1.07214 0.24742,2.30922 0,1.73192 -0.98967,5.60813 0.0825,0.49483 -0.24742,1.40203 l -1.15461,0.74225 q -0.9072,0.0825 -1.40203,-0.24742 -0.16495,-0.49483 -0.49484,-1.23708 -0.74225,-0.41237 -1.89686,-1.64945 -0.0825,-1.15462 -0.74226,-3.38137 -0.65977,-0.32989 -1.64944,-1.40203 -0.0825,-0.74225 -0.74226,-1.89687 -0.65977,-0.41236 -2.14428,-0.24741 -1.31956,0.0825 -1.89686,0.49483 -0.24742,0.32989 -0.49484,0.65978 -0.24741,0.0825 -2.3917,-0.16494 -0.74225,1.23708 -0.82472,1.31955 -0.65978,0.41237 -1.31956,0.82473 l -0.24742,0.41236 h -0.24741 q -0.16495,0.57731 -0.16495,1.07214 0,1.56698 2.80406,3.71126 -1.31955,0.65978 -2.88653,1.73192 0.0825,0.98967 -0.24742,2.63912 0.16495,0.41236 0.49484,0.82472 0.41236,0.41236 1.31956,0.32989 1.15461,-0.16495 1.56697,0 0,0.16494 0.49484,0.49483 0,1.15462 0,1.15462 -0.32989,0.16494 -0.98967,0.74225 h -0.49484 q -0.41236,0.65978 -0.90719,1.40203 -0.49484,0 -0.98967,0 0,0 0,2.88653 1.73192,0.0825 4.53598,0.74225 0.24742,0.57731 0.24742,0.98967 0.49483,0.9072 0.98966,0.9072 0.82473,-0.57731 1.89687,-1.15461 0.74225,-0.16495 1.56698,0.24741 0.82472,0.32989 1.4845,0.16495 0.32989,0 1.23708,-0.57731 0.9072,-0.57731 1.89687,-0.57731 0,0 1.81439,0.24742 1.31956,0.16495 1.97934,0 0.57731,-0.49483 1.4845,-0.98967 0.49484,0.32989 2.14429,0 0.5773,-0.32989 1.15461,-1.40203 0.65978,-1.15461 0.98967,-1.4845 0.82472,-0.49483 1.89686,-2.14428 0.16495,-0.57731 -0.16494,-1.48451 -0.24742,-0.98966 -0.0825,-1.56697 0.49483,-0.32989 1.23708,-0.98967 0,-0.49483 0.24742,-1.40203 l 0.49483,-0.24742 q -0.24741,-0.41236 -0.24741,-1.64945 0.32989,-0.41236 0.65977,-0.98966 0,-0.41237 0,-1.23709 0.24742,-0.0825 0.49484,-0.16495 0.32989,-0.82472 0.98967,-2.22675 0.90719,0 0.90719,0 0.32989,0.32989 3.13396,2.63912 l 0.24741,5.52565 q -0.32989,0.32989 -0.74225,0.98967 0.65978,0.74225 1.4845,1.89686 -1.31955,1.64945 -1.23708,2.3917 l 0.49483,0.49483 q -0.0825,0.65978 0.24742,1.89687 l 0.65978,0.24742 q 0,0.82472 0,2.3917 0.16494,0.98967 0.74225,2.80406 -0.57731,0.24742 -1.40203,0.74225 0,0.9072 -0.49483,2.14428 -0.24742,0.24742 -2.63912,1.07214 -2.3917,0.82473 -2.88654,0.82473 -2.0618,0.32989 -4.04114,0 -0.0825,0 -0.74225,-0.24742 -0.57731,-0.24742 -0.9072,-0.16495 -0.57731,0.32989 -1.4845,0.65978 -1.40203,0.24742 -2.3917,0 l -0.41237,-0.41236 q -0.32988,-0.0825 -0.98966,0.32989 -0.57731,0.32989 -0.74226,0.32989 -0.65977,0.16495 -1.40203,0.16495 -0.65978,0 -2.969,-0.32989 -1.8144,-0.24742 -3.05148,-0.0825 -0.74225,0.41237 -1.89687,0.74226 -0.49483,0 -1.56697,-0.32989 -1.07214,-0.32989 -1.4845,-0.41237 -1.40204,0.32989 -4.7834,0.49484 -1.64945,-0.32989 -4.37104,-0.74225 -0.0825,0 -1.07214,0.24741 -0.98967,0.24742 -1.07214,0.24742 -7.09263,0.32989 -9.97916,-1.15461 -0.16495,-0.32989 -0.49484,-0.74225 -0.24741,-0.0825 -0.98967,-0.24742 -0.24741,-0.41236 -0.49483,-0.9072 0,-0.0825 0.74225,-2.88653 4.04115,-0.16495 3.13395,-0.24742 l 0.65978,0.49484 q 2.22676,0.16494 3.38137,0 0.32989,-0.32989 0.74225,-0.74226 1.07214,0 3.2989,-0.49483 0.16494,-0.32989 0.49483,-0.74225 0.41236,0.0825 1.23709,-0.16495 0.0825,-0.32989 0.41236,-0.74225 -0.24742,-1.31956 -0.49484,-2.55664 -0.41236,-1.64945 -0.16494,-2.72159 0,-0.0825 0.65978,-1.73192 0.41236,-1.15462 0.24742,-2.06181 -0.57731,-0.9072 -1.15462,-2.63912 0.49484,-1.40203 0.74225,-4.7834 -0.0825,-0.24741 -0.41236,-1.07214 -0.32989,-0.82472 -0.32989,-1.07214 0.32989,-0.65978 0.74225,-1.4845 0.24742,-1.31956 0,-3.05148 l -0.49483,-0.74225 q -0.24742,-1.07214 -0.24742,-3.79373 0.16495,-0.57731 0.24742,-1.97934 l -0.49483,-0.41236 q 0.0825,-0.98967 0,-2.88654 -0.32989,-0.65978 -0.74226,-1.64944 0,-0.49484 0.32989,-1.15462 0.41237,-0.65978 0.41237,-0.82472 0,-0.41236 -0.24742,-0.9072 -0.24742,-0.49483 -0.24742,-0.49483 0,0 0,-2.88654 -0.16494,-0.0825 -0.49483,-0.24741 0.32989,-0.82473 0.49483,-2.80407 0,-0.41236 -0.82472,-2.06181 -0.82473,-1.64944 -1.07214,-1.81439 0,0 -0.9072,0 -0.9072,-0.0825 -1.4845,0 -2.22676,0.32989 -2.88654,0 -0.24741,-0.41236 -0.90719,-0.90719 -0.65978,-0.16495 -1.64945,0.0825 -0.98967,0.24742 -1.4845,0.0825 -0.74226,-0.16494 -1.31956,-1.15461 -0.57731,-0.98967 -0.57731,-2.14429 0,-1.15461 0.74225,-1.73192 0.82473,-0.65978 2.63912,-0.65978 0.49483,0 1.4845,0.0825 0.98967,0 1.56698,0 1.40203,0 2.3917,-0.32989 0.41236,-0.41236 1.15461,-0.98967 0.41236,-0.0825 1.4845,0.24742 0.9072,-0.0825 2.88654,-0.24742 0.16494,0 2.72159,0.24742 1.97933,0.16494 2.969,0 0.82473,-0.24742 2.14428,-0.65978 v -0.24742 q 0.9072,0.0825 2.3917,0.24742 0.82473,-0.41236 1.89687,-0.74225 0.9072,-0.0825 2.06181,0.32989 1.23709,0.32988 1.31956,0.41236 0.5773,0.0825 1.31956,-0.16495 0.41236,-0.16494 0.82472,-0.32989 0.49483,0.0825 1.23709,0.24742 0.82472,-0.24742 1.89686,-0.49483 2.14428,-0.0825 5.6906,-0.24742 z m -11.46367,21.77271 q 0.57731,1.31956 0.57731,1.31956 0,0.41236 -0.57731,0.32989 0,0.0825 -0.0825,0.24742 -0.0825,-0.0825 -0.24742,-0.24742 -0.0825,-0.24742 -0.16494,-0.24742 0.24742,-0.57731 0.49483,-1.40203 z m 17.23673,9.31938 q 0.24742,0.0825 -0.24741,0.74225 0.0825,-0.82472 0.24741,-0.74225 z m 43.39926,-11.54613 q 1.31956,-0.16495 3.71126,0.16494 2.47417,0.24742 3.21643,0.74225 0.5773,0.74225 2.22675,1.73192 1.15461,-0.0825 3.46384,0 0.98967,0.32989 2.80406,0.82473 0.16495,1.73192 0,2.06181 -0.16494,0.24741 -1.73192,0.74225 l -0.24742,-0.82473 q -0.49483,0.32989 -0.41236,0.41237 0,0.32989 0.24742,1.07214 0.41236,0.32989 0.82472,0.65978 -0.0825,0.74225 0,2.14428 l 1.31956,1.73192 h 0.41236 q -0.16494,0.74225 -0.41236,1.56698 -0.32989,0 -0.65978,0.16494 -0.24741,0.74225 -0.16494,1.56698 0.24742,1.15461 0.16494,1.73192 l -0.41236,0.65977 q -0.0825,0.32989 0,1.73193 0.16495,1.64944 0.16495,2.39169 0.65978,0.24742 1.97933,0.57731 -0.65978,1.4845 -0.90719,2.63912 0,0.24742 0.24741,0.41236 0.0825,0.24742 -0.24741,0.65978 v 0.41236 q 0.41236,0.41236 0.90719,1.07214 -0.24741,0.74225 -0.41236,1.97934 0.24742,0.65978 0.65978,1.31956 0.24742,0 0.57731,0.24742 0,-0.0825 -0.16495,1.07214 0.16495,0 0.41236,0.41236 0.41237,-0.0825 1.07215,0.24742 0.24741,0.82472 0.65977,2.30922 0.0825,0 0.24742,-0.41236 0.41236,0 1.73192,0 0,0.65978 0.41236,1.97934 0.24742,0.41236 0.98967,0.74225 0.74225,0.32989 0.98967,0.57731 -0.0825,0.24741 0,0.5773 h 0.41236 q 0.57731,0.24742 1.07215,1.31956 0.5773,1.07214 0.5773,1.97934 0,0.49483 -0.24742,0.74225 -0.24741,0.24742 -0.74225,0.57731 -0.32989,0.65978 -1.07214,1.73192 -0.16494,0.0825 -2.22675,0.90719 -2.06181,0.74226 -2.3917,0.82473 -0.41236,0.0825 -1.31956,-0.0825 -0.9072,-0.16495 -0.98967,-0.16495 -0.9072,0 -3.95867,0.24742 -2.72159,0.24742 -4.12362,0.16494 -2.63912,-0.16494 -2.3917,-0.16494 -0.0825,0 -0.82473,0.32989 -0.65978,0.32989 -1.07214,0.32989 -0.16494,-0.32989 -0.49483,-0.57731 -0.24742,-0.24742 -1.64945,-0.74225 -0.74225,0.0825 -2.3917,-0.24742 -1.07214,-0.5773 -1.07214,-1.89686 0,-0.74225 0.41236,-2.3917 -0.74225,-0.32989 -2.14428,-0.9072 -0.49484,0.32989 -1.15462,0.9072 0,0.65978 -0.16494,1.73192 -0.32989,0.65978 -1.73192,1.4845 -2.06181,1.23709 -3.05148,1.31956 -0.32989,-0.16495 -1.31956,-0.24742 -0.16494,0 -0.49483,0.16495 -0.24742,0.0825 -0.16495,0.0825 -0.41236,0 -1.40203,-0.0825 -0.98967,-0.16495 -1.40203,-0.16495 -0.41236,0.32989 -1.07214,0.65978 -1.89686,0.49484 -5.44318,0 -0.90719,-0.0825 -1.4845,0 -5.36071,0.65978 -6.68027,-1.07214 -0.0825,-0.41236 -0.49483,-1.31956 h -0.41236 q -1.07214,-0.41236 -0.82473,-2.55664 0.41237,-3.62879 4.37104,-3.62879 0.49484,0 1.40203,0 0.9072,0.0825 1.23709,0.0825 1.81439,0 2.30923,-0.82472 0,0 0,-0.65978 0.24741,-0.9072 0.16494,-1.31956 l -0.41236,-0.82472 q 0.0825,-0.98967 0,-2.80406 -0.32989,-0.57731 -0.65978,-1.31956 -0.16495,-1.89687 0.24742,-3.21642 0.5773,-0.49484 1.23708,-1.31956 0,-0.57731 0,-1.56698 0.32989,-0.41236 0.65978,-1.07214 0.0825,-0.41236 -0.24742,-1.40203 -0.32989,-1.07214 -0.41236,-1.15461 0.16495,-1.56698 0.24742,-4.12362 -0.32989,-0.65978 -0.82472,-1.73192 v -0.65978 q -0.0825,-0.82473 -0.49484,-1.97934 -0.24742,0 -0.65978,-0.16495 0.0825,-0.32988 0,-0.65977 -0.24742,0 -0.65978,0 -0.24741,-0.41237 -0.82472,-0.9072 -0.49484,0.0825 -1.4845,-0.16495 -0.16495,-0.32989 -0.49484,-0.65977 -0.0825,-0.0825 -0.41236,-0.0825 -0.32989,0 -0.41236,-0.16494 -0.0825,-0.24742 -0.24742,-0.65978 -0.16494,-0.0825 -0.49483,-0.0825 -0.24742,0 -0.32989,-0.0825 0.16494,-1.64944 0.16494,-1.56697 0,-0.16495 -0.49483,-1.07214 -0.41237,-0.98967 -0.41237,-1.73192 0,-0.32989 0.0825,-0.65978 0.16494,-0.0825 0.41236,-0.65978 0.0825,0 0.65978,-0.0825 0.5773,-0.16495 0.82472,-0.0825 0.16495,0 0.74225,0.24742 0.57731,0.16495 0.82473,0.16495 0.82472,-0.32989 2.14428,-0.65978 2.22675,-0.32989 4.12362,0.24741 2.47417,0.65978 3.05148,1.73192 0,0.32989 0.16494,0.82473 0.49484,0.0825 1.31956,0.24742 l 0.24742,0.41236 q 1.89686,0.74225 2.80406,0.65978 0.98967,-0.0825 1.97934,-1.56698 0.98967,-1.4845 1.64945,-1.56697 0.32989,0 0.90719,-0.0825 0.57731,-0.74225 1.73192,-1.73192 1.23709,-0.5773 4.53598,-0.90719 z m 1.07215,9.07196 q 0,0.24742 -0.24742,0.65978 -0.16495,0.41236 -0.57731,1.56697 -0.74225,-0.0825 -2.3917,-0.49483 -0.0825,0.32989 -0.41236,0.9072 -0.41236,0.24741 -1.07214,0.82472 -0.41236,0.57731 0,0.9072 h -0.49484 q -0.24741,0.24741 -1.4845,0.41236 0.0825,-0.24742 -0.24742,-0.65978 0.0825,0.32989 0,0.9072 -0.24741,0.24741 -0.5773,0.65978 0,0.32988 0,0.82472 -0.74225,0.49483 -1.56698,1.31956 v 0.41236 q -0.74225,0.32989 -2.3917,1.07214 -0.98967,1.23709 -2.80406,3.05148 0.32989,1.23709 0.41236,3.2989 0,0.16494 0,0.41236 0.16495,0.90719 0.41236,0.90719 0.57731,0 0.65978,0.24742 0.0825,0.16495 0.24742,0.57731 0,0.16494 -0.24742,0.65978 -0.41236,0.16494 -1.07214,0.65978 -0.24741,0.74225 -0.16494,2.14428 0,0.0825 0.65978,1.07214 0.0825,0.82472 -0.65978,2.3917 0.0825,0.0825 0.16494,0.65978 0.65978,0.0825 1.73192,0.41236 0.32989,0.49483 1.31956,1.31956 v 0.16494 q 0.57731,-0.0825 1.73192,-0.16494 0.49484,0.16494 1.31956,0.41236 -0.0825,0.65978 0,0.65978 0.24742,-0.0825 0.65978,0 0.9072,0.32989 2.55664,1.07214 l 0.24742,0.41236 q 0.49483,0.0825 3.05148,-0.82472 l 0.16494,-0.41236 q 1.56698,-0.16495 3.95868,-0.9072 v -0.41236 l 0.41236,-0.24742 q 0.24742,-0.41236 0.24742,-0.82472 -0.0825,-0.65978 -0.0825,-0.9072 0.24741,0.16495 1.15461,0.41236 0.41236,-2.22675 0.41236,-1.89686 0,-0.32989 -0.57731,-1.40203 -0.5773,-1.15462 -0.49483,-1.64945 0.24742,-0.0825 0.65978,-0.24742 0,-0.0825 0,-0.65978 0.0825,0 0.41236,-0.16494 0.0825,-0.32989 -0.16494,-1.56698 -0.24742,-1.31956 -0.49484,-1.73192 l -0.41236,-0.16494 q -0.16494,-0.57731 0.16495,-2.06181 0.41236,-1.48451 0.65977,-1.8144 l 0.41237,-0.24741 q 0.0825,-0.24742 -0.24742,-0.82473 -0.32989,-0.65978 -0.32989,-0.90719 0,-1.23709 0,-3.87621 -0.49483,-0.24741 -1.56698,-0.65977 1.15462,-1.56698 1.15462,-3.13396 0,-0.65977 -0.32989,-1.23708 -0.24742,-0.57731 -1.64945,-0.82473 -1.07214,-0.24741 -2.22675,-0.49483 z m 47.27536,-27.62825 q 1.56698,-0.16495 2.3917,0.90719 0.32989,0.41237 1.07214,2.14429 -0.0825,0.32989 0.24742,0.90719 0.65978,0.16495 2.06181,0.49484 -0.0825,0.41236 -0.41236,1.15461 -0.32989,0 -0.74225,0.24742 0.16494,0.0825 -0.24742,0.65978 0.82472,0.5773 1.15461,0.74225 -0.16494,1.56697 0,2.06181 l 0.74226,0.24742 q 0.74225,0.5773 0.41236,3.46384 -0.9072,-0.16495 -2.96901,-0.65978 0,0.98967 0,0.90719 2.47417,0.24742 2.96901,1.15462 0,0.24741 0.24741,0.74225 0.65978,0.16494 1.89687,0.65978 0.16494,0.32989 0.41236,0.74225 0.57731,-0.32989 2.14428,-0.49484 0.32989,0.32989 0.65978,0.65978 0,0 2.55665,0 0.0825,-0.49483 0.24741,-1.56697 0.41237,-0.0825 1.15462,0 0.0825,0.24742 0.24742,0.65978 l 1.40203,0.90719 q 1.07214,-0.0825 3.05147,0 1.64945,0.32989 1.97934,1.15462 -0.0825,0.16494 0.0825,0.74225 0.74226,0.49483 1.64945,1.40203 v 0.49483 q 0.0825,0.0825 0.49484,0.0825 0.41236,0 0.49483,1.15461 -0.0825,0.74225 -0.0825,1.4845 -0.41236,0 -1.15461,0 -0.41237,0.49484 -1.15462,1.23709 -1.56697,0.98967 -3.71126,1.15461 -1.23708,0.0825 -3.29889,-0.49483 -0.57731,-0.32989 -1.40203,-0.65978 -0.57731,-0.0825 -1.23709,0.41236 -0.57731,0.41236 -0.82472,0.49484 -0.74225,-0.0825 -2.30923,0 -1.07214,0.32988 -2.80406,0.90719 0,3.2989 -0.49484,5.60812 l -0.41236,0.65978 q 0,0 0,0.74226 0.16495,-0.24742 0.24742,0.0825 0,0.16494 -0.0825,0.32989 -0.49484,3.62878 -0.0825,3.95867 0.41237,0.24742 0.0825,1.40203 -0.32989,0.49484 -0.65978,1.15462 0,0.41236 0.24742,0.74225 0.24741,0.24742 0.24741,0.24742 -0.24741,0.49483 -0.24741,1.64944 0.24741,0 0.65977,0.16495 0.0825,0.5773 0.24742,1.89686 h 0.24742 q -0.16495,0.0825 -0.24742,0.49484 0.32989,0.41236 0.74225,0.90719 -0.24741,0.57731 -0.41236,0.57731 -0.0825,0 -0.0825,-0.16494 v 0.49483 h 0.24742 q 0.16494,-0.32989 0.41236,-0.65978 0.16494,0.16495 0.74225,0.16495 0.24742,-0.24742 0.65978,-0.65978 0.16494,0.24741 0.32989,0.5773 0.24742,0.24742 0.65978,0.82473 v -0.49484 q 0.65978,-0.16494 2.06181,-0.41236 0.0825,-0.49483 0.24741,-0.98967 0.41237,0.16495 1.40204,0 -0.0825,-0.24741 0,-0.65978 h 0.24741 q 1.48451,-1.23708 1.56698,-1.64944 -0.0825,-0.65978 -0.24742,-1.8144 0.32989,-0.82472 0.74225,-2.14428 0.32989,0.0825 2.72159,0 1.81439,0 2.63912,0.57731 0.90719,0.49483 1.56697,2.30922 0.82473,2.22676 1.15462,2.72159 0.41236,0.49484 2.3917,1.40203 v 0.24742 q 0.24741,-0.0825 0.65978,0 0.74225,0.41236 0.74225,0.82473 0,0.24741 -1.64945,1.23708 0.74225,0.98967 1.15461,1.64945 0,0.32989 0,0.9072 -0.41236,0.16494 -1.07214,0.5773 -0.5773,0.32989 -0.5773,0.57731 0,0.24742 1.40203,0.98967 v 0.41236 q -0.82473,0.74225 -2.55665,2.30923 0.41236,0.32989 0.98967,0.98967 0.0825,0.49483 -0.24742,1.64944 -0.24741,0.82473 -0.49483,1.56698 -0.57731,0.16494 -2.96901,0.24742 l -1.64945,0.49483 q -0.24741,-0.16494 -1.15461,-0.24742 -0.98967,0.16495 -1.81439,0.98967 -1.23709,1.15462 -1.4845,1.31956 -0.49484,0.32989 -1.40204,0.32989 -1.40203,0.0825 -1.81439,0.16494 -0.74225,0.41237 -2.14428,0.9072 -1.15461,0.16495 -2.80406,-0.32989 -1.15462,-0.41236 -2.30923,-0.82472 -1.56697,-0.24742 -4.37104,-1.40203 -0.41236,-0.57731 -1.23708,-1.40203 -0.24742,0 -0.65978,0 -0.0825,-0.41237 -0.24742,-0.9072 -0.57731,-0.41236 -1.40203,-1.15461 -0.24742,-0.57731 -0.24742,-3.79373 v -0.41237 q 0,-0.0825 -1.15461,-2.47417 -0.74225,-1.56697 -0.74225,-2.55664 0,-1.15462 0.74225,-2.22676 -1.4845,-3.29889 -1.4845,-4.61845 0,-0.49484 0.16494,-0.82472 0.24742,-0.32989 0.65978,-0.57731 0.24742,-0.41236 0,-1.15462 v -0.49483 l 0.41236,-0.65978 q -0.24741,-0.98967 -0.41236,-3.29889 0.49484,-0.74226 1.15461,-1.8144 0.0825,-0.5773 0.0825,-1.15461 0,-0.82472 -0.49484,-2.88653 -0.49483,-1.8144 -0.32989,-2.96901 -0.41236,-0.0825 -1.15461,-0.49484 0.0825,-0.24741 0,-0.65977 0,-0.0825 -1.40203,-1.89687 -0.49484,-0.0825 -1.40203,0 0,0 -0.16495,0.74225 -0.24741,0 -0.98967,0.24742 -1.07214,0.16494 -2.63911,-0.0825 -1.89687,-0.24742 -2.72159,-0.16495 -4.20609,0.24742 -4.37104,0.24742 -0.65978,-0.49484 -1.64945,-1.23709 -0.0825,-0.90719 0.24742,-3.71125 0.24742,-1.40204 1.64945,-1.64945 1.4845,-0.24742 2.969,-0.41236 0.65978,-0.41237 1.64945,-0.9072 0.82473,-0.24742 2.06181,-0.0825 1.23709,0.24741 2.14429,0.0825 0.49483,-0.32989 1.15461,-0.74225 0,0 3.05148,0 -0.0825,-0.24742 0,-0.65978 0.5773,-0.57731 1.40203,-1.64945 -0.41236,-0.65978 -0.49484,-2.06181 0.57731,-0.57731 1.15462,-1.40203 -0.0825,-0.41236 -0.49484,-1.23709 0.16495,-0.49483 0.24742,-2.06181 l -0.41236,-0.24741 q 0,-2.55665 0,-2.55665 l 1.40203,-1.15461 q 0.24742,-0.82473 0.9072,-2.30923 0.90719,0 0.90719,0 0.24742,-0.24742 0.74225,-0.49483 z m 10.63894,42.88564 q 0,0 1.64945,0 0.57731,1.64945 0.24742,2.96901 -0.9072,-0.24742 -0.9072,-0.24742 -0.65978,0 -0.98967,0 -0.5773,0 -1.15461,0 0.16494,-0.90719 0.49483,-2.30922 0.32989,-0.16495 0.65978,-0.41237 z m -0.41236,5.11329 q 0,0.57731 0,0.9072 0.32989,0 0.24742,-0.49484 -0.0825,-0.5773 -0.24742,-0.41236 z m 19.54596,2.06181 q 0.24742,0 0.24742,0.0825 -0.0825,0.16495 -0.24742,0.16495 -0.24742,0 -0.24742,-0.16495 0,-0.0825 0.24742,-0.0825 z m -0.9072,0.49484 q 0.16495,0 0.24742,0.0825 -0.0825,0.0825 -0.24742,0.0825 -0.24742,0 -0.24742,-0.0825 0,-0.0825 0.24742,-0.0825 z m 26.73983,-37.27753 q 2.88653,0 3.29889,0 0.82473,0.41236 2.06181,0.98967 0.74225,0 2.30923,0.32989 0.57731,0.41236 1.4845,0.98967 1.15462,0 3.38137,0.74225 0.41236,0.32989 0.9072,1.4845 0.49483,1.07215 0.82472,1.31956 0.9072,0.49484 2.55665,1.56698 1.4845,1.31956 2.55664,3.54631 0.24742,1.31956 1.07214,3.8762 0.32989,0.24742 0.74225,0.74226 -0.24742,0.82472 -0.24742,2.55664 0,0.0825 0.41237,0.98967 0.41236,0.9072 0.32989,1.56697 h -0.24742 q -0.0825,0.9072 -0.49484,2.55665 l -0.49483,0.24742 q -0.24742,0.74225 -0.57731,1.56697 -0.24741,0.74225 -0.82472,0.82473 -0.57731,0 -1.73192,0.16494 -0.16495,0.0825 -1.23709,0.74225 -0.98967,0.65978 -1.81439,0.65978 -0.41236,0 -0.74225,-0.0825 -0.32989,-0.57731 -0.98967,-1.31956 -0.41236,0.0825 -1.07214,0 -1.73192,1.40203 -2.72159,1.40203 -0.74225,0 -1.64945,-0.32989 -0.0825,-0.0825 -0.74225,-0.82472 -0.82472,0.32989 -2.30923,0.49483 -0.0825,0 -0.90719,-0.24742 -0.82473,-0.32988 -1.40203,-0.24741 l -0.24742,0.49483 q -0.9072,0.0825 -2.55665,0.32989 v 0.24742 q -1.40203,0.0825 -2.55664,-0.24742 -0.0825,-0.0825 -0.16494,-0.32989 -0.0825,-0.24742 -0.32989,-0.24742 -0.41237,0.0825 -0.98967,0.65978 -0.57731,0.57731 -0.82473,0.65978 -0.32989,0.0825 -0.98967,-0.16494 -0.65977,-0.32989 -0.74225,-0.32989 -2.22675,-0.32989 -6.68026,0.98967 0,2.969 0.98967,4.61845 0.41236,0.24742 0.82472,0.49484 0.0825,0.41236 -0.82472,2.06181 0.24741,0.16494 2.47417,3.05147 1.73192,2.30923 2.3917,2.30923 0.65978,0 1.81439,0.24742 l 1.31956,1.56697 q -0.0825,0.32989 0,0.74226 0.49483,0.24741 1.73192,0.0825 1.40203,-0.16495 1.81439,-0.0825 0.49484,0.0825 1.73192,0.65978 1.23709,0.5773 2.14429,0.5773 0.5773,0 1.23708,-0.24742 0.32989,-0.41236 0.98967,-0.98966 0.74225,-0.0825 2.06181,-0.49484 0,-0.32989 0,-0.82472 0.41236,0 1.07214,-0.24742 0,-0.32989 0.24742,-0.74225 0.98967,-0.41236 2.80406,-1.81439 0.49483,-0.98967 2.06181,-2.55665 0.32989,0.0825 0.98967,0 0.57731,-0.16494 3.05148,-1.97934 0.24742,-0.41236 0.49483,-0.82472 0.74225,0.0825 2.06181,0 0,0.16495 0.49484,0.49483 -0.0825,1.15462 -0.24742,3.62879 -0.41236,1.31956 -0.98967,3.54631 0.0825,0.41237 0,1.07214 -1.4845,1.40204 -3.62878,3.54632 -0.41237,0.5773 -0.9072,1.15461 -0.49484,0.57731 -1.31956,0.65978 -0.74225,0 -2.30923,0.24742 -0.65978,0.74225 -2.06181,1.81439 -0.98967,0 -3.29889,0.24742 -0.49484,0 -2.30923,0.65978 -1.4845,0.49483 -2.55664,0.32989 -0.49484,-0.32989 -1.07215,-0.74226 -0.49483,-0.16494 -2.39169,-0.32989 -1.31956,-0.16494 -1.89687,-0.74225 -0.0825,-0.32989 -0.32989,-0.98967 -0.16494,-0.32988 -1.56697,-1.15461 -1.40204,-0.9072 -2.06181,-1.15461 -0.57731,-0.24742 -1.73193,-0.16495 -1.15461,0.0825 -1.73192,-0.0825 -0.32989,-0.49483 -1.07214,-1.31956 -0.65978,-0.16494 -1.73192,-0.74225 -0.49483,-0.98967 -1.56697,-2.80406 -1.15462,-1.07214 -3.05148,-3.2989 -0.41236,-0.65978 -0.57731,-1.64944 -0.32989,-1.48451 -0.5773,-1.89687 -0.24742,-0.49483 -0.65978,-1.07214 0.0825,-0.98967 0,-2.80406 L 950.86856,381.14 q 0.24742,-0.9072 0.24742,-3.13396 -0.32989,-0.65977 -0.24742,-0.98966 0.0825,-0.49484 1.07214,-1.15462 1.07214,-0.65978 1.23709,-1.15461 0.24742,-0.9072 -0.24742,-1.56698 -0.41236,-0.65978 -0.74225,-1.23708 -0.24742,-0.65978 -0.16494,-3.21643 0.0825,-2.55664 0.41236,-3.46384 0.32989,-0.16494 0.74225,-0.49483 0,-0.41236 0.24742,-0.98967 h 0.49483 q 0.16495,-0.82472 0.74225,-2.30923 0.65978,-0.41236 1.56698,-1.31956 0.0825,-0.49483 0.49483,-1.4845 0.24742,-0.32989 2.80406,-2.55664 0.32989,0 1.07214,-0.24742 0.41237,-0.57731 1.23709,-1.31956 0.82472,0 2.55664,-0.49483 0.98967,-0.74225 2.06181,-1.56698 0.57731,-0.0825 1.31956,0.16495 0.74225,0.24741 1.23709,0.16494 0.41236,-0.49483 1.23709,-1.07214 1.07214,-0.24742 3.13395,-0.24742 z m 0,5.11329 q -0.16495,0 -1.8144,0.74225 -1.64944,0.65978 -1.81439,0.82473 -0.24742,0.90719 -1.23709,1.97933 -0.32988,0.16495 -1.56697,-0.24741 -1.64945,-0.16495 -2.80406,1.56697 0.16494,0.41236 0.49483,0.98967 0.0825,-0.24742 0.24742,1.31956 -0.16495,-0.0825 -0.49484,0.24742 -3.79373,0 -4.37103,0.49483 0.0825,0.41236 0,0.98967 -0.41236,0.82472 -0.98967,2.06181 0,0.82472 -0.49484,2.55664 h -0.49483 q -0.16494,0.49484 -0.57731,1.56698 h -0.49483 q -0.0825,0.41236 -0.0825,0.74225 0,1.56698 2.47417,1.56698 1.15461,0 3.79373,-0.41236 2.63912,-0.49484 3.62878,-0.49484 0.57731,0 0.9072,0.0825 0.57731,0.49484 1.31956,1.07214 -0.24742,0.16495 0.0825,0.24742 0.16495,0 0.41236,0 v -0.49483 q 0.16495,-0.16495 0,-0.82473 0.74226,0 2.55665,-0.24741 2.88653,-0.41237 8.98949,-1.23709 0.32989,-0.24742 0.74225,-0.74225 0,-0.0825 -0.24742,-0.82473 1.56698,-1.07214 4.61846,-0.98966 -0.24742,-2.06181 -0.57731,-2.72159 -0.32989,-0.74225 -1.4845,-1.64945 -0.41236,-0.0825 -1.07214,-0.49484 0,-0.65977 -0.24742,-2.06181 -0.41236,-0.5773 -0.98967,-1.4845 0.0825,-0.32989 0,-0.82472 -0.32989,0.0825 -0.74225,0 -0.16495,-0.32989 -0.57731,-0.74225 -2.72159,-1.73192 -4.53598,-2.06181 -0.65978,0.0825 -1.81439,0 -0.65978,-0.49484 -0.74225,-0.49484 z m 65.41927,-3.8762 q 0.9897,-0.16495 2.3917,0.32989 0.8248,0.32989 1.732,0.65978 1.402,-0.16495 4.1236,0.24741 0.7422,0.74226 2.1443,1.89687 0.4123,0.0825 1.237,0.49483 0.2475,0.57731 0.9897,1.48451 0.3299,0 0.7423,0.24741 0,0.57731 0.2474,1.64945 0.6598,0.74225 1.4845,2.22676 0.082,0.74225 -0.4124,1.56697 -0.4123,0.82473 -0.3299,1.56698 0.3299,0.74225 0.7423,1.73192 0.1649,2.3917 -0.7423,4.12362 -0.4948,0.24742 -0.9896,0.74225 0.082,0.32989 0,0.74225 -0.6598,0.82473 -1.8969,0.98967 -1.1546,0.0825 -2.4742,0.24742 -0.4948,0.32989 -1.2371,0.74225 0,0 -3.8762,0 -0.5773,-1.97934 -1.4845,-2.72159 -0.3299,0 -0.7422,-0.24742 0,-0.32989 -0.2474,-0.98967 -0.2475,0.0825 -0.7423,0.24742 v 0.49484 q -0.5773,0.24741 -1.6494,-0.16495 -0.7423,-0.24742 -1.4845,-0.57731 -0.2475,-0.90719 0,-0.74225 0.2474,-0.41236 0.4948,-0.90719 0.9897,0.0825 0.7422,0.24741 0.5774,0.32989 1.4021,0.65978 0.6598,0.0825 0.6598,-0.32989 0,-0.32989 -0.5774,-0.98967 -0.5773,-0.74225 -0.7422,-0.82472 v -0.24742 q -0.1649,0.16495 -0.4948,0.49484 -1.4845,0.49483 -4.8659,-0.49484 -0.4948,-0.32989 -1.2371,-0.74225 -0.1649,0.16495 -0.7422,0.24742 -0.2475,0.49483 -0.7423,1.73192 l -0.4948,0.24742 q 0.082,0.49483 -0.2475,1.64944 -0.3298,0.0825 -0.9071,0.24742 -0.082,0.32989 -0.2475,0.74225 -0.4123,-0.0825 -0.9896,0 -0.082,0.41236 -0.2474,0.98967 -0.6598,0.24742 -1.567,1.4845 -0.3299,0.9072 -0.2474,2.47418 0.2474,1.89686 0.082,2.88653 0,0.0825 -0.2474,0.82472 -0.2474,0.74226 -0.2474,1.07215 0,0.0825 0.3299,0.82472 0.3299,0.65978 0.1649,1.15461 -0.3299,0.32989 -0.7422,0.98967 0.8247,1.15462 1.3195,1.15462 0.4124,0 1.4021,-1.15462 0.9072,0.24742 0.9896,0.24742 0.165,2.14428 0.2475,1.89686 -0.4949,0.82473 -0.9897,1.73192 0.6598,0.82473 1.402,1.64945 0.082,0.41236 0.2474,1.23709 1.8969,-0.82473 3.134,-0.82473 0.9072,0 1.7319,0.32989 0.5773,0.24742 0.9897,1.07215 0.7422,1.31955 0.7422,1.40203 1.3196,1.15461 2.5567,2.3917 1.7319,1.64944 1.3195,3.46384 -0.4123,0.32989 -0.9072,0.98967 -0.1649,0.41236 -0.7422,1.15461 -0.3299,0 -0.7423,0 -0.8247,0.49483 -2.4741,0.98967 -0.9072,-0.0825 -2.6392,0 v 0.49483 q -0.9072,0.32989 -1.9793,0.74225 -0.9897,0.32989 -1.8969,0.24742 -0.7422,-0.32989 -1.7319,-0.74225 -3.1339,-0.65978 -5.1133,-0.24742 l -0.4948,0.49484 q 0.2474,-0.0825 -1.9793,-0.24742 0.4123,0 -2.3917,0.24742 -2.0619,-0.16495 -5.8556,-0.24742 -0.082,0 -0.9897,0.24742 -0.8247,0.24741 -0.9896,0.24741 -0.4949,-0.0825 -1.1546,-0.5773 -0.5773,-0.57731 -0.7423,-0.65978 -0.8247,-0.16495 -2.4742,-0.49484 -0.082,-0.16494 -0.2474,-0.49483 -1.6494,0.24742 -2.2267,0 -0.3299,-0.24742 -1.4021,-1.40203 -0.3299,-0.0825 -0.74221,-0.24742 0,-0.49483 -0.24742,-1.4845 0.74223,-1.07214 2.47413,-2.96901 0.4949,-0.16494 1.6495,-0.65978 0.2474,-0.41236 0.4948,-0.74225 0.8247,-0.24742 1.8969,0.24742 1.1546,0.41236 2.0618,0.24741 v -0.24741 q 0.7423,-0.57731 1.6494,-1.23709 1.567,0 4.3711,-0.49483 l 0.2474,-0.49484 q 0.4124,-0.0825 0.9897,-0.49483 0.4123,-0.74225 0.4123,-1.4845 0,-0.49484 -0.2474,-1.73192 -0.2474,-1.23709 -0.1649,-2.14429 0,-0.0825 0.3299,-1.40203 0.2474,-1.07214 0.1649,-1.73192 0,-0.0825 -0.3299,-0.74225 -0.2474,-0.65978 -0.1649,-1.23709 h 0.2474 q 0.3299,-1.15461 1.4845,-2.88653 -0.165,-0.0825 -0.2474,-0.74225 -0.082,-0.24742 0.2474,-0.49484 -0.2474,-0.65977 0,-0.74225 -0.5773,-0.90719 -1.2371,-2.3917 0.082,-0.32989 0,-0.74225 -0.3299,-0.24742 -0.7422,-0.49483 -0.082,-0.49484 0.3298,-0.9072 0.4124,-0.49483 0.4124,-0.57731 -0.082,-0.5773 0,-1.64944 0.2474,-0.65978 0.7423,-1.97934 0.1649,-0.0825 0.4948,-0.24742 -0.165,-1.40203 -0.2474,-0.98967 v -0.49483 q -0.4124,-0.0825 -1.2371,-0.49484 0.2474,-1.64944 0.2474,-1.40203 0,-0.65978 -0.9897,-0.98967 -0.5773,-0.24741 -1.1546,-0.24741 -0.6598,0 -1.7319,0.32989 -1.0721,0.32989 -1.4845,0.41236 -1.9793,0.24742 -3.8762,-0.49484 l -0.2474,-0.49483 q -1.1546,0.32989 -3.6288,0 -0.8247,-0.32989 -1.2371,-1.97934 -0.2474,-0.74225 -0.2474,-1.4845 0,-1.07214 1.4845,-4.28857 5.0308,0.16495 5.7731,0 0.4948,-0.49483 1.237,-0.98966 0.6598,-0.16495 1.3196,0.24741 0.3299,0.24742 0.6598,0.49484 0.9897,0.0825 2.6391,-0.16495 1.6494,-0.24741 2.4742,-0.0825 1.1546,0.32989 3.3813,0.9072 v 0.49483 q 0.4949,0 1.4845,0.24742 0.3299,0.49483 1.2371,0.98967 1.1546,-0.0825 3.3814,0 0.082,0 1.2371,0.32989 0.9072,0.24741 1.402,0.16494 0.9897,-0.65978 2.7216,-1.73192 0.2474,0.0825 0.7423,0 0.5773,-0.41236 1.402,-0.9072 0.9072,0.0825 2.7216,0 l 0.2474,-0.49483 q 0.7422,-0.32989 1.9793,-0.74225 z m -11.4636,29.93748 q 0.2474,0.0825 0.2474,0.41236 -0.165,0.16495 -0.2474,0.32989 -0.2474,-0.49483 0,-0.74225 z"
       id="text1"
       style="font-size:82.4724px;line-height:0;font-family:Mom´sTypewriter;-inkscape-font-specification:Mom´sTypewriter;letter-spacing:-0.393616px;word-spacing:0px;stroke-width:5.62309"
       aria-label="Enter"
       inkscape:export-filename="text1.svg"
       inkscape:export-xdpi="96"
       inkscape:export-ydpi="96" />
  </g>
</svg>
