<?xml version="1.0" encoding="UTF-8" standalone="no"?>
<!-- Created with Inkscape (http://www.inkscape.org/) -->

<svg
   width="1141.3206"
   height="508.68765"
   viewBox="0 0 1141.3206 508.68765"
   version="1.1"
   id="svg1"
   xmlns:inkscape="http://www.inkscape.org/namespaces/inkscape"
   xmlns:sodipodi="http://sodipodi.sourceforge.net/DTD/sodipodi-0.dtd"
   xmlns="http://www.w3.org/2000/svg"
   xmlns:svg="http://www.w3.org/2000/svg">
  <sodipodi:namedview
     id="namedview1"
     pagecolor="#505050"
     bordercolor="#eeeeee"
     borderopacity="1"
     inkscape:showpageshadow="0"
     inkscape:pageopacity="0"
     inkscape:pagecheckerboard="0"
     inkscape:deskcolor="#505050"
     inkscape:document-units="px"
     inkscape:zoom="0.38564815"
     inkscape:cx="722.16086"
     inkscape:cy="716.97479"
     inkscape:window-width="1920"
     inkscape:window-height="1051"
     inkscape:window-x="-9"
     inkscape:window-y="-9"
     inkscape:window-maximized="1"
     inkscape:current-layer="layer1">
    <inkscape:page
       x="0"
       y="0"
       width="1141.3206"
       height="508.68765"
       id="page2"
       margin="0"
       bleed="0" />
  </sodipodi:namedview>
  <defs
     id="defs1" />
  <g
     inkscape:label="Layer 1"
     inkscape:groupmode="layer"
     id="layer1"
     transform="translate(-369.95925,-325.64932)">
    <path
       style="font-size:3.88056px;line-height:0;font-family:'Olde English';-inkscape-font-specification:'Olde English';letter-spacing:0.169474px;word-spacing:0px;white-space:pre;inline-size:36.3145;stroke-width:0.264583"
       d="m 140.60616,158.50965 0.0582,0.0699 0.38806,-0.31432 v -1.28447 l 0.1785,-0.12806 v 1.657 q 0,0.2794 -0.24059,0.2794 -0.0272,0 -0.26,-0.0699 -0.18627,-0.0582 -0.29492,-0.0582 -0.26776,0 -0.43462,0.17851 -0.17075,0.18239 -0.17075,0.44238 0,0.29105 0.19791,0.46955 0.18239,0.17075 0.47731,0.17075 0.21343,0 0.37641,-0.0931 l -0.0388,-0.0815 q -0.13582,0.0815 -0.33761,0.0815 -0.22895,0 -0.39582,-0.13582 -0.1785,-0.14358 -0.1785,-0.37641 0,-0.14358 0.097,-0.24836 0.097,-0.10477 0.2406,-0.10477 0.0931,0 0.29104,0.0699 0.19791,0.0737 0.2988,0.0737 0.22119,0 0.34925,-0.16687 0.11642,-0.15522 0.11642,-0.38029 v -0.67522 h 0.29492 v 0.79164 l -0.19791,0.14746 0.0543,0.0737 0.14358,-0.10478 0.33761,0.32209 0.42686,-0.34149 -0.0582,-0.0737 -0.14358,0.11642 v -0.93134 h 0.2988 v 0.72567 q 0,0.31432 0.24448,0.50447 l 0.38029,-0.3803 -0.0582,-0.0582 -0.13194,0.11641 q -0.0893,-0.0504 -0.11642,-0.11641 -0.0233,-0.0505 -0.0233,-0.16687 v -1.62983 l 0.32984,-0.23284 -0.0543,-0.0737 -0.22896,0.15523 -0.30268,-0.29881 -0.33761,0.25224 v -0.20955 h -0.0892 v 0.26388 l -0.17851,0.14358 q -0.066,-0.34925 -0.26388,-0.45015 l -0.32596,0.2406 v -0.19791 h -0.0931 v 0.26388 q -0.11253,0.0815 -0.1979,0.14358 -0.0854,0.0582 -0.14359,0.097 -0.13193,0.10478 -0.13193,0.58208 -0.35702,0 -0.35702,0.31433 0,0.10866 0.0466,0.24059 l 0.0854,-0.0349 q -0.0194,-0.0582 -0.0194,-0.0931 0,-0.17851 0.15134,-0.17851 0.0543,0 0.0931,0.0388 v 0.54327 z m 1.01283,-0.91969 h -0.29492 v -0.80328 l 0.11253,-0.0815 q 0.18239,0.0582 0.18239,0.31045 z m 0.47343,1.18357 -0.17851,-0.18239 v -1.61043 l 0.17851,-0.13582 z m 0.38805,-1.18357 h -0.2988 v -0.80328 l 0.12418,-0.0892 0.17462,0.18239 z m 0.88738,1.29223 0.0621,0.0699 0.10865,-0.097 0.29105,0.20567 q 0.32208,-0.25223 0.78387,-0.25223 v -0.0893 h -0.0931 v -0.84208 l 0.19015,-0.17074 -0.0582,-0.0699 -0.12417,0.10865 -0.27552,-0.20179 q -0.17463,0.15911 -0.37254,0.20955 -0.1591,0.0466 -0.4191,0.0466 v 0.0892 h 0.097 v 0.82656 z m 0.88089,-0.1397 q -0.066,0.0155 -0.1203,0.0349 -0.0543,0.0194 -0.097,0.0388 l -0.20178,-0.14747 v -0.79551 q 0.13193,-0.0272 0.25223,-0.0893 l 0.16687,0.12029 z m 0.80588,0.14358 0.0582,0.0699 0.12418,-0.10478 0.22895,0.20955 0.35313,-0.29492 -0.0582,-0.0699 -0.13582,0.11642 -0.0815,-0.0776 v -0.96237 h 0.10478 q 0.12805,0 0.17074,-0.1009 l 0.0854,-0.21343 -0.0815,-0.0349 -0.0543,0.12029 h -0.22507 v -0.62477 l 0.16298,-0.14358 -0.0582,-0.0699 -0.37642,0.31821 v 0.51999 h -0.0854 q -0.0776,0 -0.13194,0.12418 l -0.0815,0.20567 0.0815,0.0349 0.0582,-0.13582 h 0.1591 v 0.93133 z m 1.08917,0.004 0.0582,0.0699 0.12418,-0.10866 0.21731,0.20567 0.3182,-0.26776 -0.0621,-0.0699 -0.0815,0.0699 -0.0892,-0.0854 v -0.62865 l 0.31432,-0.27164 0.097,0.0892 v 0.99343 q -0.1203,0.13194 -0.1203,0.27552 0,0.0854 0.1009,0.25611 0.10089,0.17075 0.10089,0.21343 0,0.0931 -0.16686,0.23284 l 0.0543,0.066 q 0.0854,-0.066 0.1397,-0.11642 0.0543,-0.0466 0.0854,-0.0776 0.12417,-0.13582 0.12417,-0.26 0,-0.0815 -0.14358,-0.24835 -0.14358,-0.16687 -0.14358,-0.20955 0,-0.0621 0.0699,-0.10478 0.0543,-0.0388 0.12806,-0.0388 0.0582,0 0.12806,0.0349 l 0.0388,-0.0737 q -0.0699,-0.0388 -0.12418,-0.0427 v -0.91581 l 0.20567,-0.17851 -0.0582,-0.066 -0.12418,0.10477 -0.21343,-0.20567 -0.49283,0.42298 v -0.9585 q 0,-0.15134 0.0194,-0.22119 0.0155,-0.0388 0.0427,-0.0854 0.0272,-0.0505 0.0699,-0.10866 l -0.0621,-0.0388 q -0.17075,0.1591 -0.2406,0.36477 -0.0194,-0.10089 -0.0349,-0.16298 -0.0116,-0.066 -0.0194,-0.097 l -0.0737,0.0233 q 0.0155,0.12029 0.0194,0.19014 0.008,0.0699 0.008,0.0931 v 1.75013 z"
       id="text7"
       transform="matrix(86.11285,0,0,86.11285,-11671.204,-13144.964)"
       aria-label="Moth " />
    <path
       style="font-size:3.88056px;line-height:0;font-family:'Olde English';-inkscape-font-specification:'Olde English';letter-spacing:0.169474px;word-spacing:0px;white-space:pre;inline-size:36.3145;stroke-width:0.264583"
       d="m 140.95929,158.64159 0.0582,0.0699 0.33761,-0.27164 v -1.55222 l 0.1203,-0.0893 v 1.71908 l -0.31821,0.27164 0.0582,0.0699 0.0854,-0.0699 0.17075,0.20179 q -0.0505,0.004 -0.0776,0.004 -0.0272,0 -0.0349,0 -0.29104,0 -0.50059,-0.2794 -0.20567,-0.28716 -0.20567,-0.91581 0,-0.45403 0.1009,-0.72178 0.12029,-0.31433 0.46178,-0.55104 l -0.0504,-0.0776 q -0.39969,0.22508 -0.64029,0.57821 -0.25611,0.38029 -0.25611,0.81492 0,0.49671 0.31044,0.86148 0.33373,0.38029 0.8188,0.38029 0.0543,0 0.13582,-0.0116 0.10477,0.13582 0.16686,0.19791 0.0892,0.0892 0.23284,0.0892 0.13581,0 0.24835,-0.0854 0.11642,-0.0854 0.16687,-0.20567 l -0.0815,-0.0427 q -0.0776,0.15134 -0.19791,0.15134 -0.0854,0 -0.24835,-0.19791 0.69074,-0.42298 0.69074,-1.30387 0,-0.77999 -0.68298,-1.24178 l -0.26,0.17851 v -0.14746 h -0.0931 v 0.21343 l -0.62089,0.46178 0.0543,0.0737 0.14358,-0.1009 v 1.44745 z m 1.1991,-0.42298 q -0.0815,0.49671 -0.3997,0.67522 l -0.19015,-0.25612 v -0.44238 q 0.11642,-0.0699 0.26776,-0.0699 0.19403,0 0.32209,0.0931 z m -0.31821,-0.18239 q -0.15134,0 -0.27164,0.0621 v -0.68298 q 0.13194,0.0582 0.2794,0.0582 0.11254,0 0.28328,-0.0582 0.0621,0.22508 0.0621,0.48507 0,0.11254 -0.0194,0.2212 -0.16686,-0.0854 -0.33373,-0.0854 z m -0.004,-0.65581 q -0.12806,0 -0.26776,-0.0543 v -0.62477 q 0.39194,0.2406 0.53552,0.62477 -0.14358,0.0543 -0.26776,0.0543 z m 2.41244,0.33761 -0.0582,-0.0699 -0.13194,0.10477 -0.21343,-0.20955 -0.31433,0.27552 0.0582,0.066 0.1009,-0.0815 0.0815,0.0815 v 0.62477 l -0.32597,0.28328 -0.0931,-0.0776 v -0.74507 q 0,-0.2794 -0.1591,-0.42686 l -0.34537,0.30269 0.0582,0.066 0.10478,-0.0893 q 0.0699,0.0776 0.0699,0.26388 v 0.64417 l -0.20179,0.17075 0.0582,0.0699 0.1203,-0.1009 0.21343,0.19015 0.50059,-0.42686 q 0,0.16298 0.0233,0.23671 0.0272,0.10478 0.13194,0.19015 l 0.36089,-0.2988 -0.0582,-0.0699 -0.1203,0.10089 q -0.066,-0.066 -0.066,-0.26776 v -0.63641 z m 0.34022,1.16805 0.0582,0.0737 0.0931,-0.0893 0.31045,0.19015 0.57432,-0.37641 -0.0504,-0.0776 -0.34537,0.23283 -0.1785,-0.10866 v -0.21731 l 0.69074,-0.4579 -0.41134,-0.51224 q -0.29881,0.25224 -0.72567,0.25224 v 0.0893 q 0.0505,0.004 0.0737,0.008 0.0233,0 0.0233,0 0,0 0.0194,0 0.0194,0 0.0582,-0.004 v 0.82268 z m 0.84984,-0.74119 -0.38805,0.26388 v -0.57433 l 0.10477,-0.0349 z m 1.01932,0.22507 -0.46955,0.64417 0.0699,0.0466 q 0.0854,-0.1203 0.20955,-0.1203 0.13194,0 0.29104,0.11642 0.25224,-0.25224 0.60925,-0.25224 v -0.0893 h -0.1009 v -0.49671 h -0.39193 l 0.45402,-0.62089 -0.0737,-0.0543 q -0.10089,0.11642 -0.21731,0.11642 -0.1203,0 -0.30268,-0.11254 -0.25612,0.25612 -0.57433,0.25612 v 0.0892 h 0.097 v 0.47731 z m 0.10477,-0.15134 h -0.23283 v -0.39194 l 0.0621,-0.0388 q 0.10865,0.0854 0.23283,0.0854 0.1397,0 0.26388,-0.097 z m -0.34149,0.61701 0.34537,-0.46567 h 0.22119 v 0.41134 l -0.0466,0.0194 q -0.12418,-0.0699 -0.21343,-0.0699 -0.11642,0 -0.30657,0.10478 z m 1.29484,0.0504 0.0582,0.0699 0.12417,-0.10478 0.22896,0.20955 0.35313,-0.29492 -0.0582,-0.0699 -0.13582,0.11642 -0.0815,-0.0776 v -0.96237 h 0.10477 q 0.12806,0 0.17075,-0.1009 l 0.0854,-0.21343 -0.0815,-0.0349 -0.0543,0.12029 h -0.22507 v -0.62477 l 0.16298,-0.14358 -0.0582,-0.0699 -0.37641,0.31821 v 0.51999 h -0.0854 q -0.0776,0 -0.13194,0.12418 l -0.0815,0.20567 0.0815,0.0349 0.0582,-0.13582 h 0.1591 v 0.93133 z"
       id="text12"
       transform="matrix(90.857552,0,0,90.857552,-11968.89,-13644.688)"
       aria-label="Quest"
       inkscape:export-filename="text12.png"
       inkscape:export-xdpi="96"
       inkscape:export-ydpi="96" />
  </g>
</svg>
