<?xml version="1.0" encoding="UTF-8" standalone="no"?>
<!-- Created with Inkscape (http://www.inkscape.org/) -->

<svg
   width="73.893951mm"
   height="9.2703962mm"
   viewBox="0 0 73.893961 9.2703963"
   version="1.1"
   id="svg1"
   xml:space="preserve"
   xmlns="http://www.w3.org/2000/svg"
   xmlns:svg="http://www.w3.org/2000/svg"><defs
     id="defs1" /><path
     d="m 6.0280261,0.04534321 q 0.0903,-0.0113 0.24836,0.0339 0.15804,0.0339 0.18062,0.0339 0.24836,-0.0565 0.73378,-0.0677 0.0903,0.0452 0.23707,0.1016 l 0.13546,-0.0677 q 0.0564,-0.0113 0.27094,0.13547 0.0452,0.0113 0.12417,0.0677 l 0.0339,0.0677 q 0.0113,0.13546 0.0339,0.46284 -0.11289,0.0339 -0.32738,0.13547 v 0.0677 q -0.0903,0.0452 -0.1016,0.1016 0,0.0565 -0.0339,0.1016 -0.079,0.1016 -0.27093,0.19191 l -0.0677,0.0339 q 0.0113,0.11289 0,0.3048 -0.0452,0.0452 -0.1016,0.1016 -0.0113,0.0564 -0.0452,0.32738 -0.0226,0.25964 -0.0226,0.27093 0.079,0.079 0.2032,0.2032 -0.0113,0.0226 -0.1016,0.1016 0.0565,0.19191 -0.0339,0.63218 0.0564,0.0339 0.13546,0.1016 l -0.13546,0.27093 q 0.0226,0.0903 0.0339,0.2032 0.0452,0.0113 0.0339,0.0564 0,0.0339 0.0339,0.0452 -0.0113,0.0226 -0.0677,0.0903 -0.0226,0.0903 0.0113,0.21448 0.0339,0.11289 0.0226,0.19192 -0.0452,0.0451 -0.1016,0.1016 -0.0113,0.0564 0.0226,0.14675 0.0451,0.079 0.0451,0.0903 -0.0339,0.079 -0.0339,0.25965 0.0451,0.0339 0.1016,0.0677 0.1016,0.18062 0.0677,0.2032 -0.0339,0.0903 -0.13547,0.23707 l 0.0339,0.16933 q 0.0226,0 0.0677,0.0339 -0.14675,0.56444 -0.14675,0.85796 0,0.0677 0.0226,0.0903 0.0339,0.0226 0.0903,0.0451 0.0677,0.37254 0.0677,0.44027 0,0.0564 -0.0564,0.14675 -0.0565,0.0903 -0.0452,0.19192 0.0226,0.1016 0.21449,0.2032 0.14675,0.0677 0.29351,0.12417 0.31609,0.15805 0.38382,0.23707 0.11289,0.12418 0.14676,0.42898 -0.0226,0.0113 -0.0677,0.0339 0.0339,0 0.0226,0.0452 0,0.0452 -0.0226,0.0564 -0.0565,0.0113 -0.16934,0.0339 0,0.0452 -0.0339,0.0903 -0.0226,0.0339 -0.32737,0.11289 0.0226,0 -0.37254,-0.0339 -0.19191,0.0339 -0.59831,0.0339 l -0.16933,-0.0677 q -0.0113,0 -0.1016,0.0339 -0.0903,0.0339 -0.1016,0.0339 -0.18062,-0.0113 -0.49671,0 l -0.0677,0.0677 q -0.14675,0.0339 -0.37253,-0.0339 -0.12418,-0.0452 -0.22578,-0.19191 -0.0903,-0.14676 -0.16933,-0.27094 -0.0565,0.0226 -0.0677,-0.0113 0,-0.0339 0,-0.0565 0.0339,0 0.13547,-0.0339 0.0339,-0.12417 0,-0.13546 -0.12418,0.1016 -0.13547,0.1016 -0.0113,0 -0.16933,-0.0339 0,0.079 -0.0677,0.22578 -0.079,0.0339 -0.16934,0.1016 0,0.0226 0.0339,0.23707 -0.0226,0.0113 -0.0677,0.0677 -0.18063,0.0226 -0.66605,-0.0339 -0.0564,-0.48542 -0.37253,-0.69991 0.1016,-0.21449 0.1016,-0.23707 v -0.0339 q -0.0564,-0.0226 -0.0564,-0.23707 0.0113,-0.22578 -0.0113,-0.25964 -0.0564,-0.0564 -0.12417,-0.13547 -0.0226,-0.0452 -0.0226,-0.0903 0,-0.0564 0.0564,-0.14676 0.0677,-0.1016 0.0564,-0.2032 -0.0677,-0.14675 -0.15805,-0.39511 0.0113,-0.0903 0,-0.27093 -0.0452,-0.0903 -0.13546,-0.3048 l -0.0677,-0.0339 q -0.0226,-0.1016 0.0113,-0.27093 0.0339,-0.16934 0.0226,-0.25965 -0.0564,-0.16933 -0.16933,-0.53058 l -0.0677,-0.0677 q 0,-0.15804 -0.0339,-0.47413 -0.0226,-0.11289 -0.23707,-0.66605 0,-0.0564 -0.0677,-0.13547 -0.0226,-0.0113 0.0339,-0.1016 0.0113,0 0.0677,-0.0339 -0.0113,-0.14676 -0.0677,-0.53058 -0.0677,-0.16933 -0.19191,-0.508 l -0.0677,-0.0339 q 0,-0.079 0,-0.22578 l -0.0677,-0.0339 q -0.0564,-0.15805 0.0339,-0.508 -0.079,-0.0564 -0.33867,-0.16934 -0.0113,0.0226 -0.1016,0.1016 0.0452,0.16934 0.1016,0.6096 0.16934,0 0.16934,0 -0.0565,0.0226 -0.16934,0.0339 0.0113,0.0339 -0.0339,0.1016 0.0339,0.0564 0.0677,0.12418 -0.0339,0.0226 -0.0226,0.15804 0,0.11289 0.0339,0.14676 0.0452,0.0339 0.12418,0.1016 -0.079,0.11289 -0.16934,0.27093 0,0.0903 -0.0339,0.25965 l -0.0677,0.0677 q 0.0339,0.25965 -0.0339,0.73378 l -0.16934,0.1016 q -0.0226,0.0564 -0.0226,0.0903 0,0.0226 0.12417,0.18062 0.12418,0.15805 0.23707,0.23707 -0.0452,0.16933 -0.0677,0.36124 0.0113,0.0339 0.23706,0.16934 -0.0452,0.0677 -0.1016,0.16933 -0.0113,0.079 0.0339,0.22578 0.0452,0.14676 0.0452,0.21449 0,0.0452 -0.0113,0.0903 h -0.0677 q 0,0.0452 -0.0339,0.13547 0.0677,0.0339 0.0677,0.0339 0,0.0452 0.0339,0.23707 -0.0113,0.0113 -0.0339,0.0452 -0.0226,0.0452 0,0.0564 -0.1016,0.11289 -0.0677,0.13547 0.0226,0.0113 0.0677,0.13546 0.0339,0.28223 -0.12418,0.37254 -0.21449,0.13546 -0.24835,0.19191 -0.0226,0.0452 0,0.16933 0.0113,0.0226 -0.0339,0.0677 v 0.0339 q 0.25965,0.0677 0.508,0.13547 0.33867,0.1016 0.42898,0.19191 0.0226,0.0226 0,0.0339 -0.0452,0.0226 -0.0452,0.0226 0,0.0113 0.0113,0.0113 0.0903,0.0564 0.1016,0.14676 0,0.1016 0,0.19191 0.21449,0.0339 0.47414,0.1016 0.0226,0.0113 0.13546,0.36125 -0.0452,0.0113 -0.13546,0.0339 -0.0226,0.0452 -0.0677,0.1016 -0.12417,0 -0.33866,0 -0.25965,0.0113 -0.76765,0.0677 -0.16933,0.0677 -0.16933,0.0677 l -0.1016,-0.0677 q -0.13547,0.0113 -0.39511,0 l -0.1016,-0.0677 q -0.25965001,0.0226 -0.76765001,0 -0.1016,-0.0339 -0.27093,-0.1016 0,-0.0113 -0.0677,-0.16933 0.23707,-0.18062 0.57574,-0.25965 0,-0.0339 -0.0339,-0.1016 0.079,-0.14675 0.22578,-0.37253 0.0452,-0.0564 0.50800001,-0.32738 v -0.0677 q -0.18062,-0.13547 -0.37253001,-0.33867 -0.0113,-0.0677 0.0564,-0.18062 0.079,-0.12418 0.079,-0.15804 -0.0451,-0.16934 -0.0677,-0.56445 l 0.0677,-0.13547 q -0.0113,-0.0903 0,-0.25964 0.0452,-0.0564 0.1016,-0.13547 0.0226,-0.13546 -0.0452,-0.27093 -0.0903,-0.19191 -0.0903,-0.2032 -0.0452,-0.24836 0.0339,-0.36125 l 0.0677,-0.0339 q 0.0564,-0.24836 0,-0.54187 -0.0339,-0.0339 -0.1016,-0.1016 v -0.0339 q 0,0.0339 0.0339,-0.0113 0.0226,-0.0564 0,-0.0564 v -0.0565 q 0,-0.13546 -0.0339,-0.4064 -0.0339,-0.0339 -0.0677,-0.16933 0.0226,-0.1016 0.0677,-0.36124 -0.0113,-0.48543 -0.0677,-1.14018 -0.0452,-0.0677 -0.10160003,-0.16934 0.0226,-0.21449 -0.0677,-0.63217 -0.14676,-0.24835999 -0.59831,-0.33866999 -0.0452,0.0113 -0.13547,0 -0.0226,-0.0339 -0.1016000005631,-0.1016 0,-0.16934 0,-0.16934 0.045200020563,-0.0226 0.1016000205631,-0.0677 0.12418,0.0226 0.37253,0 0.0564,-0.0903 0.19192,-0.19191 0.1016,-0.0226 0.2032,0.0564 0.1016,0.0677 0.13546001,0.079 l 0.23707,-0.1016 q 0,-0.0452 0.0339,-0.1016 0,0 0.29351,0 0.0339,0.0564 0.0339,0.0677 0.0903,0 0.3048,0 0.0226,-0.0677 0.0339,-0.0677 0.0113,0.0339 0.0339,0.1016 0.1016,0 0.33866,0 v 0.0339 q 0.18063,-0.0451 0.56445,-0.0339 0.0339,0.0564 0.1016,0.13546 0.0564,-0.0113 0.16933,0.0226 0.0677,0.0565 0.079,0.2032 0.0113,0.22578 0.0113,0.25965 0.0113,0.0226 0.079,0.13545999 0.0677,0.1016 0.0564,0.18063 -0.0677,0.079 -0.15804,0.22577 -0.0226,0.16934 -0.0339,0.37254 0.0903,0.0903 0.25964,0.23706 -0.1016,0.56445 -0.0339,0.76765 0.0564,0.0226 0.1016,0.0677 v 0.0677 q 0.0903,0 0.23707,0.0339 0,0.0113 0,0.1016 -0.079,0 -0.20321,0.0339 0,0.0452 -0.0677,0.12418 0.079,0.1016 0.23707,0.27093 0.0113,-0.0113 0.0339,0.1016 -0.22578,0.12418 -0.20321,0.27093 0.079,0.0564 0.16934,0.15805 0.0113,0.0903 -0.0339,0.13547 0.079,0.1016 0.16934,0.2032 -0.0226,0.079 -0.2032,0.27093 0,0.0564 0.0339,0.16933 0.079,0.0339 0.2032,0.12418 0.1016,0.13547 0.16934,0.57574 0.0677,0 0.2032,0.0339 0.0451,-0.0339 0.079,-0.0903 0.0339,-0.0564 0.0339,-0.1016 0,-0.0677 -0.0564,-0.18062 -0.0452,-0.12418 -0.0452,-0.2032 0,-0.0452 0.0113,-0.0903 0.0677,-0.0339 0.13547,-0.1016 0.0339,-0.0677 0.0113,-0.14676 -0.0226,-0.0903 -0.0113,-0.12418 0.0903,-0.1016 0.2032,-0.3048 -0.0113,-0.0452 0,-0.13546 0.0677,-0.0339 0.13547,-0.12418 0.0113,-0.0564 -0.0339,-0.11289 -0.0339,-0.0565 -0.0339,-0.0565 -0.0564,-0.28222 0,-0.54186 0.079,-0.079 0.16934,-0.19191 0.0113,-0.079 -0.0452,-0.19192 -0.0452,-0.11288 -0.0226,-0.21448 0.079,-0.079 0.16934,-0.23707 0.0113,-0.0564 0.0113,-0.11289 0,-0.0903 -0.0565,-0.27093 -0.0451,-0.18063 -0.0226,-0.28223 h 0.0339 q 0.0113,-0.0452 0.0339,-0.1016 0.11289,-0.0903 0.11289,-0.1016 -0.0113,-0.0677 -0.0113,-0.0677 0,-0.0452 0.0339,-0.13547 0.0452,-0.0226 0.0903,-0.0564 0.0113,-0.0903 -0.0677,-0.2032 -0.0677,-0.11289 -0.0564,-0.20319999 l 0.0677,-0.0677 q -0.0113,-0.0677 0.0339,-0.2032 0.0564,-0.0226 0.15804,-0.1016 0.0113,-0.0226 0.0339,-0.0903 0.0677,-0.1016 0.3048,-0.25964 0.23707,-0.16934 0.37253,-0.18062 z m -0.16933,1.73848999 q -0.0903,0.31609 -0.0677,0.56444 0.0677,0.0113 0.2032,0.0339 0.0677,-0.23707 0.0903,-0.56445 -0.0677,0 -0.22578,-0.0339 z m 0.29351,0.69991 q -0.0226,0 -0.27093,0.079 -0.24836,0.0677 -0.25965,0.0903 0,0.0903 -0.0339,0.27094 -0.0226,0.0113 -0.0677,0.0339 0,0.1016 0,0.1016 h -0.0677 q -0.0113,0.0677 0.0564,0.15805 0.079,0.0903 0.079,0.1016 -0.0565,0.12418 -0.0677,0.33866 0.12418,0.0564 0.27094,0.13547 0.0226,0.0677 0.0677,0.16933 -0.0677,0.0339 -0.13547,0.1016 0.0113,0.0903 -0.0339,0.25965 -0.079,0.0226 -0.16934,0.0677 -0.0339,0.0677 -0.0339,0.11289 0,0.0677 0.0452,0.13547 0.0565,0.0564 0.0565,0.0564 -0.0113,0.15805 -0.0339,0.1016 -0.0113,0.0452 -0.0339,0.0339 -0.0677,0.0564 -0.23706,0.16933 0.12417,0.2032 0.12417,0.25965 0,0.0339 -0.079,0.0677 -0.079,0.0339 -0.11289,0.13547 0.0226,0.079 0.0339,0.23707 0,0.0113 -0.0565,0.12417 -0.0451,0.11289 -0.0339,0.13547 0.0226,0.0452 0.0564,0.13547 -0.0113,0.0452 -0.0564,0.1016 0,0 -0.1016,0 -0.0113,0.0226 -0.0452,0.0677 -0.0339,0.0452 -0.0226,0.1016 0,0.0113 0.0339,0.11289 0.0452,0.0903 0.0339,0.15804 l -0.13547,0.16934 h -0.0677 q 0,0 0,0.22578 0.0226,0.0113 0.0677,0.0339 -0.0564,0.0565 -0.0677,0.23707 0.0677,0.0677 0.16933,0.16933 0,0.0339 0,0.1016 -0.0339,0.0113 -0.1016,0.0339 l -0.0339,0.19191 q 0.0677,0.0452 0.2032,0.13547 0.1016,0.1016 0.11289,0.2032 0.0226,0.1016 0.0339,0.1016 0.0339,0 0.21449,-0.1016 -0.1016,-0.0564 -0.1016,-0.0903 0,-0.0226 0.079,-0.0564 0.079,-0.0339 0.0903,-0.0564 v -0.0677 q 0.0903,0.0564 0.0677,0.0677 0.23706,0.0113 0.44026,-0.1016 -0.0452,-0.18063 -0.0339,-0.19191 0.0113,-0.0564 0.13546,-0.13547 0.13547,-0.0903 0.15805,-0.16933 0.0339,-0.12418 -0.0226,-0.38383 -0.0564,-0.25964 -0.11289,-0.24835 0.0113,-0.0226 0.0339,-0.0677 0.13546,-0.22577 0.13546,-0.37253 0.0113,-0.2032 -0.0677,-0.39511 l -0.0677,-0.0339 q -0.0226,-0.11289 0.1016,-0.33867 h 0.0677 q 0.0226,-0.0677 -0.0226,-0.29351 -0.0452,-0.22577 -0.0903,-0.25964 -0.0339,-0.0452 -0.0903,-0.079 -0.0113,-0.1016 0.079,-0.18063 0.0903,-0.0903 0.0903,-0.12417 -0.0339,-0.13547 -0.0677,-0.13547 l 0.1016,-0.23707 q -0.16933,-0.2032 -0.16933,-0.29351 0,-0.0903 0.16933,-0.33867 -0.0452,-0.0339 -0.13547,-0.1016 v -0.0339 q -0.079,-0.0226 -0.16933,0.0339 -0.0903,0.0565 -0.15804,0.0339 -0.0226,-0.0452 -0.0677,-0.16933 0.11289,-0.0226 0.0677,-0.0339 0.0113,0 0.0339,-0.0677 0.0677,0.0339 0.0677,0.0339 0.079,0.1016 0.15804,0.0339 0.0113,-0.0113 0,-0.0903 0.0226,-0.0452 0.0339,-0.1016 -0.0226,-0.2032 0.0677,-0.54187 0,-0.0339 -0.1016,-0.0677 z m -1.06116,5.7912 q 0.0339,0.0113 0.0903,0.0339 -0.0564,-0.0339 -0.0903,-0.0339 z m 5.8968599,-5.91538 q 0.0113,-0.0113 0.63218,0.0226 0.11289,-0.0113 0.31609,-0.0226 0.12418,0.0565 0.31609,0.12418 0.079,-0.0564 0.28222,-0.1016 0.12418,0.0113 0.24836,0.14675 0.12417,0.13547 0.13546,0.14676 0.0677,0.0339 0.16934,0.0339 0.14675,0.0113 0.21449,0.0226 0.0339,0.0452 0.0903,0.1016 0.0339,-0.0113 0.0903,0 0.0564,0.0339 0.0903,0.15805 0.0452,0.11289 0.079,0.16933 0.0452,0.0452 0.21449,0.1016 0.16933,0.0452 0.22578,0.11289 0.0564,0.0564 0.1016,0.23707 0.0564,0.16933 0.0903,0.22578 0.0903,0.079 0.21449,0.22577 -0.0226,0.0452 -0.0339,0.1016 0.15805,0.14676 0.19191,0.28223 0,0.0677 0,0.19191 h 0.0677 q -0.0226,0.0226 -0.0339,0.0564 0.0113,0.0113 0.0677,0.1016 0.079,0.55316 0,0.75636 -0.0564,0.0452 -0.1016,0.0903 -0.0113,0.1016 0.0226,0.24836 0.0452,0.14675 0.0452,0.16933 -0.0339,0.12418 -0.0677,0.31609 0.0564,0.079 0.0339,0.12418 -0.0903,0.0226 -0.19191,0.15804 -0.0113,0.11289 0.079,0.3048 0.0903,0.19191 0.079,0.3048 0,0.079 -0.0903,0.18062 -0.11289,0.14676 -0.12418,0.15805 -0.0339,0.13547 -0.15804,0.38382 -0.0903,0.0452 -0.25965,0.15805 -0.0113,0.0113 -0.0339,0.1016 h -0.0564 q -0.0113,0.0339 -0.0339,0.12417 -0.0452,0.0113 -0.12418,0.0564 -0.0113,0.0452 -0.0339,0.1016 -0.079,0.0113 -0.22578,0.0564 -0.0226,0.0452 -0.0564,0.1016 -0.12418,-0.0113 -0.34996,0 -0.0903,0.0452 -0.29351,0.12418 l -0.0226,0.0677 q -0.1016,0.0113 -0.22577,0.0339 -0.0565,0.0339 -0.15805,0.0903 -0.0564,0 -0.15804,0 -0.94827,0.13547 -1.04987,0.12418 -0.18062,-0.079 -0.508,-0.19191 -0.079,0.0113 -0.21449,0 -0.0452,-0.0564 -0.12418,-0.12418 -0.16933,-0.0226 -0.4515499,-0.15804 -0.0564,-0.0903 -0.15805,-0.22578 -0.13547,-0.0452 -0.34995,-0.18062 -0.0226,-0.11289 -0.0903,-0.31609 -0.15804,-0.25965 -0.34995,-0.80151 0.0339,-0.11289 0.0677,-0.37254 -0.0564,-0.11289 -0.13546,-0.29351 0.0226,-0.12418 0.0339,-0.37253 -0.0339,-0.11289 -0.0564,-0.22578 0.0113,-0.0564 0.0226,-0.0903 -0.0113,-0.11289 -0.0226,-0.15805 0.0339,-0.2032 0.0226,-0.22578 0,-0.0451 -0.079,-0.14675 -0.079,-0.1016 -0.079,-0.2032 0.0113,-0.21449 0.15805,-0.44027 l 0.0677,-0.0339 q 0.0226,-0.079 0,-0.22578 v -0.0903 q 0.0339,-0.14676 0.12418,-0.41769 0.12417,-0.22578 0.34995,-0.33867 v -0.0339 h 0.0677 q 0.0452,-0.15804 0.19191,-0.45155 0.0451,-0.0113 0.15804,-0.0565 0.0452,-0.1016 0.1806199,-0.25964 0.0677,0 0.15805,-0.0226 0.079,-0.079 0.22578,-0.19191 0.23706,-0.1016 0.57573,-0.12418 z m 1.10631,1.38854 q -0.0226,0.11288 -0.1016,0.38382 -0.0226,0.0113 -0.12418,0.0339 -0.0903,-0.0113 -0.32737,-0.0677 -0.22578,-0.0564 -0.37254,-0.0564 -0.0903,0 -0.18062,0.0226 -0.11289,0.079 -0.31609,0.19192 -0.0564,-0.0113 -0.13547,0 v 0.0677 q -0.079,0.1016 -0.28222,0.28222 -0.079,0.0113 -0.15804,0.0339 -0.0339,0.0452 -0.0113,0.15804 0.0113,0.11289 0.0113,0.12418 -0.0565,0.0226 -0.1128899,0.079 -0.0452,0.0564 -0.0452,0.22578 0,0.18062 0,0.2032 -0.0452,0.0339 -0.12418,0.12418 0.0452,0.0452 0.15805,0.12418 -0.18062,0.53058 -0.12418,0.69991 0.0113,0.0564 0.13547,0.11289 0.1241799,0.0564 0.1467499,0.079 0.0903,0.2032 0.22578,0.44027 0.0677,0.0452 0.25965,0.0339 0.19191,-0.0226 0.27093,0 0.15805,0.12418 0.22578,0.19192 -0.0113,0.0452 0,0.0903 0.0564,0.0113 0.19191,0.0339 0.22578,0.1016 0.63218,0.22578 0.0677,-0.0226 0.22578,-0.0339 0.0903,0.0452 0.24835,0.12418 0.0564,-0.0903 0.19191,-0.24835 0.13547,-0.0565 0.31609,-0.15805 0,0 0,-0.1016 0.0565,-0.0113 0.0565,-0.079 0,-0.0226 -0.0226,-0.13547 -0.0226,-0.1016 0,-0.16933 0.1016,-0.0564 0.21449,-0.18062 0,0 0,-0.31609 0.0451,-0.0113 0.1016,-0.0677 0,-0.0226 -0.0339,-0.0677 -0.0452,0.0113 -0.12418,0 -0.0903,-0.0226 -0.12417,-0.11289 -0.0226,-0.1016 -0.0339,-0.2032 0.0113,0 0.0226,-0.0564 0.0677,0 0.22577,-0.0339 0.0113,-0.16933 -0.0339,-0.47413 -0.1016,-0.079 -0.21449,-0.15805 -0.0339,-0.1016 0.0226,-0.21449 0.0677,-0.11289 0.0677,-0.13546 0,-0.0226 -0.0564,-0.21449 -0.0452,-0.2032 -0.0677,-0.22578 -0.0677,-0.0226 -0.15804,-0.0677 -0.0226,-0.079 -0.1016,-0.19192 -0.1016,-0.0113 -0.33867,-0.0903 -0.0113,-0.0452 -0.0339,-0.1016 -0.0677,-0.0339 -0.19191,-0.12417 z m 5.84042,-3.56729999 q 0.21449,-0.0226 0.32738,0.12418 0.0452,0.0564 0.14676,0.29351 -0.0113,0.0452 0.0339,0.12418 0.0903,0.0226 0.28223,0.0677 -0.0113,0.0564 -0.0565,0.15805 -0.0452,0 -0.1016,0.0339 0.0226,0.0113 -0.0339,0.0903 0.11289,0.079 0.15805,0.1016 -0.0226,0.21449 0,0.28222 l 0.1016,0.0339 q 0.1016,0.079 0.0564,0.47413 -0.12417,-0.0226 -0.4064,-0.0903 0,0.13546 0,0.12418 0.33867,0.0339 0.4064,0.15804 0,0.0339 0.0339,0.1016 0.0903,0.0226 0.25964,0.0903 0.0226,0.0452 0.0565,0.1016 0.079,-0.0452 0.29351,-0.0677 0.0452,0.0452 0.0903,0.0903 0,0 0.34996,0 0.0113,-0.0677 0.0339,-0.21449 0.0564,-0.0113 0.15805,0 0.0113,0.0339 0.0339,0.0903 l 0.19191,0.12418 q 0.14675,-0.0113 0.41769,0 0.22577,0.0452 0.27093,0.15804 -0.0113,0.0226 0.0113,0.1016 0.1016,0.0677 0.22578,0.19192 v 0.0677 q 0.0113,0.0113 0.0677,0.0113 0.0564,0 0.0677,0.15804 -0.0113,0.1016 -0.0113,0.2032 -0.0564,0 -0.15804,0 -0.0564,0.0677 -0.15804,0.16934 -0.21449,0.13546 -0.508,0.15804 -0.16934,0.0113 -0.45156,-0.0677 -0.079,-0.0452 -0.19191,-0.0903 -0.079,-0.0113 -0.16934,0.0564 -0.079,0.0565 -0.11288,0.0677 -0.1016,-0.0113 -0.31609,0 -0.14676,0.0452 -0.38383,0.12418 0,0.45156 -0.0677,0.76765 l -0.0564,0.0903 q 0,0 0,0.1016 0.0226,-0.0339 0.0339,0.0113 0,0.0226 -0.0113,0.0452 -0.0677,0.49671 -0.0113,0.54187 0.0565,0.0339 0.0113,0.19191 -0.0452,0.0677 -0.0903,0.15805 0,0.0564 0.0339,0.1016 0.0339,0.0339 0.0339,0.0339 -0.0339,0.0677 -0.0339,0.22578 0.0339,0 0.0903,0.0226 0.0113,0.079 0.0339,0.25964 h 0.0339 q -0.0226,0.0113 -0.0339,0.0677 0.0452,0.0564 0.1016,0.12417 -0.0339,0.079 -0.0565,0.079 -0.0113,0 -0.0113,-0.0226 v 0.0677 h 0.0339 q 0.0226,-0.0452 0.0564,-0.0903 0.0226,0.0226 0.1016,0.0226 0.0339,-0.0339 0.0903,-0.0903 0.0226,0.0339 0.0452,0.079 0.0339,0.0339 0.0903,0.11289 v -0.0677 q 0.0903,-0.0226 0.28223,-0.0564 0.0113,-0.0677 0.0339,-0.13547 0.0565,0.0226 0.19191,0 -0.0113,-0.0339 0,-0.0903 h 0.0339 q 0.2032,-0.16933 0.21449,-0.22577 -0.0113,-0.0903 -0.0339,-0.24836 0.0452,-0.11289 0.1016,-0.29351 0.0452,0.0113 0.37254,0 0.24835,0 0.36124,0.079 0.12418,0.0677 0.21449,0.31609 0.11289,0.3048 0.15804,0.37253 0.0564,0.0677 0.32738,0.19191 v 0.0339 q 0.0339,-0.0113 0.0903,0 0.1016,0.0564 0.1016,0.11289 0,0.0339 -0.22577,0.16933 0.1016,0.13547 0.15804,0.22578 0,0.0452 0,0.12418 -0.0564,0.0226 -0.14676,0.079 -0.079,0.0452 -0.079,0.079 0,0.0339 0.19191,0.13547 v 0.0564 q -0.11289,0.1016 -0.34995,0.31609 0.0564,0.0451 0.13546,0.13546 0.0113,0.0677 -0.0339,0.22578 -0.0339,0.11289 -0.0677,0.21449 -0.079,0.0226 -0.4064,0.0339 l -0.22577,0.0677 q -0.0339,-0.0226 -0.15805,-0.0339 -0.13547,0.0226 -0.24835,0.13547 -0.16934,0.15804 -0.2032,0.18062 -0.0677,0.0452 -0.19192,0.0452 -0.19191,0.0113 -0.24835,0.0226 -0.1016,0.0564 -0.29351,0.12417 -0.15805,0.0226 -0.38383,-0.0452 -0.15804,-0.0564 -0.31608,-0.11289 -0.21449,-0.0339 -0.59832,-0.19191 -0.0564,-0.079 -0.16933,-0.19191 -0.0339,0 -0.0903,0 -0.0113,-0.0564 -0.0339,-0.12418 -0.079,-0.0565 -0.19191,-0.15805 -0.0339,-0.079 -0.0339,-0.51929 v -0.0564 q 0,-0.0113 -0.15804,-0.33867 -0.1016,-0.21449 -0.1016,-0.34995 0,-0.15805 0.1016,-0.3048 -0.2032,-0.45156 -0.2032,-0.63218 0,-0.0677 0.0226,-0.11289 0.0339,-0.0452 0.0903,-0.079 0.0339,-0.0564 0,-0.15805 v -0.0677 l 0.0564,-0.0903 q -0.0339,-0.13547 -0.0564,-0.45156 0.0677,-0.1016 0.15804,-0.24835 0.0113,-0.079 0.0113,-0.15805 0,-0.11289 -0.0677,-0.39511 -0.0677,-0.24836 -0.0452,-0.4064 -0.0564,-0.0113 -0.15804,-0.0677 0.0113,-0.0339 0,-0.0903 0,-0.0113 -0.19191,-0.25964 -0.0677,-0.0113 -0.19191,0 0,0 -0.0226,0.1016 -0.0339,0 -0.13547,0.0339 -0.14675,0.0226 -0.36124,-0.0113 -0.25965,-0.0339 -0.37254,-0.0226 -0.57573,0.0339 -0.59831,0.0339 -0.0903,-0.0677 -0.22578,-0.16934 -0.0113,-0.12418 0.0339,-0.508 0.0339,-0.19191 0.22578,-0.22578 0.2032,-0.0339 0.4064,-0.0564 0.0903,-0.0564 0.22578,-0.12418 0.11289,-0.0339 0.28222,-0.0113 0.16933,0.0339 0.29351,0.0113 0.0677,-0.0452 0.15804,-0.1016 0,0 0.41769,0 -0.0113,-0.0339 0,-0.0903 0.079,-0.079 0.19192,-0.22578 -0.0564,-0.0903 -0.0677,-0.28222 0.079,-0.079 0.15805,-0.19191 -0.0113,-0.0565 -0.0677,-0.16933 0.0226,-0.0677 0.0339,-0.28223 l -0.0564,-0.0339 q 0,-0.34995999 0,-0.34995999 l 0.19191,-0.15804 q 0.0339,-0.11289 0.12417,-0.31609 0.12418,0 0.12418,0 0.0339,-0.0339 0.1016,-0.0677 z m 1.45627,5.87022999 q 0,0 0.22578,0 0.079,0.22578 0.0339,0.4064 -0.12418,-0.0339 -0.12418,-0.0339 -0.0903,0 -0.13547,0 -0.079,0 -0.15804,0 0.0226,-0.12417 0.0677,-0.31608 0.0452,-0.0226 0.0903,-0.0564 z m -0.0564,0.69991 q 0,0.079 0,0.12418 0.0451,0 0.0339,-0.0677 -0.0113,-0.079 -0.0339,-0.0564 z m 2.67547,0.28223 q 0.0339,0 0.0339,0.0113 -0.0113,0.0226 -0.0339,0.0226 -0.0339,0 -0.0339,-0.0226 0,-0.0113 0.0339,-0.0113 z m -0.12418,0.0677 q 0.0226,0 0.0339,0.0113 -0.0113,0.0113 -0.0339,0.0113 -0.0339,0 -0.0339,-0.0113 0,-0.0113 0.0339,-0.0113 z m 2.00219,-7.10071998944 q 0,0 0.15805,0.0676999994 0.16933,0.0565 0.22578,0.12418 0.13546,0.16934 0.14675,0.16934 0.0226,0 0.0903,0.0339 0.0339,0.0452 0.1016,0.12418 0.0564,0.0339 0.19191,0.1016 0,0.19191 0,0.19191 0.0452,0 0.1016,0 l 0.0226,0.0677 q 0.0565,0.0226 0.42898,0.22577999 0,0.1016 0,0.1016 -0.0452,0.0113 -0.13547,0.0564 0.0339,0.0452 0.0339,0.1016 -0.1016,0.0113 -0.25965,0.0677 -0.0226,0.0226 -0.12417,0.29351 -0.0113,0.0113 -0.0677,0.0677 0,0 0,0.15804 0.44027,-0.0677 0.51929,0 0.0113,0.0677 0.0339,0.15804 0.0452,0.0226 0.1016,0.0677 -0.0113,0.079 -0.0452,0.14675 -0.0339,0.0677 -0.12417,0.24836 -0.1016,0 -0.1016,0 0.0113,0.0452 0,0.0903 0.0564,0.0226 0.12417,0.079 0.0677,0.0452 0.14676,0.0903 -0.0113,0.0677 0,0.15805 v 0.0677 q 0.0113,0 0.0226,-0.13546 0.16933,0 0.16933,0 -0.0113,-0.0903 0,-0.0903 0.14676,-0.0903 0.29351,-0.13546 0.0452,0.0113 0.12418,0 0.0452,-0.0339 0.0677,-0.16934 0.0226,-0.14675 0.079,-0.18062 0.0677,-0.0451 0.28222,-0.13547 0.0564,-0.0113 0.19191,0.0339 0.14676,0.0339 0.15804,0.0339 0.27094,-0.0226 0.74507,0.0339 0.0339,0.0452 0.0677,0.0903 0.079,0 0.2032,0 0.39511,0.27093 0.4064,0.29351 0.0226,0.0113 0.13546,0.22578 0,0.0564 0,0.13546 0.2032,0.36125 0.68863,0.41769 v 0.1016 q 0,0.0565 0,0.12418 -0.0677,0.0677 -0.13547,0.16933 0,0 0,0.58703 0.12418,0.0113 0.29351,0.0564 0.0113,0.0452 0.0339,0.1016 0,0 -0.0339,0.0565 -0.0226,0.0452 -0.0564,0.1016 0,0 0,0.1016 l -0.1016,0.0339 q -0.0113,0.0677 0.0339,0.12418 0.0452,0.0564 0.0339,0.13547 h -0.0677 q -0.0677,0.23706 -0.0677,0.25964 0.0565,0.0452 0.13547,0.12418 0.0226,0.48542 0,0.51929 -0.0452,0.0226 -0.1016,0.0677 0.0903,0.0226 0.29351,0.0677 0,0.15804 0,0.15804 0.0452,0.0452 0.12418,0.1016 -0.0113,0.079 -0.0226,0.22578 l -0.1016,0.0339 q 0,0.0903 0,0.25964 -0.13547,0 -0.13547,0 0,0.15804 0,0.15804 0.0113,0 0.0677,-0.0113 0.0564,-0.0226 0.1016,-0.0113 -0.0339,0.0339 -0.0677,0.0903 h 0.0677 q 0.0113,0.0564 0.0339,0.13546 h 0.0564 q 0.0226,0 0.16933,0.19192 v -0.0677 q 0.1016,-0.11289 0.32738,-0.25964 0.0677,0.0113 0.19191,0 0,0.0564 0,0.13546 -0.0564,0 -0.13547,0.0339 -0.0113,0.0339 -0.0564,0.0903 0,0 0,0.16934 0.1016,0.0113 0.21449,0.1016 -0.0113,0.0452 0.0113,0.12417 0.0564,0.0339 0.12418,0.0903 0.0339,0.0564 0.0677,0.32737 0.0339,-0.0113 0.13547,-0.0339 0.0339,0 0.0903,0 0.0113,0.0564 0.0339,0.13546 -0.0113,-0.0451 -0.0339,0.0339 l 0.0677,0.0564 q 0.0564,0.21449 -0.13547,0.29352 -0.1016,0 -0.29351,0.0339 -0.0113,0.0452 -0.0564,0.1016 -0.1016,-0.0113 -0.25965,0 -0.0452,0.0113 -0.13546,0.11289 -0.079,0.0903 -0.22578,0.11289 -0.54187,0.0677 -0.7112,0.0339 -0.0564,-0.0452 -0.13547,-0.1016 -0.23707,-0.0452 -0.41769,0 l -0.0677,0.0677 q -0.0339,0 -0.1016,-0.0339 -0.0564,-0.0339 -0.0564,-0.0339 -0.24835,0.0113 -0.72249,-0.0339 -0.0226,0 -0.28222,-0.1016 -0.16933,-0.0564 -0.32738,-0.0564 -0.0113,-0.0226 -0.0339,-0.0677 -0.27094,-0.0339 -0.42898,0 -0.0452,0.0452 -0.12418,0.1016 -0.2032,-0.0113 -0.58702,0 -0.95956,0.0677 -1.00471,0.0677 -0.0339,-0.0113 -0.14676,-0.0564 -0.1016,-0.0451 -0.14676,-0.0451 l -0.19191,0.0677 q -0.86924,0.0226 -1.27564,-0.0339 l -0.0564,-0.0677 q -0.1016,-0.0226 -0.21449,-0.0452 -0.0452,-0.0113 -0.11289,-0.11289 l -0.0677,-0.0339 q -0.0226,-0.0903 0.0226,-0.27094 0.0564,-0.19191 0.1016,-0.2032 0.0564,-0.0226 0.13547,-0.0452 0,0.0339 0.0339,0.12418 0.0452,0.0226 0.1016,0.0677 -0.0226,0 0.0564,-0.0677 -0.0339,-0.0903 -0.0226,-0.0903 -0.0226,0 -0.0339,-0.1016 0.0452,0 0.12418,0 0.0903,-0.079 0.22578,-0.15805 0.16933,0.0113 0.46284,-0.0339 0.0226,-0.0452 0.0565,-0.1016 0.0452,0 0.1016,-0.0339 l 0.0339,-0.0677 q 0,-0.0564 0,-0.15804 0,-0.0113 0.0903,-0.15805 -0.0339,-0.079 -0.0565,-0.32737 0.0113,-0.0564 0.0226,-0.11289 0.0113,-0.1016 0.0113,-0.14676 -0.0452,-0.0677 -0.1016,-0.16933 0.0113,-0.079 0,-0.22578 -0.0452,-0.0339 -0.1016,-0.0903 -0.0113,-0.0677 -0.0113,-0.13547 0,-0.13546 0.079,-0.34995 0.0903,-0.21449 0.1016,-0.29352 0,-0.0903 -0.0564,-0.2032 -0.0452,-0.11288 -0.0452,-0.15804 0,-0.0452 0.0113,-0.16933 0.0226,-0.13547 0.0226,-0.19191 l -0.0677,-0.0339 q 0,-0.0452 0.0339,-0.079 0.0339,-0.0452 0.0339,-0.0452 0.0226,-0.1016 0,-0.25964 -0.0339,-0.18063 -0.0339,-0.22578 0,-0.0226 0.0452,-0.2032 0.0339,-0.14676 0.0226,-0.25965 -0.0677,-0.11289 -0.13546,-0.28222 -0.0113,-0.14676 0.079,-0.28222 0.1016,-0.13547 0.1016,-0.22578 0,-0.0564 -0.0113,-0.11289 -0.0113,-0.0226 -0.16933,-0.15804 -0.15805,-0.13547 -0.12418,-0.27094 0.0564,-0.0339 0.12418,-0.0903 0.25964,-0.33867 0.2032,-0.55315 -0.0226,-0.0677 -0.16934,-0.13547 -0.13546,-0.079 -0.16933,-0.12418 -0.0226,-0.0451 0,-0.079 0.0226,-0.0452 0.0113,-0.0903 -0.0339,-0.0113 -0.0677,-0.0564 -0.21449,-0.0226 -0.64347,-0.1016 -0.0339,-0.0452 -0.0677,-0.1016 -0.0452,-0.0113 -0.29352,-0.0226 0.0113,-0.0339 0.0903,-0.29351 -0.0452,-0.0451 -0.15805,-0.32737 0.0226,-0.0564 0.0677,-0.13547 0.0452,-0.0339 0.33867,-0.0903 0.3048,-0.0677 0.37254,-0.0677 0.0226,0 0.11288,0.0339 0.1016,0.0339 0.14676,0.0339 0.21449,-0.0677 0.48542,-0.1354699994283 z M 26.947276,3.7367832 q -0.28222,0.0339 -0.29351,0.42897 l -0.0339,0.19192 q 0.0452,0 0.1016,0 0.12417,0.0452 0.12417,0.19191 0,0.11289 -0.0903,0.15804 -0.0903,0.0452 -0.28222,0.0339 -0.23707,-0.0113 -0.3048,0 -0.0113,-0.0339 -0.0339,-0.15805 v -0.1016 q -0.19191,0 -0.19191,0 -0.079,0.34996 -0.0339,0.39512 0.0452,0 0.0903,0.0339 0,0.0452 0,0.12418 -0.21449,0.28222 -0.38383,0.32738 -0.0339,0.0113 -0.15804,-0.0113 -0.0677,-0.0113 -0.13547,0.079 -0.14675,0.19191 -0.19191,0.62089 0.0565,0.0226 0.0565,0.0226 -0.0339,0.0339 -0.0226,0.1016 l 0.0903,0.0339 q 0.0113,0.0451 0,0.1016 -0.0677,0.0226 -0.19191,0.0903 0,0.0564 0,0.13546 -0.0226,0.11289 0,0.15805 0.0451,0.0339 0.0903,0.079 0.0564,0.0452 0.0339,0.14676 0,0.0226 -0.12418,0.13546 0.0113,0.0339 0,0.0903 0.0677,0.0226 0.12418,-0.0226 0.0226,0.0113 0.1016,0.12417 0.0339,0.0226 0.1016,0.0677 -0.0677,0.0452 -0.0339,0.0903 0.0113,0.0339 0.0339,0.0677 0.0226,0.0226 0.0903,0.0339 0.0452,-0.0113 0.1016,-0.0339 v -0.0903 q 0.0226,-0.0113 0.0339,0.0226 0.0226,0.0339 0.0339,0.0339 0.079,-0.0113 0.22578,0 0.0226,0.0452 0.0677,0.1016 0.0452,-0.0226 0.12418,-0.0677 0,-0.0339 0,-0.0903 h 0.0677 q 0.0339,-0.079 0.1016,-0.16933 0.0564,-0.0226 0.67734,0.1016 0.0113,-0.1016 0.0677,-0.32738 -0.0339,-0.0113 -0.0677,-0.0677 0.0226,-0.0113 0.1016,-0.12418 0.0677,-0.0113 0.19191,0 0.0113,0 0.0452,0.0564 0.0339,0.0452 0.079,0.0339 0.0564,-0.0226 0.13546,-0.0564 -0.079,-0.51929 -0.0339,-0.65476 h 0.0339 q -0.0113,0 0.22578,-0.22578 0.0113,-0.0564 0,-0.13547 -0.0452,0 -0.13546,-0.0339 -0.079,-0.0452 -0.12418,-0.48543 -0.2032,-0.0226 -0.22578,-0.0339 -0.0226,-0.0113 -0.15805,-0.12418 0,-0.0226 0,-0.1016 0.23707,-0.0564 0.51929,-0.0339 -0.0452,-0.13546 -0.13546,-0.45155 0.4064,-0.24836 0.4064,-0.39511 0,-0.0452 -0.0113,-0.0903 -0.0339,0 -0.0677,-0.0677 -0.0677,0 -0.19192,-0.0339 -0.0452,-0.0564 -0.13546,-0.12417 -0.079,0.0226 -0.22578,0.0339 v -0.0339 q -0.0452,-0.0339 -0.11289,-0.0677 -0.0564,-0.0452 -0.14676,-0.0339 z m 0.1016,0.16933 q 0.22578,0.0452 0.22578,0.0452 -0.0113,0.0113 -0.0339,0.0113 -0.0113,0.0339 -0.0339,0.1016 -0.0677,-0.0339 -0.0677,-0.0339 l -0.0339,0.0677 q 0,0 -0.15805,0 0,-0.0564 0.0339,-0.16933 0.0339,-0.0113 0.0677,-0.0226 z m 1.90783,2.04329 v 0.0677 q 0.0677,0.0339 0.0677,0.0339 0.079,-0.12418 -0.0677,-0.1016 z m 13.80314,-5.90408999 q 0.0903,-0.0113 0.24836,0.0339 0.15804,0.0339 0.18062,0.0339 0.24835,-0.0565 0.73378,-0.0677 0.0903,0.0452 0.23706,0.1016 l 0.13547,-0.0677 q 0.0564,-0.0113 0.27093,0.13547 0.0452,0.0113 0.12418,0.0677 l 0.0339,0.0677 q 0.0113,0.13546 0.0339,0.46284 -0.11289,0.0339 -0.32738,0.13547 v 0.0677 q -0.0903,0.0452 -0.1016,0.1016 0,0.0565 -0.0339,0.1016 -0.079,0.1016 -0.27093,0.19191 l -0.0677,0.0339 q 0.0113,0.11289 0,0.3048 -0.0451,0.0452 -0.1016,0.1016 -0.0113,0.0564 -0.0451,0.32738 -0.0226,0.25964 -0.0226,0.27093 0.079,0.079 0.2032,0.2032 -0.0113,0.0226 -0.1016,0.1016 0.0564,0.19191 -0.0339,0.63218 0.0565,0.0339 0.13547,0.1016 l -0.13547,0.27093 q 0.0226,0.0903 0.0339,0.2032 0.0452,0.0113 0.0339,0.0564 0,0.0339 0.0339,0.0452 -0.0113,0.0226 -0.0677,0.0903 -0.0226,0.0903 0.0113,0.21448 0.0339,0.11289 0.0226,0.19192 -0.0452,0.0451 -0.1016,0.1016 -0.0113,0.0564 0.0226,0.14675 0.0452,0.079 0.0452,0.0903 -0.0339,0.079 -0.0339,0.25965 0.0452,0.0339 0.1016,0.0677 0.1016,0.18062 0.0677,0.2032 -0.0339,0.0903 -0.13547,0.23707 l 0.0339,0.16933 q 0.0226,0 0.0677,0.0339 -0.14676,0.56444 -0.14676,0.85796 0,0.0677 0.0226,0.0903 0.0339,0.0226 0.0903,0.0451 0.0677,0.37254 0.0677,0.44027 0,0.0564 -0.0564,0.14675 -0.0564,0.0903 -0.0452,0.19192 0.0226,0.1016 0.21449,0.2032 0.14675,0.0677 0.29351,0.12417 0.31609,0.15805 0.38382,0.23707 0.11289,0.12418 0.14676,0.42898 -0.0226,0.0113 -0.0677,0.0339 0.0339,0 0.0226,0.0452 0,0.0452 -0.0226,0.0564 -0.0564,0.0113 -0.16933,0.0339 0,0.0452 -0.0339,0.0903 -0.0226,0.0339 -0.32738,0.11289 0.0226,0 -0.37253,-0.0339 -0.19191,0.0339 -0.59831,0.0339 l -0.16933,-0.0677 q -0.0113,0 -0.1016,0.0339 -0.0903,0.0339 -0.10161,0.0339 -0.18062,-0.0113 -0.49671,0 l -0.0677,0.0677 q -0.14676,0.0339 -0.37253,-0.0339 -0.12418,-0.0452 -0.22578,-0.19191 -0.0903,-0.14676 -0.16934,-0.27094 -0.0564,0.0226 -0.0677,-0.0113 0,-0.0339 0,-0.0565 0.0339,0 0.13547,-0.0339 0.0339,-0.12417 0,-0.13546 -0.12418,0.1016 -0.13547,0.1016 -0.0113,0 -0.16933,-0.0339 0,0.079 -0.0677,0.22578 -0.079,0.0339 -0.16933,0.1016 0,0.0226 0.0339,0.23707 -0.0226,0.0113 -0.0677,0.0677 -0.18062,0.0226 -0.66604,-0.0339 -0.0564,-0.48542 -0.37253,-0.69991 0.1016,-0.21449 0.1016,-0.23707 v -0.0339 q -0.0564,-0.0226 -0.0564,-0.23707 0.0113,-0.22578 -0.0113,-0.25964 -0.0564,-0.0564 -0.12418,-0.13547 -0.0226,-0.0452 -0.0226,-0.0903 0,-0.0564 0.0564,-0.14676 0.0677,-0.1016 0.0564,-0.2032 -0.0677,-0.14675 -0.15805,-0.39511 0.0113,-0.0903 0,-0.27093 -0.0451,-0.0903 -0.13547,-0.3048 l -0.0677,-0.0339 q -0.0226,-0.1016 0.0113,-0.27093 0.0339,-0.16934 0.0226,-0.25965 -0.0564,-0.16933 -0.16934,-0.53058 l -0.0677,-0.0677 q 0,-0.15804 -0.0339,-0.47413 -0.0226,-0.11289 -0.23706,-0.66605 0,-0.0564 -0.0677,-0.13547 -0.0226,-0.0113 0.0339,-0.1016 0.0113,0 0.0677,-0.0339 -0.0113,-0.14676 -0.0677,-0.53058 -0.0677,-0.16933 -0.19191,-0.508 l -0.0677,-0.0339 q 0,-0.079 0,-0.22578 l -0.0677,-0.0339 q -0.0564,-0.15805 0.0339,-0.508 -0.079,-0.0564 -0.33867,-0.16934 -0.0113,0.0226 -0.1016,0.1016 0.0452,0.16934 0.1016,0.6096 0.16934,0 0.16934,0 -0.0564,0.0226 -0.16934,0.0339 0.0113,0.0339 -0.0339,0.1016 0.0339,0.0564 0.0677,0.12418 -0.0339,0.0226 -0.0226,0.15804 0,0.11289 0.0339,0.14676 0.0451,0.0339 0.12418,0.1016 -0.079,0.11289 -0.16934,0.27093 0,0.0903 -0.0339,0.25965 l -0.0677,0.0677 q 0.0339,0.25965 -0.0339,0.73378 l -0.16933,0.1016 q -0.0226,0.0564 -0.0226,0.0903 0,0.0226 0.12418,0.18062 0.12418,0.15805 0.23707,0.23707 -0.0452,0.16933 -0.0677,0.36124 0.0113,0.0339 0.23707,0.16934 -0.0452,0.0677 -0.1016,0.16933 -0.0113,0.079 0.0339,0.22578 0.0452,0.14676 0.0452,0.21449 0,0.0452 -0.0113,0.0903 h -0.0677 q 0,0.0452 -0.0339,0.13547 0.0677,0.0339 0.0677,0.0339 0,0.0452 0.0339,0.23707 -0.0113,0.0113 -0.0339,0.0452 -0.0226,0.0452 0,0.0564 -0.1016,0.11289 -0.0677,0.13547 0.0226,0.0113 0.0677,0.13546 0.0339,0.28223 -0.12418,0.37254 -0.21449,0.13546 -0.24836,0.19191 -0.0226,0.0452 0,0.16933 0.0113,0.0226 -0.0339,0.0677 v 0.0339 q 0.25964,0.0677 0.508,0.13547 0.33867,0.1016 0.42898,0.19191 0.0226,0.0226 0,0.0339 -0.0452,0.0226 -0.0452,0.0226 0,0.0113 0.0113,0.0113 0.0903,0.0564 0.1016,0.14676 0,0.1016 0,0.19191 0.21449,0.0339 0.47413,0.1016 0.0226,0.0113 0.13547,0.36125 -0.0451,0.0113 -0.13547,0.0339 -0.0226,0.0452 -0.0677,0.1016 -0.12418,0 -0.33867,0 -0.25964,0.0113 -0.76764,0.0677 -0.16934,0.0677 -0.16934,0.0677 l -0.1016,-0.0677 q -0.13546,0.0113 -0.39511,0 l -0.1016,-0.0677 q -0.25964,0.0226 -0.76764,0 -0.1016,-0.0339 -0.27094,-0.1016 0,-0.0113 -0.0677,-0.16933 0.23707,-0.18062 0.57573,-0.25965 0,-0.0339 -0.0339,-0.1016 0.079,-0.14675 0.22578,-0.37253 0.0452,-0.0564 0.508,-0.32738 v -0.0677 q -0.18063,-0.13547 -0.37254,-0.33867 -0.0113,-0.0677 0.0564,-0.18062 0.079,-0.12418 0.079,-0.15804 -0.0452,-0.16934 -0.0677,-0.56445 l 0.0677,-0.13547 q -0.0113,-0.0903 0,-0.25964 0.0452,-0.0564 0.1016,-0.13547 0.0226,-0.13546 -0.0452,-0.27093 -0.0903,-0.19191 -0.0903,-0.2032 -0.0451,-0.24836 0.0339,-0.36125 l 0.0677,-0.0339 q 0.0564,-0.24836 0,-0.54187 -0.0339,-0.0339 -0.1016,-0.1016 v -0.0339 q 0,0.0339 0.0339,-0.0113 0.0226,-0.0564 0,-0.0564 v -0.0565 q 0,-0.13546 -0.0339,-0.4064 -0.0339,-0.0339 -0.0677,-0.16933 0.0226,-0.1016 0.0677,-0.36124 -0.0113,-0.48543 -0.0677,-1.14018 -0.0452,-0.0677 -0.1016,-0.16934 0.0226,-0.21449 -0.0677,-0.63217 -0.14676,-0.24835999 -0.59832,-0.33866999 -0.0451,0.0113 -0.13546,0 -0.0226,-0.0339 -0.1016,-0.1016 0,-0.16934 0,-0.16934 0.0452,-0.0226 0.1016,-0.0677 0.12418,0.0226 0.37253,0 0.0564,-0.0903 0.19191,-0.19191 0.1016,-0.0226 0.2032,0.0564 0.1016,0.0677 0.13547,0.079 l 0.23707,-0.1016 q 0,-0.0452 0.0339,-0.1016 0,0 0.29351,0 0.0339,0.0564 0.0339,0.0677 0.0903,0 0.3048,0 0.0226,-0.0677 0.0339,-0.0677 0.0113,0.0339 0.0339,0.1016 0.10161,0 0.33867,0 v 0.0339 q 0.18062,-0.0451 0.56445,-0.0339 0.0339,0.0564 0.1016,0.13546 0.0564,-0.0113 0.16933,0.0226 0.0677,0.0565 0.079,0.2032 0.0113,0.22578 0.0113,0.25965 0.0113,0.0226 0.079,0.13545999 0.0677,0.1016 0.0564,0.18063 -0.0677,0.079 -0.15805,0.22577 -0.0226,0.16934 -0.0339,0.37254 0.0903,0.0903 0.25964,0.23706 -0.1016,0.56445 -0.0339,0.76765 0.0564,0.0226 0.1016,0.0677 v 0.0677 q 0.0903,0 0.23706,0.0339 0,0.0113 0,0.1016 -0.079,0 -0.2032,0.0339 0,0.0452 -0.0677,0.12418 0.079,0.1016 0.23707,0.27093 0.0113,-0.0113 0.0339,0.1016 -0.22578,0.12418 -0.2032,0.27093 0.079,0.0564 0.16934,0.15805 0.0113,0.0903 -0.0339,0.13547 0.079,0.1016 0.16933,0.2032 -0.0226,0.079 -0.2032,0.27093 0,0.0564 0.0339,0.16933 0.079,0.0339 0.2032,0.12418 0.1016,0.13547 0.16933,0.57574 0.0677,0 0.2032,0.0339 0.0452,-0.0339 0.079,-0.0903 0.0339,-0.0564 0.0339,-0.1016 0,-0.0677 -0.0564,-0.18062 -0.0452,-0.12418 -0.0452,-0.2032 0,-0.0452 0.0113,-0.0903 0.0677,-0.0339 0.13547,-0.1016 0.0339,-0.0677 0.0113,-0.14676 -0.0226,-0.0903 -0.0113,-0.12418 0.0903,-0.1016 0.2032,-0.3048 -0.0113,-0.0452 0,-0.13546 0.0677,-0.0339 0.13546,-0.12418 0.0113,-0.0564 -0.0339,-0.11289 -0.0339,-0.0565 -0.0339,-0.0565 -0.0564,-0.28222 0,-0.54186 0.079,-0.079 0.16933,-0.19191 0.0113,-0.079 -0.0451,-0.19192 -0.0452,-0.11288 -0.0226,-0.21448 0.079,-0.079 0.16933,-0.23707 0.0113,-0.0564 0.0113,-0.11289 0,-0.0903 -0.0564,-0.27093 -0.0452,-0.18063 -0.0226,-0.28223 h 0.0339 q 0.0113,-0.0452 0.0339,-0.1016 0.11289,-0.0903 0.11289,-0.1016 -0.0113,-0.0677 -0.0113,-0.0677 0,-0.0452 0.0339,-0.13547 0.0452,-0.0226 0.0903,-0.0564 0.0113,-0.0903 -0.0677,-0.2032 -0.0677,-0.11289 -0.0564,-0.20319999 l 0.0677,-0.0677 q -0.0113,-0.0677 0.0339,-0.2032 0.0565,-0.0226 0.15805,-0.1016 0.0113,-0.0226 0.0339,-0.0903 0.0677,-0.1016 0.3048,-0.25964 0.23706,-0.16934 0.37253,-0.18062 z m -0.16933,1.73848999 q -0.0903,0.31609 -0.0677,0.56444 0.0677,0.0113 0.2032,0.0339 0.0677,-0.23707 0.0903,-0.56445 -0.0677,0 -0.22577,-0.0339 z m 0.29351,0.69991 q -0.0226,0 -0.27094,0.079 -0.24835,0.0677 -0.25964,0.0903 0,0.0903 -0.0339,0.27094 -0.0226,0.0113 -0.0677,0.0339 0,0.1016 0,0.1016 h -0.0677 q -0.0113,0.0677 0.0564,0.15805 0.079,0.0903 0.079,0.1016 -0.0564,0.12418 -0.0677,0.33866 0.12418,0.0564 0.27093,0.13547 0.0226,0.0677 0.0677,0.16933 -0.0677,0.0339 -0.13547,0.1016 0.0113,0.0903 -0.0339,0.25965 -0.079,0.0226 -0.16933,0.0677 -0.0339,0.0677 -0.0339,0.11289 0,0.0677 0.0452,0.13547 0.0564,0.0564 0.0564,0.0564 -0.0113,0.15805 -0.0339,0.1016 -0.0113,0.0452 -0.0339,0.0339 -0.0677,0.0564 -0.23707,0.16933 0.12418,0.2032 0.12418,0.25965 0,0.0339 -0.079,0.0677 -0.079,0.0339 -0.11289,0.13547 0.0226,0.079 0.0339,0.23707 0,0.0113 -0.0564,0.12417 -0.0452,0.11289 -0.0339,0.13547 0.0226,0.0452 0.0565,0.13547 -0.0113,0.0452 -0.0565,0.1016 0,0 -0.1016,0 -0.0113,0.0226 -0.0452,0.0677 -0.0339,0.0452 -0.0226,0.1016 0,0.0113 0.0339,0.11289 0.0452,0.0903 0.0339,0.15804 l -0.13546,0.16934 h -0.0677 q 0,0 0,0.22578 0.0226,0.0113 0.0677,0.0339 -0.0564,0.0565 -0.0677,0.23707 0.0677,0.0677 0.16934,0.16933 0,0.0339 0,0.1016 -0.0339,0.0113 -0.1016,0.0339 l -0.0339,0.19191 q 0.0677,0.0452 0.2032,0.13547 0.1016,0.1016 0.11289,0.2032 0.0226,0.1016 0.0339,0.1016 0.0339,0 0.21449,-0.1016 -0.1016,-0.0564 -0.1016,-0.0903 0,-0.0226 0.079,-0.0564 0.079,-0.0339 0.0903,-0.0564 v -0.0677 q 0.0903,0.0564 0.0677,0.0677 0.23707,0.0113 0.44027,-0.1016 -0.0452,-0.18063 -0.0339,-0.19191 0.0113,-0.0564 0.13547,-0.13547 0.13547,-0.0903 0.15804,-0.16933 0.0339,-0.12418 -0.0226,-0.38383 -0.0564,-0.25964 -0.11289,-0.24835 0.0113,-0.0226 0.0339,-0.0677 0.13547,-0.22577 0.13547,-0.37253 0.0113,-0.2032 -0.0677,-0.39511 l -0.0677,-0.0339 q -0.0226,-0.11289 0.1016,-0.33867 h 0.0677 q 0.0226,-0.0677 -0.0226,-0.29351 -0.0452,-0.22577 -0.0903,-0.25964 -0.0339,-0.0452 -0.0903,-0.079 -0.0113,-0.1016 0.079,-0.18063 0.0903,-0.0903 0.0903,-0.12417 -0.0339,-0.13547 -0.0677,-0.13547 l 0.1016,-0.23707 q -0.16934,-0.2032 -0.16934,-0.29351 0,-0.0903 0.16934,-0.33867 -0.0452,-0.0339 -0.13547,-0.1016 v -0.0339 q -0.079,-0.0226 -0.16933,0.0339 -0.0903,0.0565 -0.15805,0.0339 -0.0226,-0.0452 -0.0677,-0.16933 0.11289,-0.0226 0.0677,-0.0339 0.0113,0 0.0339,-0.0677 0.0677,0.0339 0.0677,0.0339 0.079,0.1016 0.15805,0.0339 0.0113,-0.0113 0,-0.0903 0.0226,-0.0452 0.0339,-0.1016 -0.0226,-0.2032 0.0677,-0.54187 0,-0.0339 -0.1016,-0.0677 z m -1.06116,5.7912 q 0.0339,0.0113 0.0903,0.0339 -0.0564,-0.0339 -0.0903,-0.0339 z m 3.98903,-5.87022 q 0.11289,-0.0113 0.27094,0.0452 0.16933,0.0564 0.21449,0.0564 0.0113,0 0.0677,-0.0339 0.0564,-0.0339 0.0564,-0.0339 0.0677,-0.0113 0.15805,0.0339 0.0903,0.0339 0.1016,0.0339 0.0113,0 0.079,-0.0339 0.079,-0.0339 0.079,-0.0339 0.12418,-0.0226 0.34996,0.0339 0.23707,0.0564 0.29351,0.0903 0.12418,0.079 0.16933,0.22578 -0.0113,0.0677 0,0.16933 0.0339,0.0226 0.0903,0.0565 0.12417,0.19191 0.13546,0.29351 0,0.0226 -0.0339,0.0452 -0.0339,0.0113 -0.0339,0.0226 0.0226,0.12418 0,0.38382 -0.0452,0.0452 -0.1016,0.0903 0.0113,0.19191 0,0.55315 -0.0226,0.0903 -0.0564,0.22578 0.0564,0.0452 0.0564,0.0564 l -0.0564,0.0339 q 0,0.13547 -0.1016,0.32738 -0.0339,0.0226 0.0339,0.0903 0.0339,0.11289 0.11289,0.13547 0.079,0.0113 0.18062,0.0339 -0.0113,0.1016 -0.0677,0.31609 -0.0564,0.0564 -0.12418,0.19191 -0.0226,0.14676 0.0226,0.29352 0.0677,0.0339 0.13547,0.0903 -0.0339,0.18062 -0.0339,0.19191 0.0226,0.0677 0.0677,0.16933 -0.0226,0.0113 -0.16933,0.0903 -0.0452,0.11289 -0.0226,0.29351 0.0452,0.0564 0.0903,0.12418 -0.0339,0.12418 0,0.38382 0.0339,0.0903 0.18062,0.13547 0.14676,0.0339 0.16934,0.0564 0.0339,0.0903 0.1016,0.2032 0,0 0.22578,0 0.079,0.0339 0.19191,-0.0339 0.0451,-0.0903 0.12418,-0.19191 0.0113,-0.0113 0.29351,-0.1016 -0.0339,-0.0564 -0.0339,-0.19191 0.0226,0 0.0677,-0.0677 0.2032,-0.0339 0.57574,-0.12417 0.0226,-0.23707 0,-0.41769 0.0564,0 0.15804,-0.0113 0.11289,-0.0226 0.16934,-0.0226 0.1016,-0.4064 0.34995,-0.54187 v -0.0677 q 0.0564,0 0.12418,-0.0339 0,-0.0452 0,-0.0903 0.0564,-0.0113 0.13547,-0.0339 0,-0.0564 0.0339,-0.13546 h 0.0564 q 0,0 0,-0.15805 -0.0113,0 -0.0339,0.0677 -0.2032,-0.079 -0.19191,-0.19192 0.0339,-0.0452 0.0677,-0.1016 0.15805,0 0.15805,0 -0.0339,-0.11288 -0.0564,-0.45155 0.0226,-0.0113 0.0564,-0.0339 0,0 0,-0.24835 -0.0113,0 -0.0339,0.0564 -0.1016,0.0113 -0.38382,0.0339 v -0.0339 q -0.0113,-0.0677 -0.0339,-0.15804 0.0226,0 0.0339,-0.0113 0.0226,-0.0113 0.0339,-0.0226 0.0677,0.0452 0.15805,0.1016 0.19191,0.0113 0.19191,-0.16933 0,-0.0339 -0.0226,-0.2032 -0.0226,-0.13547 0,-0.21449 0.0226,-0.0226 0.0564,-0.0903 -0.11289,-0.0113 -0.41769,-0.0677 -0.079,-0.0677 -0.22578,-0.15804 -0.34996,-0.11289 -0.73378,0 -0.14675,0.0452 -0.19191,0.0339 -0.0339,-0.0339 -0.1016,-0.0677 0.12418,-0.34995 0,-0.99342 0.0226,-0.0452 0.0677,-0.1016 0.0903,-0.0565 0.24836,-0.0565 0.079,0 0.24836,0.0226 0.18062,0.0226 0.27093,0.0226 0.0903,0 0.15804,-0.0226 0.11289,-0.0564 0.29351,-0.12418 0.29352,-0.0452 0.48543,0.0339 0.0339,0.0452 0.0903,0.0903 0.14675,-0.0113 0.41769,0.0339 0.0903,0.0451 0.2032,0.23706 0.079,0.13547 0.15804,0.28223 0.0339,0.0452 0.12418,0.15804 0,0.11289 -0.0339,0.0677 0.0113,0.0564 -0.0339,0.0339 0,0.0113 -0.0339,0.0903 -0.0226,0.0677 -0.0226,0.1016 0,0.0113 0.0903,0.19191 -0.0226,0.11289 -0.0339,0.31609 l 0.0339,0.0677 0.0677,0.1016 q -0.0226,0.23706 0.0339,0.508 -0.0113,0.0903 -0.0339,0.22578 -0.0903,0.4064 -0.0677,0.48542 0.0452,0.0452 0.1016,0.12418 -0.0339,0.16933 -0.0677,0.45155 0.0226,0.28222 0.13547,0.48542 0.0339,0.0226 0.0903,0.0564 0,0.0452 0,0.1016 -0.079,0.0564 -0.15805,0.15804 -0.0339,0.16934 0.0677,0.19192 l -0.1016,0.22577 q 0.0564,0.0903 0.31609,0.32738 -0.0226,0.12418 -0.0226,0.12418 0.21449,0.0226 0.55315,0.11289 0.33867,0.0903 0.39512,0.16933 0.0677,0.0677 0.11289,0.23707 0.0564,0.16933 0.12417,0.22578 0.0113,0.0113 -0.0677,0.0903 0,0.0903 -0.0564,0.22578 -0.079,0.0677 -0.29352,0.1016 -0.15804,0.0339 -0.32737,0.0564 -0.39512,0.1016 -1.11761,0.1016 -0.27093,0 -0.36124,-0.0339 -0.0452,-0.079 -0.15804,-0.19191 -0.13547,-0.0226 -0.41769,-0.12418 -0.0677,-0.11288 -0.25965,-0.22577 -0.0677,-0.0113 -0.24835,0.12417 -0.22578,0.19192 -0.22578,0.19192 v 0.0677 q -0.13547,-0.0113 -0.39511,0.0339 -0.0677,0.0677 -0.19192,0.15804 -0.0677,-0.0339 -0.19191,-0.0677 -0.18062,0.079 -0.47413,0.16933 -0.16933,0.0113 -0.3048,-0.0564 -0.13547,-0.0564 -0.24836,-0.11289 -0.0903,0 -0.25964,-0.0564 -0.0113,-0.0564 -0.0564,-0.13546 -0.0677,-0.0113 -0.19191,-0.0677 -0.0564,-0.0903 -0.22578,-0.21449 -0.1016,0.0113 -0.29351,0 -0.12417,-0.0452 -0.14675,-0.28222 -0.0226,-0.2032 -0.0452,-0.39511 -0.0452,-0.0452 -0.1016,-0.1016 -0.15804,-0.36125 -0.15804,-0.58702 0,-0.11289 0.0339,-0.21449 l 0.0677,-0.0339 q 0.0451,-0.1016 0.0903,-0.29351 -0.0339,-0.508 -0.0677,-0.508 v -0.0677 q 0,-0.0564 0.0451,-0.11289 0.0564,-0.0677 0.0564,-0.079 -0.0226,-0.079 -0.0339,-0.29351 0.0903,-0.14675 0.19191,-0.34995 0.0226,-0.1016 -0.0677,-0.21449 -0.079,-0.11289 -0.0903,-0.13547 0.0113,-0.0903 0,-0.25964 -0.0564,-0.0677 -0.12418,-0.19192 0.0451,-0.22577 0,-0.6096 h -0.0677 q -0.0677,-0.0564 -0.19191,-0.13546 -0.2032,0.0339 -0.55315,0.0339 -0.0565,-0.0113 -0.19191,-0.19191 -0.0226,-0.0113 -0.0903,-0.0677 0.0677,-0.22578 0.0565,-0.28222 -0.0339,-0.0564 -0.0677,-0.1016 -0.0677,-0.0903 -0.0564,-0.19191 0.0113,-0.13547 0.12418,-0.27094 0.12418,-0.13546 0.25964,-0.14675 z m 9.80282,0.1016 q -0.0677,0 0.22578,0.0339 0.38382,-0.0452 1.1176,0 0.0451,0.0452 0.124174,0.0903 0.146756,-0.0113 0.417689,0 0.07902,0.1016 0.282223,0.22578 0.01129,0 0.1016,-0.0677 0.04516,0 0.06773,0.0339 0.03387,0.0339 0.05644,0.0677 0.04515,0.0113 0.124178,0 0.01129,-0.0339 0.03387,-0.1016 0.1016,0.0226 0.225778,0.13547 -0.01129,0.0452 0,0.0903 h 0.05644 q 0,-0.0339 0,-0.0903 0.09031,-0.0564 0.191911,-0.13547 0.180623,-0.0452 0.259645,0 v 0.0677 q 0.06773,0.0903 0.158045,0.25965 -0.01129,0.079 0,0.21449 l 0.06773,0.0339 q -0.03387,0.0564 -0.03387,0.25965 0.04516,0.0677 0.09031,0.15804 -0.02258,0.079 -0.02258,0.28222 0.02258,0.0565 0.05644,0.13547 h 0.06773 q 0.02258,0.0903 -0.03387,0.19191 -0.04516,0.1016 -0.03387,0.15805 l 0.191912,0.24835 q -0.09031,0.0677 -0.225778,0.19191 0,0.0677 -0.02258,0.19192 -0.06773,0.0451 -0.135467,0.12417 0.01129,0.0564 0,0.15805 0.02258,0.0226 0.02258,0.0677 0,0.0452 0.06773,0.0565 0.06773,0 0.06773,0.0113 0.04516,0.0564 0.135466,0.12417 0.158045,-0.0113 0.214489,-0.0339 0.07902,-0.079 0,-0.0565 0.03387,-0.0564 0.06773,-0.0339 0,0.0226 0,0.0903 0.01129,0 0.03387,0.13546 -0.124178,-0.0226 -0.31609,-0.0339 -0.01129,0.0452 -0.06773,0.12417 v 0.0339 q 0.07902,0.0452 0.259645,0.15805 -0.07902,0.29351 -0.06773,0.34995 0.03387,0.0113 0.09031,0.0339 0.01129,0.0564 0.03387,0.15804 h 0.03387 q -0.02258,0.0452 -0.03387,0.19191 0.01129,0.0113 0.225778,0.22578 -0.06773,0.19191 -0.07902,0.2032 0,0.0113 -0.146756,0.11289 0.06773,0.31609 0.06773,0.31609 0,0 -0.05645,0.0564 -0.04516,0.0452 -0.04516,0.0677 v 0.0339 q -0.05644,0.0113 -0.124177,0.0339 0,0.0677 -0.03387,0.22578 -0.112889,0.0677 -0.248356,0.21449 v 0.0677 h -0.06773 q 0,0.0339 -0.03387,0.1016 -0.07902,0.0226 -0.225778,0.0903 -0.07902,0.12418 -0.282223,0.28223 -0.158044,0.0113 -0.474133,0.0677 -0.124178,0.0903 -0.293512,0.19191 0,0 -0.4064,0 l -0.03387,-0.0903 q -0.04516,-0.0113 -0.609603,-0.0339 -0.24835,0.0113 -0.66604,-0.0339 -0.0452,-0.0113 -0.25965,-0.25965 -0.2032,0.0113 -0.54187,-0.0564 -0.0226,-0.0903 -0.0903,-0.25965 -0.15804,0 -0.15804,0 -0.079,0.0903 -0.25965,0.25965 -0.0451,0.0113 -0.12417,0.0564 0,0.0452 -0.1016,0.13547 -0.11289,0.0451 -0.18063,0.0226 -0.079,-0.0226 -0.19191,-0.31609 -0.0113,-0.0339 -0.0677,-0.15805 -0.0452,-0.0339 -0.0903,-0.0903 -0.0339,-0.079 0.0113,-0.38382 0.0452,-0.3048 0.079,-0.34996 l 0.0677,-0.0677 q 0,0 -0.0677,-0.15805 -0.21449,-0.53057 -0.21449,-0.89182 0,-0.1016 0.0226,-0.15804 0.11289,-0.31609 0.46284,-0.31609 0.079,0 0.14676,0.0226 0.0226,0.0226 0.12418,0.19191 0.0677,0 0.19191,0 0.15804,0.0903 0.0677,0.0677 v 0.0339 q -0.079,0 0,0.0339 0.0113,0.0903 0.0226,0.12418 l -0.0226,0.0903 q 0.11289,0.079 0.24836,0.16934 0.0452,-0.0226 0.15804,-0.0339 0,-0.1016 0,-0.1016 l 0.0677,-0.0339 q 0.0226,-0.11289 -0.0903,-0.27093 -0.1016,-0.16933 -0.1016,-0.16933 0.0113,-0.0677 0,-0.19192 -0.0452,-0.0226 -0.1016,-0.0677 0.0113,-0.0564 -0.0226,-0.19191 -0.0564,-0.0339 -0.13547,-0.0903 -0.11289,0.0903 -0.31609,0.12418 0.0113,-0.0452 0,-0.12418 -0.0677,-0.0564 -0.15805,-0.15805 0,-0.0677 -0.0339,-0.19191 -0.0452,-0.0564 -0.0903,-0.12418 0.0226,-0.15804 -0.0339,-0.45155 -0.079,-0.0113 -0.19191,-0.0903 -0.0226,-0.0452 -0.0339,-0.41769 -0.0226,-0.36125 0,-0.41769 0.1016,-0.079 0.22578,-0.19191 l -0.0339,-0.12418 q 0.0903,-0.079 0.27094,-0.16933 0.0452,0 0.14675,-0.0226 0,-0.0226 0,-0.0903 0.0113,-0.0339 0.0564,-0.0677 0.11289,-0.0113 0.34995,-0.0339 0.0339,-0.13547 0.1016,-0.31609 0.0226,-0.0339 0.21449,-0.11289 0.19191,-0.079 0.25965,-0.079 z m 0,1.016 q -0.11289,0.0226 -0.23707,0.2032 -0.13547,0.21449 -0.2032,0.24835 h -0.0339 v 0.0564 q -0.0564,0.0339 -0.19191,0.1016 0.0226,0.15804 0.0339,0.12418 -0.0226,0.27093 0,0.45155 0.0113,-0.0113 0.15804,-0.0339 v -0.0677 q 0.0564,-0.0113 0.32738,0.0226 0.27093,0.0226 0.3048,0.0452 0.0339,0.0677 0.1016,0.15804 0.0339,0.0226 0.29351,0.15804 0.27094,0.12418 0.3048,0.12418 0.21449,0.0339 0.711204,-0.0564 0.03387,-0.0226 0.07902,-0.0452 0.05644,-0.0339 0.101601,-0.0226 l 0.1016,0.0677 q 0.214489,0.0452 0.349956,-0.0339 0.02258,-0.0452 0.06773,-0.1016 0,0 0.248356,0 0.02258,-0.079 0.06773,-0.28222 -0.1016,-0.0564 -0.293511,-0.19191 -0.04516,-0.079 -0.158045,-0.19191 h -0.02258 q -0.03387,-0.0903 0,-0.34996 -0.1016,-0.0113 -0.259644,-0.0339 l -0.03387,-0.0564 q -0.05645,0.0226 -0.225778,0.0339 l -0.124178,-0.0677 q -0.135461,0.0339 -0.440261,0.0339 -0.079,-0.0903 -0.22578,-0.19191 -0.079,-0.0339 -0.4064,-0.0677 -0.31609,-0.0451 -0.39511,-0.0339 z m 1.783643,2.70933 q -0.02258,0.0564 -0.05644,0.12418 0.03387,0.0452 0.02258,0.1016 -0.07902,0.0677 -0.124178,0.25965 -0.07902,0.0113 -0.225775,0 -0.0339,-0.0564 -0.0903,-0.13547 -0.0339,0.0113 -0.0903,0 -0.0113,-0.0339 -0.0339,-0.0903 -0.12418,-0.11289 -0.48542,-0.15805 -0.11289,0.16934 -0.15805,0.34996 -0.0903,0 -0.31608,0.0339 -0.0226,-0.0452 -0.0677,-0.1016 -0.0339,0.0113 -0.0903,0 0.0113,0.0452 -0.0339,0.1016 -0.0226,0.16933 0.0339,0.15804 0.0339,0.21449 0.0339,0.21449 0.079,0.0339 0.15804,0.0677 0.0113,0.0226 0.0339,0.0677 0,0 -0.13547,0 0.0339,0.0677 0.1016,0.24835 0.19191,0 0.19191,0 0.23707,0.079 0.38383,0.19191 0.0226,0.0452 0.0564,0.1016 0.079,0.0226 0.21449,-0.0113 0.14675,-0.0452 0.21449,-0.0452 0.0564,0 0.112883,0.0226 0.02258,0.0564 0.1016,0.15804 0.05644,0.0226 0.158045,0.0677 0.09031,-0.21449 0.237067,-0.36125 0.146756,-0.14676 0.3048,-0.28222 0,-0.0339 0,-0.0903 -0.06773,-0.0564 -0.124178,-0.13547 -0.02258,-0.079 0.02258,-0.28222 0.02258,-0.0226 0.04516,-0.0452 0.03387,-0.0339 0.02258,-0.079 -0.04516,0 -0.112889,-0.0564 0.01129,-0.0564 -0.01129,-0.13547 -0.04516,0 -0.1016,-0.0339 0.01129,-0.0677 -0.03387,-0.15804 -0.06773,-0.0339 -0.158045,-0.0677 z m -0.756353,0.66605 q 0,0 0.15804,0 l 0.0339,0.13547 q -0.0452,0.0226 -0.1016,0.0564 0,0 -0.15805,0 0,0 -0.0677,-0.0903 0.0339,-0.0226 0.1016,-0.0677 z m 6.687093,-6.75075999 q 0.06773,0 0.237067,0.0903 0.169333,0.0903 0.2032,0.13546 0.02258,0.0903 0.09031,0.21449 0.07902,0.0226 0.225778,0.0903 0.02258,0.0565 0.09031,0.15805 0.09031,0.0564 0.225778,0.19190999 0.04516,0.11289 0.01129,0.34996 -0.02258,0.18062 -0.04515,0.36124 -0.07902,0 -0.225778,0 -0.01129,0.0113 -0.07902,0.1016 -0.06773,0.079 -0.06773,0.0903 0.03387,0.0677 0.02258,0.15805 0.01129,0 0.06773,0.0339 -0.02258,0.0339 -0.03387,0.12418 -0.293511,0.0226 -0.248355,0.0339 -0.01129,-0.0113 -0.225778,-0.079 -0.169334,-0.0452 -0.270934,-0.0226 v 0.0677 q 0,0 -0.124178,0 0,0.0113 -0.03387,0.0565 v 0.0339 q -0.06773,0.0113 -0.112889,-0.0113 -0.04515,-0.0339 -0.07902,-0.0452 -0.146756,0 -0.4064,-0.0677 -0.02258,-0.0677 -0.09031,-0.21448 -0.09031,-0.0903 -0.214489,-0.28223 -0.03387,-0.0903 -0.03387,-0.45155 0,-0.37253999 0.03387,-0.46284999 0.01129,-0.0452 0.1016,-0.079 0.09031,-0.0339 0.112889,-0.0677 0.03387,-0.11289 0.09031,-0.28223 0.146755,0 0.4064,-0.0339 l 0.03387,-0.0677 q 0.180622,-0.11288 0.338667,-0.12417 z M 62.79852,2.5853132 q 0.05644,-0.0113 0.124178,-0.0113 0.225778,0 0.575734,0.1016 0.316089,0.0903 0.395112,0.15804 0.01129,0.0565 0.03387,0.12418 0.04516,0.0113 0.124178,0.0339 0.01129,0.0564 0.03387,0.12418 h 0.05644 l 0.1016,0.19191 h 0.02258 q 0,-0.0113 -0.05644,0.15804 0.02258,0.079 0.03387,0.28223 -0.03387,0.1016 -0.1016,0.3048 0.09031,0.0564 0.259644,0.19191 -0.01129,0 0,0.21449 l -0.1016,0.0339 q 0.02258,0.13547 0,0.37254 -0.01129,0.0451 -0.05644,0.0451 -0.06773,-0.0113 -0.06773,-0.0113 0,0.12418 0,0.12418 0.01129,0 0.158045,-0.0339 0.01129,0.0452 0.09031,0.12418 0,0.0226 -0.05644,0.28222 0.07902,0.0452 0.03387,0.19192 h -0.06773 q -0.03387,0.0564 -0.09031,0.12417 0.01129,0.0903 0.09031,0.31609 -0.06773,0.0452 -0.06773,0.0564 0.04516,0.0226 0.101601,0.0677 -0.03387,0.16933 -0.124178,0.56445 0.112889,0.0903 0.248355,0.3048 0,0.0451 -0.03387,0.0903 -0.03387,0.0339 -0.03387,0.0339 -0.04516,0.2032 0.1016,0.37254 0.01129,0.0226 0.146756,0.0677 0.07902,0.0226 0.225778,0.0339 l 0.03387,0.0903 q 0.01129,0 0.02258,-0.0903 h 0.31609 q 0.02258,0.0564 0.03387,0.0564 0.05644,-0.0113 0.158045,-0.0226 -0.03387,0.0564 -0.06773,0.14676 0,0.0452 0.03387,0.19191 0.05644,-0.0451 0.180623,-0.15804 -0.02258,-0.12418 -0.02258,-0.12418 0.02258,-0.0113 0.05644,-0.0564 0.09031,0.0113 0.282223,0.0903 0.02258,0.0452 0.06773,0.0903 0.112889,0 0.338667,0.0677 0.112889,0.0565 0.214489,0.32738 0.1016,0.27093 0.06773,0.45155 l -0.214489,0.28223 q -0.203201,0.21449 -0.406401,0.24835 -0.2032,-0.0226 -0.632178,-0.0339 -0.07902,0.0113 -0.338667,0.0564 -0.259645,0.0452 -0.372534,0.0339 -0.05644,0 -0.248356,-0.0339 -0.180622,-0.0339 -0.282222,-0.0226 -0.158045,0.0339 -0.191912,0.0339 -0.09031,-0.0452 -0.214489,-0.1016 -0.3048,-0.0452 -0.8128,-0.0564 -1.162757,-0.0339 -1.128891,-0.0339 l -0.03387,-0.0564 q -0.191912,0.0226 -0.587023,0.0226 -0.112889,-0.0113 -0.508001,-0.15804 -0.04515,0.0113 -0.146755,-0.0226 0,-0.0452 0,-0.1016 -0.04516,-0.0226 -0.1016,-0.0564 0.01129,-0.0564 0.03387,-0.22577 -0.02258,-0.0452 -0.03387,-0.12418 0.03387,-0.25965 0.282222,-0.33867 0.135467,-0.0451 0.428978,-0.0113 0.31609,0.0226 0.41769,0.0113 0.05644,-0.0564 0.158044,-0.12418 0.124178,-0.0113 0.406401,-0.0339 l 0.02258,-0.0903 q 0.07902,0.0113 0.09031,0.0113 0.1016,0.0113 0.146755,0.0226 0.01129,0 0.02258,0 0.09031,-0.0339 0.180623,-0.0677 0.124177,-0.11289 0.158044,-0.79022 0.01129,-0.46285 0.03387,-0.92569 0.03387,-0.12418 0.09031,-0.34996 -0.02258,-0.16933 -0.03387,-0.55316 0.04516,-0.18062 0.03387,-0.22577 l -0.05644,-0.12418 q 0.02258,-0.2032 0.02258,-0.58702 -0.03387,-0.0677 -0.09031,-0.19192 h -0.05644 l -0.1016,-0.21448 q -0.101601,-0.0677 -0.259645,-0.0677 -0.1016,0 -0.327378,0.0339 -0.225778,0.0339 -0.316089,0.0339 -0.124178,-0.0113 -0.745068,-0.12418 -0.07902,0 -0.191911,-0.0339 -0.01129,-0.079 -0.06773,-0.22578 -0.04515,-0.0677 -0.112889,-0.14675 -0.05644,-0.0903 -0.03387,-0.19191 0,-0.0565 0.180622,-0.19192 v -0.0564 q 0.598312,-0.18062 0.756356,-0.15804 0.06773,0.0564 0.21449,0.12417 0.169333,-0.0113 0.440267,0 0.01129,0 0.112889,0.0564 0.06773,0.0452 0.169333,0.0339 0.2032,-0.0113 0.338667,-0.12417 -0.01129,-0.0452 0.09031,-0.12418 z m 2.540003,4.66231 q 0.214489,-0.0339 0.214489,0.0677 0,0.0339 -0.09031,0.0226 -0.191911,0.0339 -0.191911,-0.0226 0,-0.0226 0.03387,-0.0452 0.03387,-0.0226 0,-0.0226 0.02258,0 0.03387,0 z m 5.061489,-5.08 0.191911,0.0564 q 0.124178,0.0113 0.282223,-0.0226 0.158044,-0.0339 0.3048,-0.0113 0.146756,0.0903 0.428978,0.2032 0.214489,0.0226 0.62089,0.15804 0.02258,0.0452 0.05644,0.1016 0.05644,0 0.135467,0.0339 0,0.0452 0.03387,0.1016 0.04516,0 0.158044,0.0226 0.02258,0.0452 0.06773,0.1016 0.04515,0 0.135467,0 l 0.225778,0.16933 q 0,0.0339 0,0.0903 0.135466,0.13547 0.327378,0.42898 0,0.12418 0.06773,0.36124 0.112889,0.079 0.327378,0.22578 -0.09031,0.28223 0,0.68863 -0.248356,0.0451 -0.259645,0.12417 -0.05644,0.23707 -0.06773,0.25965 -0.05644,0.0903 -0.474134,0.28222 -0.4064,0.19191 -0.541867,0.18062 -0.05644,-0.0113 -0.338667,-0.15804 -0.282223,-0.15805 -0.316089,-0.2032 -0.01129,-0.0113 -0.06773,-0.19191 -0.04516,-0.0452 -0.158044,-0.0565 -0.146756,0 -0.191912,-0.0226 -0.04515,-0.0339 -0.135466,-0.0903 0.02258,-0.11289 0.1016,-0.32737 0.01129,-0.0339 0.124178,-0.0903 0.124178,-0.21449 0.06773,-0.46284 -0.06773,-0.0677 -0.158045,-0.19191 -0.01129,-0.0452 -0.03387,-0.1016 -0.158045,-0.0113 -0.462845,-0.0677 -0.03387,0 -0.237067,-0.11288 -0.169334,-0.079 -0.282223,-0.0452 v 0.1016 q -0.112889,0.0113 -0.361244,0.0226 -0.02258,0.11289 -0.135467,0.27093 -0.05645,0 -0.191912,0.0565 0,0.0452 0,0.1016 l -0.191911,0.22577 h -0.06773 q 0.04516,0.0339 0.03387,0.1016 -0.09031,0.0677 -0.09031,0.11289 0,0.079 -0.04515,0.14676 -0.03387,0 -0.09031,0.0339 -0.01129,0.079 -0.06773,0.22577 -0.01129,0.0113 -0.1016,0.0339 0.09031,0.0113 0.09031,0.0452 0,0.0564 -0.124178,0.0903 0.01129,0.0677 0,0.22577 l -0.06773,0.0339 q 0,0.14676 0.03387,0.55316 -0.04516,0.0113 -0.158045,0.0677 0.05644,0.0226 0.03387,0.0903 -0.01129,0.079 -0.06773,0.1016 0.01129,0.0452 0.03387,0.16934 0.1016,0 0.1016,0 v 0.0564 h 0.02258 q 0,0.21449 0.06773,0.49671 0.05645,0.0452 0.2032,0.0564 0.146756,0 0.169334,0.0113 0.03387,0.0113 0.214489,0.38382 0.06773,-0.13547 0.1016,-0.15805 0,0 0.225778,-0.0339 0.112889,0.23706 0.327378,0.51929 0.09031,0.0339 0.361245,0.0339 0.270934,0 0.361245,-0.0339 0.07902,-0.0903 0.259645,-0.19192 0.135466,0.0339 0.395111,0.0677 0.146756,-0.0113 0.214489,-0.12418 0.07902,-0.12418 0.135467,-0.23707 0.03387,-0.0113 0.06773,-0.0339 0,-0.0452 0,-0.1016 0.01129,0 0.101601,0 0.04515,-0.0677 0.1016,-0.15805 -0.02258,-0.0903 0,-0.32738 0.02258,0 0.05644,-0.0677 0.112889,0.0113 0.327378,-0.0339 0.03387,-0.0452 0.1016,-0.0903 0.04516,0 0.135467,0 0.03387,-0.0564 0.09031,-0.1016 0.180623,-0.0339 0.383823,0.0677 0.2032,0.1016 0.270934,0.22577 0,0.0452 0.03387,0.12418 0.124178,0.0903 0.259645,0.29351 0.02258,0.1016 -0.04516,0.27094 -0.06773,0.16933 -0.112889,0.19191 -0.04515,0 -0.1016,0 0,0.079 -0.03387,0.22578 -0.04516,0.0452 -0.1016,0.1016 0,0.1016 -0.02258,0.29351 -0.361245,0.11289 -0.564445,0.29351 v 0.0677 q -0.02258,0.0677 -0.225778,0.15805 -0.07902,0.0452 -0.270934,0.0339 -0.191911,-0.0113 -0.214489,0 -0.01129,0.0564 -0.03387,0.13547 -0.112889,0.12418 -0.259644,0.19191 -0.112889,0.0113 -0.361245,0.0677 -0.07902,0.0564 -0.191912,0.12417 -0.158044,0.0339 -0.4064,0 -0.270934,-0.0339 -0.383823,-0.0339 -0.361244,0.0226 -0.293511,0.0339 l -0.124178,-0.0564 q 0.01129,0 -0.417689,0.0113 -0.237067,0.0113 -0.372534,-0.079 -0.03387,-0.0677 -0.124178,-0.16934 -0.04516,0.0113 -0.1016,0 -0.04516,-0.0451 -0.1016,-0.0903 -0.07902,-0.0113 -0.225778,-0.0677 -0.03387,-0.079 -0.135467,-0.19191 -0.03387,0 -0.09031,0 l -0.237067,-0.16934 q -0.01129,-0.0677 -0.05644,-0.19191 -0.09031,-0.0451 -0.21449,-0.2032 0.01129,-0.11289 -0.02258,-0.34996 -0.07902,-0.1016 -0.191912,-0.27093 -0.02258,-0.11289 -0.06773,-0.25964 -0.03387,0 -0.09031,-0.0339 -0.01129,-0.11289 -0.06773,-0.34996 -0.07902,-0.079 -0.169333,-0.2032 0,-0.14675 -0.05645,-0.45155 -0.04515,-0.0564 -0.1016,-0.13547 -0.05644,-0.28222 0.03387,-0.51929 l 0.06773,-0.0339 q -0.01129,-0.11288 0,-0.25964 0.05645,-0.14676 0.124178,-0.39511 -0.01129,-0.0677 0,-0.19191 0.112889,-0.14676 0.259645,-0.42898 -0.01129,-0.0452 0,-0.12418 0.1016,-0.079 0.225778,-0.2032 0.03387,-0.1016 0.135467,-0.29351 0.06773,-0.0226 0.169333,-0.0903 0,-0.079 0.05645,-0.23707 h 0.06773 v -0.0339 q 0.05645,-0.0226 0.259645,-0.19191 0.02258,-0.0564 0.06773,-0.13546 0.112889,0 0.327378,-0.0564 0.07902,-0.0903 0.259645,-0.23706 v -0.0564 q 0.06773,-0.0452 0.191911,-0.0452 0.135467,-0.0113 0.191912,-0.0339 0.06773,-0.0339 0.135467,-0.0903 0.1016,0 0.293511,-0.0339 0.09031,-0.0452 0.237067,-0.0903 z"
     id="text1"
     style="font-size:11.2889px;line-height:0;font-family:Mom´sTypewriter;-inkscape-font-specification:Mom´sTypewriter;letter-spacing:-0.0185208px;word-spacing:0px;white-space:pre;inline-size:83.4085;fill:#ffffff;stroke-width:0.264583"
     aria-label="Moth Music" /></svg>
