<?xml version="1.0" encoding="UTF-8" standalone="no"?>
<!-- Created with Inkscape (http://www.inkscape.org/) -->

<svg
   width="23.919897mm"
   height="78.614845mm"
   viewBox="0 0 23.9199 78.614846"
   version="1.1"
   id="svg1"
   xml:space="preserve"
   xmlns="http://www.w3.org/2000/svg"
   xmlns:svg="http://www.w3.org/2000/svg"><defs
     id="defs1"><filter
       style="color-interpolation-filters:sRGB"
       id="filter5"
       x="0"
       y="0"
       width="1"
       height="1"><feColorMatrix
         type="hueRotate"
         values="180"
         result="color1"
         id="feColorMatrix4" /><feColorMatrix
         values="-1 0 0 0 1 0 -1 0 0 1 0 0 -1 0 1 -0.21 -0.72 -0.07 2 0 "
         result="fbSourceGraphic"
         id="feColorMatrix5" /><feColorMatrix
         result="fbSourceGraphicAlpha"
         in="fbSourceGraphic"
         values="0 0 0 -1 0 0 0 0 -1 0 0 0 0 -1 0 0 0 0 1 0"
         id="feColorMatrix6" /><feColorMatrix
         id="feColorMatrix7"
         type="hueRotate"
         values="180"
         result="color1"
         in="fbSourceGraphic" /><feColorMatrix
         id="feColorMatrix8"
         values="-1 0 0 0 1 0 -1 0 0 1 0 0 -1 0 1 -0.21 -0.72 -0.07 2 0 "
         result="fbSourceGraphic" /><feColorMatrix
         result="fbSourceGraphicAlpha"
         in="fbSourceGraphic"
         values="0 0 0 -1 0 0 0 0 -1 0 0 0 0 -1 0 0 0 0 1 0"
         id="feColorMatrix9" /><feColorMatrix
         id="feColorMatrix10"
         type="hueRotate"
         values="180"
         result="color1"
         in="fbSourceGraphic" /><feColorMatrix
         id="feColorMatrix11"
         values="-1 0 0 0 1 0 -1 0 0 1 0 0 -1 0 1 -0.21 -0.72 -0.07 2 0 "
         result="color2" /></filter><clipPath
       clipPathUnits="userSpaceOnUse"
       id="clipPath27"><path
         id="path28"
         style="font-variation-settings:normal;opacity:1;vector-effect:none;fill:#000000;fill-opacity:1;stroke-width:1.9416;stroke-linecap:butt;stroke-linejoin:miter;stroke-miterlimit:4;stroke-dasharray:none;stroke-dashoffset:0;stroke-opacity:1;-inkscape-stroke:none;stop-color:#000000;stop-opacity:1"
         d="M 128.39061,0.28060303 V 1.9833415 c 0.3307,-0.5894916 0.70041,-1.15771746 1.10433,-1.70273847 z m 20.96461,0 c 0.2337,0.56459187 0.43627,1.15527787 0.54674,1.49293217 V 0.28060303 Z M 139.74961,14.92002 c 0.0283,0.126991 0.0614,0.252346 0.10284,0.374137 -0.0134,-0.121567 -0.0498,-0.247574 -0.10284,-0.374137 z m -11.359,0.600996 v 37.559981 c 0.35932,-0.236511 0.72346,-0.464119 1.11053,-0.650089 0.84825,-0.407543 2.07937,-0.390639 3.02927,-0.433049 1.07991,-0.05683 2.15078,-0.219393 3.22875,-0.301273 0.98011,-0.07176 1.96051,-0.142275 2.94038,-0.216525 0.35311,-0.01569 0.70547,-0.04105 1.05317,-0.109037 0.64059,-0.108485 1.30708,-0.213781 1.97042,-0.223758 0.66334,-0.01 1.32309,0.0757 1.95027,0.34985 2.47118,1.080201 2.53494,1.60025 3.50108,3.428214 0.046,0.0073 0.092,0.015 0.13798,0.02273 0.55242,0.113165 0.97449,0.181756 1.51308,0.368454 0.35673,0.123661 0.71777,0.244181 1.05317,0.417546 0.008,0.004 0.0155,0.0079 0.0232,0.01188 V 18.727539 c -0.22224,0.406443 -0.47063,0.798931 -0.75447,1.163237 -0.67558,0.867086 -1.55408,1.473918 -2.52336,1.95802 -0.34691,0.173262 -0.72593,0.27318 -1.08883,0.409794 -0.66612,0.17225 -1.33939,0.297531 -2.01073,0.445967 0.001,-0.0045 0.007,-0.01228 0.009,-0.01654 v -5.29e-4 -5.29e-4 l 5.3e-4,-5.03e-4 v -5.29e-4 h -5.3e-4 v -5.29e-4 l -5.3e-4,-5.3e-4 h -5.3e-4 -5.3e-4 -5.3e-4 c -0.14289,0.01793 -0.27637,0.101601 -0.40463,0.156581 -0.54346,0.294369 -1.08172,0.60315 -1.65829,0.830957 -0.95072,0.375638 -1.93654,0.613015 -2.95744,0.684195 -0.33895,0.0081 -0.67797,0.02739 -1.017,0.02429 -1.50616,-0.01393 -2.99544,-0.371588 -4.35839,-1.003557 -0.38822,-0.231047 -0.79645,-0.431389 -1.16478,-0.692981 -1.51624,-1.076857 -2.48846,-2.685895 -3.01119,-4.442106 -0.23199,-0.898526 -0.413,-1.807411 -0.56896,-2.721281 z m 3.88142,47.775379 c -0.0307,0.0011 -0.0613,0.0024 -0.092,0.0036 -0.045,0.0016 -0.17998,0.01132 -0.13488,0.0098 0.0728,-0.0024 0.14897,-0.007 0.22686,-0.01344 z m 2.60966,1.867585 c -0.0182,0.137716 -0.0285,0.276286 -0.0289,0.416513 -1.4e-4,0.04762 0.005,0.09566 0.014,0.142626 0.0262,-0.0034 0.0528,-0.007 0.0796,-0.01032 -0.001,-0.04522 -0.004,-0.09069 -0.002,-0.135392 -0.0194,-0.173638 -0.0211,-0.272685 -0.063,-0.413412 z" /></clipPath><clipPath
       clipPathUnits="userSpaceOnUse"
       id="clipPath37"><rect
         style="fill:#ffffff;stroke-width:0.264583"
         id="rect38"
         width="24.182791"
         height="28.027235"
         x="101.44371"
         y="-3.9684582" /></clipPath><clipPath
       clipPathUnits="userSpaceOnUse"
       id="clipPath39"><path
         style="fill:#000000;stroke-width:0.999999;filter:url(#filter5)"
         d="m 149.62525,66.214471 c -0.062,0.147644 -0.27644,0.418892 -0.47647,0.602773 l -0.36371,0.334329 -9.65482,-0.05314 c -10.61012,-0.0584 -10.16158,-0.02091 -10.56494,-0.883141 -0.18129,-0.387534 -0.20219,-1.03654 -0.14882,-4.620306 l 0.0621,-4.16944 0.4422,-0.437203 0.4422,-0.437203 9.76105,0.05373 9.76105,0.05373 0.45778,0.505041 0.45777,0.50504 -0.0313,4.138676 c -0.0172,2.276271 -0.0821,4.259475 -0.14408,4.407119 z m -0.654,-8.77317 -0.2908,-0.312969 -9.50992,-0.05235 c -9.41723,-0.05184 -9.51339,-0.04965 -9.86592,0.224523 l -0.35599,0.276869 -0.0232,4.218115 -0.0232,4.218115 0.35293,0.280772 c 0.34947,0.278023 0.44584,0.281283 9.84399,0.333015 l 9.49107,0.05224 0.31297,-0.290793 0.31297,-0.290793 0.023,-4.17189 c 0.0226,-4.098225 0.0178,-4.177417 -0.26782,-4.48486 z m -0.81325,4.79947 c -0.34747,0.343667 -0.80492,0.147603 -0.80222,-0.34383 0.002,-0.450261 0.41344,-0.651035 0.78852,-0.38523 0.35849,0.254053 0.36096,0.385598 0.0137,0.72906 z m -18.13289,-0.002 c -0.0493,0.632903 -0.24752,0.755549 -0.37575,0.232479 -0.0973,-0.396737 0.0486,-1.276906 0.21147,-1.27601 0.15775,8.69e-4 0.21645,0.373765 0.16428,1.043531 z m -0.15246,-1.447063 c -0.074,-4.07e-4 -0.1342,-0.06128 -0.13379,-0.135269 4.1e-4,-0.07399 0.0613,-0.134195 0.13527,-0.133788 0.074,4.08e-4 0.1342,0.06128 0.13379,0.135269 -4.1e-4,0.07399 -0.0613,0.134195 -0.13527,0.133788 z m 19.86898,-27.537045 c -0.10179,0.221418 -3.21953,3.391898 -6.9283,7.045512 -7.10689,7.00119 -7.09669,6.992663 -7.96437,6.658915 -0.44079,-0.16955 -5.67502,-5.36639 -6.09925,-6.055694 -0.59799,-0.971603 -0.76091,-0.772391 6.63397,-8.111585 3.78616,-3.757647 6.90815,-6.75014 7.15034,-6.853738 0.8806,-0.376694 1.10439,-0.224141 4.1583,2.834675 3.26132,3.266567 3.46823,3.57069 3.04931,4.481915 z m -3.28741,-4.018859 c -2.60519,-2.601035 -2.99874,-2.944163 -3.37923,-2.946257 -0.68855,-0.0038 -14.02693,13.22194 -14.03073,13.91223 -0.004,0.713675 5.57625,6.355629 6.28993,6.359557 0.72185,0.004 14.06207,-13.191911 14.06605,-13.913862 0.002,-0.431311 -0.22732,-0.697305 -2.94602,-3.411668 z m -0.67514,1.373665 c -0.294,0.29078 -0.61068,0.231683 -0.81318,-0.151753 -0.1017,-0.192573 -0.0682,-0.314498 0.14424,-0.524591 0.21242,-0.210094 0.33471,-0.242274 0.52615,-0.138457 0.38118,0.20671 0.43679,0.524021 0.14279,0.814801 z m -12.44073,13.043454 c -0.16468,0.100531 -1.08039,-0.711292 -1.07904,-0.956625 0.002,-0.332819 0.3656,-0.198624 0.79165,0.29204 0.45857,0.528126 0.46951,0.553412 0.28739,0.664585 z m -1.48011,-1.41576 c -0.074,-4.07e-4 -0.1342,-0.06128 -0.13379,-0.135269 4.1e-4,-0.07399 0.0613,-0.134195 0.13527,-0.133788 0.074,4.08e-4 0.13419,0.06128 0.13379,0.135269 -4.1e-4,0.07399 -0.0613,0.134195 -0.13527,0.133788 z m 16.77743,-29.448931 c -0.19304,0.902636 -0.84882,2.399175 -1.42312,3.247641 l -0.28247,0.417324 0.35166,-0.06522 c 0.28548,-0.05295 0.34253,-0.01918 0.30314,0.179435 -0.0412,0.207698 -0.98245,0.577537 -1.49631,0.587923 -0.0555,0.0011 -0.0987,-0.391456 -0.0961,-0.872394 0.004,-0.68759 0.0479,-0.874197 0.20661,-0.873324 0.13736,7.56e-4 0.20198,0.140711 0.20238,0.438344 l 5.8e-4,0.437234 0.27298,-0.334828 c 2.19392,-2.691011 2.1475,-7.2481915 -0.10165,-9.9800955 -0.87674,-1.0649207 -0.63938,-1.4754952 0.25743,-0.4452877 1.5938,1.8308752 2.33165,4.8001442 1.80487,7.2632482 z m -0.41809,26.153015 c -0.69677,3.126908 -3.46966,5.886428 -6.50622,6.474848 -0.96367,0.186737 -0.9683,0.189802 -0.64769,0.429182 0.19622,0.146512 0.22056,0.230538 0.10141,0.350149 -0.17495,0.17562 -1.52262,-0.497782 -1.52143,-0.760226 8.8e-4,-0.193197 0.98781,-1.131759 1.18892,-1.130652 0.23043,0.0013 0.19974,0.273418 -0.0632,0.560822 -0.28995,0.316857 -0.0388,0.329503 1.02955,0.05185 2.26496,-0.588631 4.2129,-2.156189 5.23275,-4.210922 0.50964,-1.026796 0.69137,-1.659924 0.93495,-3.257264 0.0484,-0.317547 0.14929,-0.503675 0.27257,-0.502997 0.24999,0.0014 0.24118,0.816082 -0.0216,1.995213 z m -3.69433,30.401089 c -2.84919,2.440556 -7.13518,2.580538 -10.49653,0.342821 -0.34506,-0.229712 -0.41963,-0.24537 -0.35517,-0.07458 0.0449,0.118892 0.0436,0.313586 -0.003,0.432653 -0.11879,0.304538 -0.42841,0.024 -0.52559,-0.47623 -0.0412,-0.211914 -0.11375,-0.543923 -0.16127,-0.737799 l -0.0864,-0.352502 0.88902,0.0049 c 0.70056,0.0039 0.88879,0.04767 0.88791,0.206687 -7.6e-4,0.137364 -0.14071,0.201979 -0.43834,0.202377 l -0.43724,5.84e-4 0.3348,0.278334 c 0.52209,0.434031 2.40577,1.300976 3.19368,1.469855 2.30012,0.493003 5.15396,-0.182218 6.85121,-1.621004 0.53666,-0.454944 0.99099,-0.615695 0.98953,-0.350118 -3.8e-4,0.06823 -0.28961,0.371548 -0.64274,0.674033 z m -0.14312,-14.121134 c -0.70055,-0.0039 -0.88878,-0.04767 -0.8879,-0.206686 7.5e-4,-0.137364 0.14071,-0.201979 0.43834,-0.202377 l 0.43723,-5.85e-4 -0.33483,-0.272978 c -2.6854,-2.189347 -7.25388,-2.142815 -9.98009,0.101651 -1.09195,0.898992 -1.46508,0.633857 -0.41149,-0.292384 2.7512,-2.418632 7.15144,-2.55706 10.49647,-0.33021 0.34506,0.229712 0.41962,0.24537 0.35516,0.07458 -0.0449,-0.118892 -0.0436,-0.313586 0.003,-0.432653 0.11878,-0.304538 0.4284,-0.024 0.52559,0.47623 0.0412,0.211913 0.11374,0.543923 0.16127,0.737799 l 0.0864,0.352502 z m 0.1525,-34.626159 c -0.0325,0.156113 -0.2426,0.457654 -0.4668,0.670093 l -0.40763,0.386253 -4.36075,-0.024 -4.36075,-0.024 -0.43738,-0.442164 -0.43739,-0.442165 0.0139,-9.4483 c 0.0156,-10.56489114 -0.002,-10.35566704 0.89771,-10.77648524 0.65265,-0.3053124 8.22126,-0.274161 8.86672,0.036494 0.86695,0.4172558 0.82529,-0.1279322 0.78665,10.29610024 -0.0193,5.216388 -0.0618,9.61207 -0.0943,9.768182 z m -0.63299,-19.4162164 -0.29079,-0.31296934 -4.17189,-0.022964 c -4.09823,-0.022559 -4.17742,-0.017829 -4.48486,0.26782904 l -0.31297,0.290793 -0.0528,9.5953267 c -0.0518,9.415956 -0.0478,9.600384 0.21476,9.865865 0.25635,0.259189 0.44392,0.271328 4.47161,0.2894 4.30268,0.01931 4.51323,-0.0034 4.71262,-0.507911 0.0438,-0.110748 0.10783,-4.465344 0.14236,-9.676881 l 0.0628,-9.475519 z m -4.38711,19.1716894 c -0.44843,-0.0025 -0.80684,-0.06423 -0.80643,-0.138972 4.1e-4,-0.07474 0.35948,-0.132553 0.80791,-0.130085 0.44843,0.0025 0.80684,0.06423 0.80643,0.138972 -4.1e-4,0.07474 -0.35949,0.132553 -0.80791,0.130085 z M 139.7448,2.5935143 c -0.294,0.2907804 -0.61068,0.2316828 -0.81318,-0.1517529 -0.19017,-0.3600821 0.31242,-0.8571685 0.67039,-0.6630482 0.38118,0.2067101 0.43679,0.5240206 0.14279,0.8148011 z m -1.57756,17.7495967 c -0.074,-4.07e-4 -0.13419,-0.06128 -0.13378,-0.135269 4e-4,-0.07399 0.0613,-0.134195 0.13526,-0.133788 0.074,4.07e-4 0.1342,0.06128 0.13379,0.135269 -4.1e-4,0.07399 -0.0613,0.134195 -0.13527,0.133788 z m 0.12006,7.708972 c -0.70206,0.67804 -1.22394,0.605987 -0.59927,-0.08274 0.23225,-0.25606 0.22505,-0.25929 -0.36905,-0.165438 -2.48745,0.392949 -4.83569,2.126252 -5.93344,4.379637 -0.48358,0.992659 -0.66786,1.646123 -0.90764,3.218506 -0.0484,0.317546 -0.14928,0.503675 -0.27256,0.502996 -0.46804,-0.0026 -0.032,-2.385611 0.7079,-3.868457 1.17933,-2.363632 3.71571,-4.313248 6.03803,-4.641203 0.70363,-0.09937 0.7523,-0.14819 0.40583,-0.407125 -0.17813,-0.133128 -0.1968,-0.213043 -0.0777,-0.332607 0.17495,-0.17562 1.52262,0.497782 1.52143,0.760227 -3.5e-4,0.07747 -0.23145,0.363763 -0.51354,0.636202 z m -5.72609,-10.968609 c -0.18743,-10e-4 -0.91636,-0.849663 -1.41325,-1.64533 -1.65627,-2.652173 -1.64346,-6.1649713 0.0325,-8.9138359 0.55934,-0.917411 0.55115,-0.8806563 0.19668,-0.8826075 -0.83689,-0.00461 0.38672,-0.7800468 1.25868,-0.7976711 0.0555,-0.00112 0.0987,0.3914558 0.0961,0.8723947 -0.004,0.6875893 -0.0479,0.8741969 -0.20661,0.8733235 -0.12556,-6.912e-4 -0.20109,-0.1281653 -0.19994,-0.3374317 0.004,-0.6477317 -0.2989,-0.3402652 -1.01967,1.0365337 -1.45142,2.7724883 -1.09742,6.4065713 0.85706,8.7984613 0.4784,0.585455 0.64321,0.997511 0.39844,0.996163 z"
         id="path39"
         clip-path="url(#clipPath27)"
         transform="translate(0.37204293,-1.1161288)" /></clipPath><clipPath
       clipPathUnits="userSpaceOnUse"
       id="clipPath40"><rect
         style="fill:#ffffff;stroke-width:0.264583"
         id="rect41"
         width="23.501284"
         height="22.624372"
         x="153.81065"
         y="48.054867" /></clipPath></defs><path
     style="fill:#000000;filter:url(#filter5)"
     d="m 123.2102,65.470385 c -0.062,0.147644 -0.27644,0.418892 -0.47647,0.602773 l -0.36371,0.334329 -9.65482,-0.05314 c -10.61012,-0.0584 -10.16158,-0.02091 -10.56494,-0.883141 -0.18129,-0.387534 -0.20219,-1.03654 -0.14882,-4.620306 l 0.0621,-4.16944 0.4422,-0.437203 0.4422,-0.437203 9.76105,0.05373 9.76105,0.05373 0.45778,0.505041 0.45777,0.50504 -0.0313,4.138676 c -0.0172,2.276271 -0.0821,4.259475 -0.14408,4.407119 z m -0.654,-8.77317 -0.2908,-0.312969 -9.50992,-0.05235 c -9.41723,-0.05184 -9.51339,-0.04965 -9.86592,0.224523 l -0.35599,0.276869 -0.0232,4.218115 -0.0232,4.218115 0.35293,0.280772 c 0.34947,0.278023 0.44584,0.281283 9.84399,0.333015 l 9.49107,0.05224 0.31297,-0.290793 0.31297,-0.290793 0.023,-4.17189 c 0.0226,-4.098225 0.0178,-4.177417 -0.26782,-4.48486 z m -0.81325,4.79947 c -0.34747,0.343667 -0.80492,0.147603 -0.80222,-0.34383 0.002,-0.450261 0.41344,-0.651035 0.78852,-0.38523 0.35849,0.254053 0.36096,0.385598 0.0137,0.72906 z m -18.13289,-0.002 c -0.0493,0.632903 -0.24752,0.755549 -0.37575,0.232479 -0.0973,-0.396737 0.0486,-1.276906 0.21147,-1.27601 0.15775,8.69e-4 0.21645,0.373765 0.16428,1.043531 z m -0.15246,-1.447063 c -0.074,-4.07e-4 -0.1342,-0.06128 -0.13379,-0.135269 4.1e-4,-0.07399 0.0613,-0.134195 0.13527,-0.133788 0.074,4.08e-4 0.1342,0.06128 0.13379,0.135269 -4.1e-4,0.07399 -0.0613,0.134195 -0.13527,0.133788 z m 19.86898,-27.537045 c -0.10179,0.221418 -3.21953,3.391898 -6.9283,7.045512 -7.10689,7.00119 -7.09669,6.992663 -7.96437,6.658915 -0.44079,-0.16955 -5.67502,-5.36639 -6.09925,-6.055694 -0.59799,-0.971603 -0.76091,-0.772391 6.63397,-8.111585 3.78616,-3.757647 6.90815,-6.75014 7.15034,-6.853738 0.8806,-0.376694 1.10439,-0.224141 4.1583,2.834675 3.26132,3.266567 3.46823,3.57069 3.04931,4.481915 z m -3.28741,-4.018859 c -2.60519,-2.601035 -2.99874,-2.944163 -3.37923,-2.946257 -0.68855,-0.0038 -14.02693,13.22194 -14.03073,13.91223 -0.004,0.713675 5.57625,6.355629 6.28993,6.359557 0.72185,0.004 14.06207,-13.191911 14.06605,-13.913862 0.002,-0.431311 -0.22732,-0.697305 -2.94602,-3.411668 z m -0.67514,1.373665 c -0.294,0.29078 -0.61068,0.231683 -0.81318,-0.151753 -0.1017,-0.192573 -0.0682,-0.314498 0.14424,-0.524591 0.21242,-0.210094 0.33471,-0.242274 0.52615,-0.138457 0.38118,0.20671 0.43679,0.524021 0.14279,0.814801 z M 106.9233,42.908837 c -0.16468,0.100531 -1.08039,-0.711292 -1.07904,-0.956625 0.002,-0.332819 0.3656,-0.198624 0.79165,0.29204 0.45857,0.528126 0.46951,0.553412 0.28739,0.664585 z m -1.48011,-1.41576 c -0.074,-4.07e-4 -0.1342,-0.06128 -0.13379,-0.135269 4.1e-4,-0.07399 0.0613,-0.134195 0.13527,-0.133788 0.074,4.08e-4 0.13419,0.06128 0.13379,0.135269 -4.1e-4,0.07399 -0.0613,0.134195 -0.13527,0.133788 z m 16.77743,-29.44893 c -0.19304,0.902635 -0.84882,2.399174 -1.42312,3.24764 l -0.28247,0.417324 0.35166,-0.06522 c 0.28548,-0.05295 0.34253,-0.01918 0.30314,0.179435 -0.0412,0.207698 -0.98245,0.577537 -1.49631,0.587923 -0.0555,0.0011 -0.0987,-0.391456 -0.0961,-0.872394 0.004,-0.68759 0.0479,-0.874197 0.20661,-0.873324 0.13736,7.56e-4 0.20198,0.140711 0.20238,0.438344 l 5.8e-4,0.437234 0.27298,-0.334828 c 2.19392,-2.691011 2.1475,-7.2481914 -0.10165,-9.9800954 -0.87674,-1.0649207 -0.63938,-1.4754952 0.25743,-0.4452877 1.5938,1.8308752 2.33165,4.8001445 1.80487,7.2632491 z m -0.41809,26.153014 c -0.69677,3.126908 -3.46966,5.886428 -6.50622,6.474848 -0.96367,0.186737 -0.9683,0.189802 -0.64769,0.429182 0.19622,0.146512 0.22056,0.230538 0.10141,0.350149 -0.17495,0.17562 -1.52262,-0.497782 -1.52143,-0.760226 8.8e-4,-0.193197 0.98781,-1.131759 1.18892,-1.130652 0.23043,0.0013 0.19974,0.273418 -0.0632,0.560822 -0.28995,0.316857 -0.0388,0.329503 1.02955,0.05185 2.26496,-0.588631 4.2129,-2.156189 5.23275,-4.210922 0.50964,-1.026796 0.69137,-1.659924 0.93495,-3.257264 0.0484,-0.317547 0.14929,-0.503675 0.27257,-0.502997 0.24999,0.0014 0.24118,0.816082 -0.0216,1.995213 z M 118.1082,68.59825 c -2.84919,2.440556 -7.13518,2.580538 -10.49653,0.342821 -0.34506,-0.229712 -0.41963,-0.24537 -0.35517,-0.07458 0.0449,0.118892 0.0436,0.313586 -0.003,0.432653 -0.11879,0.304538 -0.42841,0.024 -0.52559,-0.47623 -0.0412,-0.211914 -0.11375,-0.543923 -0.16127,-0.737799 l -0.0864,-0.352502 0.88902,0.0049 c 0.70056,0.0039 0.88879,0.04767 0.88791,0.206687 -7.6e-4,0.137364 -0.14071,0.201979 -0.43834,0.202377 l -0.43724,5.84e-4 0.3348,0.278334 c 0.52209,0.434031 2.40577,1.300976 3.19368,1.469855 2.30012,0.493003 5.15396,-0.182218 6.85121,-1.621004 0.53666,-0.454944 0.99099,-0.615695 0.98953,-0.350118 -3.8e-4,0.06823 -0.28961,0.371548 -0.64274,0.674033 z m -0.14312,-14.121134 c -0.70055,-0.0039 -0.88878,-0.04767 -0.8879,-0.206686 7.5e-4,-0.137364 0.14071,-0.201979 0.43834,-0.202377 l 0.43723,-5.85e-4 -0.33483,-0.272978 c -2.6854,-2.189347 -7.25388,-2.142815 -9.98009,0.101651 -1.09195,0.898992 -1.46508,0.633857 -0.41149,-0.292384 2.7512,-2.418632 7.15144,-2.55706 10.49647,-0.33021 0.34506,0.229712 0.41962,0.24537 0.35516,0.07458 -0.0449,-0.118892 -0.0436,-0.313586 0.003,-0.432653 0.11878,-0.304538 0.4284,-0.024 0.52559,0.47623 0.0412,0.211913 0.11374,0.543923 0.16127,0.737799 l 0.0864,0.352502 z m 0.1525,-34.626159 c -0.0325,0.156113 -0.2426,0.457654 -0.4668,0.670093 l -0.40763,0.386253 -4.36075,-0.024 -4.36075,-0.024 -0.43738,-0.442164 -0.43739,-0.442165 0.0139,-9.448299 c 0.0156,-10.56489203 -0.002,-10.35566793 0.89771,-10.77648613 0.65265,-0.3053124 8.22126,-0.274161 8.86672,0.036494 0.86695,0.4172558 0.82529,-0.1279322 0.78665,10.29610013 -0.0193,5.216388 -0.0618,9.61207 -0.0943,9.768182 z m -0.63299,-19.41621633 -0.29079,-0.3129693 -4.17189,-0.022964 c -4.09823,-0.022559 -4.17742,-0.017829 -4.48486,0.267829 l -0.31297,0.290793 -0.0528,9.59532663 c -0.0518,9.415956 -0.0478,9.600384 0.21476,9.865865 0.25635,0.259189 0.44392,0.271328 4.47161,0.2894 4.30268,0.01931 4.51323,-0.0034 4.71262,-0.507911 0.0438,-0.110748 0.10783,-4.465344 0.14236,-9.67688 l 0.0628,-9.47551993 z M 113.09748,19.60643 c -0.44843,-0.0025 -0.80684,-0.06423 -0.80643,-0.138972 4.1e-4,-0.07474 0.35948,-0.132553 0.80791,-0.130085 0.44843,0.0025 0.80684,0.06423 0.80643,0.138972 -4.1e-4,0.07474 -0.35949,0.132553 -0.80791,0.130085 z m 0.23227,-17.7570016 c -0.294,0.2907804 -0.61068,0.2316828 -0.81318,-0.1517529 -0.19017,-0.3600821 0.31242,-0.85716853 0.67039,-0.6630482 0.38118,0.2067102 0.43679,0.5240206 0.14279,0.8148011 z m -1.57756,17.7495966 c -0.074,-4.07e-4 -0.13419,-0.06128 -0.13378,-0.135269 4e-4,-0.07399 0.0613,-0.134195 0.13526,-0.133788 0.074,4.07e-4 0.1342,0.06128 0.13379,0.135269 -4.1e-4,0.07399 -0.0613,0.134195 -0.13527,0.133788 z m 0.12006,7.708972 c -0.70206,0.67804 -1.22394,0.605987 -0.59927,-0.08274 0.23225,-0.25606 0.22505,-0.25929 -0.36905,-0.165438 -2.48745,0.392949 -4.83569,2.126252 -5.93344,4.379637 -0.48358,0.992659 -0.66786,1.646123 -0.90764,3.218506 -0.0484,0.317546 -0.14928,0.503675 -0.27256,0.502996 -0.46804,-0.0026 -0.032,-2.385611 0.7079,-3.868457 1.17933,-2.363632 3.71571,-4.313248 6.03803,-4.641203 0.70363,-0.09937 0.7523,-0.14819 0.40583,-0.407125 -0.17813,-0.133128 -0.1968,-0.213043 -0.0777,-0.332607 0.17495,-0.17562 1.52262,0.497782 1.52143,0.760227 -3.5e-4,0.07747 -0.23145,0.363763 -0.51354,0.636202 z m -5.72609,-10.968609 c -0.18743,-0.001 -0.91636,-0.849663 -1.41325,-1.64533 -1.65627,-2.652172 -1.64346,-6.1649712 0.0325,-8.9138358 0.55934,-0.917411 0.55115,-0.8806563 0.19668,-0.8826075 -0.83689,-0.00461 0.38672,-0.7800468 1.25868,-0.7976711 0.0555,-0.00112 0.0987,0.3914558 0.0961,0.8723947 -0.004,0.6875893 -0.0479,0.8741969 -0.20661,0.8733235 -0.12556,-6.912e-4 -0.20109,-0.1281653 -0.19994,-0.3374317 0.004,-0.6477317 -0.2989,-0.3402652 -1.01967,1.0365337 -1.45142,2.7724887 -1.09742,6.4065712 0.85706,8.7984612 0.4784,0.585455 0.64321,0.997511 0.39844,0.996163 z"
     id="path3"
     clip-path="url(#clipPath37)"
     transform="matrix(1,0,0,-1,-101.97577,24.058777)" /><rect
     style="display:inline;fill:#ffffff;stroke-width:0.264583"
     id="rect39"
     width="23.150518"
     height="28.587383"
     x="129.25706"
     y="20.695162"
     clip-path="url(#clipPath39)"
     transform="matrix(1,0,0,-1,-126.35397,76.403967)" /><path
     style="display:inline;fill:#000000;filter:url(#filter5)"
     d="m 176.0403,64.850313 c -0.062,0.147644 -0.27644,0.418892 -0.47647,0.602773 l -0.36371,0.334329 -9.65482,-0.05314 c -10.61012,-0.0584 -10.16158,-0.02091 -10.56494,-0.883141 -0.18129,-0.387534 -0.20219,-1.03654 -0.14882,-4.620306 l 0.0621,-4.16944 0.4422,-0.437203 0.4422,-0.437203 9.76105,0.05373 9.76105,0.05373 0.45778,0.505041 0.45777,0.50504 -0.0313,4.138676 c -0.0172,2.276271 -0.0821,4.259475 -0.14408,4.407119 z m -0.654,-8.77317 -0.2908,-0.312969 -9.50992,-0.05235 c -9.41723,-0.05184 -9.51339,-0.04965 -9.86592,0.224523 l -0.35599,0.276869 -0.0232,4.218115 -0.0232,4.218115 0.35293,0.280772 c 0.34947,0.278023 0.44584,0.281283 9.84399,0.333015 l 9.49107,0.05224 0.31297,-0.290793 0.31297,-0.290793 0.023,-4.17189 c 0.0226,-4.098225 0.0178,-4.177417 -0.26782,-4.48486 z m -0.81325,4.79947 c -0.34747,0.343667 -0.80492,0.147603 -0.80222,-0.34383 0.002,-0.450261 0.41344,-0.651035 0.78852,-0.38523 0.35849,0.254053 0.36096,0.385598 0.0137,0.72906 z m -18.13289,-0.002 c -0.0493,0.632903 -0.24752,0.755549 -0.37575,0.232479 -0.0973,-0.396737 0.0486,-1.276906 0.21147,-1.27601 0.15775,8.69e-4 0.21645,0.373765 0.16428,1.043531 z M 156.2877,59.42755 c -0.074,-4.07e-4 -0.1342,-0.06128 -0.13379,-0.135269 4.1e-4,-0.07399 0.0613,-0.134195 0.13527,-0.133788 0.074,4.08e-4 0.1342,0.06128 0.13379,0.135269 -4.1e-4,0.07399 -0.0613,0.134195 -0.13527,0.133788 z m 19.86898,-27.537045 c -0.10179,0.221418 -3.21953,3.391898 -6.9283,7.045512 -7.10689,7.00119 -7.09669,6.992663 -7.96437,6.658915 -0.44079,-0.16955 -5.67502,-5.36639 -6.09925,-6.055694 -0.59799,-0.971603 -0.76091,-0.772391 6.63397,-8.111585 3.78616,-3.757647 6.90815,-6.75014 7.15034,-6.853738 0.8806,-0.376694 1.10439,-0.224141 4.1583,2.834675 3.26132,3.266567 3.46823,3.57069 3.04931,4.481915 z m -3.28741,-4.018859 c -2.60519,-2.601035 -2.99874,-2.944163 -3.37923,-2.946257 -0.68855,-0.0038 -14.02693,13.22194 -14.03073,13.91223 -0.004,0.713675 5.57625,6.355629 6.28993,6.359557 0.72185,0.004 14.06207,-13.191911 14.06605,-13.913862 0.002,-0.431311 -0.22732,-0.697305 -2.94602,-3.411668 z m -0.67514,1.373665 c -0.294,0.29078 -0.61068,0.231683 -0.81318,-0.151753 -0.1017,-0.192573 -0.0682,-0.314498 0.14424,-0.524591 0.21242,-0.210094 0.33471,-0.242274 0.52615,-0.138457 0.38118,0.20671 0.43679,0.524021 0.14279,0.814801 z M 159.7534,42.288765 c -0.16468,0.100531 -1.08039,-0.711292 -1.07904,-0.956625 0.002,-0.332819 0.3656,-0.198624 0.79165,0.29204 0.45857,0.528126 0.46951,0.553412 0.28739,0.664585 z m -1.48011,-1.41576 c -0.074,-4.07e-4 -0.1342,-0.06128 -0.13379,-0.135269 4.1e-4,-0.07399 0.0613,-0.134195 0.13527,-0.133788 0.074,4.08e-4 0.13419,0.06128 0.13379,0.135269 -4.1e-4,0.07399 -0.0613,0.134195 -0.13527,0.133788 z m 16.77743,-29.44893 c -0.19304,0.902635 -0.84882,2.399174 -1.42312,3.24764 l -0.28247,0.417324 0.35166,-0.06522 c 0.28548,-0.05295 0.34253,-0.01918 0.30314,0.179435 -0.0412,0.207698 -0.98245,0.577537 -1.49631,0.587923 -0.0555,0.0011 -0.0987,-0.391456 -0.0961,-0.872394 0.004,-0.68759 0.0479,-0.874197 0.20661,-0.873324 0.13736,7.56e-4 0.20198,0.140711 0.20238,0.438344 l 5.8e-4,0.437234 0.27298,-0.334828 c 2.19392,-2.691011 2.1475,-7.248191 -0.10165,-9.980095 -0.87674,-1.0649207 -0.63938,-1.4754952 0.25743,-0.4452877 1.5938,1.8308752 2.33165,4.8001445 1.80487,7.2632487 z m -0.41809,26.153014 c -0.69677,3.126908 -3.46966,5.886428 -6.50622,6.474848 -0.96367,0.186737 -0.9683,0.189802 -0.64769,0.429182 0.19622,0.146512 0.22056,0.230538 0.10141,0.350149 -0.17495,0.17562 -1.52262,-0.497782 -1.52143,-0.760226 8.8e-4,-0.193197 0.98781,-1.131759 1.18892,-1.130652 0.23043,0.0013 0.19974,0.273418 -0.0632,0.560822 -0.28995,0.316857 -0.0388,0.329503 1.02955,0.05185 2.26496,-0.588631 4.2129,-2.156189 5.23275,-4.210922 0.50964,-1.026796 0.69137,-1.659924 0.93495,-3.257264 0.0484,-0.317547 0.14929,-0.503675 0.27257,-0.502997 0.24999,0.0014 0.24118,0.816082 -0.0216,1.995213 z m -3.69433,30.401089 c -2.84919,2.440556 -7.13518,2.580538 -10.49653,0.342821 -0.34506,-0.229712 -0.41963,-0.24537 -0.35517,-0.07458 0.0449,0.118892 0.0436,0.313586 -0.003,0.432653 -0.11879,0.304538 -0.42841,0.024 -0.52559,-0.47623 -0.0412,-0.211914 -0.11375,-0.543923 -0.16127,-0.737799 l -0.0864,-0.352502 0.88902,0.0049 c 0.70056,0.0039 0.88879,0.04767 0.88791,0.206687 -7.6e-4,0.137364 -0.14071,0.201979 -0.43834,0.202377 l -0.43724,5.84e-4 0.3348,0.278334 c 0.52209,0.434031 2.40577,1.300976 3.19368,1.469855 2.30012,0.493003 5.15396,-0.182218 6.85121,-1.621004 0.53666,-0.454944 0.99099,-0.615695 0.98953,-0.350118 -3.8e-4,0.06823 -0.28961,0.371548 -0.64274,0.674033 z m -0.14312,-14.121134 c -0.70055,-0.0039 -0.88878,-0.04767 -0.8879,-0.206686 7.5e-4,-0.137364 0.14071,-0.201979 0.43834,-0.202377 l 0.43723,-5.85e-4 -0.33483,-0.272978 c -2.6854,-2.189347 -7.25388,-2.142815 -9.98009,0.101651 -1.09195,0.898992 -1.46508,0.633857 -0.41149,-0.292384 2.7512,-2.418632 7.15144,-2.55706 10.49647,-0.33021 0.34506,0.229712 0.41962,0.24537 0.35516,0.07458 -0.0449,-0.118892 -0.0436,-0.313586 0.003,-0.432653 0.11878,-0.304538 0.4284,-0.024 0.52559,0.47623 0.0412,0.211913 0.11374,0.543923 0.16127,0.737799 l 0.0864,0.352502 z m 0.1525,-34.626159 c -0.0325,0.156113 -0.2426,0.457654 -0.4668,0.670093 l -0.40763,0.386253 -4.36075,-0.024 -4.36075,-0.024 -0.43738,-0.442164 -0.43739,-0.442165 0.0139,-9.448299 c 0.0156,-10.56489161 -0.002,-10.35566751 0.89771,-10.77648571 0.65265,-0.30531239 8.22126,-0.27416099 8.86672,0.036494 0.86695,0.4172558 0.82529,-0.1279322 0.78665,10.29609981 -0.0193,5.2163879 -0.0618,9.6120699 -0.0943,9.7681819 z m -0.63299,-19.41621591 -0.29079,-0.3129693 -4.17189,-0.022964 c -4.09823,-0.022559 -4.17742,-0.017829 -4.48486,0.267829 l -0.31297,0.290793 -0.0528,9.59532661 c -0.0518,9.4159556 -0.0478,9.6003836 0.21476,9.8658646 0.25635,0.259189 0.44392,0.271328 4.47161,0.2894 4.30268,0.01931 4.51323,-0.0034 4.71262,-0.507911 0.0438,-0.110748 0.10783,-4.465344 0.14236,-9.67688 l 0.0628,-9.47551951 z M 165.92758,18.986358 c -0.44843,-0.0025 -0.80684,-0.06423 -0.80643,-0.138972 4.1e-4,-0.07474 0.35948,-0.132553 0.80791,-0.130085 0.44843,0.0025 0.80684,0.06423 0.80643,0.138972 -4.1e-4,0.07474 -0.35949,0.132553 -0.80791,0.130085 z m 0.23227,-17.7570012 c -0.294,0.2907804 -0.61068,0.2316828 -0.81318,-0.1517529 -0.19017,-0.36008203 0.31242,-0.85716851 0.67039,-0.66304821 0.38118,0.20671019 0.43679,0.52402067 0.14279,0.81480111 z m -1.57756,17.7495962 c -0.074,-4.07e-4 -0.13419,-0.06128 -0.13378,-0.135269 4e-4,-0.07399 0.0613,-0.134195 0.13526,-0.133788 0.074,4.07e-4 0.1342,0.06128 0.13379,0.135269 -4.1e-4,0.07399 -0.0613,0.134195 -0.13527,0.133788 z m 0.12006,7.708972 c -0.70206,0.67804 -1.22394,0.605987 -0.59927,-0.08274 0.23225,-0.25606 0.22505,-0.25929 -0.36905,-0.165438 -2.48745,0.392949 -4.83569,2.126252 -5.93344,4.379637 -0.48358,0.992659 -0.66786,1.646123 -0.90764,3.218506 -0.0484,0.317546 -0.14928,0.503675 -0.27256,0.502996 -0.46804,-0.0026 -0.032,-2.385611 0.7079,-3.868457 1.17933,-2.363632 3.71571,-4.313248 6.03803,-4.641203 0.70363,-0.09937 0.7523,-0.14819 0.40583,-0.407125 -0.17813,-0.133128 -0.1968,-0.213043 -0.0777,-0.332607 0.17495,-0.17562 1.52262,0.497782 1.52143,0.760227 -3.5e-4,0.07747 -0.23145,0.363763 -0.51354,0.636202 z m -5.72609,-10.968609 c -0.18743,-10e-4 -0.91636,-0.849663 -1.41325,-1.64533 -1.65627,-2.652172 -1.64346,-6.1649708 0.0325,-8.9138354 0.55934,-0.917411 0.55115,-0.8806563 0.19668,-0.8826075 -0.83689,-0.00461 0.38672,-0.7800468 1.25868,-0.7976711 0.0555,-0.00112 0.0987,0.3914558 0.0961,0.8723947 -0.004,0.6875893 -0.0479,0.8741969 -0.20661,0.8733235 -0.12556,-6.912e-4 -0.20109,-0.1281653 -0.19994,-0.3374317 0.004,-0.6477317 -0.2989,-0.3402652 -1.01967,1.0365337 -1.45142,2.7724887 -1.09742,6.4065708 0.85706,8.7984608 0.4784,0.585455 0.64321,0.997511 0.39844,0.996163 z"
     id="path12"
     clip-path="url(#clipPath40)"
     transform="matrix(1,0,0,-1,-153.18752,126.66971)" /></svg>
