<?xml version="1.0" encoding="UTF-8" standalone="no"?>
<!-- Created with Inkscape (http://www.inkscape.org/) -->

<svg
   width="47.230358mm"
   height="11.475148mm"
   viewBox="0 0 47.230364 11.475148"
   version="1.1"
   id="svg1"
   xml:space="preserve"
   xmlns="http://www.w3.org/2000/svg"
   xmlns:svg="http://www.w3.org/2000/svg"><defs
     id="defs1" /><path
     d="m 4.7171414,-2.3157009e-7 q 0.1834462,0 0.4938898,0 Q 5.2674748,0.01411 5.2956979,0.0423331 q 0.3668897,0.12699973 0.7761102,0.36688844 0,0.098778 0,0.254 0.028223,0.14111102 0.381,0.28222204 0,0.0564444 -0.042333,0.16933332 -0.1411103,0.098778 -0.381,0.2398887 0.1834435,0.2539998 0.2116666,0.3527775 0.028223,0.1128889 -0.042333,0.4374443 0.1128898,0.056444 0.3245564,0.2116664 0,0 0,0.1128887 -0.042333,0.01411 -0.1552231,0.042333 0.056444,0.2963333 0.1975565,0.7902217 0.014102,0.01411 0.254,0.2116667 0,0.1693331 0.084667,0.4515551 L 7.186585,4.1204417 q -0.042333,0.1128887 -0.084667,0.2116664 -0.127,0.042333 -0.2398871,0.084667 0,0.042333 0,0.127 0.042333,0.098778 0.2398871,0.2398887 H 7.144251 Q 7.130149,4.8965525 7.101918,5.1646635 l 0.084667,0.070556 q -0.014102,0.1128887 0,0.296333 0.098777,0.1552221 0.254,0.4092221 0.2822231,-0.028222 0.5785564,0.084666 v 0.084667 q -0.1693333,0.084666 -0.3386667,0.1975551 0.1834436,0.141111 0.2116667,0.2539997 0.02822,0.2116664 0.042333,0.409222 l 0.084667,0.1269998 q 0.084667,0.2963333 -0.042333,0.663222 0.056444,0.028222 0.127,0.1269997 0,0.1552224 0,0.1552224 -0.056446,0.028222 -0.127,0.084666 -0.042333,0.3527776 0.2116666,0.7478884 0.056444,0.084667 0.2398872,0.1693333 0.1834462,0.070556 0.2116666,0.127 0.042333,0.056444 0.042333,0.1975554 0.014102,0.127 0.042333,0.2116664 l 0.084667,0.042333 0.042333,0.112889 q 0.084667,0.056444 0.2681102,0.056444 0.1834462,-0.01411 0.2681129,0.028222 0.042333,0.098778 0.1552204,0.2540002 0.070557,0 0.2116667,0.04233 0,0.04233 0.042333,0.112888 0.070557,0.01411 0.211667,0.04233 v 0.08467 h 0.07056 q 0.0141,0.536222 0,0.578555 -0.05644,0.05645 -0.155223,0.169334 -0.1552204,0.169333 -0.2681102,0.169333 -0.2963333,-0.01411 -0.3104436,0 -0.1411128,0.08467 -0.4233333,0.197555 -0.070556,0.01411 -0.9031102,-0.08467 -0.1411129,-0.01411 -0.3386667,0.04233 -0.1834462,0.05644 -0.3245564,0.04233 -0.1552205,-0.05644 -0.4092205,-0.127 -0.1693333,0.02822 -0.4938897,0 -0.098777,-0.05644 -0.254,-0.112888 -0.042333,0 -0.1834436,0.05644 -0.127,0.05644 -0.1411128,0.05644 -0.056444,-0.08467 -0.2116641,-0.239888 -0.056446,-0.01411 -0.1693333,-0.04233 0.070554,-0.239888 0,-0.451555 -0.1128898,-0.01411 -0.3245564,0 -0.084667,0.05645 -0.2116667,0.127 -0.084667,0.01411 -0.1975564,-0.01411 -0.098777,-0.04233 -0.1693334,-0.07056 -0.042333,0.01411 -0.2116666,0.04233 0.070556,0.225778 0.070556,0.239889 0,0.07056 -0.2257769,0.169333 -0.084667,0.05645 -0.2116666,0.127 -0.1834436,0 -0.5785565,0.04233 -0.4938871,0.07055 -0.4515538,0.07055 -0.5785564,-0.02822 -0.4938897,-0.02822 -0.014102,0 -0.127,0.02822 -0.098777,0.04233 -0.127,0.04233 -0.1128871,-0.05645 -0.3245538,-0.112889 -0.1975564,0.02822 -0.5362231,0.04233 -0.1975538,-0.04233 -0.45155377,-0.08467 -0.14111288,0.01411 -0.36688977,0 -0.0141023,-0.01411 -0.21166666,-0.155222 -0.19755644,-0.155222 -0.21166667,-0.183444 -0.07055643,-0.08467 -0.11288977,-0.381 -0.04233333,-0.324555 0.0141023,-0.479777 0.07055379,-0.1552231 0.43744355,-0.2116674 0.0282231,0 0.52211023,-0.028222 0.26811286,-0.028222 0.42333326,-0.127 l 0.254,-0.4233331 Q 1.6409134,9.1580605 1.6268034,9.0451721 1.6409054,8.9746171 1.7820265,8.8899501 1.9231367,8.8052831 1.9513598,8.7347278 1.9936928,8.6641728 1.9654618,8.5371724 1.9231288,8.4101724 1.9513598,8.339617 2.2476932,7.9727283 2.2759136,7.9727283 h 0.042333 q 0.014102,-0.042333 0,-0.5079997 -0.014102,-0.01411 -0.056444,-0.028222 -0.028223,-0.01411 -0.028223,-0.042333 0.014102,-0.070556 0.1411129,-0.1552223 0.127,-0.098778 0.1552204,-0.141111 -0.014102,-0.056444 0,-0.1269998 0.056446,0 0.127,-0.042333 0.028223,-0.1834443 -0.084667,-0.268111 -0.084667,-0.042333 -0.1693334,-0.098778 0.014102,-0.056444 0,-0.127 0.09878,-0.042333 0.2116667,-0.1269997 0.056446,-0.070556 0.09878,-0.2822223 0.056444,-0.2116664 0.1128872,-0.2681108 0.056444,-0.056444 0.1552231,-0.141111 0.1834435,-0.2822221 0.2116666,-0.4938887 -0.042333,-0.127 -0.042333,-0.4233331 0,0 0.056444,-0.155222 0.042333,-0.112889 0.028223,-0.2116667 -0.014102,0 -0.056446,-0.042333 -0.042333,-0.056444 -0.02822,-0.1269998 0.056444,-0.028222 0.1128871,-0.084667 0.014102,-0.01411 0.042333,-0.1975554 Q 3.2636873,3.7253315 3.2636873,3.3866651 3.3624669,3.3161097 3.475354,3.1749987 3.4471335,3.1326654 3.4330206,3.0056654 3.5741335,2.9209987 3.7716873,2.7234433 3.8281335,2.55411 3.7857896,2.2577769 3.7434563,1.9332215 3.7716873,1.8203328 q 0.042333,-0.084667 0.1128898,-0.2116666 0.014102,0.028222 0.028223,-0.028222 0.014102,-0.070555 0.014102,-0.098778 Q 3.9128002,1.4111108 3.7716794,1.3123331 3.6305691,1.1994441 3.6305691,1.1288887 q 0,-0.1269999 0.254,-0.31044432 0.084667,0.0141102 0.2116667,-0.0846667 0,-0.0987777 0.042333,-0.32455537 z M 5.1686979,4.1204417 q -0.1128898,0.042333 -0.3668898,0.2963331 0.028223,0.042333 0.028223,0.127 0.056444,0.01411 0.1693333,0.084667 -0.1411102,0.042333 -0.3245564,0.1975554 -0.02822,0.070555 0,0.141111 0.042333,0.070555 0.042333,0.1128887 0,0.056444 -0.1693333,0.1552224 -0.014102,0.155222 -0.084667,0.423333 -0.2963306,-0.042333 -0.2398871,-0.042333 0,0.1693331 0,0.155222 0,0 0.2822205,0 0,-0.042333 0.084667,-0.1128887 0.2963334,0.4374441 0.2398898,0.6208885 -0.028223,0.01411 -0.1128898,0.070555 -0.02822,0.070556 0,0.127 0.014102,0.042333 0.084667,0.042333 0.084667,-0.056444 0.1975564,-0.127 0,0 0.4092231,0 Q 5.4791416,6.222996 5.577921,5.8984406 5.493254,5.8137736 5.2956979,5.6585519 q -0.084667,-0.01411 -0.254,-0.084667 0,-0.056444 -0.042333,-0.127 0.2116667,0.070556 0.3386667,0.070556 0.2116667,0 0.2116667,-0.2116667 0,-0.084667 -0.070557,-0.3527774 -0.070554,-0.268111 -0.070554,-0.3668887 -0.1552231,-0.098778 -0.1552231,-0.084667 0,-0.01411 0.042333,-0.3386664 z M 4.3784748,8.4666613 q -0.211664,0.028222 -0.2822205,0.4092218 -0.1693333,0 -0.1693333,0 -0.070556,0 -0.1975564,0 0,0.098778 0,0.282222 -0.070554,0.042333 -0.127,0.084667 0.028223,0.042333 0.042333,0.127 0.1693333,0.042333 0.042333,0.042333 0.5503333,-0.042333 0.7761102,0.2539998 0,0.070556 0.1411129,0.1834443 0.098777,-0.01411 0.3104436,0.01411 0.042333,0.070556 0.127,0.1693338 0.084667,0.01411 0.2116666,0.04233 L 5.4085876,9.9483261 q 0,-0.056444 0.042333,-0.1693331 h 0.084667 q 0.042333,-0.01411 0.2822205,-0.2398887 0.254,-0.2398889 0.2963333,-0.2963333 -0.042333,-0.098778 -0.084667,-0.1975554 -0.042333,-0.1128887 -0.1552231,-0.127 -0.084667,0.01411 -0.2116641,0 L 5.577921,8.6218826 Q 5.5073645,8.5654382 5.0275876,8.5089939 4.5478081,8.4384382 4.3784748,8.4666605 Z M 12.149287,0.09877746 q 0.11289,-0.02822231 0.296334,-0.02822231 0.818443,0 1.016,0.18344435 0.02822,0.127 0.07055,0.29633306 0.11289,0.22577769 0.536224,0.45155544 0.0141,0.070556 0,0.1975553 0,0.01411 -0.04233,0.028222 -0.04233,0.01411 -0.04233,0.056444 0,0.01411 0.07056,0.1693333 0.07055,0.1552221 0.05644,0.2822221 -0.07056,0.098778 -0.169333,0.282222 -0.05644,0.3104441 0,0.5362218 0.08467,0.070556 0.169333,0.1975556 0,0.056444 -0.04233,0.098778 -0.04233,0.028222 -0.04233,0.028222 -0.02822,0.084667 0.0141,0.1552223 0.04233,0.070555 0.07056,0.1269997 0.465667,0.042333 0.53622,0 0,-0.070555 0.04233,-0.155222 0.127,-0.127 0.36689,-0.1693334 0.366889,-0.070555 0.77611,0.042333 0.09878,0.056444 0.23989,0.127 0.05644,-0.042333 0.211666,-0.084667 0.0141,0 0.437444,0.112889 0.423333,0.1128887 0.465666,0.1269997 0.02822,0.070556 0.112888,0.1693333 0.02822,0.028222 0.08467,0.028222 v 0 q 0.08467,0 0.183446,0.098778 0.127,0.1411111 0.141111,0.1552221 0.183443,0.084667 0.451556,0.296333 0.07055,0.084667 0.112887,0.3104444 0.05645,0.2257777 0.11289,0.2963331 0.05644,0.056444 0.14111,0.1693333 0,0.056444 0,0.127 0.05645,-0.01411 0.127,0.028222 0.0141,0.028222 0.0141,0.112889 0,0.084666 0.02822,0.098778 0.05644,0 0.127,0 0.127,0.028222 0.155223,0.141111 0.04233,0.2539998 0.04233,0.2681108 l 0.127,0.042333 q -0.0141,-0.056444 -0.04233,0.3245554 h -0.04233 q 0.07055,0.127 0.08467,0.4515554 -0.05645,0.056444 -0.127,0.127 -0.0141,0.155222 0.07055,0.2539997 0.08467,0.084667 0.09878,0.1128887 -0.02822,0.127 -0.04233,0.4515554 0.02822,0.7619994 0,0.9031105 -0.07056,0.084667 -0.169333,0.2398889 0,0.1552221 -0.08467,0.4515551 -0.09878,0.056444 -0.23989,0.1975554 -0.07055,0.141111 -0.08467,0.6208887 -0.02822,0.4938894 0.04233,0.5785554 0.05644,-0.02822 0.169333,-0.04233 0.02822,-0.2540003 0.05644,-0.3951114 0.07056,-0.254 0.183446,-0.3104443 -0.02822,-0.01411 -0.04233,-0.084667 0.07055,0.028222 0.254,0.042333 -0.0141,0.127 0,0.127 0.04233,0.01411 0.15522,0.042333 0,0.070555 0,0.282222 -0.02822,0.01411 -0.08467,0.042333 0.02822,0.070555 0,0.2963327 l -0.07055,0.02822 q 0,0.05644 0,0.126999 -0.05645,0 -0.127,0.04233 -0.0141,0.07055 -0.08467,0.169333 -0.08467,0.04233 -0.254,0.07055 -0.08467,0 -0.197556,0.169334 -0.282221,0.01411 -0.366888,0 -0.05645,0.09878 -0.112889,0.211666 -0.155223,0.01411 -0.296334,0.02822 -0.183443,-0.04233 -0.239889,-0.02822 -0.183444,0.02822 -0.493888,0.07056 v 0.08467 q -0.08467,0.07056 -0.254,0.169333 -0.211666,0.07056 -0.874889,0.07056 -0.649111,0 -0.874887,-0.07056 0,0 -0.04233,-0.126999 -0.127,0 -0.409223,-0.04233 -0.0141,0 -0.296333,-0.155222 -0.183444,-0.09878 -0.366887,-0.08467 -0.197557,0.05644 -0.409223,0.112888 v 0.08467 q -0.112888,0.324555 -0.606777,0.254 -0.04233,-0.01411 -0.197557,-0.112889 -0.15522,-0.09878 -0.211664,-0.09878 h -0.04233 q -0.04233,-0.07056 -0.07056,-0.437444 -0.02822,-0.423333 -0.07056,-0.507999 -0.04233,-0.08467 -0.112887,-0.3245557 0,-0.01411 0.0141,-0.1411111 0.02822,-0.127 0.02822,-0.1834443 0.04233,-0.01411 0.08467,-0.042333 0.0141,-0.127 -0.05645,-0.3245554 -0.09878,-0.3245554 -0.09878,-0.3245554 -0.08467,-0.070556 -0.04233,-0.084667 0.05644,-0.042333 0.05644,-0.2398887 0,-0.084667 0.0141,-0.127 0.08467,-0.084666 0.169334,-0.2116664 -0.0141,-0.1693333 0,-0.4938887 0.05644,-0.098778 0.127,-0.282222 0,0.01411 -0.04233,-0.1552221 0,0.01411 0.0141,-0.028222 0.02822,-0.042333 0.02822,-0.056444 0.0141,-0.1975554 0,-0.4938885 0,-0.042333 -0.04233,-0.1975556 -0.04233,-0.1693331 -0.04233,-0.2539997 0.05644,-0.1552221 0.127,-0.3668887 0.02822,-0.2398888 -0.08467,-0.5079998 -0.112889,-0.268111 -0.08467,-0.4797774 0.05644,-0.098778 0.127,-0.2398887 0.02822,-0.141111 -0.04233,-0.3668887 -0.05645,-0.2398887 -0.04233,-0.4092221 0,-0.1269997 0.07055,-0.691444 0.05645,-0.4938885 0.05645,-0.7902215 0,-0.2681111 -0.04233,-0.4515554 -0.05645,-0.042333 -0.127,-0.1128887 0,-0.098778 -0.04233,-0.2963334 -0.05645,-0.028222 -0.127,-0.084667 V 1.411108 q -0.09878,-0.070556 -0.804333,-0.127 -0.606777,-0.056444 -0.663223,-0.2398887 -0.0141,-0.0705554 -0.0141,-0.14111105 0,-0.43744409 0.225777,-0.52211075 0.05645,0.0141102 0.155223,0 l 0.08467,-0.0846667 q 0.127,-0.0141102 0.296334,0.0423333 0.183443,0.0564444 0.239887,0.0423333 0.183446,-0.14111102 0.409223,-0.28222204 z M 15.916951,6.110107 q -0.14111,0.098778 -0.366887,0.2116667 0,0 -0.62089,0 -0.0141,0.127 -0.08467,0.282222 -0.05644,0 -0.155223,0.042333 0.07056,0.155222 0.239889,0.4515551 0.02822,0.01411 0.08467,0.042333 -0.0141,0.056445 0,0.127 0.11289,0.01411 0.23989,0.042333 -0.09878,0.028222 -0.36689,0.070555 0.04233,0.084667 0.04233,0.084667 -0.09878,0.070556 -0.09878,0.112889 0,-0.056445 0.09878,0.169333 0.05644,-0.028222 0.127,-0.070555 0.04233,-0.01411 0.324557,0.1128888 -0.07056,0.042333 -0.02822,0.1975553 0.02822,0.084667 0.07056,0.1693334 0.05644,-0.01411 0.127,-0.028222 l 0.07055,-0.042333 q -0.0141,-0.2822223 0,-0.4092221 v -0.084667 q 0.26811,-0.141111 0.26811,-0.2398887 0,-0.056444 -0.07055,-0.056444 -0.112889,0 -0.26811,0.1269998 -0.0141,-0.028222 0,-0.1128888 -0.08467,0 -0.254,-0.042333 -0.05645,-0.084667 -0.197556,-0.1693333 0,0.028222 -0.08467,0.042333 l -0.04233,-0.084667 q 0.05644,0 0.169333,-0.042333 0,-0.056445 0.02822,-0.127 0.05644,0.01411 0.127,0 l 0.04233,-0.070556 q 0.09878,-0.01411 0.366887,-0.042333 0.04233,-0.2257774 0.127,-0.282222 0.08467,-0.056444 0.409223,-0.1269998 -0.0141,-0.028222 -0.08467,-0.1693333 z m 6.952361,-3.2032201 q 0.0141,-0.01411 0.790223,0.028222 0.141111,-0.01411 0.395111,-0.028222 0.155223,0.070555 0.39511,0.155222 0.09878,-0.070555 0.352779,-0.127 0.155221,0.01411 0.310444,0.1834444 0.155223,0.1693333 0.169333,0.1834443 0.08467,0.042333 0.211667,0.042333 0.183443,0.01411 0.26811,0.028222 0.04233,0.056444 0.11289,0.127 0.04233,-0.01411 0.112887,0 0.07056,0.042333 0.11289,0.1975553 0.05644,0.1411111 0.09878,0.2116664 0.05645,0.056444 0.268113,0.127 0.211666,0.056444 0.28222,0.1411111 0.07056,0.070555 0.127,0.296333 0.07056,0.2116667 0.11289,0.2822221 0.112887,0.098778 0.26811,0.282222 -0.02822,0.056445 -0.04233,0.127 0.197556,0.1834444 0.239889,0.3527777 0,0.084666 0,0.2398887 h 0.08467 q -0.02822,0.028222 -0.04233,0.070555 0.0141,0.01411 0.08467,0.127 0.09878,0.6914441 0,0.9454438 -0.07056,0.056444 -0.127,0.112889 -0.0141,0.1269997 0.02822,0.3104441 0.05645,0.1834443 0.05645,0.2116666 -0.04233,0.1552221 -0.08467,0.3951108 0.07055,0.098778 0.04233,0.1552223 -0.11289,0.028222 -0.23989,0.1975554 -0.0141,0.141111 0.09878,0.3809997 0.11289,0.2398887 0.09878,0.3809997 0,0.098778 -0.112889,0.2257777 -0.141111,0.1834444 -0.155223,0.1975554 -0.04233,0.1693333 -0.197554,0.4797774 -0.11289,0.056445 -0.324557,0.1975562 -0.0141,0.01411 -0.04233,0.127 h -0.07055 q -0.0141,0.04233 -0.04233,0.155222 -0.05645,0.01411 -0.155223,0.07055 -0.0141,0.05645 -0.04233,0.127 -0.09878,0.01411 -0.282223,0.07056 -0.02822,0.05644 -0.07055,0.127 -0.155224,-0.01411 -0.437447,0 -0.112887,0.05644 -0.366887,0.155222 l -0.02822,0.08467 q -0.127,0.01411 -0.28222,0.04233 -0.07056,0.04233 -0.197557,0.112888 -0.07056,0 -0.197556,0 -1.185331,0.169334 -1.312331,0.155223 -0.225779,-0.09878 -0.635,-0.239889 -0.09878,0.01411 -0.26811,0 -0.05645,-0.07056 -0.155223,-0.155222 -0.211667,-0.02822 -0.564444,-0.197556 -0.07056,-0.112888 -0.197556,-0.282222 -0.169334,-0.05644 -0.437444,-0.225777 -0.02822,-0.141111 -0.11289,-0.3951116 -0.197553,-0.3245553 -0.437443,-1.0018884 0.04233,-0.141111 0.08467,-0.4656664 -0.07056,-0.141111 -0.169334,-0.3668884 0.02822,-0.1552224 0.04233,-0.4656664 -0.04233,-0.1411111 -0.07056,-0.2822221 0.0141,-0.070556 0.02822,-0.112889 -0.0141,-0.141111 -0.02822,-0.1975553 0.04233,-0.2539998 0.02822,-0.2822221 0,-0.056444 -0.09878,-0.1834443 -0.09878,-0.127 -0.09878,-0.2539998 0.0141,-0.268111 0.197556,-0.550333 l 0.08467,-0.042333 q 0.02822,-0.098778 0,-0.282222 V 5.2775519 q 0.0423,-0.1834441 0.155195,-0.5221107 0.155221,-0.2822221 0.437444,-0.4233331 v -0.042333 h 0.08467 q 0.05644,-0.1975554 0.239887,-0.5644441 0.05645,-0.01411 0.197557,-0.070555 0.05644,-0.127 0.225777,-0.3245554 0.08467,0 0.197556,-0.028222 0.09878,-0.098778 0.282223,-0.2398887 0.296331,-0.127 0.719664,-0.155222 z m 1.38289,1.7356656 q -0.02822,0.141111 -0.127,0.4797774 -0.02822,0.01411 -0.155223,0.042333 -0.11289,-0.01411 -0.409221,-0.084667 -0.282223,-0.070555 -0.465666,-0.070555 -0.11289,0 -0.22578,0.028222 -0.14111,0.098778 -0.39511,0.2398887 -0.07056,-0.01411 -0.169333,0 v 0.084667 q -0.09878,0.127 -0.352777,0.3527777 -0.09878,0.01411 -0.197557,0.042333 -0.04233,0.056444 -0.0141,0.1975554 0.0141,0.141111 0.0141,0.155222 -0.07055,0.028222 -0.14111,0.098778 -0.05644,0.070556 -0.05644,0.2822221 0,0.2257776 0,0.254 -0.05645,0.042333 -0.155224,0.155222 0.05644,0.056444 0.197557,0.155222 -0.22578,0.6632221 -0.155223,0.8748885 0.0141,0.070556 0.169333,0.141111 0.155223,0.070556 0.183444,0.098778 0.112889,0.254 0.282223,0.5503331 0.08467,0.056444 0.324554,0.042333 0.239889,-0.028222 0.338666,0 0.197557,0.155222 0.282223,0.2398887 -0.0141,0.056444 0,0.112889 0.07056,0.01411 0.23989,0.042333 0.282221,0.127 0.790221,0.2822221 0.08467,-0.028222 0.282223,-0.042333 0.112887,0.056444 0.310443,0.1552221 0.07056,-0.112889 0.23989,-0.3104444 0.169333,-0.070555 0.39511,-0.1975554 0,0 0,-0.127 0.07055,-0.01411 0.07055,-0.098778 0,-0.028222 -0.02822,-0.169333 -0.02822,-0.127 0,-0.2116667 0.127,-0.070555 0.26811,-0.2257777 0,0 0,-0.3951107 0.05644,-0.01411 0.127,-0.084667 0,-0.028222 -0.04233,-0.084667 -0.05644,0.01411 -0.155223,0 -0.112887,-0.028222 -0.15522,-0.141111 -0.02822,-0.127 -0.04233,-0.2539997 0.0141,0 0.02822,-0.070556 0.08467,0 0.282223,-0.042333 0.0141,-0.2116664 -0.04233,-0.5926661 -0.127,-0.098778 -0.26811,-0.1975557 -0.04233,-0.1269997 0.02822,-0.2681107 0.08467,-0.141111 0.08467,-0.1693333 0,-0.028222 -0.07055,-0.2681111 -0.05645,-0.2539997 -0.08467,-0.282222 -0.08467,-0.028222 -0.197556,-0.084667 -0.02822,-0.098778 -0.127,-0.2398887 -0.127,-0.01411 -0.423334,-0.1128887 -0.0141,-0.056444 -0.04233,-0.127 -0.08467,-0.042333 -0.239887,-0.155222 z m 4.539369,-1.6792213 q 0.14111,-0.01411 0.338664,0.056444 0.211667,0.070556 0.268113,0.070556 0.0141,0 0.08467,-0.042333 0.07055,-0.042333 0.07055,-0.042333 0.08467,-0.01411 0.197557,0.042333 0.112889,0.042333 0.127,0.042333 0.0141,0 0.09878,-0.042333 0.09878,-0.042333 0.09878,-0.042333 0.155221,-0.028222 0.437444,0.042333 0.296333,0.070555 0.366887,0.1128887 0.155223,0.098778 0.211666,0.282222 -0.0141,0.084667 0,0.2116667 0.04233,0.028222 0.11289,0.070555 0.155223,0.2398887 0.169334,0.3668887 0,0.028222 -0.04233,0.056444 -0.04233,0.01411 -0.04233,0.028222 0.02822,0.155222 0,0.4797774 -0.05644,0.056444 -0.127,0.112889 0.0141,0.2398887 0,0.6914438 -0.02822,0.112889 -0.07056,0.282222 0.07056,0.056445 0.07056,0.070556 l -0.07056,0.042333 q 0,0.1693331 -0.127,0.409222 -0.04233,0.028222 0.04233,0.1128887 0.04233,0.1411111 0.141113,0.1693334 0.09878,0.01411 0.225777,0.042333 -0.0141,0.1269997 -0.08467,0.3951108 -0.07056,0.070555 -0.155223,0.2398887 -0.02822,0.1834443 0.02822,0.3668887 0.08467,0.042333 0.169333,0.1128887 -0.04233,0.2257777 -0.04233,0.2398887 0.02822,0.084667 0.08467,0.2116667 -0.02822,0.01411 -0.211667,0.1128887 -0.05644,0.141111 -0.02822,0.3668887 0.05645,0.070556 0.11289,0.1552223 -0.04233,0.155222 0,0.4797774 0.04233,0.1128887 0.225776,0.1693331 0.183447,0.042333 0.211667,0.070556 0.04233,0.1128887 0.127,0.2539998 0,0 0.282223,0 0.09878,0.042333 0.239887,-0.042333 0.05645,-0.1128887 0.155223,-0.2398887 0.0141,-0.01411 0.36689,-0.1269997 -0.04233,-0.070556 -0.04233,-0.2398887 0.02822,0 0.08467,-0.084667 0.254,-0.042333 0.719664,-0.1552223 0.02822,-0.2963331 0,-0.5221108 0.07056,0 0.197556,-0.01411 0.14111,-0.028222 0.211667,-0.028222 0.127,-0.5079997 0.437443,-0.6773328 v -0.084667 q 0.07056,0 0.155223,-0.042333 0,-0.056444 0,-0.1128887 0.07056,-0.01411 0.169334,-0.042333 0,-0.070556 0.04233,-0.1693334 h 0.07056 q 0,0 0,-0.1975553 -0.0141,0 -0.04233,0.084667 -0.254,-0.098778 -0.23989,-0.2398887 0.04233,-0.056445 0.08467,-0.127 0.197556,0 0.197556,0 -0.04233,-0.141111 -0.07056,-0.5644441 0.02822,-0.01411 0.07056,-0.042333 0,0 0,-0.3104444 -0.0141,0 -0.04233,0.070556 -0.127,0.01411 -0.479779,0.042333 v -0.042333 q -0.0141,-0.084667 -0.04233,-0.1975554 0.02822,0 0.04233,-0.01411 0.02822,-0.01411 0.04233,-0.028222 0.08467,0.056444 0.197556,0.1269998 0.23989,0.01411 0.23989,-0.2116664 0,-0.042333 -0.02822,-0.254 -0.02822,-0.1693331 0,-0.2681108 0.02822,-0.028222 0.07056,-0.112889 -0.141112,-0.01411 -0.522112,-0.084666 -0.09878,-0.084667 -0.282221,-0.1975556 -0.437446,-0.141111 -0.917223,0 -0.183444,0.056445 -0.239887,0.042333 -0.04233,-0.042333 -0.127,-0.084667 0.15522,-0.4374441 0,-1.2417769 0.02822,-0.056444 0.08467,-0.127 0.112887,-0.070555 0.310443,-0.070555 0.09878,0 0.310444,0.028222 0.225777,0.028222 0.338666,0.028222 0.11289,0 0.197557,-0.028222 0.14111,-0.070555 0.366887,-0.1552221 0.36689,-0.056444 0.606777,0.042333 0.04233,0.056444 0.11289,0.1128888 0.183443,-0.01411 0.52211,0.042333 0.11289,0.056444 0.254,0.2963333 0.09878,0.1693331 0.197556,0.3527774 0.04233,0.056444 0.155223,0.1975554 0,0.141111 -0.04233,0.084667 0.0141,0.070556 -0.04233,0.042333 0,0.01411 -0.04233,0.1128887 -0.02822,0.084667 -0.02822,0.127 0,0.01411 0.11289,0.2398887 -0.02822,0.1411111 -0.04233,0.3951111 l 0.04233,0.084666 0.08467,0.127 q -0.02822,0.2963333 0.04233,0.6349997 -0.0141,0.1128887 -0.04233,0.282222 -0.11289,0.5079998 -0.08467,0.6067774 0.05644,0.056444 0.127,0.1552221 -0.04233,0.2116666 -0.08467,0.5644441 0.02822,0.3527777 0.169334,0.6067774 0.04233,0.028222 0.112887,0.070556 0,0.056444 0,0.1269998 -0.09878,0.070556 -0.197554,0.1975556 -0.04233,0.2116664 0.08467,0.2398887 l -0.127,0.2822221 q 0.07055,0.1128887 0.39511,0.4092217 -0.02822,0.1552223 -0.02822,0.1552223 0.26811,0.028222 0.691443,0.1411111 0.423334,0.1128887 0.49389,0.2116664 0.08467,0.084667 0.14111,0.2963333 0.07056,0.211667 0.155223,0.282222 0.0141,0.01411 -0.08467,0.112889 0,0.112889 -0.07056,0.282222 -0.09878,0.08467 -0.366887,0.127 -0.197556,0.04233 -0.409223,0.07056 -0.49389,0.127 -1.397,0.127 -0.338667,0 -0.451554,-0.04233 -0.05645,-0.09878 -0.197556,-0.239888 -0.169333,-0.02822 -0.52211,-0.155223 -0.08467,-0.141111 -0.324557,-0.282222 -0.08467,-0.01411 -0.310443,0.155222 -0.282223,0.239889 -0.282223,0.239889 v 0.08467 q -0.169334,-0.01411 -0.493888,0.04233 -0.08467,0.08467 -0.239889,0.197556 -0.08467,-0.04233 -0.239887,-0.08467 -0.22578,0.09878 -0.592667,0.211667 -0.211667,0.01411 -0.381,-0.07056 -0.169333,-0.07055 -0.310444,-0.141111 -0.112889,0 -0.324556,-0.07056 -0.0141,-0.07056 -0.07056,-0.169334 -0.08467,-0.01411 -0.239887,-0.08467 -0.07056,-0.112889 -0.282223,-0.268111 -0.127,0.01411 -0.366887,0 -0.155223,-0.05645 -0.183446,-0.352778 -0.02822,-0.2540001 -0.05644,-0.493889 -0.05644,-0.056444 -0.127,-0.1269998 -0.197556,-0.4515553 -0.197556,-0.7337774 0,-0.141111 0.04233,-0.268111 l 0.08467,-0.042333 q 0.05645,-0.1269998 0.11289,-0.3668885 -0.04233,-0.6349997 -0.08467,-0.6349997 v -0.08466 q 0,-0.070555 0.05644,-0.141111 0.07056,-0.084667 0.07056,-0.098778 -0.02822,-0.098778 -0.04233,-0.3668887 0.112889,-0.1834443 0.239889,-0.4374441 0.02822,-0.127 -0.08467,-0.268111 -0.09878,-0.141111 -0.11289,-0.1693331 0.0141,-0.1128889 0,-0.3245553 -0.07056,-0.084667 -0.155223,-0.2398887 0.05645,-0.2822223 0,-0.7619998 h -0.08467 q -0.08467,-0.070555 -0.239887,-0.169333 -0.254,0.042333 -0.691443,0.042333 -0.07056,-0.01411 -0.23989,-0.239889 -0.02822,-0.01411 -0.11289,-0.084666 0.08467,-0.282222 0.07056,-0.3527777 -0.04233,-0.070555 -0.08467,-0.127 -0.08467,-0.1128887 -0.07056,-0.2398887 0.0141,-0.169333 0.155223,-0.3386664 0.155224,-0.1693333 0.324557,-0.1834443 z M 42.093919,0.18344412 q 0.26811,-0.0282223 0.40922,0.15522204 0.05645,0.0705554 0.183446,0.36688871 -0.0141,0.0564444 0.04233,0.15522205 0.112888,0.0282223 0.352777,0.0846667 -0.0141,0.0705554 -0.07056,0.19755538 -0.05644,0 -0.127,0.042333 0.02822,0.01411 -0.04233,0.1128887 0.141112,0.098778 0.197556,0.127 -0.02822,0.268111 0,0.3527777 l 0.127,0.042333 q 0.127,0.098778 0.07056,0.5926662 -0.155223,-0.028222 -0.508,-0.1128887 0,0.169333 0,0.155222 0.423334,0.042333 0.508,0.1975554 0,0.042333 0.04233,0.127 0.112887,0.028222 0.324554,0.112889 0.02822,0.056444 0.07056,0.1269997 0.09878,-0.056444 0.366887,-0.084667 0.05645,0.056445 0.11289,0.112889 0,0 0.437443,0 0.0141,-0.084667 0.04233,-0.268111 0.07056,-0.01411 0.197556,0 0.0141,0.042333 0.04233,0.112889 l 0.239887,0.155222 q 0.183446,-0.01411 0.522113,0 0.28222,0.056444 0.338666,0.1975554 -0.0141,0.028222 0.0141,0.127 0.127,0.084667 0.282223,0.2398887 v 0.084667 q 0.0141,0.01411 0.08466,0.01411 0.07056,0 0.08467,0.1975554 -0.0141,0.127 -0.0141,0.2539999 -0.07056,0 -0.197554,0 -0.07056,0.084666 -0.197556,0.2116664 -0.26811,0.1693334 -0.635,0.1975554 -0.211667,0.01411 -0.564444,-0.084666 -0.09878,-0.056445 -0.23989,-0.112889 -0.09878,-0.01411 -0.211666,0.070556 -0.09878,0.070555 -0.14111,0.084667 -0.127,-0.01411 -0.395111,0 -0.183446,0.056444 -0.479779,0.155222 0,0.5644441 -0.08466,0.9595548 l -0.07056,0.112889 q 0,0 0,0.1269997 0.02822,-0.042333 0.04233,0.01411 0,0.028222 -0.0141,0.056444 -0.08467,0.6208885 -0.0141,0.6773328 0.07056,0.042333 0.0141,0.239889 -0.05645,0.084666 -0.112889,0.1975554 0,0.070555 0.04233,0.127 0.04233,0.042333 0.04233,0.042333 -0.04233,0.084667 -0.04233,0.2822221 0.04233,0 0.11289,0.028222 0.0141,0.098778 0.04233,0.3245554 h 0.04233 q -0.02822,0.01411 -0.04233,0.084667 0.05644,0.070555 0.126997,0.1552221 -0.04233,0.098778 -0.07055,0.098778 -0.0141,0 -0.0141,-0.028222 v 0.084666 h 0.04233 q 0.02822,-0.056444 0.07056,-0.1128887 0.02822,0.028222 0.127,0.028222 0.04233,-0.042333 0.11289,-0.112889 0.02822,0.042333 0.05644,0.098778 0.04233,0.042333 0.11289,0.1411111 v -0.084665 q 0.112887,-0.028222 0.352777,-0.070556 0.0141,-0.084667 0.04233,-0.1693334 0.07056,0.028222 0.23989,0 -0.0141,-0.042333 0,-0.1128887 h 0.04233 q 0.254,-0.2116666 0.26811,-0.282222 -0.0141,-0.1128887 -0.04233,-0.3104444 0.05644,-0.141111 0.127,-0.3668887 0.05644,0.01411 0.465667,0 0.310444,0 0.451554,0.098778 0.155223,0.084666 0.268113,0.3951107 0.14111,0.3809998 0.197554,0.4656664 0.07056,0.084667 0.409223,0.2398887 v 0.042333 q 0.04233,-0.01411 0.112887,0 0.127,0.070556 0.127,0.141111 0,0.042333 -0.282221,0.2116667 0.127,0.169333 0.197554,0.282222 0,0.056444 0,0.155222 -0.07055,0.028222 -0.183443,0.098778 -0.09878,0.056444 -0.09878,0.098778 0,0.042333 0.239887,0.1693333 v 0.070555 q -0.14111,0.127 -0.437444,0.395111 0.07056,0.056444 0.169334,0.1693331 0.0141,0.084667 -0.04233,0.2822224 -0.04233,0.141111 -0.08467,0.268111 -0.09878,0.02822 -0.508,0.04233 l -0.282221,0.08467 q -0.04233,-0.02822 -0.197556,-0.04233 -0.169334,0.02822 -0.310444,0.169333 -0.211667,0.197556 -0.254,0.225778 -0.08467,0.05644 -0.23989,0.05644 -0.239887,0.01411 -0.310443,0.02822 -0.127,0.07056 -0.36689,0.155222 -0.197554,0.02822 -0.479777,-0.05644 -0.197554,-0.07056 -0.39511,-0.141111 -0.26811,-0.04233 -0.74789,-0.239889 -0.07055,-0.09878 -0.211667,-0.239888 -0.04233,0 -0.112887,0 -0.0141,-0.07056 -0.04233,-0.155222 -0.09878,-0.07056 -0.23989,-0.197556 -0.04233,-0.09878 -0.04233,-0.6491112 v -0.070556 q 0,-0.01411 -0.197554,-0.4233331 -0.127,-0.268111 -0.127,-0.4374441 0,-0.1975556 0.127,-0.3809997 -0.254,-0.5644443 -0.254,-0.7902218 0,-0.084667 0.02822,-0.141111 0.04233,-0.056445 0.112889,-0.098778 0.04233,-0.070556 0,-0.1975556 v -0.084667 l 0.07056,-0.1128887 q -0.04233,-0.1693333 -0.07056,-0.5644441 0.08467,-0.127 0.197557,-0.3104443 0.0141,-0.098778 0.0141,-0.1975554 0,-0.141111 -0.08467,-0.4938884 -0.08467,-0.3104444 -0.05644,-0.5079998 -0.07056,-0.01411 -0.197557,-0.084667 0.0141,-0.042333 0,-0.1128887 0,-0.01411 -0.239889,-0.3245554 -0.08467,-0.01411 -0.239887,0 0,0 -0.02822,0.1269997 -0.04233,0 -0.169333,0.042333 -0.183443,0.028222 -0.451554,-0.01411 -0.324556,-0.042333 -0.465666,-0.028222 -0.719667,0.042333 -0.74789,0.042333 -0.112887,-0.084667 -0.282221,-0.2116664 -0.0141,-0.1552223 0.04233,-0.6349997 0.04233,-0.2398887 0.28222,-0.282222 0.254,-0.042333 0.508,-0.070555 0.11289,-0.070556 0.282223,-0.1552223 0.141111,-0.042333 0.352777,-0.01411 0.211667,0.042333 0.366887,0.01411 0.08467,-0.056444 0.197557,-0.1269998 0,0 0.52211,0 -0.0141,-0.042333 0,-0.1128889 0.09878,-0.098778 0.23989,-0.2822221 -0.07056,-0.1128887 -0.08467,-0.3527774 0.09878,-0.098778 0.197557,-0.239889 -0.0141,-0.070555 -0.08467,-0.2116664 0.02822,-0.084667 0.04233,-0.3527777 l -0.07056,-0.042333 q 0,-0.43744405 0,-0.43744405 l 0.23989,-0.19755538 q 0.04233,-0.14111102 0.15522,-0.39511101 0.155223,0 0.155223,0 0.04233,-0.0423331 0.127,-0.0846664 z m 1.82033,7.33777308 q 0,0 0.282223,0 0.09878,0.2822221 0.04233,0.5079998 -0.155224,-0.042333 -0.155224,-0.042333 -0.112887,0 -0.169333,0 -0.09878,0 -0.197554,0 0.02822,-0.155222 0.08467,-0.3951107 0.05644,-0.028222 0.112887,-0.070556 z m -0.07055,0.8748885 q 0,0.098778 0,0.155222 0.05644,0 0.04233,-0.084666 -0.0141,-0.098778 -0.04233,-0.070556 z m 3.344331,0.3527777 q 0.04233,0 0.04233,0.01411 -0.0141,0.028222 -0.04233,0.028222 -0.04233,0 -0.04233,-0.028222 0,-0.01411 0.04233,-0.01411 z m -0.155223,0.084666 q 0.02822,0 0.04233,0.01411 -0.0141,0.01411 -0.04233,0.01411 -0.04233,0 -0.04233,-0.01411 0,-0.01411 0.04233,-0.01411 z"
     id="text47"
     style="font-size:53.3333px;line-height:0;font-family:Mom´sTypewriter;-inkscape-font-specification:Mom´sTypewriter;letter-spacing:-0.07px;word-spacing:0px;white-space:pre;fill:#ffffff;stroke-width:0.264583"
     aria-label="About" /></svg>
