<?xml version="1.0" encoding="UTF-8" standalone="no"?>
<!-- Created with Inkscape (http://www.inkscape.org/) -->

<svg
   width="426.58557"
   height="77.097107"
   viewBox="0 0 426.58557 77.097107"
   version="1.1"
   id="svg1"
   xmlns:inkscape="http://www.inkscape.org/namespaces/inkscape"
   xmlns:sodipodi="http://sodipodi.sourceforge.net/DTD/sodipodi-0.dtd"
   xmlns="http://www.w3.org/2000/svg"
   xmlns:svg="http://www.w3.org/2000/svg">
  <sodipodi:namedview
     id="namedview1"
     pagecolor="#505050"
     bordercolor="#eeeeee"
     borderopacity="1"
     inkscape:showpageshadow="0"
     inkscape:pageopacity="0"
     inkscape:pagecheckerboard="0"
     inkscape:deskcolor="#505050"
     inkscape:document-units="px"
     inkscape:zoom="0.38564815"
     inkscape:cx="722.16086"
     inkscape:cy="716.97479"
     inkscape:window-width="1920"
     inkscape:window-height="1051"
     inkscape:window-x="-9"
     inkscape:window-y="-9"
     inkscape:window-maximized="1"
     inkscape:current-layer="layer1">
    <inkscape:page
       x="0"
       y="0"
       width="426.58557"
       height="77.097107"
       id="page2"
       margin="0"
       bleed="0" />
  </sodipodi:namedview>
  <defs
     id="defs1" />
  <g
     inkscape:label="Layer 1"
     inkscape:groupmode="layer"
     id="layer1"
     transform="translate(-767.61987,-359.07504)">
    <path
       d="m 794.62637,359.12222 q 3.39717,-0.37746 5.09575,2.26477 0,0.47183 0.5662,1.13239 1.22675,-0.18863 3.86899,0 0.75493,0.75493 1.98168,1.69859 0.47183,-0.0944 1.41549,0 v -0.5662 q 0.37746,-0.2831 1.41548,-1.13239 -0.2831,-0.84929 -0.2831,-0.84929 0.8493,0 2.26478,-0.2831 -0.2831,-0.18862 0.47183,-0.84929 0.18863,-0.18863 0.2831,-0.56619 0.84929,0 2.26477,0.56619 0,0 1.13239,4.15209 h 0.2831 q -0.0944,0.8493 0,2.26478 0.2831,0.0944 0.56619,0.2831 0.0945,0.56619 0.5662,1.98168 -0.47183,0.37746 -1.41549,1.13239 -0.18863,-0.2831 -0.28309,0.56619 0.56619,0.2831 1.13238,0.84929 -0.0944,0.2831 0,0.84929 -0.56619,0.37747 -1.69858,1.41549 0.37746,1.13239 1.69858,2.73661 0,0.37746 0,0.84929 -0.37746,0.28309 -1.13238,0.84929 0.94365,2.07604 0.84929,2.83097 0,0 -0.2831,0.47183 -0.2831,0.37746 -0.2831,0.66056 0.66056,0.47183 1.41549,1.41548 -0.0944,0.37747 0,1.13239 -0.75493,0.37747 -2.26478,1.32112 v 0.5662 q -0.0944,0.28309 -1.03802,1.03802 -0.84929,0.66056 -1.22676,0.66056 -0.75492,0.0944 -1.41548,-0.47183 -0.5662,-0.66056 -1.03802,-1.22675 -1.13239,-0.18863 -2.54788,-1.03803 0,-0.75492 -0.2831,-2.26477 -0.66056,-0.75493 -1.41548,-1.98168 0,-0.37747 0,-0.84929 -0.66056,-0.37747 -1.41549,-1.41549 0.37747,-0.47183 0.5662,-1.98168 -0.84929,-1.32112 -1.98168,-3.3028 0,-0.47183 -0.2831,-1.69858 -0.37746,-0.37747 -0.84929,-0.84929 0.0944,-0.37747 0,-0.8493 h -0.5662 q -0.28309,-0.47182 -0.75492,-1.13238 -0.84929,-0.5662 -3.5859,-1.60422 -3.0197,-1.13239 -4.05772,-0.94366 -0.8493,0.5662 -2.26478,1.13239 -0.66056,-0.0944 -1.88732,0 -0.28309,0.37746 -0.84929,1.13239 -0.94365,0.37746 -2.83097,1.41548 -0.84929,0.8493 -2.83097,2.26478 h -0.2831 q 0,0.66056 -0.28309,1.98168 -0.2831,0 -0.8493,0.2831 -0.28309,0.94366 -0.84929,2.17041 -1.32112,0 -1.32112,0 0.2831,0.18863 1.32112,0.2831 -0.0944,0.66056 -0.28309,1.69858 -0.47183,0.0944 -1.03803,0.2831 -0.0944,1.03802 -0.28309,3.11407 -0.75493,0.94365 -1.41549,2.26477 0.18863,0.47183 0.2831,1.88732 -0.5662,0.66056 -1.13239,1.69858 0.18863,0.66056 0.2831,2.26478 l -0.5662,0.84929 q 0,1.03802 0,3.11407 0,0.18863 -0.37746,1.22675 -0.2831,0.94366 -0.18863,1.22676 0.47183,0.56619 1.13239,1.41548 0.18863,1.03802 -0.0944,3.20844 -0.18863,2.07604 0.0944,3.0197 0.37746,0.37746 0.84929,1.13239 -0.18863,0.94365 0,2.7366 0.75493,0.66056 1.88731,1.69859 -0.18862,0.84929 -0.75492,2.54787 0.0944,0.18863 2.17041,1.98168 0.18863,0.47183 0,0.94366 -0.2831,0.66056 -0.2831,1.03802 0.47183,0.2831 0.84929,0.84929 0.37747,1.60422 1.69859,4.15209 0.56619,0.47183 1.41548,0.47183 0.47183,0 1.60422,-0.18863 1.22675,-0.28309 2.07605,-0.28309 0.75492,1.41548 1.69858,2.26477 0.47183,-0.37746 1.32112,-0.84929 0.47183,-0.0944 2.17041,0.2831 1.79295,0.37746 1.98168,0.66056 0.18863,0.18863 0.37746,0.75492 0.5662,-0.0944 1.41549,0 -0.0944,-0.66056 -0.5662,-2.54787 0.37747,-0.2831 0.8493,-0.56619 0.66056,0.0944 1.98168,0 0.18862,-0.0944 1.13238,-1.03803 1.03803,-1.03802 1.03803,-1.22675 0,-1.22676 0.56619,-3.3028 h 0.5662 q 0.94365,-0.37746 1.41548,-2.83097 -0.0944,-1.13239 0.2831,-3.96336 0,0 0.2831,-0.18863 0.37746,-0.2831 0.28309,-0.66056 -0.47183,-0.2831 -1.13239,-0.84929 0.0945,-0.2831 0,-0.75493 -0.37746,-0.56619 -1.13238,-1.41548 -1.32112,0.18862 -2.64224,0.47182 -1.98168,0.18863 -3.20844,-0.18862 -0.66056,-0.75493 -1.98168,-1.69859 -0.47183,0 -1.41548,-0.28309 0,-0.37747 -0.2831,-0.8493 -0.0944,-0.0944 -0.84929,-0.28309 0,-0.2831 0,-0.84929 0.66056,-0.37747 1.69858,-1.13239 0.0944,-0.5662 0.56619,-1.41549 1.03803,-0.66056 3.39717,-0.66056 2.83097,0.0944 3.5859,-0.18863 0.28309,-0.37746 0.56619,-0.84929 0.47183,0 1.41549,-0.2831 0.66056,-0.56619 1.98168,-1.32112 0.66056,-0.0944 1.60421,0.47183 0.47183,0.2831 0.94366,0.5662 0.94366,0.18863 2.73661,-0.37747 1.79295,-0.56619 2.83097,-0.37746 1.69858,0.66056 4.52955,1.32112 1.22676,-0.37746 3.96336,-0.56619 0.47183,0.18863 0.94366,0.94365 0.47183,0.66056 0.66056,0.75493 1.03802,0.0944 3.11407,0.56619 1.22675,0.37747 3.96336,2.54788 -0.18863,0.37746 -0.5662,0.84929 -0.47182,0 -1.13238,0.2831 -0.37747,1.13239 -1.69859,2.83097 -1.13239,0 -3.68026,0.2831 -1.32112,0.28309 -4.43519,0.84929 0,0 0.2831,0.75492 l -1.41549,0.84929 q 0.0945,0.37747 0,0.8493 -0.47183,0.18862 -1.13239,0.56619 -0.18862,0.47183 -0.28309,1.50985 -0.0944,1.13239 0.28309,1.32112 h 0.5662 q 0.2831,0.0944 0.84929,0.2831 -0.47183,0.37746 -0.47183,0.84929 0,0.37746 0.5662,1.03802 0.66056,0.66056 0.75492,0.94366 0.18863,1.03802 -0.37746,1.88731 -0.37746,0.47183 -0.75493,0.8493 0.0945,-0.47183 0.2831,1.98168 -0.2831,1.03802 -0.2831,3.39716 0.37747,0.37746 0.84929,0.84929 -0.0944,0.47183 0,1.41549 -0.84929,0.37746 -2.26477,1.13239 -0.0944,0.28309 -0.2831,0.84929 0.56619,0.2831 0.56619,0.75492 0,0.75493 -0.47182,0.75493 -0.0944,-0.0944 -0.0944,-0.18863 -0.37746,0.66056 -1.13239,1.41549 h -0.56619 q 0.0944,0.37746 0,0.84929 -0.0944,0.18863 -0.84929,1.22675 -0.66056,0.94366 -0.84929,1.03803 -0.66056,0.28309 -1.41549,0.28309 -0.75492,0 -3.3028,-1.41548 v -0.5662 q -0.66056,-0.28309 -2.92534,-0.28309 -2.26477,0 -3.0197,0.28309 -0.66056,0.84929 -2.45351,1.98168 -1.03802,0.2831 -2.83097,0.2831 -1.60422,0 -4.90702,-0.2831 -3.20843,-0.28309 -4.34082,-0.28309 0,0 -0.94366,0.18862 -0.94365,0.18863 -1.32112,0.0945 -0.66056,-0.18863 -1.50985,-1.60422 -0.75492,-1.50985 -1.32112,-1.79295 -1.50985,0 -3.86899,-0.56619 -0.5662,-0.2831 -1.13239,-3.869 -1.88731,-0.47183 -2.17041,-0.56619 -1.41549,-0.5662 -1.50985,-1.22676 0,-0.75492 -0.2831,-2.4535 -0.56619,-0.2831 -1.13239,-0.8493 -0.18863,-0.66056 0.0944,-1.41548 0.18863,-0.75493 -0.0944,-1.41549 -0.94366,-0.56619 -1.98168,-2.45351 0.37746,-0.56619 0.5662,-1.98168 -0.37747,-0.66056 -0.8493,-1.41548 0.2831,-0.66056 0.2831,-2.26478 -0.37746,-0.56619 -0.84929,-1.41548 0.2831,-0.66056 0.2831,-2.45351 -0.2831,-0.5662 -0.84929,-1.41549 h -0.5662 q 0,-0.47183 0,-1.13239 0.2831,-0.0944 0.84929,-0.28309 0,-0.8493 0,-0.8493 -1.50985,-1.32112 -1.03802,-3.11406 0.84929,-3.5859 1.41549,-3.77463 0.66056,-0.2831 0.18862,-0.37747 -0.37746,-0.18862 -0.75492,-1.41548 -0.37746,-1.32112 -0.37746,-1.69858 0.0944,-0.0944 0.56619,-0.94366 0.47183,-0.94366 0.2831,-1.60422 -1.03803,-1.32112 -0.84929,-1.41548 0.66056,-0.18863 1.50985,-3.39717 0.94365,-3.3028 0.94365,-5.19011 0,-0.75493 -0.18862,-0.94366 0.84929,-0.75493 1.98168,-2.26478 0.18862,-1.13239 0.84929,-3.3028 0.18863,-0.2831 1.13239,-1.41548 0.66056,-0.75493 0.66056,-1.88732 0,-0.37746 0.28309,-0.56619 0.37747,-0.2831 1.03803,-0.66056 -0.0945,-0.66056 0.28309,-1.98168 0.2831,0.0944 0.84929,0 0.0945,-0.47183 0.5662,-1.13239 0.47183,0 1.32112,-0.2831 0.84929,-1.22675 2.83097,-3.3028 0.37746,0 0.84929,0 0.37746,-0.47183 0.84929,-0.84929 0.66056,-0.18863 1.60422,0 1.13239,0.2831 1.50985,0.2831 0.5662,0 1.13239,-0.2831 0.18863,-0.18863 1.13239,-2.26478 1.13239,0.2831 2.45351,0.5662 0.37746,0 1.41548,-0.37747 1.03803,-0.47182 1.41549,-0.47182 z m 1.41549,67.09402 0.2831,0.84929 q -0.18863,-0.84929 -0.2831,-0.84929 z m 56.54659,-47.74905 q 0.0944,-0.0944 5.28448,0.18863 0.94366,-0.0944 2.64224,-0.18863 1.03803,0.47183 2.64224,1.03802 0.66056,-0.47183 2.35915,-0.84929 1.03802,0.0944 2.07604,1.22675 1.03802,1.13239 1.13239,1.22676 0.56619,0.2831 1.41549,0.2831 1.22675,0.0944 1.79294,0.18863 0.2831,0.37746 0.75493,0.84929 0.2831,-0.0944 0.75493,0 0.47182,0.28309 0.75492,1.32112 0.37746,0.94365 0.66056,1.41548 0.37746,0.37747 1.79295,0.84929 1.41549,0.37747 1.88731,0.94366 0.47183,0.47183 0.8493,1.98168 0.47182,1.41549 0.75492,1.88732 0.75493,0.66056 1.79295,1.88731 -0.18863,0.37746 -0.2831,0.84929 1.32112,1.22676 1.60422,2.35914 0,0.5662 0,1.60422 h 0.56619 q -0.18862,0.18863 -0.28309,0.47183 0.0944,0.0944 0.56619,0.84929 0.66056,4.62392 0,6.3225 -0.47183,0.37747 -0.84929,0.75493 -0.0944,0.84929 0.18863,2.07604 0.37746,1.22676 0.37746,1.41549 -0.2831,1.03802 -0.56619,2.64224 0.47183,0.66056 0.28309,1.03802 -0.75492,0.18863 -1.60421,1.32112 -0.0944,0.94366 0.66056,2.54788 0.75492,1.60421 0.66056,2.54787 0,0.66056 -0.75493,1.50985 -0.94366,1.22676 -1.03802,1.32112 -0.2831,1.13239 -1.32112,3.20844 -0.75493,0.37746 -2.17041,1.32112 -0.0945,0.0944 -0.2831,0.84929 h -0.47183 q -0.0944,0.2831 -0.2831,1.03802 -0.37746,0.0944 -1.03802,0.47183 -0.0944,0.37746 -0.2831,0.84929 -0.66056,0.0944 -1.88731,0.47183 -0.18863,0.37746 -0.47183,0.84929 -1.03802,-0.0944 -2.92534,0 -0.75492,0.37746 -2.4535,1.03802 l -0.18863,0.5662 q -0.84929,0.0944 -1.88732,0.2831 -0.47183,0.28309 -1.32112,0.75492 -0.47183,0 -1.32112,0 -7.92672,1.13239 -8.77601,1.03802 -1.50985,-0.66056 -4.24646,-1.60421 -0.66056,0.0944 -1.79294,0 -0.37747,-0.47183 -1.03803,-1.03803 -1.41548,-0.18862 -3.77463,-1.32112 -0.47182,-0.75492 -1.32112,-1.88731 -1.13238,-0.37746 -2.92533,-1.50985 -0.18863,-0.94366 -0.75493,-2.64224 -1.32112,-2.17041 -2.92534,-6.69997 0.2831,-0.94365 0.5662,-3.11407 -0.47183,-0.94365 -1.13239,-2.4535 0.18863,-1.03803 0.2831,-3.11407 -0.2831,-0.94366 -0.47183,-1.88732 0.0944,-0.47183 0.18863,-0.75492 -0.0944,-0.94366 -0.18863,-1.32112 0.2831,-1.69859 0.18863,-1.88732 0,-0.37746 -0.66056,-1.22675 -0.66056,-0.84929 -0.66056,-1.69858 0.0944,-1.79295 1.32112,-3.68027 l 0.56619,-0.28309 q 0.18863,-0.66056 0,-1.88732 v -0.75492 q 0.2831,-1.22676 1.03802,-3.49153 1.03803,-1.88732 2.92534,-2.83098 v -0.28309 h 0.5662 q 0.37746,-1.32112 1.60421,-3.77463 0.37747,-0.0944 1.32112,-0.47183 0.37747,-0.84929 1.50985,-2.17041 0.5662,0 1.32112,-0.18863 0.66056,-0.66056 1.88732,-1.60422 1.98168,-0.84929 4.81265,-1.03802 z m 9.24784,11.60698 q -0.18863,0.94366 -0.84929,3.20844 -0.18863,0.0944 -1.03802,0.28309 -0.75493,-0.0944 -2.73661,-0.56619 -1.88731,-0.47183 -3.11407,-0.47183 -0.75492,0 -1.50985,0.18863 -0.94365,0.66056 -2.64224,1.60422 -0.47183,-0.0944 -1.13239,0 v 0.56619 q -0.66056,0.84929 -2.35914,2.35914 -0.66056,0.0945 -1.32112,0.2831 -0.2831,0.37746 -0.0944,1.32112 0.0944,0.94366 0.0944,1.03802 -0.47183,0.18863 -0.94366,0.66056 -0.37746,0.47183 -0.37746,1.88732 0,1.50985 0,1.69858 -0.37746,0.2831 -1.03802,1.03802 0.37746,0.37747 1.32112,1.03803 -1.50985,4.43518 -1.03802,5.85067 0.0944,0.47183 1.13238,0.94366 1.03803,0.47183 1.22676,0.66056 0.75492,1.69858 1.88731,3.68026 0.5662,0.37746 2.17041,0.2831 1.60422,-0.18863 2.26478,0 1.32112,1.03802 1.88732,1.60421 -0.0944,0.37747 0,0.75493 0.47182,0.0944 1.60421,0.2831 1.88732,0.84929 5.28448,1.88731 0.5662,-0.18863 1.88732,-0.2831 0.75492,0.37747 2.07604,1.03803 0.47183,-0.75493 1.60422,-2.07605 1.13239,-0.47183 2.64224,-1.32112 0,0 0,-0.84929 0.47183,-0.0944 0.47183,-0.66056 0,-0.18863 -0.18863,-1.13239 -0.18863,-0.84929 0,-1.41548 0.84929,-0.47183 1.79295,-1.50986 0,0 0,-2.64224 0.37746,-0.0944 0.84929,-0.56619 0,-0.18863 -0.2831,-0.56619 -0.37746,0.0944 -1.03802,0 -0.75493,-0.18863 -1.03802,-0.94366 -0.18863,-0.84929 -0.2831,-1.69858 0.0944,0 0.18863,-0.47183 0.56619,0 1.88731,-0.2831 0.0944,-1.41549 -0.28309,-3.96336 -0.8493,-0.66056 -1.79295,-1.32112 -0.2831,-0.84929 0.18863,-1.79295 0.56619,-0.94365 0.56619,-1.13239 0,-0.18863 -0.47183,-1.79294 -0.37746,-1.69859 -0.56619,-1.88732 -0.5662,-0.18863 -1.32112,-0.56619 -0.18863,-0.66056 -0.84929,-1.60422 -0.8493,-0.0944 -2.83098,-0.75493 -0.0944,-0.37746 -0.28309,-0.84929 -0.5662,-0.28309 -1.60422,-1.03802 z m 102.14654,-30.48012 q 0.84947,-0.0944 1.88731,0.47182 1.0381,0.5662 1.41562,0.5662 0.84921,0.0944 1.69843,-0.37746 0.94365,-0.47183 1.51005,-0.47183 0.75477,0.47183 1.69843,0.84929 0.94366,0.18863 2.45346,-0.0944 1.60424,-0.2831 2.45371,-0.18863 0.66059,0.47183 1.69843,1.13239 1.0381,0 3.49156,0.56619 0.66058,0.47183 1.98176,1.03802 0.4717,0 1.32117,0 0.18734,0.37747 0.56614,0.84929 0.75477,0 2.26483,0.2831 0.28307,0.66056 1.03784,1.88732 0.37752,0.56619 2.45371,1.98168 0,0.18863 0.28308,0.75492 -0.5664,0.2831 -0.5664,1.13239 0,2.07605 1.41561,2.45351 0.56614,0 1.60424,0 0.18735,0.2831 0.28308,1.13239 -0.37752,0.94365 -0.84922,1.03802 -0.28307,0.0944 0.28307,0.2831 0.37752,1.22675 2.17039,2.26477 0,1.03803 0,1.03803 0,0.0944 -0.56615,0.75492 -0.47195,0.5662 -0.47195,0.66056 0.18991,0.0944 0.28307,0.75493 0.56614,0.56619 0.56614,0.56619 -0.4717,0.18863 -1.13228,0.5662 -0.095,1.13239 -0.56615,3.0197 -0.56614,0.75493 -1.13254,1.88731 -0.0949,1.22676 0.66059,1.88732 0.75503,0.66056 0.47195,1.69858 -0.47195,0.2831 -1.13254,0.84929 -0.84921,1.22676 -0.28307,4.34083 l 0.5664,0.56619 q -0.095,1.22675 0.28307,3.5859 0.84922,0.66056 1.9815,1.88731 0,0.94366 0.28307,2.45351 0.66059,0.47183 1.32117,1.13239 -0.28307,0.75492 -0.28307,2.17041 0.94366,0.47183 1.98176,1.98168 0,0.0944 -0.56614,2.17041 -0.37752,0 -0.84947,0.2831 0,0 0,5.19011 1.88731,0.2831 3.01981,1.60422 -0.6605,0.84929 -1.32113,1.98168 0,0.66056 0,1.88731 -0.28307,0 -1.41561,0 -0.28307,0 -0.56615,0 0.18992,-0.28309 0.28308,-1.03802 l -0.56615,-0.84929 q 0.095,0.94366 0.56615,3.0197 -0.37726,0 -0.84922,0.2831 0.095,0.2831 0,0.75493 0.75503,0.0944 1.98176,0.56619 0,0.56619 0.28307,1.13239 -0.66059,0.47183 -1.69869,1.13239 -0.56614,-0.0944 -1.32117,0 -0.28307,1.32112 -1.69843,3.20843 -1.41561,0.0944 -4.0577,0.84929 -0.28307,0.47183 -0.84947,1.13239 -0.37726,-0.0944 -0.84921,0 -0.095,0.2831 -0.28307,0.75493 -0.66059,0.75492 -2.73653,1.41548 -1.0381,0 -3.01986,0.2831 -0.94366,0.37746 -2.45346,0.84929 -4.71828,0.5662 -9.05905,0 -0.095,-0.0944 -1.0381,-0.37746 -0.84922,-0.2831 -1.41536,-0.18863 l -0.56614,0.56619 q -0.37752,0.0944 -1.13255,-0.0944 -0.75477,-0.18863 -0.75477,-0.18863 -2.0762,0.18863 -6.03945,0.2831 -2.64235,0.18863 -7.92678,0 -0.095,-0.0944 -0.66058,-0.37746 -0.4717,-0.18863 -0.75503,-0.18863 l -1.60399,0.56619 q -0.94365,-0.28309 -3.1143,-0.28309 -0.18734,0.37746 -0.4717,0.75492 -0.75502,0.2831 -2.17038,0 -1.03808,-0.66056 -2.45356,-1.60422 -0.75493,-0.28309 -2.64224,-0.28309 -1.79295,-0.0945 -2.64224,-0.84929 -0.2831,-0.0944 -0.5662,-0.37747 -0.18862,-0.37746 -0.18862,-1.03802 0,-1.13239 0.66056,-2.73661 0.47182,-1.03802 0.94365,-2.07604 0.5662,-0.18863 1.88732,-0.2831 0.56619,0 2.26477,-0.2831 0.2831,-0.37746 0.8493,-0.84929 0.94365,-0.18863 2.92546,-0.0944 2.17039,0.18863 3.0196,0.0944 0.28307,0 3.86907,-1.41548 -0.095,-1.13239 0,-3.01971 0.37726,-0.18862 0.84922,-0.47182 0.095,-1.03803 -0.28308,-2.07605 -0.28307,-0.75493 -0.56614,-1.50985 0.095,-0.5662 0,-2.17041 -0.94366,-1.22676 -0.5664,-1.41549 0.66059,-0.37746 0.75503,-3.5859 0,-2.17041 0.095,-4.34082 0.37751,-0.94366 0.84921,-2.17041 0.28307,-2.26478 0.28307,-4.71829 -0.56614,-1.03802 -0.56614,-1.60421 0.4717,-0.37747 0.28307,-0.75493 -0.18734,-0.66056 0,-1.22675 0.37752,-0.18863 0.75503,-0.47183 0.095,-1.03802 -0.75503,-2.17041 -0.75503,-1.13239 -0.84921,-1.41549 -0.18992,-0.94366 0.095,-2.26478 0.18991,-0.94365 0.47196,-1.88731 -0.095,0.56619 -0.56614,-3.5859 0.28307,-2.17041 0.28307,-6.22813 -0.18991,-1.50986 -1.13254,-2.26478 -0.28308,-0.2831 0.84947,-1.88732 -0.18992,-0.47182 -0.75503,-1.22675 -0.28307,-0.2831 -0.94366,-0.18863 -0.75477,0.18863 -1.0381,0 -0.28307,-0.37746 -0.84921,-1.03802 -0.75477,-0.37746 -2.26483,-1.13239 v -0.2831 q -1.41536,0.2831 -4.05765,0.2831 -4.34082,-0.56619 -5.47321,-1.88731 -0.66056,-0.8493 -0.66056,-2.83098 0,-1.98168 0.66056,-2.92533 0.18863,-0.2831 2.7366,-0.84929 4.3408,-1.03803 4.52969,-1.03803 0.66033,0 1.13228,0.2831 0.4717,0.2831 0.94366,0.75493 0.66059,0.18862 1.41536,0 0.84947,-0.2831 1.0381,-0.2831 0.47195,0.37746 1.13254,0.84929 2.45346,0.94366 4.34077,0.56619 1.32117,-1.03802 3.0196,-2.26477 0.94366,-0.18863 3.11404,0.0944 2.26483,0.2831 2.64235,0.18863 1.32117,-0.47183 1.41535,-0.47183 z m 4.90717,9.81403 q -0.66059,0.37746 -1.60424,0.84929 -0.56615,-0.18863 -1.41562,-0.2831 -0.66058,0.2831 -1.60424,0.8493 0,1.32112 0,1.32112 -1.5098,0.56619 -3.58574,1.41548 -0.18992,2.35914 0.4717,4.05773 l 0.5664,0.28309 q 0,0.47183 0,1.41549 -0.5664,0.37746 -1.32117,1.03802 0.095,0.47183 0,1.13239 1.13228,0.84929 2.45345,2.17041 -0.0949,0.75493 0,1.98168 0.4717,0.37747 1.13229,1.32112 0,0.94366 0.5664,2.17041 0.28307,0 0.75477,0 0.75503,0.5662 1.98176,1.13239 0.66058,0.0944 1.79287,-0.28309 1.13254,-0.47183 1.41561,-0.5662 1.13229,0.2831 3.58575,0.2831 l 1.13254,-0.5662 q 3.11404,-0.56619 3.11404,-0.56619 1.41536,-0.47183 2.07594,-1.60422 0.095,-0.56619 0.56615,-1.32112 1.51005,-0.37746 3.77463,-0.84929 0,-0.66056 0,-1.88731 0.56639,-0.47183 1.13254,-1.13239 0.37751,-1.60422 0,-3.0197 l -0.28307,-0.5662 q -0.66059,-0.37746 -1.60425,-1.32112 0,-1.03802 -0.56614,-2.7366 -0.37751,-0.47183 -1.79313,-0.75493 -1.32117,-0.2831 -1.79287,-0.66056 -0.095,-0.75493 -1.0381,-1.88731 v -0.2831 l -0.56614,-0.2831 q -1.32117,0.0944 -3.86907,0 -0.095,0 -0.66059,-0.2831 -0.4717,-0.28309 -0.75477,-0.28309 -0.095,0 -0.84922,0.47183 -0.75502,0.37746 -1.03809,0.37746 -1.60425,-1.13239 -2.17039,-1.13239 z m 3.30267,1.13239 q 0.66059,0.75492 0,0.56619 -0.28307,-0.0944 -0.28307,-0.37746 0.095,-0.0944 0.28307,-0.18863 z m -0.56614,29.63083 q -0.4717,0.0944 -1.41536,0.2831 v 0.47183 q -0.18991,0.0944 -0.94366,-0.18863 -0.75502,-0.2831 -0.94365,-0.2831 -0.37752,-0.0944 -1.22699,0.37747 -0.84921,0.37746 -0.94366,0.37746 -0.84921,0.18863 -1.79287,-0.0944 -0.94365,-0.37747 -1.22673,-0.37747 -1.32117,0 -1.32117,0.94366 0,0.37746 1.0381,1.79295 -0.18734,0.2831 -0.56614,0.75492 0,0 -1.13254,0 0.095,0 -0.4717,0.5662 0.18734,1.22675 0.28307,0.84929 0.66058,0.37746 1.88731,1.03802 -0.47195,0 -1.69868,0 -0.28307,2.54788 1.13254,4.43519 1.03784,-0.84929 1.03784,-0.84929 0.75503,0 1.51006,0 0,0.37746 0,1.13239 -0.37751,0.18863 -0.94366,0.56619 -0.47195,0.37747 -0.66058,0.37747 -0.095,0 -0.47196,-0.37747 -0.28307,-0.37746 -0.75477,-0.56619 -0.28307,0 -0.84947,0 -0.28307,0.37746 -1.03785,1.03802 0,0 0,1.13239 0.37726,0 0.75478,0.18863 0.47195,0.18863 0.84947,0.0944 0,0 0.37725,-0.2831 0.37752,-0.28309 0.47196,-0.28309 l 0.56614,0.84929 q 0.18735,1.41548 -0.28307,2.17041 -0.66058,0.18863 -1.41561,1.41549 0.5664,0.84929 0.5664,1.41548 0,0.47183 -0.28307,0.75493 1.22673,1.03802 2.83097,2.17041 1.03784,0 3.20823,0.2831 0.28307,0.37746 0.5664,0.84929 0.66033,0.0944 1.60398,0.56619 0.47196,0.47183 1.13255,1.03802 0.66058,0.18863 2.92541,0.37747 2.35901,0.18863 2.92516,-0.0944 0.37751,-0.75492 1.32117,-1.60421 0.94366,0.0944 2.73653,0 0.095,-0.47183 0.47195,-1.13239 0.84922,-0.75493 1.98176,-1.13239 0.095,0 1.88731,-0.2831 1.03785,-0.18863 1.41536,-0.75492 0,-0.2831 0,-0.84929 0.18735,-0.8493 0.56615,-1.41549 0.37751,-0.66056 0.37751,-0.75493 0,-0.28309 -2.35902,-1.41548 0,-1.03802 0,-1.03802 0.56615,0 2.26458,0 -0.095,0.28309 0.28307,0.75492 0.28333,-1.79295 0.28333,-5.47321 -0.28333,-0.0944 -0.28333,-0.75493 -0.94366,-0.18862 -1.88732,-0.37746 -0.94365,-0.18863 -1.22672,-0.75492 0.18991,-1.03803 0,-3.01971 -0.4717,-0.47183 -1.03785,-1.41548 0.095,-0.37747 0,-1.03803 0,-0.0944 -1.69868,-0.84929 0,0.0944 0,0.84929 -0.28307,0.0944 -0.75503,0.5662 l -1.13229,-1.69858 q -0.66058,-0.37747 -1.88731,-0.0945 -1.41536,0.2831 -2.17039,0.0945 -0.37751,0 -1.98175,-0.66056 -1.60425,-0.75493 -2.45346,-0.66056 z m 28.02664,23.02524 q 0.56613,0.28309 0.56613,0.56619 -0.66057,-0.37746 -0.56613,-0.56619 z m 30.21863,-48.78708 q 0.1873,0 1.0378,0.5662 0.8495,0.47183 1.0381,0.47183 1.4154,-0.37747 4.3408,-0.2831 0.8492,0.84929 1.8873,1.60422 0.5661,-0.47183 2.6423,-0.75493 1.2268,0.18863 3.3027,1.60422 0.1899,0.47183 0.755,1.03802 0.1874,0.18863 0.2831,0.0944 0,0 0,-0.18863 0,-0.28309 0.2831,-0.18862 v 0.56619 q 1.6987,0.94366 3.3029,1.79295 1.9815,1.13239 2.831,2.26478 0.1873,0.18862 1.6984,2.64224 -0.2831,0.0944 -0.2831,0.47182 0,0.8493 0.7551,2.45351 0.7547,1.50985 1.2267,1.60422 0.5661,0.0944 1.9815,0.37746 0.1899,0.18863 0.5664,0.47183 l -0.2831,0.5662 q -0.3775,0 -1.0381,0 -1.1325,0.28309 -1.1325,1.69858 0,1.22675 0,2.35914 0,0.0944 -0.2831,0.66056 -0.2831,0.5662 -0.1874,0.94366 0,0.0944 0.2831,0.84929 0.2831,0.75493 0.1874,1.32112 0,0.0944 -0.4717,0.75493 -0.3775,0.66056 -0.2831,1.41548 l 0.5661,0.47183 q 0.5662,1.69858 0.1874,3.49153 0,0.37746 -0.7548,1.41549 -0.6606,0.94365 -0.5661,1.88731 0.095,0.2831 0.6606,1.13239 0.6603,0.84929 0.6603,1.22675 0,0.47183 -0.4717,0.8493 0,0 -1.3212,0 -0.095,0.37746 -0.095,1.98168 0.095,1.50985 0.095,1.50985 0.095,0.28309 1.7929,1.32112 0.5664,0.56619 1.4156,1.03802 0.2831,0.0944 1.4154,0 1.1325,-0.18863 1.51,-0.18863 l 0.2831,-0.56619 q 0.8492,-0.18863 1.5098,-0.18863 2.359,0 3.8691,3.96336 0.4717,0.94366 1.0378,2.64224 -0.1873,0.66056 -0.2831,1.41548 -0.3775,0.0944 -1.0378,0.75493 -0.3775,0.2831 -0.755,0.84929 0,0.37746 0,1.03802 -0.7551,0.5662 -1.8874,1.60422 0.4717,0 0.4717,0.47183 0,0.84929 -1.3209,2.73661 -2.9254,-0.37747 -4.8127,0.56619 -0.472,0.47183 -1.5098,0.94366 -0.9437,0.47183 -3.6804,0.37746 -2.831,-0.0944 -3.6802,-0.47183 -0.6606,-0.94366 -1.6043,-2.17041 -0.6606,-0.66056 -2.4534,-1.32112 -0.8492,-0.37746 -1.3212,-0.2831 -2.5479,0.37747 -4.0577,1.32112 v 0.5662 q -0.5661,0.47183 -1.3212,1.03802 -0.3772,-0.0944 -1.1323,0 l -0.283,0.56619 q -0.9437,-0.18863 -2.6424,-0.28309 -0.5661,0.37746 -1.3211,0.75492 -1.1323,-0.0944 -3.3027,0 -1.1323,0.5662 -3.2085,1.13239 -0.4717,0 -1.2267,-0.2831 -0.7551,-0.28309 -0.9437,-0.28309 -1.0381,0.18863 -2.9254,0.28309 -0.7548,-0.37746 -1.8873,-0.84929 -1.2267,0.18863 -3.7746,-0.47183 -0.5662,-1.13238 -1.6043,-2.4535 -0.9436,-0.2831 -2.6421,-1.03803 -0.9436,-0.56619 -2.7365,-4.34082 -0.6606,-1.13239 -1.6042,-3.20843 0.095,-0.8493 0,-2.45351 -0.095,-0.2831 -0.6606,-1.22676 -0.472,-0.94365 -0.3775,-1.69858 0.3775,-0.84929 0.755,-2.17041 -0.2833,-0.66056 -0.2833,-2.45351 0.1899,-0.47183 1.0381,-0.84929 0.9436,-0.47183 1.1325,-0.75493 0,-0.28309 0,-0.75492 0.6603,-1.22676 1.604,-3.20844 0,-0.56619 0.2833,-1.69858 0.5662,-0.75493 4.0577,-2.35914 v -0.2831 q 0.6606,0.0944 1.6043,0 0.1873,-0.66056 0.5661,-1.60422 h 0.4717 q -2.2648,-0.56619 -3.4916,-1.60421 -0.1899,-0.66056 -1.0378,-1.60422 0,0 -1.2267,-0.47183 -0.472,-0.18863 -0.5664,-1.22675 0,-0.2831 -0.095,-0.47183 -0.472,-0.2831 -1.0381,-1.13239 -0.1874,-0.47183 0.3775,-4.34082 0.6606,-3.96336 1.0378,-4.43519 0.472,-0.47183 1.227,-1.41549 0,-0.2831 0,-0.75492 1.7929,-2.64224 2.1704,-3.01971 0.3772,-0.37746 2.831,-1.88731 2.4534,-1.50985 2.8309,-1.60422 0.5662,0.37746 2.359,0.5662 0.8493,-0.75493 2.4535,-1.60422 1.0381,0.0944 2.9254,0 0.3775,-0.0944 1.5098,-0.84929 1.2267,-0.75493 1.7931,-0.75493 z m -0.2834,10.1915 -0.5661,0.56619 q -1.0379,-0.0944 -2.9252,0 -0.755,0.47183 -1.8873,1.03803 h -0.5664 q 0,1.03802 -0.5661,2.7366 0,0 -1.0381,0 -0.3773,1.88732 0,2.92534 0.6606,0.94366 0.5664,0.84929 -0.1899,-0.18863 -0.5664,0.18863 0.1899,0.94366 0,1.41549 -0.5662,0.37746 -1.0379,1.03802 0.095,1.13239 0,3.49153 5.945,0.47183 7.7379,0 l 0.2831,-0.56619 q 1.6987,-1.03803 3.2085,-1.32112 1.4156,-0.18863 4.0577,0.28309 0.095,-0.66056 0.5661,-2.17041 -0.4717,0 3.0199,0.18863 1.9815,0 2.6421,-0.47183 0.3775,-0.28309 0.5664,-1.32112 0.283,-1.03802 0.4717,-1.88731 -1.1323,-0.5662 -3.4916,-1.88732 -0.1874,-0.28309 -0.5661,-0.75492 -0.472,-0.0944 -1.6043,-0.5662 -0.3775,-0.66056 -1.6042,-1.60421 -1.5098,-0.18863 -4.3408,-0.84929 -0.095,0 -0.8492,-0.8493 -0.5664,-0.56619 -1.5101,-0.47182 z m 9.6255,22.55341 v 0.56619 q -0.9437,0.2831 -3.4916,1.13239 -0.3775,0.2831 -1.0381,0.75492 -2.0759,0 -6.2281,0.2831 -1.6986,0.66056 -4.5296,1.60422 -0.2831,-0.0944 -0.8492,0 -0.095,0.47183 -0.4717,1.03802 -0.9437,0.37746 -2.4537,1.13239 0,0.66056 0.095,1.32112 0,0.56619 -0.6606,0.84929 -0.6606,-0.0944 -1.8873,0 l -0.2831,0.47183 q 0,0 -0.7548,0 0,0.37746 0.2831,1.13239 0.7548,0.37746 1.8873,1.03802 -0.095,0.37746 0,0.84929 0.2831,-0.0944 0.7548,0 0.4719,0.18863 1.2267,1.32112 0.755,1.13239 1.2267,1.32112 0.3775,0 1.0381,0 1.7929,0.47183 2.4535,0.2831 0.3775,-0.37746 1.0381,-0.84929 2.4534,-0.47183 6.2281,0.84929 0,0 0,0.18863 0,0.0944 0.283,0.0944 v -0.2831 q 1.9818,-1.03802 2.1704,-1.32112 -0.095,-0.56619 0.1899,-1.60421 h 0.5662 q 0.3775,-0.66056 1.1323,-1.41549 0,0 2.0762,0 0.9436,-2.45351 3.3026,-3.96336 -0.3772,-0.18863 0.19,-0.56619 0,-0.0945 -0.472,-0.84929 h 0.472 q 0.095,-0.2831 0.283,-1.03803 -0.6606,-0.47183 -1.6042,-1.60421 -0.1899,-0.8493 -0.5662,-1.79295 -0.3775,-1.03803 -1.6042,-0.94366 z m 57.1127,-30.2914 1.6042,0.47183 q 1.0379,0.0944 2.359,-0.18863 1.3212,-0.2831 2.5479,-0.0944 1.2268,0.75492 3.586,1.69858 1.7929,0.18863 5.19,1.32112 0.1874,0.37746 0.472,0.84929 0.4717,0 1.1323,0.2831 0,0.37746 0.283,0.84929 0.3775,0 1.3212,0.18863 0.1873,0.37746 0.5661,0.84929 0.3776,0 1.1323,0 l 1.8873,1.41549 q 0,0.2831 0,0.75492 1.1326,1.13239 2.7368,3.5859 0,1.03802 0.5662,3.0197 0.9436,0.66056 2.7365,1.88732 -0.7548,2.35914 0,5.75631 -2.0759,0.37746 -2.1704,1.03802 -0.4717,1.98168 -0.5661,2.17041 -0.472,0.75493 -3.9633,2.35914 -3.3974,1.60422 -4.5296,1.50985 -0.472,-0.0944 -2.831,-1.32112 -2.3593,-1.32112 -2.6424,-1.69858 -0.095,-0.0944 -0.5661,-1.60422 -0.3775,-0.37746 -1.3212,-0.47182 -1.2267,0 -1.6042,-0.18863 -0.3773,-0.2831 -1.1323,-0.75493 0.1873,-0.94366 0.8492,-2.7366 0.095,-0.2831 1.0381,-0.75493 1.0381,-1.79295 0.5662,-3.86899 -0.5662,-0.5662 -1.3212,-1.60422 -0.095,-0.37746 -0.2831,-0.84929 -1.3209,-0.0944 -3.8688,-0.5662 -0.2831,0 -1.9818,-0.94365 -1.4156,-0.66056 -2.3592,-0.37747 v 0.84929 q -0.9437,0.0944 -3.0196,0.18863 -0.1874,0.94366 -1.1323,2.26478 -0.472,0 -1.6043,0.47183 0,0.37746 0,0.84929 l -1.6042,1.88731 h -0.5661 q 0.3772,0.2831 0.283,0.8493 -0.755,0.56619 -0.755,0.94365 0,0.66056 -0.3775,1.22676 -0.2831,0 -0.7548,0.28309 -0.095,0.66056 -0.5661,1.88732 -0.095,0.0944 -0.8495,0.2831 0.755,0.0944 0.755,0.37746 0,0.47183 -1.0381,0.75492 0.095,0.5662 0,1.88732 l -0.5661,0.2831 q 0,1.22675 0.2831,4.62392 -0.3776,0.0944 -1.3212,0.56619 0.4719,0.18863 0.2831,0.75493 -0.095,0.66056 -0.5662,0.84929 0.095,0.37746 0.2831,1.41548 0.8495,0 0.8495,0 v 0.47183 h 0.1873 q 0,1.79295 0.5661,4.15209 0.472,0.37747 1.6987,0.47183 1.2268,0 1.4154,0.0944 0.2831,0.0944 1.7931,3.20844 0.5662,-1.13239 0.8492,-1.32112 0,0 1.8873,-0.2831 0.9437,1.98168 2.7366,4.34082 0.755,0.2831 3.0198,0.2831 2.2646,0 3.0196,-0.2831 0.6606,-0.75492 2.1704,-1.60421 1.1323,0.28309 3.3029,0.56619 1.2268,-0.0944 1.7929,-1.03802 0.6606,-1.03802 1.1323,-1.98168 0.2831,-0.0944 0.5661,-0.2831 0,-0.37746 0,-0.84929 0.095,0 0.8495,0 0.3775,-0.56619 0.8492,-1.32112 -0.1873,-0.75493 0,-2.73661 0.1874,0 0.472,-0.56619 0.9436,0.0944 2.7365,-0.2831 0.2831,-0.37746 0.8492,-0.75492 0.3775,0 1.1326,0 0.283,-0.47183 0.7547,-0.84929 1.5098,-0.2831 3.2085,0.56619 1.6987,0.84929 2.2649,1.88731 0,0.37747 0.283,1.03803 1.0381,0.75492 2.1704,2.45351 0.1874,0.84929 -0.3775,2.26477 -0.5661,1.41549 -0.9437,1.60422 -0.3775,0 -0.8492,0 0,0.66056 -0.283,1.88731 -0.3776,0.37747 -0.8495,0.8493 0,0.84929 -0.1874,2.4535 -3.0196,0.94366 -4.7182,2.45351 v 0.5662 q -0.1874,0.56619 -1.8874,1.32112 -0.6605,0.37746 -2.2648,0.28309 -1.6042,-0.0944 -1.7929,0 -0.095,0.47183 -0.283,1.13239 -0.9437,1.03803 -2.1704,1.60422 -0.9437,0.0944 -3.0199,0.56619 -0.6606,0.47183 -1.6042,1.03803 -1.3209,0.28309 -3.3971,0 -2.2649,-0.2831 -3.2085,-0.2831 -3.0196,0.18863 -2.4535,0.2831 l -1.0378,-0.47183 q 0.095,0 -3.4916,0.0944 -1.9817,0.0944 -3.114,-0.66056 -0.2833,-0.56619 -1.0381,-1.41548 -0.3775,0.0944 -0.8492,0 -0.3775,-0.37747 -0.8495,-0.75493 -0.6606,-0.0944 -1.8873,-0.56619 -0.2831,-0.66056 -1.1323,-1.60422 -0.2831,0 -0.755,0 l -1.9815,-1.41549 q -0.095,-0.56619 -0.472,-1.60421 -0.755,-0.37747 -1.7929,-1.69859 0.095,-0.94365 -0.1899,-2.92533 -0.6606,-0.8493 -1.6042,-2.26478 -0.1874,-0.94366 -0.5662,-2.17041 -0.283,0 -0.7547,-0.2831 -0.095,-0.94366 -0.5664,-2.92534 -0.6604,-0.66056 -1.4154,-1.69858 0,-1.22675 -0.4719,-3.77463 -0.3773,-0.47183 -0.8493,-1.13239 -0.4717,-2.35914 0.2831,-4.34082 l 0.5662,-0.2831 q -0.095,-0.94365 0,-2.17041 0.4719,-1.22675 1.0381,-3.3028 -0.095,-0.56619 0,-1.60422 0.9436,-1.22675 2.1703,-3.58589 -0.095,-0.37747 0,-1.03803 0.8495,-0.66056 1.8874,-1.69858 0.283,-0.84929 1.1325,-2.45351 0.5661,-0.18863 1.4154,-0.75492 0,-0.66056 0.4719,-1.98168 h 0.5662 v -0.2831 q 0.4717,-0.18863 2.1703,-1.60422 0.1874,-0.47183 0.5662,-1.13239 0.9436,0 2.7365,-0.47182 0.6606,-0.75493 2.1707,-1.98168 v -0.47183 q 0.5661,-0.37747 1.6039,-0.37747 1.1326,-0.0944 1.6043,-0.28309 0.5664,-0.2831 1.1325,-0.75493 0.8492,0 2.4535,-0.2831 0.755,-0.37746 1.9817,-0.75492 z m 37.39,-17.74075 q 2.6424,-0.18863 8.2099,1.13239 0.1873,1.03802 0.2831,1.22675 0.283,0.47183 1.0381,0.66056 1.4153,-0.2831 4.0577,0.2831 0.9436,0.47183 1.6042,2.45351 0.9437,2.54787 1.2267,2.83097 0.2831,0.28309 0.7551,0.66056 -0.095,0.37746 0,1.03802 0.3772,0.0944 1.3209,0.56619 -0.7548,0.2831 -1.0379,0.2831 l -0.283,0.84929 q 0.095,0 0.283,0.47183 0.4717,0 2.359,0.5662 0.095,1.41548 0,1.41548 -0.6605,0.0944 -0.1873,3.20844 -1.3212,0.75492 -2.7368,1.60421 0.095,0.66056 0,1.88732 0,0.0944 -0.2831,0.47183 -0.283,0.28309 -0.283,0.37746 l 0.5661,0.56619 q 0.1899,0.66056 0.5664,1.88732 1.0379,0 1.0379,0 0.095,0.28309 0.5664,0.84929 -0.6606,1.79295 -0.5664,2.45351 0.4719,0.75492 1.1325,2.17041 0.095,0.75492 0.4717,5.66194 0.095,-0.0944 0.755,-0.0944 0.2831,0 0.3775,-0.18863 -0.095,-0.37746 0,-1.03802 0.3773,-0.18863 1.0379,-0.5662 0.3775,-0.84929 1.6987,-1.88731 -0.095,0 1.8873,0.2831 1.7929,0.18862 3.7746,-1.13239 0.1874,-0.5662 0,-1.88732 -0.3775,-0.84929 -1.1323,-0.84929 -0.3775,0 -1.1325,0.2831 -0.7548,0.2831 -0.9437,0.2831 -0.1873,0 -0.6606,-0.0944 -0.3775,-0.18863 -0.7547,-0.18863 0,-0.75492 0,-0.75492 l -0.5664,-0.5662 q 0,-0.37746 0.5664,-2.4535 0.6606,-2.07605 0.8492,-2.17042 0.2831,0 0.755,0 0.9437,-0.37746 2.4535,-0.84929 0.7547,0.18863 1.6984,0.2831 l 0.1899,-0.56619 q 1.3212,-0.0944 4.1522,-0.47183 1.0378,-0.5662 2.642,-1.13239 0.9437,0.0944 2.7366,0 0.095,0 0.9436,-0.37746 0.9437,-0.47183 1.227,-0.47183 0.1874,0.0944 1.0379,0.47183 0.8494,0.37746 1.1325,0.37746 0.7548,-0.37746 1.6042,-0.84929 2.2646,-0.37747 4.1519,0 0.3775,0.47183 1.0381,0.84929 0.5662,-0.18863 1.4156,-0.2831 1.2268,-0.37746 1.604,-0.2831 1.1326,0.2831 2.6424,2.54788 1.5098,2.17041 1.5098,4.05772 0,0.37747 -0.095,0.75493 -0.095,0.37746 -0.9436,1.22675 -0.8495,0.8493 -1.227,0.94366 -0.3773,-0.0944 -1.1323,0 -0.4717,0.47183 -1.6043,1.13239 -1.3211,-0.18863 -3.7746,0 v 0.47183 q -0.3775,0 -1.1323,0.2831 -0.1899,0.47182 -0.755,1.13238 -1.9818,1.32112 -7.3604,1.32112 -0.8494,2.64224 -1.0381,3.01971 -0.4719,0 -1.1325,0.28309 -0.095,0.18863 -0.2831,0.75493 -0.5661,-0.0944 -1.6042,0 -0.7548,0.37746 -1.9815,1.79295 -1.1326,1.41548 -1.7932,1.79295 h -0.283 q -0.095,0.47183 -0.2831,1.32112 0,0.47183 0.2831,1.13239 0.4719,0.0944 1.3211,0.18862 0.19,2.26478 0.8493,5.19012 0.4719,0.0944 1.0381,0.2831 0,0.47182 0.283,1.03802 0.095,0.0944 1.1326,0.47183 0.5661,0.18863 0.5661,0.75492 0,0.47183 0.1874,1.22676 0.3775,0 0.8494,0 0.1874,0.47183 0.8492,1.13239 0.7548,-0.0944 2.1704,0.28309 0.3775,0.2831 0.5662,1.50985 0.1899,1.13239 0.4719,1.41549 0.6606,0.18863 1.8873,0.56619 0.5662,0.8493 1.8874,2.17042 0.4717,0.0944 1.1322,0.28309 0.3776,0.37747 0.472,1.13239 0.095,0.66056 0.3773,1.03802 0.3775,0.66056 1.4156,1.03803 1.5098,0.47183 1.7928,0.56619 0.2831,0.47183 0.8493,1.03802 0.6605,0.47183 3.7746,1.03803 2.4537,0.47183 3.2085,1.41548 0.755,0.94366 0.755,1.88732 0,0.66056 -1.7929,3.86899 -0.095,0.75493 -0.8494,1.60422 -0.8493,0 -2.6421,0 l -0.5664,0.56619 q -2.9252,0.75493 -6.2281,0.5662 -5.4731,-0.37747 -7.3604,-0.2831 -3.0198,0.18863 -2.4537,0.2831 -1.1323,-0.5662 -3.2082,-1.32112 -1.3212,0.28309 -4.4352,0.18863 -0.472,-0.2831 -1.3212,-0.75493 0,-2.83097 0.2831,-3.3028 0.3775,-0.18863 0.8492,-0.47183 -0.095,-0.2831 0,-0.84929 0.283,-0.37746 0.755,-1.13239 1.8873,0.18863 4.6238,-0.18863 -0.283,-1.03802 -1.0378,-3.0197 -0.3775,-0.2831 -0.8495,-0.84929 0,-0.75493 -0.283,-2.45351 -0.5662,-0.66056 -1.3212,-1.88731 -0.095,-1.03803 -0.5662,-2.92534 -0.8492,-0.66056 -2.1703,-1.98168 0,-0.37746 0,-1.03802 l -0.5662,-0.2831 q -0.2831,-0.84929 -1.3212,-1.88732 -0.4717,0.0944 -1.1322,0 -0.19,-0.28309 -0.7551,-0.84929 -0.095,0.47183 -0.283,1.13239 -0.5662,0.47183 -1.6043,0.66056 -1.4153,0.18863 -1.9817,0.37746 -0.095,0.37747 -0.4717,0.8493 -0.8493,0.28309 -2.4535,1.03802 -1.5101,0.75492 -3.3029,2.17041 -0.2831,1.03802 -0.095,2.35914 0.1899,1.03803 0.3775,1.98168 0.472,0 1.1326,0.2831 -0.095,0.37746 0,0.84929 -0.472,1.13239 -0.8495,1.32112 0.2831,0.75493 0.2831,0.84929 -0.3773,0.37747 -0.8492,0.84929 0,-0.18862 0.283,2.64224 0.9437,0.0944 2.7368,-0.18862 0,-0.5662 1.604,-1.13239 0.2833,0 1.8873,0.66056 1.6987,0.56619 1.8873,0.66056 0.095,0.37746 0.2834,0.84929 0.3772,0 1.1322,0.2831 0.4717,0.75492 1.3212,1.60421 h 0.5662 q -0.095,0.47183 0,1.41549 -0.5662,-0.0944 -1.6043,0 -0.5661,0.47183 -1.4153,1.03802 -0.5664,0.0944 -1.8874,0.2831 l -0.5664,0.56619 q -2.2645,0.66056 -5.6619,-0.28309 l -0.8492,-0.5662 q -0.8492,-0.0944 -2.1704,0.2831 -0.755,0.2831 -1.6042,0.56619 -1.1323,0.2831 -4.3408,0.2831 -1.6043,-0.37746 -2.1704,-0.2831 -0.2831,0 -2.0762,0.2831 -1.6984,0.18863 -2.6421,0.18863 -2.6423,0 -3.3971,-1.32112 0,-0.37746 0,-1.03802 -0.3775,-0.5662 -0.755,-1.03803 -0.5662,-1.03802 -0.3775,-1.13239 0.3775,-0.75492 1.4156,-1.98168 0.4717,-0.28309 2.8309,-0.94365 2.4535,-0.66056 3.1141,-0.66056 0.6606,0.18863 1.8873,0.56619 v 0.5662 q 0,0 2.4535,0 -0.8493,-1.50986 -0.8493,-1.69859 v -0.18863 q 0.9437,-0.47182 1.0379,-5.37884 0.095,-5.66194 0.3775,-6.22814 0.2831,-0.66056 0.472,-1.22675 -0.19,-0.18863 -0.8495,-2.35915 -0.6606,-2.17041 -0.7548,-2.7366 -0.095,-0.84929 0.2831,-1.79295 0.2831,-0.56619 0.5661,-1.22675 -0.095,-0.5662 0,-1.60422 -0.283,-0.84929 -0.283,-1.41549 0.3775,-1.32112 0.283,-1.88731 -0.3775,-0.47183 -0.8492,-1.32112 -0.095,-0.75493 0.1899,-1.79295 0.3775,-1.41549 0.3775,-1.50985 0.095,-1.13239 -0.283,-2.54788 -0.2831,-1.50985 -0.2831,-2.07604 0,-1.60422 0.7548,-5.00138 0.8494,-3.49154 0.8494,-5.37885 0,-1.13239 -0.283,-2.07605 -0.2834,-0.56619 -0.7551,-1.32112 0,-0.75492 0,-1.98168 -0.3775,-0.47182 -0.8492,-1.32112 0.095,0.75493 0.2831,-3.0197 -1.9818,-0.2831 -3.4916,-0.2831 l -0.283,-0.75492 q -1.2268,0.0944 -3.586,0 -2.5479,-0.2831 -4.6239,-3.3028 -0.6606,-1.32112 0,-1.32112 0.3775,-2.35914 0.7548,-2.83097 0.472,-0.5662 2.5479,-1.22676 0.5664,-0.28309 1.3212,-0.56619 z"
       id="text1"
       style="font-size:36.77px;line-height:0;font-family:Mom´sTypewriter;-inkscape-font-specification:Mom´sTypewriter;letter-spacing:-0.175492px;word-spacing:0px;stroke-width:6.43399"
       aria-label="Go Back" />
  </g>
</svg>
