<?xml version="1.0" encoding="UTF-8" standalone="no"?>
<!-- Created with Inkscape (http://www.inkscape.org/) -->

<svg
   width="85.888985mm"
   height="11.534422mm"
   viewBox="0 0 85.888996 11.534422"
   version="1.1"
   id="svg1"
   xml:space="preserve"
   xmlns="http://www.w3.org/2000/svg"
   xmlns:svg="http://www.w3.org/2000/svg"><defs
     id="defs1" /><path
     d="m 7.5353537,0.00281862 q 0.112889,-0.01411 0.310444,0.04233 0.197556,0.04233 0.225778,0.04233 0.310444,-0.07056 0.917221,-0.08467 0.112889,0.05644 0.296333,0.127 l 0.169334,-0.08467 q 0.07055,-0.01411 0.338666,0.169333 0.05644,0.01411 0.155222,0.08467 l 0.04233,0.08467 q 0.01411,0.169333 0.04233,0.578555 -0.1411111,0.04233 -0.4092221,0.16933308 v 0.08467 q -0.112889,0.05644 -0.127,0.126999 0,0.07056 -0.04233,0.127 -0.09878,0.127 -0.338667,0.239889 l -0.08467,0.04233 q 0.01411,0.141111 0,0.381 -0.05644,0.05644 -0.127,0.127 -0.01411,0.07055 -0.05644,0.409222 -0.02822,0.324555 -0.02822,0.338666 0.09878,0.09878 0.254,0.254 -0.01411,0.02822 -0.127,0.127 0.07056,0.239889 -0.04233,0.790222 0.07055,0.04233 0.169333,0.127 l -0.169333,0.338666 q 0.02822,0.112889 0.04233,0.254 0.05644,0.01411 0.04233,0.07055 0,0.04233 0.04233,0.05644 -0.01411,0.02822 -0.08467,0.112888 -0.02822,0.112889 0.01411,0.268111 0.04233,0.141111 0.02822,0.239889 -0.05644,0.05644 -0.127,0.127 -0.01411,0.07055 0.02822,0.183444 0.05644,0.09878 0.05644,0.112889 -0.04233,0.09878 -0.04233,0.324555 0.05644,0.04233 0.127,0.08467 0.127,0.225778 0.08467,0.254 -0.04233,0.112889 -0.169333,0.296333 l 0.04233,0.211666 q 0.02822,0 0.08467,0.04233 -0.183444,0.705555 -0.183444,1.072443 0,0.08467 0.02822,0.112889 0.04233,0.02822 0.112889,0.05644 0.08467,0.465667 0.08467,0.550333 0,0.07056 -0.07055,0.183445 -0.07056,0.112888 -0.05644,0.239888 0.02822,0.127 0.268111,0.254 0.183445,0.08467 0.366889,0.155222 0.3951111,0.1975553 0.4797771,0.2963323 0.141111,0.155223 0.183445,0.536222 -0.02822,0.01411 -0.08467,0.04233 0.04233,0 0.02822,0.05644 0,0.05644 -0.02822,0.07055 -0.07056,0.01411 -0.2116671,0.04233 0,0.05644 -0.04233,0.112889 -0.02822,0.04233 -0.409222,0.141111 0.02822,0 -0.465666,-0.04233 -0.239889,0.04233 -0.747888,0.04233 l -0.211667,-0.08467 q -0.01411,0 -0.127,0.04233 -0.112889,0.04233 -0.127,0.04233 -0.225777,-0.01411 -0.620888,0 l -0.08467,0.08467 q -0.183444,0.04233 -0.465666,-0.04233 -0.155222,-0.05645 -0.282222,-0.239889 -0.112889,-0.183444 -0.211667,-0.338666 -0.07055,0.02822 -0.08467,-0.01411 0,-0.04233 0,-0.07056 0.04233,0 0.169333,-0.04233 0.04233,-0.155222 0,-0.169333 -0.155222,0.127 -0.169333,0.127 -0.01411,0 -0.211667,-0.04233 0,0.09878 -0.08467,0.282222 -0.09878,0.04233 -0.211667,0.127 0,0.02822 0.04233,0.296333 -0.02822,0.01411 -0.08467,0.08467 -0.225778,0.02822 -0.832555,-0.04233 -0.07055,-0.606778 -0.465666,-0.874889 0.127,-0.268111 0.127,-0.296333 v -0.04233 q -0.07056,-0.02822 -0.07056,-0.296333 0.01411,-0.282222 -0.01411,-0.324556 -0.07055,-0.07055 -0.155222,-0.169333 -0.02822,-0.05644 -0.02822,-0.112889 0,-0.07055 0.07055,-0.183444 0.08467,-0.127 0.07056,-0.254 -0.08467,-0.183444 -0.197556,-0.493888 0.01411,-0.112889 0,-0.338667 -0.05644,-0.112888 -0.169333,-0.380999 l -0.08467,-0.04233 q -0.02822,-0.126999 0.01411,-0.338666 0.04233,-0.211666 0.02822,-0.324555 -0.07056,-0.211667 -0.211667,-0.663222 l -0.08467,-0.08467 q 0,-0.197555 -0.04233,-0.592666 -0.02822,-0.141111 -0.296333,-0.832555 0,-0.07055 -0.08467,-0.169333 -0.02822,-0.01411 0.04233,-0.127 0.01411,0 0.08467,-0.04233 -0.01411,-0.183444 -0.08467,-0.663222 -0.08467,-0.211666 -0.239889,-0.634999 l -0.08467,-0.04233 q 0,-0.09878 0,-0.282222 l -0.08467,-0.04233 q -0.07055,-0.197555 0.04233,-0.634999 -0.09878,-0.07056 -0.423333,-0.211667 -0.01411,0.02822 -0.126999,0.127 0.05644,0.211666 0.126999,0.761999 0.211667,0 0.211667,0 -0.07056,0.02822 -0.211667,0.04233 0.01411,0.04233 -0.04233,0.127 0.04233,0.07055 0.08467,0.155222 -0.04233,0.02822 -0.02822,0.197555 0,0.141111 0.04233,0.183444 0.05644,0.04233 0.155222,0.127 -0.09878,0.141111 -0.211667,0.338667 0,0.112889 -0.04233,0.324555 l -0.08467,0.08467 q 0.04233,0.324555 -0.04233,0.917221 l -0.211666,0.127 q -0.02822,0.07056 -0.02822,0.112889 0,0.02822 0.155222,0.225777 0.155222,0.197556 0.296333,0.296334 -0.05644,0.211666 -0.08467,0.451555 0.01411,0.04233 0.296333,0.211666 -0.05644,0.08467 -0.127,0.211667 -0.01411,0.09878 0.04233,0.282222 0.05644,0.183444 0.05644,0.268111 0,0.05644 -0.01411,0.112888 h -0.08467 q 0,0.05644 -0.04233,0.169334 0.08467,0.04233 0.08467,0.04233 0,0.05644 0.04233,0.296333 -0.01411,0.01411 -0.04233,0.05644 -0.02822,0.05645 0,0.07056 -0.127,0.141111 -0.08467,0.169333 0.02822,0.01411 0.08467,0.169333 0.04233,0.352778 -0.155222,0.465667 -0.268111,0.169333 -0.310445,0.239888 -0.02822,0.05644 0,0.211667 0.01411,0.02822 -0.04233,0.08467 v 0.04233 q 0.324555,0.08467 0.635,0.169333 0.423333,0.127 0.536221,0.239889 0.02822,0.02822 0,0.04233 -0.05644,0.02822 -0.05644,0.02822 0,0.01411 0.01411,0.01411 0.112889,0.07056 0.127,0.1834447 0,0.127 0,0.239888 0.268111,0.04233 0.592666,0.127 0.02822,0.01411 0.169333,0.451555 -0.05644,0.01411 -0.169333,0.04233 -0.02822,0.05644 -0.08467,0.127 -0.155223,0 -0.423333,0 -0.324556,0.01411 -0.959555,0.08467 -0.211667,0.08467 -0.211667,0.08467 l -0.127,-0.08467 q -0.169333,0.01411 -0.493888,0 l -0.127,-0.08467 q -0.324555,0.02822 -0.95955495,0 -0.127,-0.04233 -0.338666,-0.127 0,-0.01411 -0.08467,-0.211667 0.296333,-0.225777 0.719666,-0.324555 0,-0.04233 -0.04233,-0.127 0.09878,-0.183444 0.28222195,-0.4656657 0.05644,-0.07056 0.634999,-0.409222 v -0.08467 q -0.225777,-0.169333 -0.465666,-0.423333 -0.01411,-0.08467 0.07056,-0.225777 0.09878,-0.155223 0.09878,-0.197556 -0.05644,-0.211666 -0.08467,-0.705555 l 0.08467,-0.169333 q -0.01411,-0.112889 0,-0.324555 0.05644,-0.07056 0.127,-0.169334 0.02822,-0.169333 -0.05644,-0.338666 -0.112889,-0.239889 -0.112889,-0.254 -0.05644,-0.310444 0.04233,-0.451555 l 0.08467,-0.04233 q 0.07055,-0.310444 0,-0.677333 -0.04233,-0.04233 -0.127,-0.127 v -0.04233 q 0,0.04233 0.04233,-0.01411 0.02822,-0.07056 0,-0.07056 v -0.07055 q 0,-0.169334 -0.04233,-0.508 -0.04233,-0.04233 -0.08467,-0.211666 0.02822,-0.127 0.08467,-0.451556 -0.01411,-0.606777 -0.08467,-1.425221 -0.05644,-0.08467 -0.126999,-0.211666 0.02822,-0.268111 -0.08467,-0.790222 -0.18344395,-0.310444 -0.74788795,-0.423333 -0.05645,0.01411 -0.169334,0 -0.02822,-0.04233 -0.1269989977658,-0.12700008 0,-0.211666 0,-0.211666 Q 0.05643075,0.63779362 0.12698975,0.58134362 q 0.155223,0.02822 0.465667,0 0.07056,-0.112889 0.239888,-0.239889 0.127,-0.02822 0.25399995,0.07056 0.127,0.08467 0.169333,0.09878 l 0.296334,-0.127 q 0,-0.05645 0.04233,-0.127 0,0 0.366888,0 0.04233,0.07055 0.04233,0.08467 0.112889,0 0.380999,0 0.02822,-0.08467 0.04233,-0.08467 0.01411,0.04233 0.04233,0.127 0.127,0 0.423333,0 v 0.04233 q 0.225778,-0.05644 0.705555,-0.04233 0.04233,0.07055 0.127,0.169333 0.07055,-0.01411 0.211666,0.02822 0.08467,0.07056 0.09878,0.254 0.01411,0.28222208 0.01411,0.32455508 0.01411,0.02822 0.09878,0.169333 0.08467,0.127 0.07055,0.225778 -0.08467,0.09878 -0.197555,0.282222 -0.02822,0.211666 -0.04233,0.465666 0.112889,0.112889 0.324555,0.296333 -0.127,0.705555 -0.04233,0.959555 0.07055,0.02822 0.127,0.08467 v 0.08467 q 0.112888,0 0.296333,0.04233 0,0.01411 0,0.127 -0.09878,0 -0.254,0.04233 0,0.05644 -0.08467,0.155222 0.09878,0.127 0.296333,0.338666 0.01411,-0.01411 0.04233,0.127 -0.282222,0.155222 -0.254,0.338667 0.09878,0.07055 0.211666,0.197555 0.01411,0.112889 -0.04233,0.169333 0.09878,0.127 0.211667,0.254 -0.02822,0.09878 -0.254,0.338667 0,0.07056 0.04233,0.211666 0.09878,0.04233 0.254,0.155222 0.127,0.169333 0.211666,0.719666 0.08467,0 0.254,0.04233 0.05644,-0.04233 0.09878,-0.112889 0.04233,-0.07056 0.04233,-0.127 0,-0.08467 -0.07055,-0.225778 -0.05644,-0.155222 -0.05644,-0.254 0,-0.05644 0.01411,-0.112888 0.08467,-0.04233 0.169334,-0.127 0.04233,-0.08467 0.01411,-0.183445 -0.02822,-0.112888 -0.01411,-0.155222 0.112888,-0.127 0.253999,-0.380999 -0.01411,-0.05645 0,-0.169334 0.08467,-0.04233 0.169334,-0.155222 0.01411,-0.07055 -0.04233,-0.141111 -0.04233,-0.07055 -0.04233,-0.07055 -0.07055,-0.352778 0,-0.677333 0.09878,-0.09878 0.211667,-0.239889 0.01411,-0.09878 -0.05644,-0.239888 -0.05644,-0.141111 -0.02822,-0.268111 0.09878,-0.09878 0.211666,-0.296333 0.01411,-0.07056 0.01411,-0.141111 0,-0.112889 -0.07056,-0.338667 -0.05644,-0.225777 -0.02822,-0.352777 h 0.04233 q 0.01411,-0.05645 0.04233,-0.127 0.141111,-0.112889 0.141111,-0.127 -0.01411,-0.08467 -0.01411,-0.08467 0,-0.05644 0.04233,-0.169333 0.05644,-0.02822 0.112888,-0.07055 0.01411,-0.112889 -0.08467,-0.254 -0.08467,-0.141111 -0.07056,-0.254 l 0.08467,-0.08467 q -0.01411,-0.08467 0.04233,-0.25399908 0.07056,-0.02822 0.197556,-0.127 0.01411,-0.02822 0.04233,-0.112889 0.08467,-0.127 0.381,-0.324555 0.296333,-0.211667 0.465666,-0.225778 z M 7.3236877,2.1759277 q -0.112889,0.395111 -0.08467,0.705555 0.08467,0.01411 0.254,0.04233 0.08467,-0.296333 0.112889,-0.705555 -0.08467,0 -0.282222,-0.04233 z m 0.366888,0.874889 q -0.02822,0 -0.338666,0.09878 -0.310444,0.08467 -0.324556,0.112889 0,0.112889 -0.04233,0.338667 -0.02822,0.01411 -0.08467,0.04233 0,0.127 0,0.127 h -0.08467 q -0.01411,0.08467 0.07055,0.197555 0.09878,0.112889 0.09878,0.127 -0.07055,0.155222 -0.08467,0.423333 0.155223,0.07056 0.338667,0.169333 0.02822,0.08467 0.08467,0.211667 -0.08467,0.04233 -0.169334,0.127 0.01411,0.112888 -0.04233,0.324555 -0.09878,0.02822 -0.211667,0.08467 -0.04233,0.08467 -0.04233,0.141111 0,0.08467 0.05644,0.169333 0.07055,0.07055 0.07055,0.07055 -0.01411,0.197556 -0.04233,0.127 -0.01411,0.05644 -0.04233,0.04233 -0.08467,0.07056 -0.296333,0.211667 0.155222,0.254 0.155222,0.324555 0,0.04233 -0.09878,0.08467 -0.09878,0.04233 -0.141111,0.169333 0.02822,0.09878 0.04233,0.296333 0,0.01411 -0.07055,0.155222 -0.05644,0.141111 -0.04233,0.169333 0.02822,0.05644 0.07056,0.169334 -0.01411,0.05644 -0.07056,0.127 0,0 -0.127,0 -0.01411,0.02822 -0.05644,0.08467 -0.04233,0.05644 -0.02822,0.127 0,0.01411 0.04233,0.141111 0.05644,0.112889 0.04233,0.197555 l -0.169333,0.211667 h -0.08467 q 0,0 0,0.282222 0.02822,0.01411 0.08467,0.04233 -0.07055,0.07056 -0.08467,0.296333 0.08467,0.08467 0.211666,0.211667 0,0.04233 0,0.127 -0.04233,0.01411 -0.127,0.04233 l -0.04233,0.239889 q 0.08467,0.05644 0.254,0.169333 0.127,0.127 0.141111,0.2539993 0.02822,0.127 0.04233,0.127 0.04233,0 0.268111,-0.127 -0.127,-0.07056 -0.127,-0.112889 0,-0.02822 0.09878,-0.07056 0.09878,-0.04233 0.112888,-0.07055 v -0.084664 q 0.112889,0.07056 0.08467,0.08467 0.296333,0.01411 0.550333,-0.127 -0.05644,-0.225778 -0.04233,-0.239889 0.01411,-0.07055 0.169333,-0.169333 0.169333,-0.112889 0.197555,-0.211666 0.04233,-0.155222 -0.02822,-0.479778 -0.07055,-0.324555 -0.141111,-0.310444 0.01411,-0.02822 0.04233,-0.08467 0.169334,-0.282222 0.169334,-0.465666 0.01411,-0.254 -0.08467,-0.493888 l -0.08467,-0.04233 q -0.02822,-0.141111 0.127,-0.423333 h 0.08467 q 0.02822,-0.08467 -0.02822,-0.366888 -0.05644,-0.282222 -0.112889,-0.324556 -0.04233,-0.05644 -0.112889,-0.09878 -0.01411,-0.127 0.09878,-0.225778 0.112889,-0.112889 0.112889,-0.155222 -0.04233,-0.169333 -0.08467,-0.169333 l 0.127,-0.296333 q -0.211667,-0.254 -0.211667,-0.366889 0,-0.112889 0.211667,-0.423333 -0.05644,-0.04233 -0.169333,-0.127 v -0.04233 q -0.09878,-0.02822 -0.211667,0.04233 -0.112889,0.07056 -0.197555,0.04233 -0.02822,-0.05645 -0.08467,-0.211667 0.141111,-0.02822 0.08467,-0.04233 0.01411,0 0.04233,-0.08467 0.08467,0.04233 0.08467,0.04233 0.09878,0.127 0.197555,0.04233 0.01411,-0.01411 0,-0.112889 0.02822,-0.05644 0.04233,-0.127 -0.02822,-0.254 0.08467,-0.677333 0,-0.04233 -0.127,-0.08467 z M 6.3641327,10.28981 q 0.04233,0.01411 0.112888,0.04233 -0.07055,-0.04233 -0.112888,-0.04233 z M 14.586486,2.2888167 q 0.02822,0 0.155222,0.08467 0.127,0.07055 0.155222,0.07055 0.211667,-0.05644 0.649111,-0.04233 0.127,0.127 0.282222,0.239889 0.08467,-0.07056 0.395111,-0.112889 0.183444,0.02822 0.493888,0.239889 0.02822,0.07055 0.112889,0.155222 0.02822,0.02822 0.04233,0.01411 0,0 0,-0.02822 0,-0.04233 0.04233,-0.02822 v 0.08467 q 0.253999,0.141111 0.493888,0.268111 0.296333,0.169333 0.423333,0.338666 0.02822,0.02822 0.254,0.395111 -0.04233,0.01411 -0.04233,0.07056 0,0.127 0.112888,0.366888 0.112889,0.225778 0.183445,0.239889 0.08467,0.01411 0.296333,0.05644 0.02822,0.02822 0.08467,0.07056 l -0.04233,0.08467 q -0.05644,0 -0.155222,0 -0.169333,0.04233 -0.169333,0.254 0,0.183445 0,0.352778 0,0.01411 -0.04233,0.09878 -0.04233,0.08467 -0.02822,0.141111 0,0.01411 0.04233,0.127 0.04233,0.112889 0.02822,0.197556 0,0.01411 -0.07056,0.112889 -0.05644,0.09878 -0.04233,0.211666 l 0.08467,0.07056 q 0.08467,0.253999 0.02822,0.52211 0,0.05645 -0.112889,0.211667 -0.09878,0.141111 -0.08467,0.282222 0.01411,0.04233 0.09878,0.169333 0.09878,0.127 0.09878,0.183444 0,0.07056 -0.07056,0.127 0,0 -0.197555,0 -0.01411,0.05645 -0.01411,0.296333 0.01411,0.225778 0.01411,0.225778 0.01411,0.04233 0.268111,0.197555 0.08467,0.08467 0.211666,0.155222 0.04233,0.01411 0.211667,0 0.169333,-0.02822 0.225777,-0.02822 l 0.04233,-0.08467 q 0.127,-0.02822 0.225777,-0.02822 0.352778,0 0.578555,0.592667 0.07056,0.141111 0.155223,0.39511 -0.02822,0.09878 -0.04233,0.211667 -0.05644,0.01411 -0.155222,0.112889 -0.05644,0.04233 -0.112889,0.1269993 0,0.05644 0,0.155222 -0.112888,0.08467 -0.282222,0.239888 0.07056,0 0.07056,0.07056 0,0.127 -0.197556,0.409222 -0.437444,-0.05644 -0.719666,0.08467 -0.07055,0.07056 -0.225777,0.141111 -0.141111,0.07056 -0.550333,0.05645 -0.423333,-0.01411 -0.550333,-0.07056 -0.09878,-0.141111 -0.239889,-0.324555 -0.09878,-0.09878 -0.366888,-0.197555 -0.127,-0.05645 -0.197556,-0.04233 -0.380999,0.05645 -0.606777,0.197556 v 0.08467 q -0.08467,0.07056 -0.197555,0.155222 -0.05644,-0.01411 -0.169334,0 l -0.04233,0.08467 q -0.141111,-0.02822 -0.395111,-0.04233 -0.08467,0.05644 -0.197555,0.112889 -0.169333,-0.01411 -0.493889,0 -0.169333,0.08467 -0.479777,0.169333 -0.07056,0 -0.183444,-0.04233 -0.112889,-0.04233 -0.141111,-0.04233 -0.155223,0.02822 -0.437445,0.04233 -0.112888,-0.05644 -0.282222,-0.126999 -0.183444,0.02822 -0.564444,-0.07056 -0.08467,-0.169333 -0.239888,-0.366889 -0.141111,-0.04233 -0.395111,-0.155222 -0.141111,-0.08467 -0.409222,-0.6491093 -0.09878,-0.169334 -0.239889,-0.479778 0.01411,-0.127 0,-0.366888 -0.01411,-0.04233 -0.09878,-0.183445 -0.07056,-0.141111 -0.05645,-0.253999 0.05645,-0.127 0.112889,-0.324556 -0.04233,-0.09878 -0.04233,-0.366888 0.02822,-0.07056 0.155222,-0.127 0.141111,-0.07056 0.169333,-0.112889 0,-0.04233 0,-0.112889 0.09878,-0.183444 0.239889,-0.479777 0,-0.08467 0.04233,-0.254 0.08467,-0.112889 0.606777,-0.352778 v -0.04233 q 0.09878,0.01411 0.239889,0 0.02822,-0.09878 0.08467,-0.239889 h 0.07056 q -0.338666,-0.08467 -0.522111,-0.239888 -0.02822,-0.09878 -0.155222,-0.239889 0,0 -0.183444,-0.07055 -0.07055,-0.02822 -0.08467,-0.183445 0,-0.04233 -0.01411,-0.07056 -0.07055,-0.04233 -0.155222,-0.169333 -0.02822,-0.07056 0.05644,-0.649111 0.09878,-0.592666 0.155222,-0.663222 0.07055,-0.07055 0.183444,-0.211666 0,-0.04233 0,-0.112889 0.268111,-0.395111 0.324555,-0.451555 0.05644,-0.05644 0.423333,-0.282222 0.366889,-0.225778 0.423333,-0.239889 0.08467,0.05644 0.352778,0.08467 0.127,-0.112889 0.366888,-0.239889 0.155223,0.01411 0.437445,0 0.05644,-0.01411 0.225777,-0.127 0.183445,-0.112889 0.268111,-0.112889 z m -0.04233,1.523999 -0.08467,0.08467 q -0.155222,-0.01411 -0.437444,0 -0.112889,0.07055 -0.282222,0.155222 h -0.08467 q 0,0.155222 -0.08467,0.409222 0,0 -0.155222,0 -0.05644,0.282222 0,0.437444 0.09878,0.141111 0.08467,0.127 -0.02822,-0.02822 -0.08467,0.02822 0.02822,0.141111 0,0.211666 -0.08467,0.05645 -0.155222,0.155222 0.01411,0.169334 0,0.522111 0.888999,0.07056 1.15711,0 l 0.04233,-0.08467 q 0.254,-0.155223 0.479778,-0.197556 0.211666,-0.02822 0.606777,0.04233 0.01411,-0.09878 0.08467,-0.324555 -0.07056,0 0.451555,0.02822 0.296333,0 0.395111,-0.07055 0.05644,-0.04233 0.08467,-0.197556 0.04233,-0.155222 0.07056,-0.282222 -0.169334,-0.08467 -0.522111,-0.282222 -0.02822,-0.04233 -0.08467,-0.112888 -0.07055,-0.01411 -0.239888,-0.08467 -0.05645,-0.09878 -0.239889,-0.239889 -0.225778,-0.02822 -0.649111,-0.127 -0.01411,0 -0.127,-0.126999 -0.08467,-0.08467 -0.225777,-0.07056 z m 1.439332,3.372553 v 0.08467 q -0.141111,0.04233 -0.522111,0.169333 -0.05644,0.04233 -0.155222,0.112889 -0.310444,0 -0.931332,0.04233 -0.254,0.09878 -0.677333,0.239889 -0.04233,-0.01411 -0.127,0 -0.01411,0.07055 -0.07056,0.155222 -0.141111,0.05644 -0.366888,0.169333 0,0.09878 0.01411,0.197555 0,0.08467 -0.09878,0.127 -0.09878,-0.01411 -0.282222,0 l -0.04233,0.07056 q 0,0 -0.112889,0 0,0.05644 0.04233,0.169333 0.112889,0.05644 0.282222,0.155222 -0.01411,0.05644 0,0.127 0.04233,-0.01411 0.112889,0 0.07056,0.02822 0.183444,0.197555 0.112889,0.169333 0.183445,0.197556 0.05644,0 0.155222,0 0.268111,0.07055 0.366889,0.04233 0.05644,-0.05644 0.155222,-0.127 0.366888,-0.07055 0.931332,0.127 0,0 0,0.02822 0,0.01411 0.04233,0.01411 v -0.04233 q 0.296333,-0.155222 0.324555,-0.197555 -0.01411,-0.08467 0.02822,-0.239889 h 0.08467 q 0.05644,-0.09878 0.169333,-0.211667 0,0 0.310444,0 0.141111,-0.366888 0.493889,-0.592666 -0.05644,-0.02822 0.02822,-0.08467 0,-0.01411 -0.07056,-0.127 h 0.07056 q 0.01411,-0.04233 0.04233,-0.155222 -0.09878,-0.07056 -0.239889,-0.239889 -0.02822,-0.127 -0.08467,-0.268111 -0.05645,-0.155222 -0.239889,-0.141111 z m 8.391688,-7.05555008 q 0.08467,0 0.296333,0.112889 0.211666,0.112888 0.253999,0.169333 0.02822,0.112889 0.112889,0.268111 0.09878,0.02822 0.282222,0.112889 0.02822,0.07055 0.112889,0.197555 0.112889,0.07056 0.282222,0.23988908 0.05644,0.141111 0.01411,0.437444 -0.02822,0.225777 -0.05644,0.451555 -0.09878,0 -0.282222,0 -0.01411,0.01411 -0.09878,0.127 -0.08467,0.09878 -0.08467,0.112889 0.04233,0.08467 0.02822,0.197555 0.01411,0 0.08467,0.04233 -0.02822,0.04233 -0.04233,0.155222 -0.366889,0.02822 -0.310444,0.04233 -0.01411,-0.01411 -0.282222,-0.09878 -0.211667,-0.05644 -0.338667,-0.02822 v 0.08467 q 0,0 -0.155222,0 0,0.01411 -0.04233,0.07056 v 0.04233 q -0.08467,0.01411 -0.141111,-0.01411 -0.05644,-0.04233 -0.09878,-0.05644 -0.183444,0 -0.507999,-0.08467 -0.02822,-0.08467 -0.112889,-0.268111 -0.112889,-0.112889 -0.268111,-0.352777 -0.04233,-0.112889 -0.04233,-0.564444 0,-0.465667 0.04233,-0.57855508 0.01411,-0.05644 0.127,-0.09878 0.112889,-0.04233 0.141111,-0.08467 0.04233,-0.141111 0.112889,-0.352777 0.183444,0 0.507999,-0.04233 l 0.04233,-0.08467 q 0.225777,-0.141111 0.423333,-0.155222 z M 23.711954,3.1778167 q 0.07055,-0.01411 0.155222,-0.01411 0.282222,0 0.719666,0.127 0.395111,0.112889 0.493889,0.197556 0.01411,0.07055 0.04233,0.155222 0.05644,0.01411 0.155222,0.04233 0.01411,0.07056 0.04233,0.155222 h 0.07056 l 0.127,0.239889 h 0.02822 q 0,-0.01411 -0.07056,0.197555 0.02822,0.09878 0.04233,0.352778 -0.04233,0.127 -0.127,0.381 0.112889,0.07055 0.324555,0.239888 -0.01411,0 0,0.268111 l -0.127,0.04233 q 0.02822,0.169334 0,0.465667 -0.01411,0.05644 -0.07055,0.05644 -0.08467,-0.01411 -0.08467,-0.01411 0,0.155222 0,0.155222 0.01411,0 0.197555,-0.04233 0.01411,0.05644 0.112889,0.155222 0,0.02822 -0.07055,0.352777 0.09878,0.05645 0.04233,0.239889 h -0.08467 q -0.04233,0.07056 -0.112888,0.155222 0.01411,0.112889 0.112888,0.395111 -0.08467,0.05644 -0.08467,0.07056 0.05644,0.02822 0.127,0.08467 -0.04233,0.211667 -0.155222,0.705555 0.141111,0.112889 0.310444,0.381 0,0.05644 -0.04233,0.112889 -0.04233,0.04233 -0.04233,0.04233 -0.05644,0.254 0.127,0.465666 0.01411,0.02822 0.183444,0.08467 0.09878,0.02822 0.282222,0.04233 l 0.04233,0.112889 q 0.01411,0 0.02822,-0.112889 h 0.395111 q 0.02822,0.07056 0.04233,0.07056 0.07056,-0.01411 0.197555,-0.02822 -0.04233,0.07056 -0.08467,0.183445 0,0.05644 0.04233,0.239888 0.07056,-0.05644 0.225778,-0.197555 -0.02822,-0.155222 -0.02822,-0.155222 0.02822,-0.01411 0.07055,-0.07056 0.112889,0.01411 0.352778,0.112889 0.02822,0.05644 0.08467,0.112889 0.141111,0 0.423333,0.08467 0.141111,0.07055 0.268111,0.4092213 0.127,0.338666 0.08467,0.564444 l -0.268111,0.352777 q -0.254,0.268111 -0.508,0.310444 -0.254,-0.02822 -0.790221,-0.04233 -0.09878,0.01411 -0.423333,0.07056 -0.324556,0.05644 -0.465667,0.04233 -0.07055,0 -0.310444,-0.04233 -0.225778,-0.04233 -0.352777,-0.02822 -0.197556,0.04233 -0.239889,0.04233 -0.112889,-0.05644 -0.268111,-0.127 -0.381,-0.05644 -1.015999,-0.07056 -1.453444,-0.04233 -1.41111,-0.04233 l -0.04233,-0.07056 q -0.239888,0.02822 -0.733777,0.02822 -0.141111,-0.01411 -0.634999,-0.197556 -0.05645,0.01411 -0.183445,-0.02822 0,-0.05644 0,-0.127 -0.05644,-0.02822 -0.126999,-0.07055 0.01411,-0.07056 0.04233,-0.282222 -0.02822,-0.05644 -0.04233,-0.155222 0.04233,-0.324556 0.352777,-0.4233333 0.169333,-0.05644 0.536222,-0.01411 0.395111,0.02822 0.522111,0.01411 0.07056,-0.07055 0.197555,-0.155222 0.155222,-0.01411 0.508,-0.04233 l 0.02822,-0.112889 q 0.09878,0.01411 0.112889,0.01411 0.126999,0.01411 0.183444,0.02822 0.01411,0 0.02822,0 0.112889,-0.04233 0.225778,-0.08467 0.155222,-0.141111 0.197555,-0.987777 0.01411,-0.578555 0.04233,-1.15711 0.04233,-0.155222 0.112889,-0.437444 -0.02822,-0.211667 -0.04233,-0.691444 0.05644,-0.225778 0.04233,-0.282222 l -0.07055,-0.155222 q 0.02822,-0.254 0.02822,-0.733778 -0.04233,-0.08467 -0.112889,-0.239888 h -0.07055 l -0.127,-0.268111 q -0.127,-0.08467 -0.324556,-0.08467 -0.127,0 -0.409222,0.04233 -0.282222,0.04233 -0.39511,0.04233 -0.155222,-0.01411 -0.931333,-0.155222 -0.09878,0 -0.239889,-0.04233 -0.01411,-0.09878 -0.08467,-0.282222 -0.05645,-0.08467 -0.141111,-0.183444 -0.07056,-0.112889 -0.04233,-0.239889 0,-0.07055 0.225778,-0.239888 v -0.07056 q 0.747888,-0.225777 0.945444,-0.197555 0.08467,0.07056 0.268111,0.155222 0.211666,-0.01411 0.550333,0 0.01411,0 0.141111,0.07055 0.08467,0.05645 0.211666,0.04233 0.254,-0.01411 0.423333,-0.155222 -0.01411,-0.05644 0.112889,-0.155222 z m 3.174997,5.827884 q 0.268111,-0.04233 0.268111,0.08467 0,0.04233 -0.112889,0.02822 -0.239888,0.04233 -0.239888,-0.02822 0,-0.02822 0.04233,-0.05644 0.04233,-0.02822 0,-0.02822 0.02822,0 0.04233,0 z m 7.545033,-5.658551 q 0.225778,-0.02822 0.635,0.02822 0.423333,0.04233 0.550333,0.127 0.09878,0.127 0.380999,0.296333 0.197556,-0.01411 0.592666,0 0.169334,0.05644 0.479778,0.141111 0.02822,0.296333 0,0.352777 -0.02822,0.04233 -0.296333,0.127 l -0.04233,-0.141111 q -0.08467,0.05645 -0.07056,0.07056 0,0.05644 0.04233,0.183444 0.07056,0.05644 0.141111,0.112889 -0.01411,0.127 0,0.366889 l 0.225778,0.296333 h 0.07056 q -0.02822,0.127 -0.07056,0.268111 -0.05644,0 -0.112889,0.02822 -0.04233,0.127 -0.02822,0.268111 0.04233,0.197555 0.02822,0.296333 l -0.07055,0.112889 q -0.01411,0.05644 0,0.296333 0.02822,0.282222 0.02822,0.409222 0.112889,0.04233 0.338666,0.09878 -0.112889,0.254 -0.155222,0.451555 0,0.04233 0.04233,0.07056 0.01411,0.04233 -0.04233,0.112889 v 0.07056 q 0.07056,0.07056 0.155222,0.183445 -0.04233,0.126999 -0.07055,0.338666 0.04233,0.112889 0.112888,0.225778 0.04233,0 0.09878,0.04233 0,-0.01411 -0.02822,0.183444 0.02822,0 0.07055,0.07056 0.07056,-0.01411 0.183445,0.04233 0.04233,0.141111 0.112889,0.395111 0.01411,0 0.04233,-0.07056 0.07055,0 0.296333,0 0,0.112889 0.07055,0.338667 0.04233,0.07056 0.169334,0.127 0.127,0.05644 0.169333,0.09878 -0.01411,0.04233 0,0.09878 h 0.07055 q 0.09878,0.04233 0.183445,0.2257773 0.09878,0.183444 0.09878,0.338666 0,0.08467 -0.04233,0.127 -0.04233,0.04233 -0.127,0.09878 -0.05644,0.112888 -0.183444,0.296333 -0.02822,0.01411 -0.381,0.155222 -0.352777,0.127 -0.409222,0.141111 -0.07055,0.01411 -0.225777,-0.01411 -0.155222,-0.02822 -0.169334,-0.02822 -0.155222,0 -0.677332,0.04233 -0.465667,0.04233 -0.705555,0.02822 -0.451556,-0.02822 -0.409222,-0.02822 -0.01411,0 -0.141111,0.05644 -0.112889,0.05644 -0.183445,0.05644 -0.02822,-0.05644 -0.08467,-0.09878 -0.04233,-0.04233 -0.282222,-0.127 -0.127,0.01411 -0.409222,-0.04233 -0.183444,-0.09878 -0.183444,-0.324556 0,-0.126999 0.07055,-0.409221 -0.127,-0.05644 -0.366888,-0.155223 -0.08467,0.05645 -0.197556,0.155223 0,0.112888 -0.02822,0.296333 -0.05644,0.112888 -0.296333,0.253999 -0.352778,0.211667 -0.522111,0.225778 -0.05644,-0.02822 -0.225777,-0.04233 -0.02822,0 -0.08467,0.02822 -0.04233,0.01411 -0.02822,0.01411 -0.07056,0 -0.239889,-0.01411 -0.169333,-0.02822 -0.239889,-0.02822 -0.07055,0.05644 -0.183444,0.112889 -0.324555,0.08467 -0.931333,0 -0.155222,-0.01411 -0.253999,0 -0.917222,0.112888 -1.143,-0.183445 -0.01411,-0.07055 -0.08467,-0.225777 h -0.07056 q -0.183444,-0.07056 -0.141111,-0.437444 0.07056,-0.6208883 0.747889,-0.6208883 0.08467,0 0.239888,0 0.155222,0.01411 0.211667,0.01411 0.310444,0 0.395111,-0.141111 0,0 0,-0.112889 0.04233,-0.155222 0.02822,-0.225777 l -0.07056,-0.141111 q 0.01411,-0.169333 0,-0.479778 -0.05644,-0.09878 -0.112888,-0.225777 -0.02822,-0.324556 0.04233,-0.550333 0.09878,-0.08467 0.211666,-0.225778 0,-0.09878 0,-0.268111 0.05644,-0.07056 0.112889,-0.183444 0.01411,-0.07055 -0.04233,-0.239889 -0.05644,-0.183444 -0.07056,-0.197555 0.02822,-0.268111 0.04233,-0.705555 -0.05644,-0.112889 -0.141111,-0.296333 v -0.112889 q -0.01411,-0.141111 -0.08467,-0.338666 -0.04233,0 -0.112889,-0.02822 0.01411,-0.05644 0,-0.112888 -0.04233,0 -0.112889,0 -0.04233,-0.07056 -0.141111,-0.155222 -0.08467,0.01411 -0.253999,-0.02822 -0.02822,-0.05644 -0.08467,-0.112888 -0.01411,-0.01411 -0.07055,-0.01411 -0.05644,0 -0.07056,-0.02822 -0.01411,-0.04233 -0.04233,-0.112889 -0.02822,-0.01411 -0.08467,-0.01411 -0.04233,0 -0.05644,-0.01411 0.02822,-0.282222 0.02822,-0.268111 0,-0.02822 -0.08467,-0.183444 -0.07055,-0.169333 -0.07055,-0.296333 0,-0.05644 0.01411,-0.112889 0.02822,-0.01411 0.07055,-0.112889 0.01411,0 0.112889,-0.01411 0.09878,-0.02822 0.141111,-0.01411 0.02822,0 0.127,0.04233 0.09878,0.02822 0.141111,0.02822 0.141111,-0.05644 0.366889,-0.112889 0.380999,-0.05645 0.705555,0.04233 0.423333,0.112889 0.52211,0.296333 0,0.05645 0.02822,0.141111 0.08467,0.01411 0.225777,0.04233 l 0.04233,0.07055 q 0.324555,0.127 0.479777,0.112889 0.169333,-0.01411 0.338666,-0.268111 0.169334,-0.254 0.282222,-0.268111 0.05644,0 0.155223,-0.01411 0.09878,-0.127 0.296333,-0.296333 0.211666,-0.09878 0.77611,-0.155222 z m 0.183444,1.552221 q 0,0.04233 -0.04233,0.112889 -0.02822,0.07055 -0.09878,0.26811 -0.126999,-0.01411 -0.409221,-0.08467 -0.01411,0.05644 -0.07056,0.155222 -0.07055,0.04233 -0.183444,0.141111 -0.07056,0.09878 0,0.155222 h -0.08467 q -0.04233,0.04233 -0.254,0.07056 0.01411,-0.04233 -0.04233,-0.112889 0.01411,0.05644 0,0.155222 -0.04233,0.04233 -0.09878,0.112889 0,0.05644 0,0.141111 -0.127,0.08467 -0.268111,0.225777 v 0.07056 q -0.126999,0.05644 -0.409221,0.183444 -0.169334,0.211667 -0.479778,0.522111 0.05644,0.211666 0.07056,0.564444 0,0.02822 0,0.07055 0.02822,0.155222 0.07056,0.155222 0.09878,0 0.112889,0.04233 0.01411,0.02822 0.04233,0.09878 0,0.02822 -0.04233,0.112889 -0.07056,0.02822 -0.183444,0.112889 -0.04233,0.127 -0.02822,0.366889 0,0.01411 0.112889,0.183444 0.01411,0.141111 -0.112889,0.409222 0.01411,0.01411 0.02822,0.112889 0.112888,0.01411 0.296333,0.07055 0.05644,0.08467 0.225777,0.225778 v 0.02822 q 0.09878,-0.01411 0.296333,-0.02822 0.08467,0.02822 0.225778,0.07056 -0.01411,0.112889 0,0.112889 0.04233,-0.01411 0.112889,0 0.155222,0.05644 0.437444,0.183444 l 0.04233,0.07056 q 0.08467,0.01411 0.522111,-0.141111 l 0.02822,-0.07056 q 0.268111,-0.02822 0.677333,-0.155222 v -0.07056 l 0.07055,-0.04233 q 0.04233,-0.07055 0.04233,-0.141111 -0.01411,-0.112888 -0.01411,-0.155222 0.04233,0.02822 0.197555,0.07056 0.07056,-0.381 0.07056,-0.324556 0,-0.05644 -0.09878,-0.239888 -0.09878,-0.197556 -0.08467,-0.282222 0.04233,-0.01411 0.112889,-0.04233 0,-0.01411 0,-0.112888 0.01411,0 0.07056,-0.02822 0.01411,-0.05644 -0.02822,-0.26811 -0.04233,-0.225778 -0.08467,-0.296334 l -0.07056,-0.02822 q -0.02822,-0.09878 0.02822,-0.352777 0.07056,-0.254 0.112889,-0.310444 l 0.07056,-0.04233 q 0.01411,-0.04233 -0.04233,-0.141111 -0.05644,-0.112889 -0.05644,-0.155222 0,-0.211666 0,-0.663222 -0.08467,-0.04233 -0.268111,-0.112888 0.197556,-0.268111 0.197556,-0.536222 0,-0.112889 -0.05644,-0.211667 -0.04233,-0.09878 -0.282222,-0.141111 -0.183444,-0.04233 -0.381,-0.08467 z M 53.981139,0.00281862 q 0.112889,-0.01411 0.310444,0.04233 0.197555,0.04233 0.225778,0.04233 0.310444,-0.07056 0.917221,-0.08467 0.112889,0.05644 0.296333,0.127 l 0.169333,-0.08467 q 0.07056,-0.01411 0.338667,0.169333 0.05644,0.01411 0.155222,0.08467 l 0.04233,0.08467 q 0.01411,0.169333 0.04233,0.578555 -0.141111,0.04233 -0.409221,0.16933308 v 0.08467 q -0.112889,0.05644 -0.127,0.126999 0,0.07056 -0.04233,0.127 -0.09878,0.127 -0.338666,0.239889 l -0.08467,0.04233 q 0.01411,0.141111 0,0.381 -0.05644,0.05644 -0.127,0.127 -0.01411,0.07055 -0.05644,0.409222 -0.02822,0.324555 -0.02822,0.338666 0.09878,0.09878 0.254,0.254 -0.01411,0.02822 -0.127,0.127 0.07056,0.239889 -0.04233,0.790222 0.07056,0.04233 0.169334,0.127 l -0.169334,0.338666 q 0.02822,0.112889 0.04233,0.254 0.05644,0.01411 0.04233,0.07055 0,0.04233 0.04233,0.05644 -0.01411,0.02822 -0.08467,0.112888 -0.02822,0.112889 0.01411,0.268111 0.04233,0.141111 0.02822,0.239889 -0.05644,0.05644 -0.127,0.127 -0.01411,0.07055 0.02822,0.183444 0.05644,0.09878 0.05644,0.112889 -0.04233,0.09878 -0.04233,0.324555 0.05644,0.04233 0.127,0.08467 0.127,0.225778 0.08467,0.254 -0.04233,0.112889 -0.169333,0.296333 l 0.04233,0.211666 q 0.02822,0 0.08467,0.04233 -0.183445,0.705555 -0.183445,1.072443 0,0.08467 0.02822,0.112889 0.04233,0.02822 0.112888,0.05644 0.08467,0.465667 0.08467,0.550333 0,0.07056 -0.07056,0.183445 -0.07056,0.112888 -0.05644,0.239888 0.02822,0.127 0.268111,0.254 0.183444,0.08467 0.366889,0.155222 0.39511,0.1975553 0.479777,0.2963323 0.141111,0.155223 0.183444,0.536222 -0.02822,0.01411 -0.08467,0.04233 0.04233,0 0.02822,0.05644 0,0.05644 -0.02822,0.07055 -0.07056,0.01411 -0.211667,0.04233 0,0.05644 -0.04233,0.112889 -0.02822,0.04233 -0.409222,0.141111 0.02822,0 -0.465666,-0.04233 -0.239889,0.04233 -0.747889,0.04233 l -0.211666,-0.08467 q -0.01411,0 -0.127,0.04233 -0.112889,0.04233 -0.127,0.04233 -0.225778,-0.01411 -0.620888,0 l -0.08467,0.08467 q -0.183444,0.04233 -0.465666,-0.04233 -0.155222,-0.05645 -0.282222,-0.239889 -0.112889,-0.183444 -0.211667,-0.338666 -0.07055,0.02822 -0.08467,-0.01411 0,-0.04233 0,-0.07056 0.04233,0 0.169333,-0.04233 0.04233,-0.155222 0,-0.169333 -0.155222,0.127 -0.169333,0.127 -0.01411,0 -0.211667,-0.04233 0,0.09878 -0.08467,0.282222 -0.09878,0.04233 -0.211666,0.127 0,0.02822 0.04233,0.296333 -0.02822,0.01411 -0.08467,0.08467 -0.225778,0.02822 -0.832555,-0.04233 -0.07056,-0.606778 -0.465667,-0.874889 0.127,-0.268111 0.127,-0.296333 v -0.04233 q -0.07055,-0.02822 -0.07055,-0.296333 0.01411,-0.282222 -0.01411,-0.324556 -0.07056,-0.07055 -0.155222,-0.169333 -0.02822,-0.05644 -0.02822,-0.112889 0,-0.07055 0.07056,-0.183444 0.08467,-0.127 0.07055,-0.254 -0.08467,-0.183444 -0.197555,-0.493888 0.01411,-0.112889 0,-0.338667 -0.05644,-0.112888 -0.169333,-0.380999 l -0.08467,-0.04233 q -0.02822,-0.126999 0.01411,-0.338666 0.04233,-0.211666 0.02822,-0.324555 -0.07056,-0.211667 -0.211667,-0.663222 l -0.08467,-0.08467 q 0,-0.197555 -0.04233,-0.592666 -0.02822,-0.141111 -0.296333,-0.832555 0,-0.07055 -0.08467,-0.169333 -0.02822,-0.01411 0.04233,-0.127 0.01411,0 0.08467,-0.04233 -0.01411,-0.183444 -0.08467,-0.663222 -0.08467,-0.211666 -0.239889,-0.634999 l -0.08467,-0.04233 q 0,-0.09878 0,-0.282222 l -0.08467,-0.04233 q -0.07056,-0.197555 0.04233,-0.634999 -0.09878,-0.07056 -0.423333,-0.211667 -0.01411,0.02822 -0.127,0.127 0.05644,0.211666 0.127,0.761999 0.211667,0 0.211667,0 -0.07056,0.02822 -0.211667,0.04233 0.01411,0.04233 -0.04233,0.127 0.04233,0.07055 0.08467,0.155222 -0.04233,0.02822 -0.02822,0.197555 0,0.141111 0.04233,0.183444 0.05644,0.04233 0.155222,0.127 -0.09878,0.141111 -0.211667,0.338667 0,0.112889 -0.04233,0.324555 l -0.08467,0.08467 q 0.04233,0.324555 -0.04233,0.917221 l -0.211667,0.127 q -0.02822,0.07056 -0.02822,0.112889 0,0.02822 0.155222,0.225777 0.155222,0.197556 0.296333,0.296334 -0.05644,0.211666 -0.08467,0.451555 0.01411,0.04233 0.296333,0.211666 -0.05644,0.08467 -0.127,0.211667 -0.01411,0.09878 0.04233,0.282222 0.05644,0.183444 0.05644,0.268111 0,0.05644 -0.01411,0.112888 h -0.08467 q 0,0.05644 -0.04233,0.169334 0.08467,0.04233 0.08467,0.04233 0,0.05644 0.04233,0.296333 -0.01411,0.01411 -0.04233,0.05644 -0.02822,0.05645 0,0.07056 -0.127,0.141111 -0.08467,0.169333 0.02822,0.01411 0.08467,0.169333 0.04233,0.352778 -0.155222,0.465667 -0.268111,0.169333 -0.310444,0.239888 -0.02822,0.05644 0,0.211667 0.01411,0.02822 -0.04233,0.08467 v 0.04233 q 0.324555,0.08467 0.634999,0.169333 0.423333,0.127 0.536222,0.239889 0.02822,0.02822 0,0.04233 -0.05644,0.02822 -0.05644,0.02822 0,0.01411 0.01411,0.01411 0.112889,0.07056 0.127,0.1834447 0,0.127 0,0.239888 0.268111,0.04233 0.592666,0.127 0.02822,0.01411 0.169333,0.451555 -0.05644,0.01411 -0.169333,0.04233 -0.02822,0.05644 -0.08467,0.127 -0.155222,0 -0.423333,0 -0.324555,0.01411 -0.959555,0.08467 -0.211666,0.08467 -0.211666,0.08467 l -0.127,-0.08467 q -0.169333,0.01411 -0.493888,0 l -0.127,-0.08467 q -0.324556,0.02822 -0.959555,0 -0.127,-0.04233 -0.338667,-0.127 0,-0.01411 -0.08467,-0.211667 0.296333,-0.225777 0.719666,-0.324555 0,-0.04233 -0.04233,-0.127 0.09878,-0.183444 0.282222,-0.4656657 0.05644,-0.07056 0.634999,-0.409222 v -0.08467 q -0.225777,-0.169333 -0.465666,-0.423333 -0.01411,-0.08467 0.07055,-0.225777 0.09878,-0.155223 0.09878,-0.197556 -0.05644,-0.211666 -0.08467,-0.705555 l 0.08467,-0.169333 q -0.01411,-0.112889 0,-0.324555 0.05644,-0.07056 0.127,-0.169334 0.02822,-0.169333 -0.05644,-0.338666 -0.112889,-0.239889 -0.112889,-0.254 -0.05644,-0.310444 0.04233,-0.451555 l 0.08467,-0.04233 q 0.07055,-0.310444 0,-0.677333 -0.04233,-0.04233 -0.127,-0.127 v -0.04233 q 0,0.04233 0.04233,-0.01411 0.02822,-0.07056 0,-0.07056 v -0.07055 q 0,-0.169334 -0.04233,-0.508 -0.04233,-0.04233 -0.08467,-0.211666 0.02822,-0.127 0.08467,-0.451556 -0.01411,-0.606777 -0.08467,-1.425221 -0.05644,-0.08467 -0.127,-0.211666 0.02822,-0.268111 -0.08467,-0.790222 -0.183445,-0.310444 -0.747889,-0.423333 -0.05644,0.01411 -0.169333,0 -0.02822,-0.04233 -0.127,-0.12700008 0,-0.211666 0,-0.211666 0.05645,-0.02822 0.127,-0.08467 0.155222,0.02822 0.465666,0 0.07056,-0.112889 0.239889,-0.239889 0.127,-0.02822 0.254,0.07056 0.127,0.08467 0.169333,0.09878 l 0.296333,-0.127 q 0,-0.05645 0.04233,-0.127 0,0 0.366888,0 0.04233,0.07055 0.04233,0.08467 0.112889,0 0.381,0 0.02822,-0.08467 0.04233,-0.08467 0.01411,0.04233 0.04233,0.127 0.127,0 0.423333,0 v 0.04233 q 0.225777,-0.05644 0.705555,-0.04233 0.04233,0.07055 0.127,0.169333 0.07055,-0.01411 0.211666,0.02822 0.08467,0.07056 0.09878,0.254 0.01411,0.28222208 0.01411,0.32455508 0.01411,0.02822 0.09878,0.169333 0.08467,0.127 0.07055,0.225778 -0.08467,0.09878 -0.197555,0.282222 -0.02822,0.211666 -0.04233,0.465666 0.112889,0.112889 0.324556,0.296333 -0.127,0.705555 -0.04233,0.959555 0.07056,0.02822 0.127,0.08467 v 0.08467 q 0.112889,0 0.296333,0.04233 0,0.01411 0,0.127 -0.09878,0 -0.253999,0.04233 0,0.05644 -0.08467,0.155222 0.09878,0.127 0.296333,0.338666 0.01411,-0.01411 0.04233,0.127 -0.282222,0.155222 -0.253999,0.338667 0.09878,0.07055 0.211666,0.197555 0.01411,0.112889 -0.04233,0.169333 0.09878,0.127 0.211666,0.254 -0.02822,0.09878 -0.253999,0.338667 0,0.07056 0.04233,0.211666 0.09878,0.04233 0.254,0.155222 0.127,0.169333 0.211666,0.719666 0.08467,0 0.254,0.04233 0.05644,-0.04233 0.09878,-0.112889 0.04233,-0.07056 0.04233,-0.127 0,-0.08467 -0.07056,-0.225778 -0.05644,-0.155222 -0.05644,-0.254 0,-0.05644 0.01411,-0.112888 0.08467,-0.04233 0.169333,-0.127 0.04233,-0.08467 0.01411,-0.183445 -0.02822,-0.112888 -0.01411,-0.155222 0.112889,-0.127 0.254,-0.380999 -0.01411,-0.05645 0,-0.169334 0.08467,-0.04233 0.169333,-0.155222 0.01411,-0.07055 -0.04233,-0.141111 -0.04233,-0.07055 -0.04233,-0.07055 -0.07056,-0.352778 0,-0.677333 0.09878,-0.09878 0.211666,-0.239889 0.01411,-0.09878 -0.05644,-0.239888 -0.05644,-0.141111 -0.02822,-0.268111 0.09878,-0.09878 0.211666,-0.296333 0.01411,-0.07056 0.01411,-0.141111 0,-0.112889 -0.07055,-0.338667 -0.05645,-0.225777 -0.02822,-0.352777 h 0.04233 q 0.01411,-0.05645 0.04233,-0.127 0.141111,-0.112889 0.141111,-0.127 -0.01411,-0.08467 -0.01411,-0.08467 0,-0.05644 0.04233,-0.169333 0.05644,-0.02822 0.112889,-0.07055 0.01411,-0.112889 -0.08467,-0.254 -0.08467,-0.141111 -0.07056,-0.254 l 0.08467,-0.08467 q -0.01411,-0.08467 0.04233,-0.25399908 0.07056,-0.02822 0.197555,-0.127 0.01411,-0.02822 0.04233,-0.112889 0.08467,-0.127 0.380999,-0.324555 0.296334,-0.211667 0.465667,-0.225778 z M 53.769472,2.1759277 q -0.112889,0.395111 -0.08467,0.705555 0.08467,0.01411 0.253999,0.04233 0.08467,-0.296333 0.112889,-0.705555 -0.08467,0 -0.282222,-0.04233 z m 0.366889,0.874889 q -0.02822,0 -0.338667,0.09878 -0.310444,0.08467 -0.324555,0.112889 0,0.112889 -0.04233,0.338667 -0.02822,0.01411 -0.08467,0.04233 0,0.127 0,0.127 h -0.08467 q -0.01411,0.08467 0.07055,0.197555 0.09878,0.112889 0.09878,0.127 -0.07056,0.155222 -0.08467,0.423333 0.155222,0.07056 0.338667,0.169333 0.02822,0.08467 0.08467,0.211667 -0.08467,0.04233 -0.169333,0.127 0.01411,0.112888 -0.04233,0.324555 -0.09878,0.02822 -0.211667,0.08467 -0.04233,0.08467 -0.04233,0.141111 0,0.08467 0.05644,0.169333 0.07056,0.07055 0.07056,0.07055 -0.01411,0.197556 -0.04233,0.127 -0.01411,0.05644 -0.04233,0.04233 -0.08467,0.07056 -0.296333,0.211667 0.155222,0.254 0.155222,0.324555 0,0.04233 -0.09878,0.08467 -0.09878,0.04233 -0.141111,0.169333 0.02822,0.09878 0.04233,0.296333 0,0.01411 -0.07056,0.155222 -0.05644,0.141111 -0.04233,0.169333 0.02822,0.05644 0.07056,0.169334 -0.01411,0.05644 -0.07056,0.127 0,0 -0.127,0 -0.01411,0.02822 -0.05644,0.08467 -0.04233,0.05644 -0.02822,0.127 0,0.01411 0.04233,0.141111 0.05644,0.112889 0.04233,0.197555 l -0.169333,0.211667 h -0.08467 q 0,0 0,0.282222 0.02822,0.01411 0.08467,0.04233 -0.07056,0.07056 -0.08467,0.296333 0.08467,0.08467 0.211667,0.211667 0,0.04233 0,0.127 -0.04233,0.01411 -0.127,0.04233 l -0.04233,0.239889 q 0.08467,0.05644 0.253999,0.169333 0.127,0.127 0.141111,0.2539993 0.02822,0.127 0.04233,0.127 0.04233,0 0.268111,-0.127 -0.127,-0.07056 -0.127,-0.112889 0,-0.02822 0.09878,-0.07056 0.09878,-0.04233 0.112889,-0.07055 v -0.084664 q 0.112889,0.07056 0.08467,0.08467 0.296333,0.01411 0.550333,-0.127 -0.05645,-0.225778 -0.04233,-0.239889 0.01411,-0.07055 0.169334,-0.169333 0.169333,-0.112889 0.197555,-0.211666 0.04233,-0.155222 -0.02822,-0.479778 -0.07056,-0.324555 -0.141111,-0.310444 0.01411,-0.02822 0.04233,-0.08467 0.169333,-0.282222 0.169333,-0.465666 0.01411,-0.254 -0.08467,-0.493888 l -0.08467,-0.04233 q -0.02822,-0.141111 0.127,-0.423333 h 0.08467 q 0.02822,-0.08467 -0.02822,-0.366888 -0.05644,-0.282222 -0.112888,-0.324556 -0.04233,-0.05644 -0.112889,-0.09878 -0.01411,-0.127 0.09878,-0.225778 0.112888,-0.112889 0.112888,-0.155222 -0.04233,-0.169333 -0.08467,-0.169333 l 0.127,-0.296333 q -0.211667,-0.254 -0.211667,-0.366889 0,-0.112889 0.211667,-0.423333 -0.05645,-0.04233 -0.169334,-0.127 v -0.04233 q -0.09878,-0.02822 -0.211666,0.04233 -0.112889,0.07056 -0.197555,0.04233 -0.02822,-0.05645 -0.08467,-0.211667 0.141111,-0.02822 0.08467,-0.04233 0.01411,0 0.04233,-0.08467 0.08467,0.04233 0.08467,0.04233 0.09878,0.127 0.197556,0.04233 0.01411,-0.01411 0,-0.112889 0.02822,-0.05644 0.04233,-0.127 -0.02822,-0.254 0.08467,-0.677333 0,-0.04233 -0.127,-0.08467 z M 52.809917,10.28981 q 0.04233,0.01411 0.112889,0.04233 -0.07055,-0.04233 -0.112889,-0.04233 z m 8.476354,-7.8457713 q 0.493888,0 0.564444,0 0.141111,0.07056 0.352777,0.169333 0.127,0 0.395111,0.05645 0.09878,0.07055 0.254,0.169333 0.197555,0 0.578555,0.127 0.07055,0.05644 0.155222,0.254 0.08467,0.183444 0.141111,0.225777 0.155222,0.08467 0.437444,0.268111 0.254,0.225778 0.437444,0.606778 0.04233,0.225777 0.183444,0.663221 0.05645,0.04233 0.127,0.127 -0.04233,0.141111 -0.04233,0.437444 0,0.01411 0.07056,0.169334 0.07056,0.155222 0.05644,0.26811 h -0.04233 q -0.01411,0.155223 -0.08467,0.437445 l -0.08467,0.04233 q -0.04233,0.127 -0.09878,0.268111 -0.04233,0.127 -0.141111,0.141111 -0.09878,0 -0.296333,0.02822 -0.02822,0.01411 -0.211667,0.127 -0.169333,0.112889 -0.310444,0.112889 -0.07056,0 -0.127,-0.01411 -0.05644,-0.09878 -0.169333,-0.225778 -0.07056,0.01411 -0.183444,0 -0.296334,0.239889 -0.465667,0.239889 -0.127,0 -0.282222,-0.05645 -0.01411,-0.01411 -0.127,-0.141111 -0.141111,0.05645 -0.39511,0.08467 -0.01411,0 -0.155223,-0.04233 -0.141111,-0.05645 -0.239888,-0.04233 l -0.04233,0.08467 q -0.155222,0.01411 -0.437444,0.05644 v 0.04233 q -0.239888,0.01411 -0.437444,-0.04233 -0.01411,-0.01411 -0.02822,-0.05644 -0.01411,-0.04233 -0.05644,-0.04233 -0.07056,0.01411 -0.169334,0.112888 -0.09878,0.09878 -0.141111,0.112889 -0.05644,0.01411 -0.169333,-0.02822 -0.112889,-0.05644 -0.127,-0.05644 -0.380999,-0.05645 -1.142999,0.169333 0,0.507999 0.169333,0.790221 0.07056,0.04233 0.141111,0.08467 0.01411,0.07055 -0.141111,0.352777 0.04233,0.02822 0.423333,0.522111 0.296334,0.395111 0.409222,0.395111 0.112889,0 0.310445,0.04233 l 0.225777,0.268111 q -0.01411,0.05645 0,0.127 0.08467,0.04233 0.296333,0.01411 0.239889,-0.02822 0.310444,-0.01411 0.08467,0.01411 0.296334,0.112889 0.211666,0.09878 0.366888,0.09878 0.09878,0 0.211667,-0.04233 0.05644,-0.07056 0.169333,-0.1693325 0.127,-0.01411 0.352777,-0.08467 0,-0.05644 0,-0.141111 0.07056,0 0.183445,-0.04233 0,-0.05644 0.04233,-0.127 0.169333,-0.07055 0.479777,-0.310444 0.08467,-0.169333 0.352778,-0.437444 0.05644,0.01411 0.169333,0 0.09878,-0.02822 0.522111,-0.338666 0.04233,-0.07056 0.08467,-0.141111 0.127,0.01411 0.352778,0 0,0.02822 0.08467,0.08467 -0.01411,0.197556 -0.04233,0.620889 -0.07055,0.225777 -0.169333,0.606777 0.01411,0.07056 0,0.183444 -0.254,0.239889 -0.620888,0.6067775 -0.07056,0.09878 -0.155223,0.197555 -0.08467,0.09878 -0.225777,0.112889 -0.127,0 -0.395111,0.04233 -0.112889,0.127 -0.352777,0.310444 -0.169334,0 -0.564444,0.04233 -0.08467,0 -0.395111,0.112888 -0.254,0.08467 -0.437444,0.05645 -0.08467,-0.05645 -0.183445,-0.127 -0.08467,-0.02822 -0.409222,-0.05644 -0.225777,-0.02822 -0.324555,-0.126999 -0.01411,-0.05644 -0.05644,-0.169334 -0.02822,-0.05644 -0.268111,-0.197555 -0.239889,-0.155222 -0.352778,-0.197555 -0.09878,-0.04233 -0.296333,-0.02822 -0.197555,0.01411 -0.296333,-0.01411 -0.05644,-0.08467 -0.183444,-0.225777 -0.112889,-0.02822 -0.296333,-0.1269995 -0.08467,-0.169334 -0.268111,-0.479778 -0.197556,-0.183444 -0.522111,-0.564444 -0.07055,-0.112889 -0.09878,-0.282222 -0.05644,-0.254 -0.09878,-0.324555 -0.04233,-0.08467 -0.112889,-0.183444 0.01411,-0.169334 0,-0.479778 l -0.08467,-0.127 q 0.04233,-0.155222 0.04233,-0.536221 -0.05645,-0.112889 -0.04233,-0.169334 0.01411,-0.08467 0.183445,-0.197555 0.183444,-0.112889 0.211666,-0.197555 0.04233,-0.155223 -0.04233,-0.268111 -0.07056,-0.112889 -0.127,-0.211667 -0.04233,-0.112889 -0.02822,-0.550333 0.01411,-0.437444 0.07055,-0.592666 0.05644,-0.02822 0.127,-0.08467 0,-0.07056 0.04233,-0.169333 h 0.08467 q 0.02822,-0.141111 0.127,-0.395111 0.112889,-0.07055 0.268111,-0.225777 0.01411,-0.08467 0.08467,-0.254 0.04233,-0.05644 0.479778,-0.437444 0.05644,0 0.183444,-0.04233 0.07056,-0.09878 0.211667,-0.225778 0.141111,0 0.437444,-0.08467 0.169333,-0.127 0.352777,-0.268111 0.09878,-0.01411 0.225778,0.02822 0.127,0.04233 0.211666,0.02822 0.07056,-0.08467 0.211667,-0.183444 0.183444,-0.04233 0.536222,-0.04233 z m 0,0.874889 q -0.02822,0 -0.310445,0.126999 -0.282222,0.112889 -0.310444,0.141111 -0.04233,0.155223 -0.211666,0.338667 -0.05644,0.02822 -0.268111,-0.04233 -0.282222,-0.02822 -0.479778,0.26811 0.02822,0.07056 0.08467,0.169334 0.01411,-0.04233 0.04233,0.225777 -0.02822,-0.01411 -0.08467,0.04233 -0.649111,0 -0.747889,0.08467 0.01411,0.07056 0,0.169333 -0.07055,0.141111 -0.169333,0.352778 0,0.141111 -0.08467,0.437444 h -0.08467 q -0.02822,0.08467 -0.09878,0.268111 h -0.08467 q -0.01411,0.07055 -0.01411,0.127 0,0.268111 0.423333,0.268111 0.197555,0 0.64911,-0.07056 0.451555,-0.08467 0.620889,-0.08467 0.09878,0 0.155222,0.01411 0.09878,0.08467 0.225777,0.183444 -0.04233,0.02822 0.01411,0.04233 0.02822,0 0.07056,0 v -0.08467 q 0.02822,-0.02822 0,-0.141111 0.127,0 0.437444,-0.04233 0.493889,-0.07055 1.53811,-0.211666 0.05644,-0.04233 0.127,-0.127 0,-0.01411 -0.04233,-0.141111 0.26811,-0.183444 0.790221,-0.169333 -0.04233,-0.352778 -0.09878,-0.465667 -0.05644,-0.126999 -0.253999,-0.282222 -0.07056,-0.01411 -0.183445,-0.08467 0,-0.112889 -0.04233,-0.352778 -0.07055,-0.09878 -0.169333,-0.253999 0.01411,-0.05644 0,-0.141111 -0.05644,0.01411 -0.127,0 -0.02822,-0.05645 -0.09878,-0.127 -0.465666,-0.296333 -0.77611,-0.352778 -0.112889,0.01411 -0.310444,0 -0.112889,-0.08467 -0.127,-0.08467 z m 9.675792,0.02822 q 0.225778,-0.02822 0.635,0.02822 0.423333,0.04233 0.550332,0.127 0.09878,0.127 0.381,0.296333 0.197556,-0.01411 0.592666,0 0.169334,0.05644 0.479778,0.141111 0.02822,0.296333 0,0.352777 -0.02822,0.04233 -0.296333,0.127 l -0.04233,-0.141111 q -0.08467,0.05645 -0.07055,0.07056 0,0.05644 0.04233,0.183444 0.07056,0.05644 0.141111,0.112889 -0.01411,0.127 0,0.366889 l 0.225778,0.296333 h 0.07055 q -0.02822,0.127 -0.07055,0.268111 -0.05645,0 -0.112889,0.02822 -0.04233,0.127 -0.02822,0.268111 0.04233,0.197555 0.02822,0.296333 l -0.07056,0.112889 q -0.01411,0.05644 0,0.296333 0.02822,0.282222 0.02822,0.409222 0.112888,0.04233 0.338666,0.09878 -0.112889,0.254 -0.155222,0.451555 0,0.04233 0.04233,0.07056 0.01411,0.04233 -0.04233,0.112889 v 0.07056 q 0.07055,0.07056 0.155222,0.183445 -0.04233,0.126999 -0.07055,0.338666 0.04233,0.112889 0.112888,0.225778 0.04233,0 0.09878,0.04233 0,-0.01411 -0.02822,0.183444 0.02822,0 0.07056,0.07056 0.07056,-0.01411 0.183445,0.04233 0.04233,0.141111 0.112888,0.395111 0.01411,0 0.04233,-0.07056 0.07056,0 0.296333,0 0,0.112889 0.07056,0.338667 0.04233,0.07056 0.169334,0.127 0.126999,0.05644 0.169333,0.09878 -0.01411,0.04233 0,0.09878 h 0.07056 q 0.09878,0.04233 0.183445,0.2257773 0.09878,0.183444 0.09878,0.338666 0,0.08467 -0.04233,0.127 -0.04233,0.04233 -0.127,0.09878 -0.05644,0.112888 -0.183444,0.296333 -0.02822,0.01411 -0.381,0.155222 -0.352777,0.127 -0.409222,0.141111 -0.07055,0.01411 -0.225777,-0.01411 -0.155223,-0.02822 -0.169334,-0.02822 -0.155222,0 -0.677332,0.04233 -0.465667,0.04233 -0.705555,0.02822 -0.451556,-0.02822 -0.409222,-0.02822 -0.01411,0 -0.141111,0.05644 -0.112889,0.05644 -0.183445,0.05644 -0.02822,-0.05644 -0.08467,-0.09878 -0.04233,-0.04233 -0.282222,-0.127 -0.127,0.01411 -0.409222,-0.04233 -0.183444,-0.09878 -0.183444,-0.324556 0,-0.126999 0.07055,-0.409221 -0.127,-0.05644 -0.366889,-0.155223 -0.08467,0.05645 -0.197555,0.155223 0,0.112888 -0.02822,0.296333 -0.05645,0.112888 -0.296333,0.253999 -0.352778,0.211667 -0.522111,0.225778 -0.05644,-0.02822 -0.225778,-0.04233 -0.02822,0 -0.08467,0.02822 -0.04233,0.01411 -0.02822,0.01411 -0.07056,0 -0.239889,-0.01411 -0.169333,-0.02822 -0.239889,-0.02822 -0.07055,0.05644 -0.183444,0.112889 -0.324555,0.08467 -0.931333,0 -0.155222,-0.01411 -0.254,0 -0.917221,0.112888 -1.142999,-0.183445 -0.01411,-0.07055 -0.08467,-0.225777 h -0.07056 q -0.183444,-0.07056 -0.141111,-0.437444 0.07056,-0.6208883 0.747889,-0.6208883 0.08467,0 0.239888,0 0.155222,0.01411 0.211667,0.01411 0.310444,0 0.395111,-0.141111 0,0 0,-0.112889 0.04233,-0.155222 0.02822,-0.225777 l -0.07056,-0.141111 q 0.01411,-0.169333 0,-0.479778 -0.05644,-0.09878 -0.112889,-0.225777 -0.02822,-0.324556 0.04233,-0.550333 0.09878,-0.08467 0.211666,-0.225778 0,-0.09878 0,-0.268111 0.05645,-0.07056 0.112889,-0.183444 0.01411,-0.07055 -0.04233,-0.239889 -0.05645,-0.183444 -0.07056,-0.197555 0.02822,-0.268111 0.04233,-0.705555 -0.05645,-0.112889 -0.141111,-0.296333 v -0.112889 q -0.01411,-0.141111 -0.08467,-0.338666 -0.04233,0 -0.112889,-0.02822 0.01411,-0.05644 0,-0.112888 -0.04233,0 -0.112889,0 -0.04233,-0.07056 -0.141111,-0.155222 -0.08467,0.01411 -0.253999,-0.02822 -0.02822,-0.05644 -0.08467,-0.112888 -0.01411,-0.01411 -0.07056,-0.01411 -0.05644,0 -0.07055,-0.02822 -0.01411,-0.04233 -0.04233,-0.112889 -0.02822,-0.01411 -0.08467,-0.01411 -0.04233,0 -0.05644,-0.01411 0.02822,-0.282222 0.02822,-0.268111 0,-0.02822 -0.08467,-0.183444 -0.07055,-0.169333 -0.07055,-0.296333 0,-0.05644 0.01411,-0.112889 0.02822,-0.01411 0.07055,-0.112889 0.01411,0 0.112889,-0.01411 0.09878,-0.02822 0.141111,-0.01411 0.02822,0 0.127,0.04233 0.09878,0.02822 0.141111,0.02822 0.141111,-0.05644 0.366889,-0.112889 0.380999,-0.05645 0.705555,0.04233 0.423333,0.112889 0.52211,0.296333 0,0.05645 0.02822,0.141111 0.08467,0.01411 0.225777,0.04233 l 0.04233,0.07055 q 0.324556,0.127 0.479778,0.112889 0.169333,-0.01411 0.338666,-0.268111 0.169333,-0.254 0.282222,-0.268111 0.05645,0 0.155222,-0.01411 0.09878,-0.127 0.296334,-0.296333 0.211666,-0.09878 0.77611,-0.155222 z m 0.183444,1.552221 q 0,0.04233 -0.04233,0.112889 -0.02822,0.07055 -0.09878,0.26811 -0.127,-0.01411 -0.409222,-0.08467 -0.01411,0.05644 -0.07056,0.155222 -0.07056,0.04233 -0.183444,0.141111 -0.07056,0.09878 0,0.155222 h -0.08467 q -0.04233,0.04233 -0.254,0.07056 0.01411,-0.04233 -0.04233,-0.112889 0.01411,0.05644 0,0.155222 -0.04233,0.04233 -0.09878,0.112889 0,0.05644 0,0.141111 -0.127,0.08467 -0.268111,0.225777 v 0.07056 q -0.127,0.05644 -0.409222,0.183444 -0.169333,0.211667 -0.479777,0.522111 0.05644,0.211666 0.07055,0.564444 0,0.02822 0,0.07055 0.02822,0.155222 0.07056,0.155222 0.09878,0 0.112889,0.04233 0.01411,0.02822 0.04233,0.09878 0,0.02822 -0.04233,0.112889 -0.07056,0.02822 -0.183445,0.112889 -0.04233,0.127 -0.02822,0.366889 0,0.01411 0.112889,0.183444 0.01411,0.141111 -0.112889,0.409222 0.01411,0.01411 0.02822,0.112889 0.112889,0.01411 0.296334,0.07055 0.05644,0.08467 0.225777,0.225778 v 0.02822 q 0.09878,-0.01411 0.296333,-0.02822 0.08467,0.02822 0.225778,0.07056 -0.01411,0.112889 0,0.112889 0.04233,-0.01411 0.112889,0 0.155222,0.05644 0.437444,0.183444 l 0.04233,0.07056 q 0.08467,0.01411 0.522111,-0.141111 l 0.02822,-0.07056 q 0.268111,-0.02822 0.677333,-0.155222 v -0.07056 l 0.07056,-0.04233 q 0.04233,-0.07055 0.04233,-0.141111 -0.01411,-0.112888 -0.01411,-0.155222 0.04233,0.02822 0.197555,0.07056 0.07055,-0.381 0.07055,-0.324556 0,-0.05644 -0.09878,-0.239888 -0.09878,-0.197556 -0.08467,-0.282222 0.04233,-0.01411 0.112889,-0.04233 0,-0.01411 0,-0.112888 0.01411,0 0.07055,-0.02822 0.01411,-0.05644 -0.02822,-0.26811 -0.04233,-0.225778 -0.08467,-0.296334 l -0.07056,-0.02822 q -0.02822,-0.09878 0.02822,-0.352777 0.07056,-0.254 0.112889,-0.310444 l 0.07056,-0.04233 q 0.01411,-0.04233 -0.04233,-0.141111 -0.05644,-0.112889 -0.05644,-0.155222 0,-0.211666 0,-0.663222 -0.08467,-0.04233 -0.268111,-0.112888 0.197555,-0.268111 0.197555,-0.536222 0,-0.112889 -0.05644,-0.211667 -0.04233,-0.09878 -0.282222,-0.141111 -0.183444,-0.04233 -0.381,-0.08467 z m 5.371913,-1.947332 q 0.141111,-0.01411 0.338666,0.05644 0.211667,0.07056 0.268111,0.07056 0.01411,0 0.08467,-0.04233 0.07056,-0.04233 0.07056,-0.04233 0.08467,-0.01411 0.197556,0.04233 0.112888,0.04233 0.126999,0.04233 0.01411,0 0.09878,-0.04233 0.09878,-0.04233 0.09878,-0.04233 0.155222,-0.02822 0.437444,0.04233 0.296333,0.07055 0.366889,0.112888 0.155222,0.09878 0.211666,0.282222 -0.01411,0.08467 0,0.211667 0.04233,0.02822 0.112889,0.07055 0.155222,0.239889 0.169333,0.366889 0,0.02822 -0.04233,0.05644 -0.04233,0.01411 -0.04233,0.02822 0.02822,0.155222 0,0.479777 -0.05644,0.05644 -0.126999,0.112889 0.01411,0.239888 0,0.691444 -0.02822,0.112888 -0.07056,0.282222 0.07056,0.05644 0.07056,0.07055 l -0.07056,0.04233 q 0,0.169334 -0.127,0.409222 -0.04233,0.02822 0.04233,0.112889 0.04233,0.141111 0.141111,0.169333 0.09878,0.01411 0.225778,0.04233 -0.01411,0.127 -0.08467,0.39511 -0.07055,0.07056 -0.155222,0.239889 -0.02822,0.183444 0.02822,0.366889 0.08467,0.04233 0.169333,0.112889 -0.04233,0.225777 -0.04233,0.239888 0.02822,0.08467 0.08467,0.211667 -0.02822,0.01411 -0.211666,0.112889 -0.05645,0.141111 -0.02822,0.366888 0.05645,0.07056 0.112889,0.155222 -0.04233,0.155222 0,0.479778 0.04233,0.112888 0.225778,0.169333 0.183444,0.04233 0.211666,0.07055 0.04233,0.112889 0.127,0.254 0,0 0.282222,0 0.09878,0.04233 0.239889,-0.04233 0.05644,-0.112889 0.155222,-0.239889 0.01411,-0.01411 0.366889,-0.127 -0.04233,-0.07055 -0.04233,-0.239888 0.02822,0 0.08467,-0.08467 0.254,-0.04233 0.719666,-0.155222 0.02822,-0.296333 0,-0.522111 0.07056,0 0.197555,-0.01411 0.141111,-0.02822 0.211667,-0.02822 0.127,-0.508 0.437444,-0.677333 v -0.08467 q 0.07056,0 0.155222,-0.04233 0,-0.05644 0,-0.112889 0.07056,-0.01411 0.169333,-0.04233 0,-0.07055 0.04233,-0.169333 h 0.07055 q 0,0 0,-0.197556 -0.01411,0 -0.04233,0.08467 -0.254,-0.09878 -0.239889,-0.239889 0.04233,-0.05644 0.08467,-0.127 0.197555,0 0.197555,0 -0.04233,-0.141111 -0.07055,-0.564444 0.02822,-0.01411 0.07055,-0.04233 0,0 0,-0.310444 -0.01411,0 -0.04233,0.07055 -0.127,0.01411 -0.479778,0.04233 v -0.04233 q -0.01411,-0.08467 -0.04233,-0.197555 0.02822,0 0.04233,-0.01411 0.02822,-0.01411 0.04233,-0.02822 0.08467,0.05644 0.197555,0.127 0.239889,0.01411 0.239889,-0.211667 0,-0.04233 -0.02822,-0.254 -0.02822,-0.169333 0,-0.268111 0.02822,-0.02822 0.07055,-0.112888 -0.141111,-0.01411 -0.522111,-0.08467 -0.09878,-0.08467 -0.282222,-0.197555 -0.437444,-0.141111 -0.917221,0 -0.183444,0.05644 -0.239889,0.04233 -0.04233,-0.04233 -0.127,-0.08467 0.155222,-0.437444 0,-1.241776 0.02822,-0.05644 0.08467,-0.127 0.112889,-0.07056 0.310444,-0.07056 0.09878,0 0.310444,0.02822 0.225778,0.02822 0.338667,0.02822 0.112889,0 0.197555,-0.02822 0.141111,-0.07055 0.366889,-0.155222 0.366888,-0.05644 0.606777,0.04233 0.04233,0.05644 0.112889,0.112888 0.183444,-0.01411 0.522111,0.04233 0.112888,0.05644 0.253999,0.296333 0.09878,0.169333 0.197556,0.352777 0.04233,0.05645 0.155222,0.197556 0,0.141111 -0.04233,0.08467 0.01411,0.07056 -0.04233,0.04233 0,0.01411 -0.04233,0.112888 -0.02822,0.08467 -0.02822,0.127 0,0.01411 0.112889,0.239889 -0.02822,0.141111 -0.04233,0.395111 l 0.04233,0.08467 0.08467,0.127 q -0.02822,0.296333 0.04233,0.635 -0.01411,0.112889 -0.04233,0.282222 -0.112889,0.507999 -0.08467,0.606777 0.05644,0.05644 0.126999,0.155222 -0.04233,0.211667 -0.08467,0.564444 0.02822,0.352778 0.169333,0.606777 0.04233,0.02822 0.112889,0.07056 0,0.05644 0,0.127 -0.09878,0.07055 -0.197556,0.197555 -0.04233,0.211667 0.08467,0.239889 l -0.127,0.282222 q 0.07056,0.112889 0.395111,0.409222 -0.02822,0.155222 -0.02822,0.155222 0.268111,0.02822 0.691444,0.141111 0.423333,0.112889 0.493888,0.211666 0.08467,0.08467 0.141111,0.2963333 0.07056,0.211666 0.155222,0.282222 0.01411,0.01411 -0.08467,0.112888 0,0.112889 -0.07056,0.282222 -0.09878,0.08467 -0.366888,0.127 -0.197556,0.04233 -0.409222,0.07056 -0.493889,0.127 -1.396999,0.127 -0.338667,0 -0.451555,-0.04233 -0.05645,-0.09878 -0.197556,-0.239888 -0.169333,-0.02822 -0.522111,-0.155222 -0.08467,-0.141111 -0.324555,-0.282222 -0.08467,-0.01411 -0.310444,0.155222 -0.282222,0.239888 -0.282222,0.239888 v 0.08467 q -0.169333,-0.01411 -0.493889,0.04233 -0.08467,0.08467 -0.239888,0.197556 -0.08467,-0.04233 -0.239889,-0.08467 -0.225778,0.09878 -0.592666,0.211667 -0.211667,0.01411 -0.381,-0.07056 -0.169333,-0.07055 -0.310444,-0.141111 -0.112889,0 -0.324555,-0.07055 -0.01411,-0.07056 -0.07056,-0.169334 -0.08467,-0.01411 -0.239889,-0.08467 -0.07055,-0.112889 -0.282222,-0.268111 -0.127,0.01411 -0.366888,0 -0.155222,-0.05644 -0.183445,-0.352778 -0.02822,-0.2539983 -0.05644,-0.4938873 -0.05644,-0.05644 -0.127,-0.127 -0.197555,-0.451555 -0.197555,-0.733777 0,-0.141111 0.04233,-0.268111 l 0.08467,-0.04233 q 0.05644,-0.127 0.112888,-0.366889 -0.04233,-0.635 -0.08467,-0.635 v -0.08467 q 0,-0.07056 0.05644,-0.141111 0.07056,-0.08467 0.07056,-0.09878 -0.02822,-0.09878 -0.04233,-0.366888 0.112889,-0.183445 0.239889,-0.437445 0.02822,-0.126999 -0.08467,-0.26811 -0.09878,-0.141111 -0.112889,-0.169334 0.01411,-0.112888 0,-0.324555 -0.07056,-0.08467 -0.155222,-0.239889 0.05644,-0.282222 0,-0.761999 h -0.08467 q -0.08467,-0.07056 -0.239889,-0.169333 -0.253999,0.04233 -0.691444,0.04233 -0.07055,-0.01411 -0.239888,-0.239889 -0.02822,-0.01411 -0.112889,-0.08467 0.08467,-0.282222 0.07056,-0.352778 -0.04233,-0.07055 -0.08467,-0.127 -0.08467,-0.112888 -0.07056,-0.239888 0.01411,-0.169334 0.155222,-0.338667 0.155223,-0.169333 0.324556,-0.183444 z"
     id="text49"
     style="font-size:14.1111px;line-height:0;font-family:Mom´sTypewriter;-inkscape-font-specification:Mom´sTypewriter;letter-spacing:-0.0185208px;word-spacing:0px;fill:#ffffff;stroke-width:0.264583"
     aria-label="Main Menu" /></svg>
